  0
SECTION
  2
HEADER
  9
$ACADVER
  1
AC1014
  9
$HANDSEED
  5
FFFF
  9
$MEASUREMENT
 70
     1
  0
ENDSEC
  0
SECTION
  2
TABLES
  0
TABLE
  2
VPORT
  5
8
330
0
100
AcDbSymbolTable
 70
     4
  0
VPORT
  5
2E
330
8
100
AcDbSymbolTableRecord
100
AcDbViewportTableRecord
  2
*ACTIVE
 70
     0
 10
0.0
 20
0.0
 11
1.0
 21
1.0
 12
210.0
 22
148.5
 13
0.0
 23
0.0
 14
10.0
 24
10.0
 15
10.0
 25
10.0
 16
0.0
 26
0.0
 36
1.0
 17
0.0
 27
0.0
 37
0.0
 40
341.0
 41
1.24
 42
50.0
 43
0.0
 44
0.0
 50
0.0
 51
0.0
 71
     0
 72
   100
 73
     1
 74
     3
 75
     0
 76
     0
 77
     0
 78
     0
  0
ENDTAB
  0
TABLE
  2
LTYPE
  5
5
330
0
100
AcDbSymbolTable
 70
     1
  0
LTYPE
  5
14
330
5
100
AcDbSymbolTableRecord
100
AcDbLinetypeTableRecord
  2
BYBLOCK
 70
     0
  3

 72
    65
 73
     0
 40
0.0
  0
LTYPE
  5
15
330
5
100
AcDbSymbolTableRecord
100
AcDbLinetypeTableRecord
  2
BYLAYER
 70
     0
  3

 72
    65
 73
     0
 40
0.0
  0
LTYPE
  5
16
330
5
100
AcDbSymbolTableRecord
100
AcDbLinetypeTableRecord
  2
CONTINUOUS
 70
     0
  3
Solid line
 72
    65
 73
     0
 40
0.0
  0
ENDTAB
  0
TABLE
  2
LAYER
  5
2
100
AcDbSymbolTable
 70
2
  0
LAYER
  5
50
100
AcDbSymbolTableRecord
100
AcDbLayerTableRecord
  2
0
 70
0
  6
CONTINUOUS
  0
LAYER
  5
51
100
AcDbSymbolTableRecord
100
AcDbLayerTableRecord
  2
Layer_1
 70
0
  6
CONTINUOUS
  0
ENDTAB
  0
TABLE
  2
STYLE
  5
3
330
0
100
AcDbSymbolTable
 70
     1
  0
STYLE
  5
11
330
3
100
AcDbSymbolTableRecord
100
AcDbTextStyleTableRecord
  2
STANDARD
 70
     0
 40
0.0
 41
1.0
 50
0.0
 71
     0
 42
2.5
  3
txt
  4

  0
ENDTAB
  0
TABLE
  2
VIEW
  5
6
330
0
100
AcDbSymbolTable
 70
     0
  0
ENDTAB
  0
TABLE
  2
UCS
  5
7
330
0
100
AcDbSymbolTable
 70
     0
  0
ENDTAB
  0
TABLE
  2
APPID
  5
9
330
0
100
AcDbSymbolTable
 70
     2
  0
APPID
  5
12
330
9
100
AcDbSymbolTableRecord
100
AcDbRegAppTableRecord
  2
ACAD
 70
     0
  0
ENDTAB
  0
TABLE
  2
DIMSTYLE
  5
A
330
0
100
AcDbSymbolTable
 70
     1
  0
DIMSTYLE
105
27
330
A
100
AcDbSymbolTableRecord
100
AcDbDimStyleTableRecord
  2
ISO-25
 70
     0
  3

  4

  5

  6

  7

 40
1.0
 41
2.5
 42
0.625
 43
3.75
 44
1.25
 45
0.0
 46
0.0
 47
0.0
 48
0.0
140
2.5
141
2.5
142
0.0
143
0.03937007874016
144
1.0
145
0.0
146
1.0
147
0.625
 71
     0
 72
     0
 73
     0
 74
     0
 75
     0
 76
     0
 77
     1
 78
     8
170
     0
171
     3
172
     1
173
     0
174
     0
175
     0
176
     0
177
     0
178
     0
270
     2
271
     2
272
     2
273
     2
274
     3
340
11
275
     0
280
     0
281
     0
282
     0
283
     0
284
     8
285
     0
286
     0
287
     3
288
     0
  0
ENDTAB
  0
TABLE
  2
BLOCK_RECORD
  5
1
330
0
100
AcDbSymbolTable
 70
     1
  0
BLOCK_RECORD
  5
1F
330
1
100
AcDbSymbolTableRecord
100
AcDbBlockTableRecord
  2
*MODEL_SPACE
  0
BLOCK_RECORD
  5
1B
330
1
100
AcDbSymbolTableRecord
100
AcDbBlockTableRecord
  2
*PAPER_SPACE
  0
ENDTAB
  0
ENDSEC
  0
SECTION
  2
BLOCKS
  0
BLOCK
  5
20
330
1F
100
AcDbEntity
  8
0
100
AcDbBlockBegin
  2
*MODEL_SPACE
 70
     0
 10
0.0
 20
0.0
 30
0.0
  3
*MODEL_SPACE
  1

  0
ENDBLK
  5
21
330
1F
100
AcDbEntity
  8
0
100
AcDbBlockEnd
  0
BLOCK
  5
1C
330
1B
100
AcDbEntity
 67
     1
  8
0
100
AcDbBlockBegin
  2
*PAPER_SPACE
  1

  0
ENDBLK
  5
1D
330
1B
100
AcDbEntity
 67
     1
  8
0
100
AcDbBlockEnd
  0
ENDSEC
  0
SECTION
  2
ENTITIES
  0
SPLINE
  5
100
100
AcDbEntity
  8
Layer_1
 62
7
100
AcDbSpline
 70
8
 71
3
 72
8
 73
4
 74
0
 40
0
 40
0
 40
0
 40
0
 40
1
 40
1
 40
1
 40
1
 10
90.802700
 20
110.294170
 30
0.0
 10
90.464330
 20
110.815790
 30
0.0
 10
86.652360
 20
116.589800
 30
0.0
 10
86.629610
 20
116.615160
 30
0.0
  0
SPLINE
  5
101
100
AcDbEntity
  8
Layer_1
 62
7
100
AcDbSpline
 70
8
 71
3
 72
8
 73
4
 74
0
 40
0
 40
0
 40
0
 40
0
 40
1
 40
1
 40
1
 40
1
 10
86.629610
 20
116.615160
 30
0.0
 10
86.607510
 20
116.639760
 30
0.0
 10
85.446560
 20
116.718770
 30
0.0
 10
82.587270
 20
116.890330
 30
0.0
  0
SPLINE
  5
102
100
AcDbEntity
  8
Layer_1
 62
7
100
AcDbSpline
 70
8
 71
3
 72
8
 73
4
 74
0
 40
0
 40
0
 40
0
 40
0
 40
1
 40
1
 40
1
 40
1
 10
82.587270
 20
116.890330
 30
0.0
 10
80.381000
 20
117.022700
 30
0.0
 10
78.536730
 20
117.131000
 30
0.0
 10
78.488900
 20
117.131000
 30
0.0
  0
LWPOLYLINE
  5
103
100
AcDbEntity
  8
Layer_1
 62
7
100
AcDbPolyline
 90
8
 70
1
 10
61.721220
 20
148.500000
 30
0.0
 10
61.721220
 20
191.778780
 30
0.0
 10
105.000000
 20
191.778780
 30
0.0
 10
148.278780
 20
191.778780
 30
0.0
 10
148.278780
 20
148.500000
 30
0.0
 10
148.278780
 20
105.221220
 30
0.0
 10
105.000000
 20
105.221220
 30
0.0
 10
61.721220
 20
105.221220
 30
0.0
  0
SPLINE
  5
104
100
AcDbEntity
  8
Layer_1
 62
7
100
AcDbSpline
 70
8
 71
3
 72
8
 73
4
 74
0
 40
0
 40
0
 40
0
 40
0
 40
1
 40
1
 40
1
 40
1
 10
78.593840
 20
116.855840
 30
0.0
 10
79.109140
 20
116.117120
 30
0.0
 10
79.649260
 20
115.200890
 30
0.0
 10
80.095310
 20
114.308780
 30
0.0
  0
LWPOLYLINE
  5
105
100
AcDbEntity
  8
Layer_1
 62
7
100
AcDbPolyline
 90
3
 70
0
 10
78.488900
 20
117.131000
 30
0.0
 10
78.401900
 20
117.131000
 30
0.0
 10
78.593840
 20
116.855840
 30
0.0
  0
SPLINE
  5
106
100
AcDbEntity
  8
Layer_1
 62
7
100
AcDbSpline
 70
8
 71
3
 72
8
 73
4
 74
0
 40
0
 40
0
 40
0
 40
0
 40
1
 40
1
 40
1
 40
1
 10
81.763150
 20
112.573110
 30
0.0
 10
82.567920
 20
111.843570
 30
0.0
 10
83.269180
 20
111.210880
 30
0.0
 10
83.321490
 20
111.167140
 30
0.0
  0
SPLINE
  5
107
100
AcDbEntity
  8
Layer_1
 62
7
100
AcDbSpline
 70
8
 71
3
 72
8
 73
4
 74
0
 40
0
 40
0
 40
0
 40
0
 40
1
 40
1
 40
1
 40
1
 10
83.321490
 20
111.167140
 30
0.0
 10
83.394890
 20
111.105740
 30
0.0
 10
83.721530
 20
110.988950
 30
0.0
 10
84.753850
 20
110.654880
 30
0.0
  0
LWPOLYLINE
  5
108
100
AcDbEntity
  8
Layer_1
 62
7
100
AcDbPolyline
 90
3
 70
0
 10
80.095310
 20
114.308780
 30
0.0
 10
80.299930
 20
113.899560
 30
0.0
 10
81.763150
 20
112.573110
 30
0.0
  0
SPLINE
  5
109
100
AcDbEntity
  8
Layer_1
 62
7
100
AcDbSpline
 70
8
 71
3
 72
8
 73
4
 74
0
 40
0
 40
0
 40
0
 40
0
 40
1
 40
1
 40
1
 40
1
 10
97.281060
 20
110.223570
 30
0.0
 10
97.280060
 20
110.269170
 30
0.0
 10
95.959500
 20
116.063200
 30
0.0
 10
95.947360
 20
116.075340
 30
0.0
  0
SPLINE
  5
10a
100
AcDbEntity
  8
Layer_1
 62
7
100
AcDbSpline
 70
8
 71
3
 72
8
 73
4
 74
0
 40
0
 40
0
 40
0
 40
0
 40
1
 40
1
 40
1
 40
1
 10
95.947360
 20
116.075340
 30
0.0
 10
95.934360
 20
116.088340
 30
0.0
 10
91.992000
 20
116.334360
 30
0.0
 10
90.057810
 20
116.442800
 30
0.0
  0
LWPOLYLINE
  5
10b
100
AcDbEntity
  8
Layer_1
 62
7
100
AcDbPolyline
 90
5
 70
0
 10
84.753850
 20
110.654880
 30
0.0
 10
86.091090
 20
110.222150
 30
0.0
 10
88.472050
 20
110.219150
 30
0.0
 10
90.853020
 20
110.216150
 30
0.0
 10
90.802700
 20
110.294170
 30
0.0
  0
SPLINE
  5
10c
100
AcDbEntity
  8
Layer_1
 62
7
100
AcDbSpline
 70
8
 71
3
 72
8
 73
4
 74
0
 40
0
 40
0
 40
0
 40
0
 40
1
 40
1
 40
1
 40
1
 10
89.761510
 20
116.377100
 30
0.0
 10
89.791710
 20
116.330200
 30
0.0
 10
90.718170
 20
114.925040
 30
0.0
 10
91.820250
 20
113.254620
 30
0.0
  0
LWPOLYLINE
  5
10d
100
AcDbEntity
  8
Layer_1
 62
7
100
AcDbPolyline
 90
3
 70
0
 10
90.057810
 20
116.442800
 30
0.0
 10
89.706510
 20
116.462500
 30
0.0
 10
89.761510
 20
116.377100
 30
0.0
  0
SPLINE
  5
10e
100
AcDbEntity
  8
Layer_1
 62
7
100
AcDbSpline
 70
8
 71
3
 72
8
 73
4
 74
0
 40
0
 40
0
 40
0
 40
0
 40
1
 40
1
 40
1
 40
1
 10
95.552640
 20
110.216980
 30
0.0
 10
96.503380
 20
110.216700
 30
0.0
 10
97.281180
 20
110.219980
 30
0.0
 10
97.281090
 20
110.223980
 30
0.0
  0
LWPOLYLINE
  5
10f
100
AcDbEntity
  8
Layer_1
 62
7
100
AcDbPolyline
 90
3
 70
0
 10
91.820250
 20
113.254620
 30
0.0
 10
93.824030
 20
110.217490
 30
0.0
 10
95.552640
 20
110.216980
 30
0.0
  0
LWPOLYLINE
  5
110
100
AcDbEntity
  8
Layer_1
 62
7
100
AcDbPolyline
 90
2
 70
0
 10
97.281090
 20
110.223980
 30
0.0
 10
97.281060
 20
110.223570
 30
0.0
  0
SPLINE
  5
111
100
AcDbEntity
  8
Layer_1
 62
7
100
AcDbSpline
 70
8
 71
3
 72
8
 73
4
 74
0
 40
0
 40
0
 40
0
 40
0
 40
1
 40
1
 40
1
 40
1
 10
103.426610
 20
111.175200
 30
0.0
 10
102.556040
 20
111.352650
 30
0.0
 10
101.717230
 20
111.732920
 30
0.0
 10
100.983950
 20
112.282540
 30
0.0
  0
SPLINE
  5
112
100
AcDbEntity
  8
Layer_1
 62
7
100
AcDbSpline
 70
8
 71
3
 72
8
 73
4
 74
0
 40
0
 40
0
 40
0
 40
0
 40
1
 40
1
 40
1
 40
1
 10
100.983950
 20
112.282540
 30
0.0
 10
100.670860
 20
112.517210
 30
0.0
 10
100.129590
 20
113.043270
 30
0.0
 10
99.898730
 20
113.337280
 30
0.0
  0
SPLINE
  5
113
100
AcDbEntity
  8
Layer_1
 62
7
100
AcDbSpline
 70
8
 71
3
 72
8
 73
4
 74
0
 40
0
 40
0
 40
0
 40
0
 40
1
 40
1
 40
1
 40
1
 10
99.898730
 20
113.337280
 30
0.0
 10
99.378870
 20
113.999340
 30
0.0
 10
98.982460
 20
114.795100
 30
0.0
 10
98.779050
 20
115.585000
 30
0.0
  0
SPLINE
  5
114
100
AcDbEntity
  8
Layer_1
 62
7
100
AcDbSpline
 70
8
 71
3
 72
8
 73
4
 74
0
 40
0
 40
0
 40
0
 40
0
 40
1
 40
1
 40
1
 40
1
 10
98.779050
 20
115.585000
 30
0.0
 10
98.719250
 20
115.817190
 30
0.0
 10
98.683950
 20
115.906050
 30
0.0
 10
98.645660
 20
115.921130
 30
0.0
  0
SPLINE
  5
115
100
AcDbEntity
  8
Layer_1
 62
7
100
AcDbSpline
 70
8
 71
3
 72
8
 73
4
 74
0
 40
0
 40
0
 40
0
 40
0
 40
1
 40
1
 40
1
 40
1
 10
98.645660
 20
115.921130
 30
0.0
 10
98.566160
 20
115.952430
 30
0.0
 10
98.551260
 20
115.949430
 30
0.0
 10
98.551260
 20
115.902030
 30
0.0
  0
SPLINE
  5
116
100
AcDbEntity
  8
Layer_1
 62
7
100
AcDbSpline
 70
8
 71
3
 72
8
 73
4
 74
0
 40
0
 40
0
 40
0
 40
0
 40
1
 40
1
 40
1
 40
1
 10
98.551260
 20
115.902030
 30
0.0
 10
98.551260
 20
115.869230
 30
0.0
 10
99.728460
 20
110.618740
 30
0.0
 10
99.811770
 20
110.279990
 30
0.0
  0
LWPOLYLINE
  5
117
100
AcDbEntity
  8
Layer_1
 62
7
100
AcDbPolyline
 90
3
 70
0
 10
103.744110
 20
110.663510
 30
0.0
 10
103.744110
 20
111.110500
 30
0.0
 10
103.426610
 20
111.175200
 30
0.0
  0
SPLINE
  5
118
100
AcDbEntity
  8
Layer_1
 62
7
100
AcDbSpline
 70
8
 71
3
 72
8
 73
4
 74
0
 40
0
 40
0
 40
0
 40
0
 40
1
 40
1
 40
1
 40
1
 10
110.178780
 20
110.227540
 30
0.0
 10
110.178780
 20
110.233540
 30
0.0
 10
110.464530
 20
111.504000
 30
0.0
 10
110.813780
 20
113.050660
 30
0.0
  0
SPLINE
  5
119
100
AcDbEntity
  8
Layer_1
 62
7
100
AcDbSpline
 70
8
 71
3
 72
8
 73
4
 74
0
 40
0
 40
0
 40
0
 40
0
 40
1
 40
1
 40
1
 40
1
 10
110.813780
 20
113.050660
 30
0.0
 10
111.163030
 20
114.597320
 30
0.0
 10
111.448780
 20
115.881410
 30
0.0
 10
111.448780
 20
115.904200
 30
0.0
  0
SPLINE
  5
11a
100
AcDbEntity
  8
Layer_1
 62
7
100
AcDbSpline
 70
8
 71
3
 72
8
 73
4
 74
0
 40
0
 40
0
 40
0
 40
0
 40
1
 40
1
 40
1
 40
1
 10
111.448780
 20
115.904200
 30
0.0
 10
111.448780
 20
115.949400
 30
0.0
 10
111.433180
 20
115.952200
 30
0.0
 10
111.354380
 20
115.921200
 30
0.0
  0
SPLINE
  5
11b
100
AcDbEntity
  8
Layer_1
 62
7
100
AcDbSpline
 70
8
 71
3
 72
8
 73
4
 74
0
 40
0
 40
0
 40
0
 40
0
 40
1
 40
1
 40
1
 40
1
 10
111.354380
 20
115.921200
 30
0.0
 10
111.316080
 20
115.906100
 30
0.0
 10
111.280780
 20
115.817260
 30
0.0
 10
111.221000
 20
115.585070
 30
0.0
  0
SPLINE
  5
11c
100
AcDbEntity
  8
Layer_1
 62
7
100
AcDbSpline
 70
8
 71
3
 72
8
 73
4
 74
0
 40
0
 40
0
 40
0
 40
0
 40
1
 40
1
 40
1
 40
1
 10
111.221000
 20
115.585070
 30
0.0
 10
110.847690
 20
114.135410
 30
0.0
 10
109.915470
 20
112.846030
 30
0.0
 10
108.640720
 20
112.016210
 30
0.0
  0
SPLINE
  5
11d
100
AcDbEntity
  8
Layer_1
 62
7
100
AcDbSpline
 70
8
 71
3
 72
8
 73
4
 74
0
 40
0
 40
0
 40
0
 40
0
 40
1
 40
1
 40
1
 40
1
 10
108.640720
 20
112.016210
 30
0.0
 10
108.063410
 20
111.640410
 30
0.0
 10
107.246210
 20
111.307710
 30
0.0
 10
106.573440
 20
111.174590
 30
0.0
  0
LWPOLYLINE
  5
11e
100
AcDbEntity
  8
Layer_1
 62
7
100
AcDbPolyline
 90
5
 70
0
 10
99.811770
 20
110.279990
 30
0.0
 10
99.827370
 20
110.216490
 30
0.0
 10
101.785760
 20
110.216490
 30
0.0
 10
103.744140
 20
110.216490
 30
0.0
 10
103.744110
 20
110.663510
 30
0.0
  0
SPLINE
  5
11f
100
AcDbEntity
  8
Layer_1
 62
7
100
AcDbSpline
 70
8
 71
3
 72
8
 73
4
 74
0
 40
0
 40
0
 40
0
 40
0
 40
1
 40
1
 40
1
 40
1
 10
108.217380
 20
110.216600
 30
0.0
 10
109.296180
 20
110.216600
 30
0.0
 10
110.178830
 20
110.221600
 30
0.0
 10
110.178830
 20
110.227600
 30
0.0
  0
LWPOLYLINE
  5
120
100
AcDbEntity
  8
Layer_1
 62
7
100
AcDbPolyline
 90
5
 70
0
 10
106.573440
 20
111.174590
 30
0.0
 10
106.255940
 20
111.111790
 30
0.0
 10
106.255940
 20
110.664200
 30
0.0
 10
106.255940
 20
110.216600
 30
0.0
 10
108.217380
 20
110.216600
 30
0.0
  0
SPLINE
  5
121
100
AcDbEntity
  8
Layer_1
 62
7
100
AcDbSpline
 70
8
 71
3
 72
8
 73
4
 74
0
 40
0
 40
0
 40
0
 40
0
 40
1
 40
1
 40
1
 40
1
 10
118.228110
 20
113.328550
 30
0.0
 10
119.843850
 20
115.777970
 30
0.0
 10
120.269350
 20
116.441320
 30
0.0
 10
120.229090
 20
116.447980
 30
0.0
  0
SPLINE
  5
122
100
AcDbEntity
  8
Layer_1
 62
7
100
AcDbSpline
 70
8
 71
3
 72
8
 73
4
 74
0
 40
0
 40
0
 40
0
 40
0
 40
1
 40
1
 40
1
 40
1
 10
120.229090
 20
116.447980
 30
0.0
 10
120.200990
 20
116.452980
 30
0.0
 10
119.201310
 20
116.398180
 30
0.0
 10
118.007640
 20
116.327080
 30
0.0
  0
SPLINE
  5
123
100
AcDbEntity
  8
Layer_1
 62
7
100
AcDbSpline
 70
8
 71
3
 72
8
 73
4
 74
0
 40
0
 40
0
 40
0
 40
0
 40
1
 40
1
 40
1
 40
1
 10
118.007640
 20
116.327080
 30
0.0
 10
114.618280
 20
116.125050
 30
0.0
 10
114.067050
 20
116.089750
 30
0.0
 10
114.050970
 20
116.073680
 30
0.0
  0
SPLINE
  5
124
100
AcDbEntity
  8
Layer_1
 62
7
100
AcDbSpline
 70
8
 71
3
 72
8
 73
4
 74
0
 40
0
 40
0
 40
0
 40
0
 40
1
 40
1
 40
1
 40
1
 10
114.050970
 20
116.073680
 30
0.0
 10
114.039970
 20
116.062580
 30
0.0
 10
112.719860
 20
110.265110
 30
0.0
 10
112.718940
 20
110.223570
 30
0.0
  0
SPLINE
  5
125
100
AcDbEntity
  8
Layer_1
 62
7
100
AcDbSpline
 70
8
 71
3
 72
8
 73
4
 74
0
 40
0
 40
0
 40
0
 40
0
 40
1
 40
1
 40
1
 40
1
 10
112.718940
 20
110.223570
 30
0.0
 10
112.718940
 20
110.219570
 30
0.0
 10
113.496650
 20
110.216570
 30
0.0
 10
114.447390
 20
110.216570
 30
0.0
  0
LWPOLYLINE
  5
126
100
AcDbEntity
  8
Layer_1
 62
7
100
AcDbPolyline
 90
1
 70
1
 10
110.178830
 20
110.227600
 30
0.0
  0
SPLINE
  5
127
100
AcDbEntity
  8
Layer_1
 62
7
100
AcDbSpline
 70
8
 71
3
 72
8
 73
4
 74
0
 40
0
 40
0
 40
0
 40
0
 40
1
 40
1
 40
1
 40
1
 10
125.205750
 20
110.642860
 30
0.0
 10
125.936040
 20
110.877350
 30
0.0
 10
126.555770
 20
111.080990
 30
0.0
 10
126.582920
 20
111.095390
 30
0.0
  0
SPLINE
  5
128
100
AcDbEntity
  8
Layer_1
 62
7
100
AcDbSpline
 70
8
 71
3
 72
8
 73
4
 74
0
 40
0
 40
0
 40
0
 40
0
 40
1
 40
1
 40
1
 40
1
 10
126.582920
 20
111.095390
 30
0.0
 10
126.610020
 20
111.109790
 30
0.0
 10
127.321270
 20
111.745760
 30
0.0
 10
128.163360
 20
112.508630
 30
0.0
  0
LWPOLYLINE
  5
129
100
AcDbEntity
  8
Layer_1
 62
7
100
AcDbPolyline
 90
4
 70
0
 10
114.447390
 20
110.216570
 30
0.0
 10
116.176000
 20
110.217100
 30
0.0
 10
118.228110
 20
113.328080
 30
0.0
 10
118.228110
 20
113.328550
 30
0.0
  0
SPLINE
  5
12a
100
AcDbEntity
  8
Layer_1
 62
7
100
AcDbSpline
 70
8
 71
3
 72
8
 73
4
 74
0
 40
0
 40
0
 40
0
 40
0
 40
1
 40
1
 40
1
 40
1
 10
129.992480
 20
114.476150
 30
0.0
 10
130.479270
 20
115.424270
 30
0.0
 10
130.977510
 20
116.259690
 30
0.0
 10
131.456130
 20
116.930360
 30
0.0
  0
LWPOLYLINE
  5
12b
100
AcDbEntity
  8
Layer_1
 62
7
100
AcDbPolyline
 90
3
 70
0
 10
128.163360
 20
112.508630
 30
0.0
 10
129.694440
 20
113.895670
 30
0.0
 10
129.992480
 20
114.476150
 30
0.0
  0
SPLINE
  5
12c
100
AcDbEntity
  8
Layer_1
 62
7
100
AcDbSpline
 70
8
 71
3
 72
8
 73
4
 74
0
 40
0
 40
0
 40
0
 40
0
 40
1
 40
1
 40
1
 40
1
 10
131.270620
 20
117.119880
 30
0.0
 10
130.938120
 20
117.100880
 30
0.0
 10
130.224240
 20
117.057980
 30
0.0
 10
128.876000
 20
116.976020
 30
0.0
  0
SPLINE
  5
12d
100
AcDbEntity
  8
Layer_1
 62
7
100
AcDbSpline
 70
8
 71
3
 72
8
 73
4
 74
0
 40
0
 40
0
 40
0
 40
0
 40
1
 40
1
 40
1
 40
1
 10
128.876000
 20
116.976020
 30
0.0
 10
128.487940
 20
116.952420
 30
0.0
 10
127.097290
 20
116.869080
 30
0.0
 10
125.785670
 20
116.790810
 30
0.0
  0
SPLINE
  5
12e
100
AcDbEntity
  8
Layer_1
 62
7
100
AcDbSpline
 70
8
 71
3
 72
8
 73
4
 74
0
 40
0
 40
0
 40
0
 40
0
 40
1
 40
1
 40
1
 40
1
 10
125.785670
 20
116.790810
 30
0.0
 10
124.125040
 20
116.691710
 30
0.0
 10
123.391580
 20
116.638180
 30
0.0
 10
123.370220
 20
116.614560
 30
0.0
  0
SPLINE
  5
12f
100
AcDbEntity
  8
Layer_1
 62
7
100
AcDbSpline
 70
8
 71
3
 72
8
 73
4
 74
0
 40
0
 40
0
 40
0
 40
0
 40
1
 40
1
 40
1
 40
1
 10
123.370220
 20
116.614560
 30
0.0
 10
123.347420
 20
116.589360
 30
0.0
 10
119.503210
 20
110.766910
 30
0.0
 10
119.197190
 20
110.294130
 30
0.0
  0
LWPOLYLINE
  5
130
100
AcDbEntity
  8
Layer_1
 62
7
100
AcDbPolyline
 90
3
 70
0
 10
131.456130
 20
116.930360
 30
0.0
 10
131.605020
 20
117.138980
 30
0.0
 10
131.270620
 20
117.119880
 30
0.0
  0
SPLINE
  5
131
100
AcDbEntity
  8
Layer_1
 62
7
100
AcDbSpline
 70
8
 71
3
 72
8
 73
4
 74
0
 40
0
 40
0
 40
0
 40
0
 40
1
 40
1
 40
1
 40
1
 10
71.951780
 20
110.854190
 30
0.0
 10
73.509920
 20
111.105180
 30
0.0
 10
74.783440
 20
112.281570
 30
0.0
 10
75.168820
 20
113.825910
 30
0.0
  0
SPLINE
  5
132
100
AcDbEntity
  8
Layer_1
 62
7
100
AcDbSpline
 70
8
 71
3
 72
8
 73
4
 74
0
 40
0
 40
0
 40
0
 40
0
 40
1
 40
1
 40
1
 40
1
 10
75.168820
 20
113.825910
 30
0.0
 10
75.445570
 20
114.934950
 30
0.0
 10
75.243920
 20
116.066440
 30
0.0
 10
74.594870
 20
117.046300
 30
0.0
  0
SPLINE
  5
133
100
AcDbEntity
  8
Layer_1
 62
7
100
AcDbSpline
 70
8
 71
3
 72
8
 73
4
 74
0
 40
0
 40
0
 40
0
 40
0
 40
1
 40
1
 40
1
 40
1
 10
74.594870
 20
117.046300
 30
0.0
 10
74.387720
 20
117.359030
 30
0.0
 10
73.859110
 20
117.887650
 30
0.0
 10
73.546330
 20
118.094860
 30
0.0
  0
SPLINE
  5
134
100
AcDbEntity
  8
Layer_1
 62
7
100
AcDbSpline
 70
8
 71
3
 72
8
 73
4
 74
0
 40
0
 40
0
 40
0
 40
0
 40
1
 40
1
 40
1
 40
1
 10
73.546330
 20
118.094860
 30
0.0
 10
72.415490
 20
118.844000
 30
0.0
 10
71.070600
 20
118.995950
 30
0.0
 10
69.838510
 20
118.513770
 30
0.0
  0
SPLINE
  5
135
100
AcDbEntity
  8
Layer_1
 62
7
100
AcDbSpline
 70
8
 71
3
 72
8
 73
4
 74
0
 40
0
 40
0
 40
0
 40
0
 40
1
 40
1
 40
1
 40
1
 10
69.838510
 20
118.513770
 30
0.0
 10
68.692070
 20
118.065100
 30
0.0
 10
67.824870
 20
117.124820
 30
0.0
 10
67.466240
 20
115.941580
 30
0.0
  0
SPLINE
  5
136
100
AcDbEntity
  8
Layer_1
 62
7
100
AcDbSpline
 70
8
 71
3
 72
8
 73
4
 74
0
 40
0
 40
0
 40
0
 40
0
 40
1
 40
1
 40
1
 40
1
 10
67.466240
 20
115.941580
 30
0.0
 10
67.349440
 20
115.556200
 30
0.0
 10
67.309290
 20
115.264780
 30
0.0
 10
67.309350
 20
114.802630
 30
0.0
  0
SPLINE
  5
137
100
AcDbEntity
  8
Layer_1
 62
7
100
AcDbSpline
 70
8
 71
3
 72
8
 73
4
 74
0
 40
0
 40
0
 40
0
 40
0
 40
1
 40
1
 40
1
 40
1
 10
67.309350
 20
114.802630
 30
0.0
 10
67.309430
 20
114.109860
 30
0.0
 10
67.421430
 20
113.622800
 30
0.0
 10
67.718180
 20
113.024630
 30
0.0
  0
SPLINE
  5
138
100
AcDbEntity
  8
Layer_1
 62
7
100
AcDbSpline
 70
8
 71
3
 72
8
 73
4
 74
0
 40
0
 40
0
 40
0
 40
0
 40
1
 40
1
 40
1
 40
1
 10
67.718180
 20
113.024630
 30
0.0
 10
68.121030
 20
112.212600
 30
0.0
 10
68.739360
 20
111.598640
 30
0.0
 10
69.552890
 20
111.202890
 30
0.0
  0
SPLINE
  5
139
100
AcDbEntity
  8
Layer_1
 62
7
100
AcDbSpline
 70
8
 71
3
 72
8
 73
4
 74
0
 40
0
 40
0
 40
0
 40
0
 40
1
 40
1
 40
1
 40
1
 10
69.552890
 20
111.202890
 30
0.0
 10
70.304350
 20
110.837330
 30
0.0
 10
71.115300
 20
110.719450
 30
0.0
 10
71.951780
 20
110.854190
 30
0.0
  0
LWPOLYLINE
  5
13a
100
AcDbEntity
  8
Layer_1
 62
7
100
AcDbPolyline
 90
5
 70
0
 10
119.197190
 20
110.294130
 30
0.0
 10
119.146990
 20
110.216530
 30
0.0
 10
121.512490
 20
110.216530
 30
0.0
 10
123.877990
 20
110.216530
 30
0.0
 10
125.205750
 20
110.642860
 30
0.0
  0
SPLINE
  5
13b
100
AcDbEntity
  8
Layer_1
 62
7
100
AcDbSpline
 70
8
 71
3
 72
8
 73
4
 74
0
 40
0
 40
0
 40
0
 40
0
 40
1
 40
1
 40
1
 40
1
 10
139.360560
 20
110.852190
 30
0.0
 10
139.736540
 20
110.913190
 30
0.0
 10
140.079660
 20
111.023790
 30
0.0
 10
140.447110
 20
111.202390
 30
0.0
  0
SPLINE
  5
13c
100
AcDbEntity
  8
Layer_1
 62
7
100
AcDbSpline
 70
8
 71
3
 72
8
 73
4
 74
0
 40
0
 40
0
 40
0
 40
0
 40
1
 40
1
 40
1
 40
1
 10
140.447110
 20
111.202390
 30
0.0
 10
141.260890
 20
111.597920
 30
0.0
 10
141.878790
 20
112.211480
 30
0.0
 10
142.281880
 20
113.024250
 30
0.0
  0
SPLINE
  5
13d
100
AcDbEntity
  8
Layer_1
 62
7
100
AcDbSpline
 70
8
 71
3
 72
8
 73
4
 74
0
 40
0
 40
0
 40
0
 40
0
 40
1
 40
1
 40
1
 40
1
 10
142.281880
 20
113.024250
 30
0.0
 10
142.578590
 20
113.622550
 30
0.0
 10
142.690560
 20
114.109570
 30
0.0
 10
142.690650
 20
114.802250
 30
0.0
  0
SPLINE
  5
13e
100
AcDbEntity
  8
Layer_1
 62
7
100
AcDbSpline
 70
8
 71
3
 72
8
 73
4
 74
0
 40
0
 40
0
 40
0
 40
0
 40
1
 40
1
 40
1
 40
1
 10
142.690650
 20
114.802250
 30
0.0
 10
142.690650
 20
115.052080
 30
0.0
 10
142.673450
 20
115.323660
 30
0.0
 10
142.648550
 20
115.464890
 30
0.0
  0
SPLINE
  5
13f
100
AcDbEntity
  8
Layer_1
 62
7
100
AcDbSpline
 70
8
 71
3
 72
8
 73
4
 74
0
 40
0
 40
0
 40
0
 40
0
 40
1
 40
1
 40
1
 40
1
 10
142.648550
 20
115.464890
 30
0.0
 10
142.257540
 20
117.686760
 30
0.0
 10
140.114800
 20
119.158060
 30
0.0
 10
137.921060
 20
118.711000
 30
0.0
  0
SPLINE
  5
140
100
AcDbEntity
  8
Layer_1
 62
7
100
AcDbSpline
 70
8
 71
3
 72
8
 73
4
 74
0
 40
0
 40
0
 40
0
 40
0
 40
1
 40
1
 40
1
 40
1
 10
137.921060
 20
118.711000
 30
0.0
 10
137.130960
 20
118.549990
 30
0.0
 10
136.472380
 20
118.193300
 30
0.0
 10
135.888860
 20
117.610360
 30
0.0
  0
SPLINE
  5
141
100
AcDbEntity
  8
Layer_1
 62
7
100
AcDbSpline
 70
8
 71
3
 72
8
 73
4
 74
0
 40
0
 40
0
 40
0
 40
0
 40
1
 40
1
 40
1
 40
1
 10
135.888860
 20
117.610360
 30
0.0
 10
135.547560
 20
117.269390
 30
0.0
 10
135.328040
 20
116.970030
 30
0.0
 10
135.133500
 20
116.580250
 30
0.0
  0
SPLINE
  5
142
100
AcDbEntity
  8
Layer_1
 62
7
100
AcDbSpline
 70
8
 71
3
 72
8
 73
4
 74
0
 40
0
 40
0
 40
0
 40
0
 40
1
 40
1
 40
1
 40
1
 10
135.133500
 20
116.580250
 30
0.0
 10
134.234210
 20
114.778420
 30
0.0
 10
134.810790
 20
112.595150
 30
0.0
 10
136.482060
 20
111.473850
 30
0.0
  0
SPLINE
  5
143
100
AcDbEntity
  8
Layer_1
 62
7
100
AcDbSpline
 70
8
 71
3
 72
8
 73
4
 74
0
 40
0
 40
0
 40
0
 40
0
 40
1
 40
1
 40
1
 40
1
 10
136.482060
 20
111.473850
 30
0.0
 10
137.319020
 20
110.912310
 30
0.0
 10
138.353820
 20
110.688820
 30
0.0
 10
139.360520
 20
110.852190
 30
0.0
  0
LWPOLYLINE
  5
144
100
AcDbEntity
  8
Layer_1
 62
7
100
AcDbPolyline
 90
1
 70
1
 10
71.951780
 20
110.854190
 30
0.0
  0
SPLINE
  5
145
100
AcDbEntity
  8
Layer_1
 62
7
100
AcDbSpline
 70
8
 71
3
 72
8
 73
4
 74
0
 40
0
 40
0
 40
0
 40
0
 40
1
 40
1
 40
1
 40
1
 10
98.737020
 20
118.478180
 30
0.0
 10
99.117660
 20
120.162390
 30
0.0
 10
100.268810
 20
121.652020
 30
0.0
 10
101.825060
 20
122.474240
 30
0.0
  0
SPLINE
  5
146
100
AcDbEntity
  8
Layer_1
 62
7
100
AcDbSpline
 70
8
 71
3
 72
8
 73
4
 74
0
 40
0
 40
0
 40
0
 40
0
 40
1
 40
1
 40
1
 40
1
 10
101.825060
 20
122.474240
 30
0.0
 10
102.337740
 20
122.745110
 30
0.0
 10
103.080060
 20
123.001810
 30
0.0
 10
103.553610
 20
123.072000
 30
0.0
  0
LWPOLYLINE
  5
147
100
AcDbEntity
  8
Layer_1
 62
7
100
AcDbPolyline
 90
1
 70
1
 10
139.360520
 20
110.852190
 30
0.0
  0
SPLINE
  5
148
100
AcDbEntity
  8
Layer_1
 62
7
100
AcDbSpline
 70
8
 71
3
 72
8
 73
4
 74
0
 40
0
 40
0
 40
0
 40
0
 40
1
 40
1
 40
1
 40
1
 10
103.687670
 20
125.694650
 30
0.0
 10
103.687670
 20
127.126170
 30
0.0
 10
103.679670
 20
128.678820
 30
0.0
 10
103.669070
 20
129.144990
 30
0.0
  0
LWPOLYLINE
  5
149
100
AcDbEntity
  8
Layer_1
 62
7
100
AcDbPolyline
 90
3
 70
0
 10
103.553610
 20
123.072000
 30
0.0
 10
103.687670
 20
123.091900
 30
0.0
 10
103.687670
 20
125.694650
 30
0.0
  0
SPLINE
  5
14a
100
AcDbEntity
  8
Layer_1
 62
7
100
AcDbSpline
 70
8
 71
3
 72
8
 73
4
 74
0
 40
0
 40
0
 40
0
 40
0
 40
1
 40
1
 40
1
 40
1
 10
103.492670
 20
130.069460
 30
0.0
 10
103.202290
 20
130.210970
 30
0.0
 10
102.857340
 20
130.460770
 30
0.0
 10
102.604390
 20
130.712700
 30
0.0
  0
LWPOLYLINE
  5
14b
100
AcDbEntity
  8
Layer_1
 62
7
100
AcDbPolyline
 90
3
 70
0
 10
103.669070
 20
129.144990
 30
0.0
 10
103.650470
 20
129.992560
 30
0.0
 10
103.492670
 20
130.069460
 30
0.0
  0
SPLINE
  5
14c
100
AcDbEntity
  8
Layer_1
 62
7
100
AcDbSpline
 70
8
 71
3
 72
8
 73
4
 74
0
 40
0
 40
0
 40
0
 40
0
 40
1
 40
1
 40
1
 40
1
 10
98.995920
 20
129.918340
 30
0.0
 10
97.149140
 20
129.344110
 30
0.0
 10
95.633350
 20
128.869490
 30
0.0
 10
95.627480
 20
128.863620
 30
0.0
  0
SPLINE
  5
14d
100
AcDbEntity
  8
Layer_1
 62
7
100
AcDbSpline
 70
8
 71
3
 72
8
 73
4
 74
0
 40
0
 40
0
 40
0
 40
0
 40
1
 40
1
 40
1
 40
1
 10
95.627480
 20
128.863620
 30
0.0
 10
95.616480
 20
128.852620
 30
0.0
 10
97.953180
 20
118.481190
 30
0.0
 10
97.970600
 20
118.463770
 30
0.0
  0
SPLINE
  5
14e
100
AcDbEntity
  8
Layer_1
 62
7
100
AcDbSpline
 70
8
 71
3
 72
8
 73
4
 74
0
 40
0
 40
0
 40
0
 40
0
 40
1
 40
1
 40
1
 40
1
 10
97.970600
 20
118.463770
 30
0.0
 10
97.975600
 20
118.458770
 30
0.0
 10
98.131040
 20
118.443870
 30
0.0
 10
98.315170
 20
118.431370
 30
0.0
  0
SPLINE
  5
14f
100
AcDbEntity
  8
Layer_1
 62
7
100
AcDbSpline
 70
8
 71
3
 72
8
 73
4
 74
0
 40
0
 40
0
 40
0
 40
0
 40
1
 40
1
 40
1
 40
1
 10
98.315170
 20
118.431370
 30
0.0
 10
98.499310
 20
118.418970
 30
0.0
 10
98.665600
 20
118.406870
 30
0.0
 10
98.684710
 20
118.404670
 30
0.0
  0
SPLINE
  5
150
100
AcDbEntity
  8
Layer_1
 62
7
100
AcDbSpline
 70
8
 71
3
 72
8
 73
4
 74
0
 40
0
 40
0
 40
0
 40
0
 40
1
 40
1
 40
1
 40
1
 10
98.684710
 20
118.404670
 30
0.0
 10
98.703810
 20
118.402670
 30
0.0
 10
98.727310
 20
118.435470
 30
0.0
 10
98.737010
 20
118.478170
 30
0.0
  0
LWPOLYLINE
  5
151
100
AcDbEntity
  8
Layer_1
 62
7
100
AcDbPolyline
 90
3
 70
0
 10
102.604390
 20
130.712700
 30
0.0
 10
102.353700
 20
130.962390
 30
0.0
 10
98.995920
 20
129.918340
 30
0.0
  0
SPLINE
  5
152
100
AcDbEntity
  8
Layer_1
 62
7
100
AcDbSpline
 70
8
 71
3
 72
8
 73
4
 74
0
 40
0
 40
0
 40
0
 40
0
 40
1
 40
1
 40
1
 40
1
 10
111.820970
 20
118.444780
 30
0.0
 10
112.037040
 20
118.461380
 30
0.0
 10
112.038030
 20
118.461880
 30
0.0
 10
112.057250
 20
118.550960
 30
0.0
  0
SPLINE
  5
153
100
AcDbEntity
  8
Layer_1
 62
7
100
AcDbSpline
 70
8
 71
3
 72
8
 73
4
 74
0
 40
0
 40
0
 40
0
 40
0
 40
1
 40
1
 40
1
 40
1
 10
112.057250
 20
118.550960
 30
0.0
 10
112.067850
 20
118.600160
 30
0.0
 10
112.595410
 20
120.938570
 30
0.0
 10
113.229560
 20
123.747400
 30
0.0
  0
SPLINE
  5
154
100
AcDbEntity
  8
Layer_1
 62
7
100
AcDbSpline
 70
8
 71
3
 72
8
 73
4
 74
0
 40
0
 40
0
 40
0
 40
0
 40
1
 40
1
 40
1
 40
1
 10
113.229560
 20
123.747400
 30
0.0
 10
113.863720
 20
126.556240
 30
0.0
 10
114.371220
 20
128.861380
 30
0.0
 10
114.357350
 20
128.869960
 30
0.0
  0
SPLINE
  5
155
100
AcDbEntity
  8
Layer_1
 62
7
100
AcDbSpline
 70
8
 71
3
 72
8
 73
4
 74
0
 40
0
 40
0
 40
0
 40
0
 40
1
 40
1
 40
1
 40
1
 10
114.357350
 20
128.869960
 30
0.0
 10
114.343450
 20
128.878960
 30
0.0
 10
112.828120
 20
129.353150
 30
0.0
 10
110.989900
 20
129.924660
 30
0.0
  0
LWPOLYLINE
  5
156
100
AcDbEntity
  8
Layer_1
 62
7
100
AcDbPolyline
 90
1
 70
1
 10
98.737010
 20
118.478170
 30
0.0
  0
SPLINE
  5
157
100
AcDbEntity
  8
Layer_1
 62
7
100
AcDbSpline
 70
8
 71
3
 72
8
 73
4
 74
0
 40
0
 40
0
 40
0
 40
0
 40
1
 40
1
 40
1
 40
1
 10
107.396290
 20
130.713390
 30
0.0
 10
107.142610
 20
130.460750
 30
0.0
 10
106.757820
 20
130.182620
 30
0.0
 10
106.493210
 20
130.060660
 30
0.0
  0
LWPOLYLINE
  5
158
100
AcDbEntity
  8
Layer_1
 62
7
100
AcDbPolyline
 90
3
 70
0
 10
110.989900
 20
129.924660
 30
0.0
 10
107.647680
 20
130.963770
 30
0.0
 10
107.396290
 20
130.713390
 30
0.0
  0
SPLINE
  5
159
100
AcDbEntity
  8
Layer_1
 62
7
100
AcDbSpline
 70
8
 71
3
 72
8
 73
4
 74
0
 40
0
 40
0
 40
0
 40
0
 40
1
 40
1
 40
1
 40
1
 10
106.330930
 20
129.171680
 30
0.0
 10
106.320730
 20
128.719160
 30
0.0
 10
106.312330
 20
127.167620
 30
0.0
 10
106.312330
 20
125.723830
 30
0.0
  0
LWPOLYLINE
  5
15a
100
AcDbEntity
  8
Layer_1
 62
7
100
AcDbPolyline
 90
3
 70
0
 10
106.493210
 20
130.060660
 30
0.0
 10
106.349530
 20
129.994460
 30
0.0
 10
106.330930
 20
129.171680
 30
0.0
  0
SPLINE
  5
15b
100
AcDbEntity
  8
Layer_1
 62
7
100
AcDbSpline
 70
8
 71
3
 72
8
 73
4
 74
0
 40
0
 40
0
 40
0
 40
0
 40
1
 40
1
 40
1
 40
1
 10
106.626760
 20
123.034460
 30
0.0
 10
107.513750
 20
122.853170
 30
0.0
 10
108.459450
 20
122.400300
 30
0.0
 10
109.185020
 20
121.809360
 30
0.0
  0
SPLINE
  5
15c
100
AcDbEntity
  8
Layer_1
 62
7
100
AcDbSpline
 70
8
 71
3
 72
8
 73
4
 74
0
 40
0
 40
0
 40
0
 40
0
 40
1
 40
1
 40
1
 40
1
 10
109.185020
 20
121.809360
 30
0.0
 10
110.207730
 20
120.976420
 30
0.0
 10
110.977370
 20
119.742700
 30
0.0
 10
111.262860
 20
118.478620
 30
0.0
  0
SPLINE
  5
15d
100
AcDbEntity
  8
Layer_1
 62
7
100
AcDbSpline
 70
8
 71
3
 72
8
 73
4
 74
0
 40
0
 40
0
 40
0
 40
0
 40
1
 40
1
 40
1
 40
1
 10
111.262860
 20
118.478620
 30
0.0
 10
111.279860
 20
118.403520
 30
0.0
 10
111.284560
 20
118.401820
 30
0.0
 10
111.442140
 20
118.414720
 30
0.0
  0
SPLINE
  5
15e
100
AcDbEntity
  8
Layer_1
 62
7
100
AcDbSpline
 70
8
 71
3
 72
8
 73
4
 74
0
 40
0
 40
0
 40
0
 40
0
 40
1
 40
1
 40
1
 40
1
 10
111.442140
 20
118.414720
 30
0.0
 10
111.531140
 20
118.421720
 30
0.0
 10
111.701640
 20
118.435520
 30
0.0
 10
111.820970
 20
118.444720
 30
0.0
  0
LWPOLYLINE
  5
15f
100
AcDbEntity
  8
Layer_1
 62
7
100
AcDbPolyline
 90
3
 70
0
 10
106.312330
 20
125.723830
 30
0.0
 10
106.312330
 20
123.098760
 30
0.0
 10
106.626760
 20
123.034460
 30
0.0
  0
SPLINE
  5
160
100
AcDbEntity
  8
Layer_1
 62
7
100
AcDbSpline
 70
8
 71
3
 72
8
 73
4
 74
0
 40
0
 40
0
 40
0
 40
0
 40
1
 40
1
 40
1
 40
1
 10
95.376150
 20
118.661610
 30
0.0
 10
95.368150
 20
118.696510
 30
0.0
 10
94.892090
 20
120.802420
 30
0.0
 10
94.319110
 20
123.341350
 30
0.0
  0
SPLINE
  5
161
100
AcDbEntity
  8
Layer_1
 62
7
100
AcDbSpline
 70
8
 71
3
 72
8
 73
4
 74
0
 40
0
 40
0
 40
0
 40
0
 40
1
 40
1
 40
1
 40
1
 10
94.319110
 20
123.341350
 30
0.0
 10
93.115640
 20
128.674030
 30
0.0
 10
93.247190
 20
128.109000
 30
0.0
 10
93.209100
 20
128.109000
 30
0.0
  0
SPLINE
  5
162
100
AcDbEntity
  8
Layer_1
 62
7
100
AcDbSpline
 70
8
 71
3
 72
8
 73
4
 74
0
 40
0
 40
0
 40
0
 40
0
 40
1
 40
1
 40
1
 40
1
 10
93.209100
 20
128.109000
 30
0.0
 10
93.163700
 20
128.109000
 30
0.0
 10
83.977890
 20
125.252880
 30
0.0
 10
83.952490
 20
125.230860
 30
0.0
  0
SPLINE
  5
163
100
AcDbEntity
  8
Layer_1
 62
7
100
AcDbSpline
 70
8
 71
3
 72
8
 73
4
 74
0
 40
0
 40
0
 40
0
 40
0
 40
1
 40
1
 40
1
 40
1
 10
83.952490
 20
125.230860
 30
0.0
 10
83.934290
 20
125.215060
 30
0.0
 10
87.880130
 20
119.192840
 30
0.0
 10
87.978900
 20
119.085700
 30
0.0
  0
SPLINE
  5
164
100
AcDbEntity
  8
Layer_1
 62
7
100
AcDbSpline
 70
8
 71
3
 72
8
 73
4
 74
0
 40
0
 40
0
 40
0
 40
0
 40
1
 40
1
 40
1
 40
1
 10
87.978900
 20
119.085700
 30
0.0
 10
88.001000
 20
119.061700
 30
0.0
 10
88.445430
 20
119.025100
 30
0.0
 10
89.435690
 20
118.965740
 30
0.0
  0
SPLINE
  5
165
100
AcDbEntity
  8
Layer_1
 62
7
100
AcDbSpline
 70
8
 71
3
 72
8
 73
4
 74
0
 40
0
 40
0
 40
0
 40
0
 40
1
 40
1
 40
1
 40
1
 10
89.435690
 20
118.965740
 30
0.0
 10
90.219430
 20
118.918740
 30
0.0
 10
91.171820
 20
118.861230
 30
0.0
 10
91.552110
 20
118.837940
 30
0.0
  0
SPLINE
  5
166
100
AcDbEntity
  8
Layer_1
 62
7
100
AcDbSpline
 70
8
 71
3
 72
8
 73
4
 74
0
 40
0
 40
0
 40
0
 40
0
 40
1
 40
1
 40
1
 40
1
 10
91.552110
 20
118.837940
 30
0.0
 10
91.932400
 20
118.814640
 30
0.0
 10
92.897600
 20
118.757340
 30
0.0
 10
93.697000
 20
118.710560
 30
0.0
  0
SPLINE
  5
167
100
AcDbEntity
  8
Layer_1
 62
7
100
AcDbSpline
 70
8
 71
3
 72
8
 73
4
 74
0
 40
0
 40
0
 40
0
 40
0
 40
1
 40
1
 40
1
 40
1
 10
93.697000
 20
118.710560
 30
0.0
 10
94.991180
 20
118.634860
 30
0.0
 10
95.215890
 20
118.620260
 30
0.0
 10
95.355590
 20
118.602620
 30
0.0
  0
SPLINE
  5
168
100
AcDbEntity
  8
Layer_1
 62
7
100
AcDbSpline
 70
8
 71
3
 72
8
 73
4
 74
0
 40
0
 40
0
 40
0
 40
0
 40
1
 40
1
 40
1
 40
1
 10
95.355590
 20
118.602620
 30
0.0
 10
95.378990
 20
118.599620
 30
0.0
 10
95.386190
 20
118.620020
 30
0.0
 10
95.376190
 20
118.661620
 30
0.0
  0
LWPOLYLINE
  5
169
100
AcDbEntity
  8
Layer_1
 62
7
100
AcDbPolyline
 90
1
 70
1
 10
111.820970
 20
118.444720
 30
0.0
  0
SPLINE
  5
16a
100
AcDbEntity
  8
Layer_1
 62
7
100
AcDbSpline
 70
8
 71
3
 72
8
 73
4
 74
0
 40
0
 40
0
 40
0
 40
0
 40
1
 40
1
 40
1
 40
1
 10
116.571110
 20
118.726110
 30
0.0
 10
121.337430
 20
119.006800
 30
0.0
 10
121.987690
 20
119.049600
 30
0.0
 10
122.020020
 20
119.084780
 30
0.0
  0
SPLINE
  5
16b
100
AcDbEntity
  8
Layer_1
 62
7
100
AcDbSpline
 70
8
 71
3
 72
8
 73
4
 74
0
 40
0
 40
0
 40
0
 40
0
 40
1
 40
1
 40
1
 40
1
 10
122.020020
 20
119.084780
 30
0.0
 10
122.078920
 20
119.148880
 30
0.0
 10
126.034980
 20
125.158820
 30
0.0
 10
126.044500
 20
125.198650
 30
0.0
  0
SPLINE
  5
16c
100
AcDbEntity
  8
Layer_1
 62
7
100
AcDbSpline
 70
8
 71
3
 72
8
 73
4
 74
0
 40
0
 40
0
 40
0
 40
0
 40
1
 40
1
 40
1
 40
1
 10
126.044500
 20
125.198650
 30
0.0
 10
126.051500
 20
125.227450
 30
0.0
 10
124.846080
 20
125.613630
 30
0.0
 10
121.411220
 20
126.683290
 30
0.0
  0
SPLINE
  5
16d
100
AcDbEntity
  8
Layer_1
 62
7
100
AcDbSpline
 70
8
 71
3
 72
8
 73
4
 74
0
 40
0
 40
0
 40
0
 40
0
 40
1
 40
1
 40
1
 40
1
 10
121.411220
 20
126.683290
 30
0.0
 10
118.857820
 20
127.478450
 30
0.0
 10
116.766680
 20
128.127700
 30
0.0
 10
116.764260
 20
128.126070
 30
0.0
  0
SPLINE
  5
16e
100
AcDbEntity
  8
Layer_1
 62
7
100
AcDbSpline
 70
8
 71
3
 72
8
 73
4
 74
0
 40
0
 40
0
 40
0
 40
0
 40
1
 40
1
 40
1
 40
1
 10
116.764260
 20
128.126070
 30
0.0
 10
116.762260
 20
128.124070
 30
0.0
 10
116.281580
 20
126.002200
 30
0.0
 10
115.697030
 20
123.409990
 30
0.0
  0
SPLINE
  5
16f
100
AcDbEntity
  8
Layer_1
 62
7
100
AcDbSpline
 70
8
 71
3
 72
8
 73
4
 74
0
 40
0
 40
0
 40
0
 40
0
 40
1
 40
1
 40
1
 40
1
 10
115.697030
 20
123.409990
 30
0.0
 10
115.112490
 20
120.817780
 30
0.0
 10
114.628110
 20
118.675510
 30
0.0
 10
114.620650
 20
118.649390
 30
0.0
  0
SPLINE
  5
170
100
AcDbEntity
  8
Layer_1
 62
7
100
AcDbSpline
 70
8
 71
3
 72
8
 73
4
 74
0
 40
0
 40
0
 40
0
 40
0
 40
1
 40
1
 40
1
 40
1
 10
114.620650
 20
118.649390
 30
0.0
 10
114.608850
 20
118.608090
 30
0.0
 10
114.626650
 20
118.603590
 30
0.0
 10
114.756540
 20
118.614990
 30
0.0
  0
SPLINE
  5
171
100
AcDbEntity
  8
Layer_1
 62
7
100
AcDbSpline
 70
8
 71
3
 72
8
 73
4
 74
0
 40
0
 40
0
 40
0
 40
0
 40
1
 40
1
 40
1
 40
1
 10
114.756540
 20
118.614990
 30
0.0
 10
114.838740
 20
118.621990
 30
0.0
 10
115.655300
 20
118.672190
 30
0.0
 10
116.571110
 20
118.726120
 30
0.0
  0
LWPOLYLINE
  5
172
100
AcDbEntity
  8
Layer_1
 62
7
100
AcDbPolyline
 90
1
 70
1
 10
95.376190
 20
118.661620
 30
0.0
  0
SPLINE
  5
173
100
AcDbEntity
  8
Layer_1
 62
7
100
AcDbSpline
 70
8
 71
3
 72
8
 73
4
 74
0
 40
0
 40
0
 40
0
 40
0
 40
1
 40
1
 40
1
 40
1
 10
84.797780
 20
119.395380
 30
0.0
 10
84.745180
 20
119.476880
 30
0.0
 10
84.190340
 20
120.318240
 30
0.0
 10
83.564780
 20
121.265100
 30
0.0
  0
SPLINE
  5
174
100
AcDbEntity
  8
Layer_1
 62
7
100
AcDbSpline
 70
8
 71
3
 72
8
 73
4
 74
0
 40
0
 40
0
 40
0
 40
0
 40
1
 40
1
 40
1
 40
1
 10
83.564780
 20
121.265100
 30
0.0
 10
82.939230
 20
122.211950
 30
0.0
 10
82.208500
 20
123.318870
 30
0.0
 10
81.940940
 20
123.724910
 30
0.0
  0
LWPOLYLINE
  5
175
100
AcDbEntity
  8
Layer_1
 62
7
100
AcDbPolyline
 90
1
 70
1
 10
116.571110
 20
118.726120
 30
0.0
  0
SPLINE
  5
176
100
AcDbEntity
  8
Layer_1
 62
7
100
AcDbSpline
 70
8
 71
3
 72
8
 73
4
 74
0
 40
0
 40
0
 40
0
 40
0
 40
1
 40
1
 40
1
 40
1
 10
80.964680
 20
124.310500
 30
0.0
 10
80.695290
 20
124.226500
 30
0.0
 10
78.907360
 20
123.670450
 30
0.0
 10
76.991500
 20
123.074740
 30
0.0
  0
LWPOLYLINE
  5
177
100
AcDbEntity
  8
Layer_1
 62
7
100
AcDbPolyline
 90
3
 70
0
 10
81.940940
 20
123.724910
 30
0.0
 10
81.454470
 20
124.463160
 30
0.0
 10
80.964680
 20
124.310500
 30
0.0
  0
SPLINE
  5
178
100
AcDbEntity
  8
Layer_1
 62
7
100
AcDbSpline
 70
8
 71
3
 72
8
 73
4
 74
0
 40
0
 40
0
 40
0
 40
0
 40
1
 40
1
 40
1
 40
1
 10
73.701610
 20
121.854150
 30
0.0
 10
74.269450
 20
121.450630
 30
0.0
 10
75.203460
 20
120.681940
 30
0.0
 10
75.718970
 20
120.193860
 30
0.0
  0
SPLINE
  5
179
100
AcDbEntity
  8
Layer_1
 62
7
100
AcDbSpline
 70
8
 71
3
 72
8
 73
4
 74
0
 40
0
 40
0
 40
0
 40
0
 40
1
 40
1
 40
1
 40
1
 10
75.718970
 20
120.193860
 30
0.0
 10
75.882210
 20
120.039300
 30
0.0
 10
76.053880
 20
119.878050
 30
0.0
 10
76.100440
 20
119.835530
 30
0.0
  0
SPLINE
  5
17a
100
AcDbEntity
  8
Layer_1
 62
7
100
AcDbSpline
 70
8
 71
3
 72
8
 73
4
 74
0
 40
0
 40
0
 40
0
 40
0
 40
1
 40
1
 40
1
 40
1
 10
76.100440
 20
119.835530
 30
0.0
 10
76.184940
 20
119.758330
 30
0.0
 10
76.186440
 20
119.758130
 30
0.0
 10
76.904780
 20
119.714520
 30
0.0
  0
SPLINE
  5
17b
100
AcDbEntity
  8
Layer_1
 62
7
100
AcDbSpline
 70
8
 71
3
 72
8
 73
4
 74
0
 40
0
 40
0
 40
0
 40
0
 40
1
 40
1
 40
1
 40
1
 10
76.904780
 20
119.714520
 30
0.0
 10
78.003260
 20
119.647820
 30
0.0
 10
79.336520
 20
119.567790
 30
0.0
 10
80.954670
 20
119.471410
 30
0.0
  0
SPLINE
  5
17c
100
AcDbEntity
  8
Layer_1
 62
7
100
AcDbSpline
 70
8
 71
3
 72
8
 73
4
 74
0
 40
0
 40
0
 40
0
 40
0
 40
1
 40
1
 40
1
 40
1
 10
80.954670
 20
119.471410
 30
0.0
 10
81.761820
 20
119.423310
 30
0.0
 10
82.885770
 20
119.354840
 30
0.0
 10
83.452330
 20
119.319200
 30
0.0
  0
SPLINE
  5
17d
100
AcDbEntity
  8
Layer_1
 62
7
100
AcDbSpline
 70
8
 71
3
 72
8
 73
4
 74
0
 40
0
 40
0
 40
0
 40
0
 40
1
 40
1
 40
1
 40
1
 10
83.452330
 20
119.319200
 30
0.0
 10
84.018890
 20
119.283600
 30
0.0
 10
84.574910
 20
119.252800
 30
0.0
 10
84.687920
 20
119.250800
 30
0.0
  0
LWPOLYLINE
  5
17e
100
AcDbEntity
  8
Layer_1
 62
7
100
AcDbPolyline
 90
3
 70
0
 10
76.991500
 20
123.074740
 30
0.0
 10
73.508120
 20
121.991640
 30
0.0
 10
73.701610
 20
121.854150
 30
0.0
  0
SPLINE
  5
17f
100
AcDbEntity
  8
Layer_1
 62
7
100
AcDbSpline
 70
8
 71
3
 72
8
 73
4
 74
0
 40
0
 40
0
 40
0
 40
0
 40
1
 40
1
 40
1
 40
1
 10
127.202500
 20
119.359780
 30
0.0
 10
128.231580
 20
119.421680
 30
0.0
 10
130.139860
 20
119.536180
 30
0.0
 10
131.443110
 20
119.614200
 30
0.0
  0
LWPOLYLINE
  5
180
100
AcDbEntity
  8
Layer_1
 62
7
100
AcDbPolyline
 90
3
 70
0
 10
84.687920
 20
119.250800
 30
0.0
 10
84.893400
 20
119.246800
 30
0.0
 10
84.797780
 20
119.395380
 30
0.0
  0
SPLINE
  5
181
100
AcDbEntity
  8
Layer_1
 62
7
100
AcDbSpline
 70
8
 71
3
 72
8
 73
4
 74
0
 40
0
 40
0
 40
0
 40
0
 40
1
 40
1
 40
1
 40
1
 10
133.898470
 20
119.832550
 30
0.0
 10
133.945670
 20
119.874650
 30
0.0
 10
134.092190
 20
120.012260
 30
0.0
 10
134.224130
 20
120.138370
 30
0.0
  0
SPLINE
  5
182
100
AcDbEntity
  8
Layer_1
 62
7
100
AcDbSpline
 70
8
 71
3
 72
8
 73
4
 74
0
 40
0
 40
0
 40
0
 40
0
 40
1
 40
1
 40
1
 40
1
 10
134.224130
 20
120.138370
 30
0.0
 10
134.727590
 20
120.619550
 30
0.0
 10
135.530610
 20
121.290190
 30
0.0
 10
136.097890
 20
121.703210
 30
0.0
  0
SPLINE
  5
183
100
AcDbEntity
  8
Layer_1
 62
7
100
AcDbSpline
 70
8
 71
3
 72
8
 73
4
 74
0
 40
0
 40
0
 40
0
 40
0
 40
1
 40
1
 40
1
 40
1
 10
136.097890
 20
121.703210
 30
0.0
 10
136.235940
 20
121.803720
 30
0.0
 10
136.379170
 20
121.911350
 30
0.0
 10
136.416200
 20
121.942390
 30
0.0
  0
LWPOLYLINE
  5
184
100
AcDbEntity
  8
Layer_1
 62
7
100
AcDbPolyline
 90
3
 70
0
 10
131.443110
 20
119.614200
 30
0.0
 10
133.812670
 20
119.756050
 30
0.0
 10
133.898470
 20
119.832550
 30
0.0
  0
SPLINE
  5
185
100
AcDbEntity
  8
Layer_1
 62
7
100
AcDbSpline
 70
8
 71
3
 72
8
 73
4
 74
0
 40
0
 40
0
 40
0
 40
0
 40
1
 40
1
 40
1
 40
1
 10
132.538630
 20
123.222910
 30
0.0
 10
130.368960
 20
123.896180
 30
0.0
 10
128.582460
 20
124.448630
 30
0.0
 10
128.568650
 20
124.450580
 30
0.0
  0
SPLINE
  5
186
100
AcDbEntity
  8
Layer_1
 62
7
100
AcDbSpline
 70
8
 71
3
 72
8
 73
4
 74
0
 40
0
 40
0
 40
0
 40
0
 40
1
 40
1
 40
1
 40
1
 10
128.568650
 20
124.450580
 30
0.0
 10
128.548950
 20
124.453580
 30
0.0
 10
125.548550
 20
119.947480
 30
0.0
 10
125.193010
 20
119.381170
 30
0.0
  0
LWPOLYLINE
  5
187
100
AcDbEntity
  8
Layer_1
 62
7
100
AcDbPolyline
 90
3
 70
0
 10
136.416200
 20
121.942390
 30
0.0
 10
136.483500
 20
121.998790
 30
0.0
 10
132.538630
 20
123.222910
 30
0.0
  0
SPLINE
  5
188
100
AcDbEntity
  8
Layer_1
 62
7
100
AcDbSpline
 70
8
 71
3
 72
8
 73
4
 74
0
 40
0
 40
0
 40
0
 40
0
 40
1
 40
1
 40
1
 40
1
 10
125.220100
 20
119.247120
 30
0.0
 10
125.281300
 20
119.247120
 30
0.0
 10
126.173360
 20
119.297720
 30
0.0
 10
127.202450
 20
119.359680
 30
0.0
  0
LWPOLYLINE
  5
189
100
AcDbEntity
  8
Layer_1
 62
7
100
AcDbPolyline
 90
3
 70
0
 10
125.193010
 20
119.381170
 30
0.0
 10
125.108810
 20
119.247120
 30
0.0
 10
125.220100
 20
119.247120
 30
0.0
  0
SPLINE
  5
18a
100
AcDbEntity
  8
Layer_1
 62
7
100
AcDbSpline
 70
8
 71
3
 72
8
 73
4
 74
0
 40
0
 40
0
 40
0
 40
0
 40
1
 40
1
 40
1
 40
1
 10
75.262980
 20
125.133000
 30
0.0
 10
77.788040
 20
125.917660
 30
0.0
 10
79.894980
 20
126.572600
 30
0.0
 10
79.945080
 20
126.588420
 30
0.0
  0
SPLINE
  5
18b
100
AcDbEntity
  8
Layer_1
 62
7
100
AcDbSpline
 70
8
 71
3
 72
8
 73
4
 74
0
 40
0
 40
0
 40
0
 40
0
 40
1
 40
1
 40
1
 40
1
 10
79.945080
 20
126.588420
 30
0.0
 10
80.034480
 20
126.616620
 30
0.0
 10
80.035280
 20
126.618520
 30
0.0
 10
79.990280
 20
126.687220
 30
0.0
  0
SPLINE
  5
18c
100
AcDbEntity
  8
Layer_1
 62
7
100
AcDbSpline
 70
8
 71
3
 72
8
 73
4
 74
0
 40
0
 40
0
 40
0
 40
0
 40
1
 40
1
 40
1
 40
1
 10
79.990280
 20
126.687220
 30
0.0
 10
79.959780
 20
126.733720
 30
0.0
 10
79.929280
 20
126.751020
 30
0.0
 10
79.899180
 20
126.738720
 30
0.0
  0
SPLINE
  5
18d
100
AcDbEntity
  8
Layer_1
 62
7
100
AcDbSpline
 70
8
 71
3
 72
8
 73
4
 74
0
 40
0
 40
0
 40
0
 40
0
 40
1
 40
1
 40
1
 40
1
 10
79.899180
 20
126.738720
 30
0.0
 10
79.753490
 20
126.679320
 30
0.0
 10
79.049490
 20
126.521690
 30
0.0
 10
78.757440
 20
126.483160
 30
0.0
  0
SPLINE
  5
18e
100
AcDbEntity
  8
Layer_1
 62
7
100
AcDbSpline
 70
8
 71
3
 72
8
 73
4
 74
0
 40
0
 40
0
 40
0
 40
0
 40
1
 40
1
 40
1
 40
1
 10
78.757440
 20
126.483160
 30
0.0
 10
78.300830
 20
126.422860
 30
0.0
 10
77.393190
 20
126.443960
 30
0.0
 10
76.955660
 20
126.524860
 30
0.0
  0
SPLINE
  5
18f
100
AcDbEntity
  8
Layer_1
 62
7
100
AcDbSpline
 70
8
 71
3
 72
8
 73
4
 74
0
 40
0
 40
0
 40
0
 40
0
 40
1
 40
1
 40
1
 40
1
 10
76.955660
 20
126.524860
 30
0.0
 10
75.607620
 20
126.774310
 30
0.0
 10
74.485890
 20
127.387320
 30
0.0
 10
73.541380
 20
128.390700
 30
0.0
  0
LWPOLYLINE
  5
190
100
AcDbEntity
  8
Layer_1
 62
7
100
AcDbPolyline
 90
2
 70
0
 10
127.202450
 20
119.359680
 30
0.0
 10
127.202500
 20
119.359780
 30
0.0
  0
SPLINE
  5
191
100
AcDbEntity
  8
Layer_1
 62
7
100
AcDbSpline
 70
8
 71
3
 72
8
 73
4
 74
0
 40
0
 40
0
 40
0
 40
0
 40
1
 40
1
 40
1
 40
1
 10
73.159560
 20
128.663590
 30
0.0
 10
72.967370
 20
128.564190
 30
0.0
 10
67.605830
 20
125.475880
 30
0.0
 10
67.571160
 20
125.444590
 30
0.0
  0
SPLINE
  5
192
100
AcDbEntity
  8
Layer_1
 62
7
100
AcDbSpline
 70
8
 71
3
 72
8
 73
4
 74
0
 40
0
 40
0
 40
0
 40
0
 40
1
 40
1
 40
1
 40
1
 10
67.571160
 20
125.444590
 30
0.0
 10
67.568160
 20
125.441590
 30
0.0
 10
67.781470
 20
125.242840
 30
0.0
 10
68.046040
 20
125.003040
 30
0.0
  0
SPLINE
  5
193
100
AcDbEntity
  8
Layer_1
 62
7
100
AcDbSpline
 70
8
 71
3
 72
8
 73
4
 74
0
 40
0
 40
0
 40
0
 40
0
 40
1
 40
1
 40
1
 40
1
 10
68.046040
 20
125.003040
 30
0.0
 10
68.342280
 20
124.734550
 30
0.0
 10
68.572330
 20
124.548720
 30
0.0
 10
68.644870
 20
124.519310
 30
0.0
  0
SPLINE
  5
194
100
AcDbEntity
  8
Layer_1
 62
7
100
AcDbSpline
 70
8
 71
3
 72
8
 73
4
 74
0
 40
0
 40
0
 40
0
 40
0
 40
1
 40
1
 40
1
 40
1
 10
68.644870
 20
124.519310
 30
0.0
 10
68.709670
 20
124.493010
 30
0.0
 10
69.004810
 20
124.376340
 30
0.0
 10
69.300760
 20
124.259950
 30
0.0
  0
SPLINE
  5
195
100
AcDbEntity
  8
Layer_1
 62
7
100
AcDbSpline
 70
8
 71
3
 72
8
 73
4
 74
0
 40
0
 40
0
 40
0
 40
0
 40
1
 40
1
 40
1
 40
1
 10
69.300760
 20
124.259950
 30
0.0
 10
69.596720
 20
124.143570
 30
0.0
 10
70.003120
 20
123.972180
 30
0.0
 10
70.203870
 20
123.879090
 30
0.0
  0
SPLINE
  5
196
100
AcDbEntity
  8
Layer_1
 62
7
100
AcDbSpline
 70
8
 71
3
 72
8
 73
4
 74
0
 40
0
 40
0
 40
0
 40
0
 40
1
 40
1
 40
1
 40
1
 10
70.203870
 20
123.879090
 30
0.0
 10
70.404630
 20
123.785990
 30
0.0
 10
70.592070
 20
123.709040
 30
0.0
 10
70.620420
 20
123.708060
 30
0.0
  0
SPLINE
  5
197
100
AcDbEntity
  8
Layer_1
 62
7
100
AcDbSpline
 70
8
 71
3
 72
8
 73
4
 74
0
 40
0
 40
0
 40
0
 40
0
 40
1
 40
1
 40
1
 40
1
 10
70.620420
 20
123.708060
 30
0.0
 10
70.648720
 20
123.707070
 30
0.0
 10
72.737920
 20
124.348280
 30
0.0
 10
75.262980
 20
125.132950
 30
0.0
  0
LWPOLYLINE
  5
198
100
AcDbEntity
  8
Layer_1
 62
7
100
AcDbPolyline
 90
3
 70
0
 10
73.541380
 20
128.390700
 30
0.0
 10
73.243560
 20
128.707090
 30
0.0
 10
73.159560
 20
128.663590
 30
0.0
  0
SPLINE
  5
199
100
AcDbEntity
  8
Layer_1
 62
7
100
AcDbSpline
 70
8
 71
3
 72
8
 73
4
 74
0
 40
0
 40
0
 40
0
 40
0
 40
1
 40
1
 40
1
 40
1
 10
139.857410
 20
123.906150
 30
0.0
 10
140.104140
 20
124.016050
 30
0.0
 10
140.515550
 20
124.188200
 30
0.0
 10
140.771670
 20
124.288700
 30
0.0
  0
SPLINE
  5
19a
100
AcDbEntity
  8
Layer_1
 62
7
100
AcDbSpline
 70
8
 71
3
 72
8
 73
4
 74
0
 40
0
 40
0
 40
0
 40
0
 40
1
 40
1
 40
1
 40
1
 10
140.771670
 20
124.288700
 30
0.0
 10
141.027780
 20
124.389190
 30
0.0
 10
141.290320
 20
124.492950
 30
0.0
 10
141.355080
 20
124.519260
 30
0.0
  0
SPLINE
  5
19b
100
AcDbEntity
  8
Layer_1
 62
7
100
AcDbSpline
 70
8
 71
3
 72
8
 73
4
 74
0
 40
0
 40
0
 40
0
 40
0
 40
1
 40
1
 40
1
 40
1
 10
141.355080
 20
124.519260
 30
0.0
 10
141.426980
 20
124.548460
 30
0.0
 10
141.660840
 20
124.736840
 30
0.0
 10
141.955390
 20
125.002730
 30
0.0
  0
LWPOLYLINE
  5
19c
100
AcDbEntity
  8
Layer_1
 62
7
100
AcDbPolyline
 90
1
 70
1
 10
75.262980
 20
125.132950
 30
0.0
  0
SPLINE
  5
19d
100
AcDbEntity
  8
Layer_1
 62
7
100
AcDbSpline
 70
8
 71
3
 72
8
 73
4
 74
0
 40
0
 40
0
 40
0
 40
0
 40
1
 40
1
 40
1
 40
1
 10
142.359760
 20
125.486860
 30
0.0
 10
142.195440
 20
125.588730
 30
0.0
 10
139.399700
 20
127.202720
 30
0.0
 10
138.110330
 20
127.940060
 30
0.0
  0
LWPOLYLINE
  5
19e
100
AcDbEntity
  8
Layer_1
 62
7
100
AcDbPolyline
 90
3
 70
0
 10
141.955390
 20
125.002730
 30
0.0
 10
142.437960
 20
125.438360
 30
0.0
 10
142.359760
 20
125.486860
 30
0.0
  0
SPLINE
  5
19f
100
AcDbEntity
  8
Layer_1
 62
7
100
AcDbSpline
 70
8
 71
3
 72
8
 73
4
 74
0
 40
0
 40
0
 40
0
 40
0
 40
1
 40
1
 40
1
 40
1
 10
136.445220
 20
128.376900
 30
0.0
 10
135.609410
 20
127.492180
 30
0.0
 10
134.650550
 20
126.920150
 30
0.0
 10
133.517810
 20
126.630490
 30
0.0
  0
SPLINE
  5
1a0
100
AcDbEntity
  8
Layer_1
 62
7
100
AcDbSpline
 70
8
 71
3
 72
8
 73
4
 74
0
 40
0
 40
0
 40
0
 40
0
 40
1
 40
1
 40
1
 40
1
 10
133.517810
 20
126.630490
 30
0.0
 10
132.936860
 20
126.481930
 30
0.0
 10
132.484830
 20
126.434120
 30
0.0
 10
131.826310
 20
126.451590
 30
0.0
  0
SPLINE
  5
1a1
100
AcDbEntity
  8
Layer_1
 62
7
100
AcDbSpline
 70
8
 71
3
 72
8
 73
4
 74
0
 40
0
 40
0
 40
0
 40
0
 40
1
 40
1
 40
1
 40
1
 10
131.826310
 20
126.451590
 30
0.0
 10
131.222170
 20
126.467590
 30
0.0
 10
130.936920
 20
126.508690
 30
0.0
 10
130.400000
 20
126.657000
 30
0.0
  0
SPLINE
  5
1a2
100
AcDbEntity
  8
Layer_1
 62
7
100
AcDbSpline
 70
8
 71
3
 72
8
 73
4
 74
0
 40
0
 40
0
 40
0
 40
0
 40
1
 40
1
 40
1
 40
1
 10
130.400000
 20
126.657000
 30
0.0
 10
130.089570
 20
126.742700
 30
0.0
 10
130.058360
 20
126.746700
 30
0.0
 10
130.025670
 20
126.704200
 30
0.0
  0
SPLINE
  5
1a3
100
AcDbEntity
  8
Layer_1
 62
7
100
AcDbSpline
 70
8
 71
3
 72
8
 73
4
 74
0
 40
0
 40
0
 40
0
 40
0
 40
1
 40
1
 40
1
 40
1
 10
130.025670
 20
126.704200
 30
0.0
 10
130.006070
 20
126.678700
 30
0.0
 10
129.993770
 20
126.646500
 30
0.0
 10
129.998470
 20
126.632600
 30
0.0
  0
SPLINE
  5
1a4
100
AcDbEntity
  8
Layer_1
 62
7
100
AcDbSpline
 70
8
 71
3
 72
8
 73
4
 74
0
 40
0
 40
0
 40
0
 40
0
 40
1
 40
1
 40
1
 40
1
 10
129.998470
 20
126.632600
 30
0.0
 10
130.007470
 20
126.604900
 30
0.0
 10
139.253080
 20
123.714960
 30
0.0
 10
139.349430
 20
123.709650
 30
0.0
  0
SPLINE
  5
1a5
100
AcDbEntity
  8
Layer_1
 62
7
100
AcDbSpline
 70
8
 71
3
 72
8
 73
4
 74
0
 40
0
 40
0
 40
0
 40
0
 40
1
 40
1
 40
1
 40
1
 10
139.349430
 20
123.709650
 30
0.0
 10
139.382130
 20
123.707650
 30
0.0
 10
139.610700
 20
123.796250
 30
0.0
 10
139.857430
 20
123.906200
 30
0.0
  0
LWPOLYLINE
  5
1a6
100
AcDbEntity
  8
Layer_1
 62
7
100
AcDbPolyline
 90
3
 70
0
 10
138.110330
 20
127.940060
 30
0.0
 10
136.761320
 20
128.711500
 30
0.0
 10
136.445220
 20
128.376900
 30
0.0
  0
SPLINE
  5
1a7
100
AcDbEntity
  8
Layer_1
 62
7
100
AcDbSpline
 70
8
 71
3
 72
8
 73
4
 74
0
 40
0
 40
0
 40
0
 40
0
 40
1
 40
1
 40
1
 40
1
 10
87.601000
 20
128.971260
 30
0.0
 10
90.387240
 20
129.836900
 30
0.0
 10
92.671830
 20
130.549220
 30
0.0
 10
92.677880
 20
130.554190
 30
0.0
  0
SPLINE
  5
1a8
100
AcDbEntity
  8
Layer_1
 62
7
100
AcDbSpline
 70
8
 71
3
 72
8
 73
4
 74
0
 40
0
 40
0
 40
0
 40
0
 40
1
 40
1
 40
1
 40
1
 10
92.677880
 20
130.554190
 30
0.0
 10
92.691880
 20
130.565690
 30
0.0
 10
91.152990
 20
137.401660
 30
0.0
 10
91.130200
 20
137.429150
 30
0.0
  0
SPLINE
  5
1a9
100
AcDbEntity
  8
Layer_1
 62
7
100
AcDbSpline
 70
8
 71
3
 72
8
 73
4
 74
0
 40
0
 40
0
 40
0
 40
0
 40
1
 40
1
 40
1
 40
1
 10
91.130200
 20
137.429150
 30
0.0
 10
91.121200
 20
137.440450
 30
0.0
 10
90.991960
 20
137.480350
 30
0.0
 10
90.843750
 20
137.517950
 30
0.0
  0
SPLINE
  5
1aa
100
AcDbEntity
  8
Layer_1
 62
7
100
AcDbSpline
 70
8
 71
3
 72
8
 73
4
 74
0
 40
0
 40
0
 40
0
 40
0
 40
1
 40
1
 40
1
 40
1
 10
90.843750
 20
137.517950
 30
0.0
 10
90.496190
 20
137.606150
 30
0.0
 10
90.202750
 20
137.729300
 30
0.0
 10
89.887350
 20
137.919440
 30
0.0
  0
SPLINE
  5
1ab
100
AcDbEntity
  8
Layer_1
 62
7
100
AcDbSpline
 70
8
 71
3
 72
8
 73
4
 74
0
 40
0
 40
0
 40
0
 40
0
 40
1
 40
1
 40
1
 40
1
 10
89.887350
 20
137.919440
 30
0.0
 10
89.748290
 20
138.003240
 30
0.0
 10
89.627760
 20
138.071860
 30
0.0
 10
89.619490
 20
138.071860
 30
0.0
  0
SPLINE
  5
1ac
100
AcDbEntity
  8
Layer_1
 62
7
100
AcDbSpline
 70
8
 71
3
 72
8
 73
4
 74
0
 40
0
 40
0
 40
0
 40
0
 40
1
 40
1
 40
1
 40
1
 10
89.619490
 20
138.071860
 30
0.0
 10
89.608090
 20
138.071860
 30
0.0
 10
83.684980
 20
134.695440
 30
0.0
 10
83.658260
 20
134.673690
 30
0.0
  0
SPLINE
  5
1ad
100
AcDbEntity
  8
Layer_1
 62
7
100
AcDbSpline
 70
8
 71
3
 72
8
 73
4
 74
0
 40
0
 40
0
 40
0
 40
0
 40
1
 40
1
 40
1
 40
1
 10
83.658260
 20
134.673690
 30
0.0
 10
83.655260
 20
134.670690
 30
0.0
 10
83.683460
 20
134.583790
 30
0.0
 10
83.721260
 20
134.479680
 30
0.0
  0
SPLINE
  5
1ae
100
AcDbEntity
  8
Layer_1
 62
7
100
AcDbSpline
 70
8
 71
3
 72
8
 73
4
 74
0
 40
0
 40
0
 40
0
 40
0
 40
1
 40
1
 40
1
 40
1
 10
83.721260
 20
134.479680
 30
0.0
 10
83.807360
 20
134.242580
 30
0.0
 10
83.916670
 20
133.817340
 30
0.0
 10
83.976840
 20
133.485750
 30
0.0
  0
SPLINE
  5
1af
100
AcDbEntity
  8
Layer_1
 62
7
100
AcDbSpline
 70
8
 71
3
 72
8
 73
4
 74
0
 40
0
 40
0
 40
0
 40
0
 40
1
 40
1
 40
1
 40
1
 10
83.976840
 20
133.485750
 30
0.0
 10
84.038440
 20
133.146140
 30
0.0
 10
84.062040
 20
132.214340
 30
0.0
 10
84.018640
 20
131.832210
 30
0.0
  0
SPLINE
  5
1b0
100
AcDbEntity
  8
Layer_1
 62
7
100
AcDbSpline
 70
8
 71
3
 72
8
 73
4
 74
0
 40
0
 40
0
 40
0
 40
0
 40
1
 40
1
 40
1
 40
1
 10
84.018640
 20
131.832210
 30
0.0
 10
83.865830
 20
130.485510
 30
0.0
 10
83.237380
 20
129.166650
 30
0.0
 10
82.311930
 20
128.250530
 30
0.0
  0
SPLINE
  5
1b1
100
AcDbEntity
  8
Layer_1
 62
7
100
AcDbSpline
 70
8
 71
3
 72
8
 73
4
 74
0
 40
0
 40
0
 40
0
 40
0
 40
1
 40
1
 40
1
 40
1
 10
82.311930
 20
128.250530
 30
0.0
 10
82.194320
 20
128.134110
 30
0.0
 10
82.098000
 20
128.026710
 30
0.0
 10
82.097870
 20
128.011860
 30
0.0
  0
SPLINE
  5
1b2
100
AcDbEntity
  8
Layer_1
 62
7
100
AcDbSpline
 70
8
 71
3
 72
8
 73
4
 74
0
 40
0
 40
0
 40
0
 40
0
 40
1
 40
1
 40
1
 40
1
 10
82.097870
 20
128.011860
 30
0.0
 10
82.097510
 20
127.970660
 30
0.0
 10
82.497300
 20
127.375200
 30
0.0
 10
82.517430
 20
127.387000
 30
0.0
  0
SPLINE
  5
1b3
100
AcDbEntity
  8
Layer_1
 62
7
100
AcDbSpline
 70
8
 71
3
 72
8
 73
4
 74
0
 40
0
 40
0
 40
0
 40
0
 40
1
 40
1
 40
1
 40
1
 10
82.517430
 20
127.387000
 30
0.0
 10
82.527430
 20
127.393000
 30
0.0
 10
84.814730
 20
128.105590
 30
0.0
 10
87.600970
 20
128.971230
 30
0.0
  0
LWPOLYLINE
  5
1b4
100
AcDbEntity
  8
Layer_1
 62
7
100
AcDbPolyline
 90
1
 70
1
 10
139.857430
 20
123.906200
 30
0.0
  0
SPLINE
  5
1b5
100
AcDbEntity
  8
Layer_1
 62
7
100
AcDbSpline
 70
8
 71
3
 72
8
 73
4
 74
0
 40
0
 40
0
 40
0
 40
0
 40
1
 40
1
 40
1
 40
1
 10
127.711830
 20
127.694990
 30
0.0
 10
127.816610
 20
127.854550
 30
0.0
 10
127.902330
 20
127.996230
 30
0.0
 10
127.902330
 20
128.009840
 30
0.0
  0
SPLINE
  5
1b6
100
AcDbEntity
  8
Layer_1
 62
7
100
AcDbSpline
 70
8
 71
3
 72
8
 73
4
 74
0
 40
0
 40
0
 40
0
 40
0
 40
1
 40
1
 40
1
 40
1
 10
127.902330
 20
128.009840
 30
0.0
 10
127.902330
 20
128.023440
 30
0.0
 10
127.794980
 20
128.143500
 30
0.0
 10
127.663770
 20
128.276620
 30
0.0
  0
SPLINE
  5
1b7
100
AcDbEntity
  8
Layer_1
 62
7
100
AcDbSpline
 70
8
 71
3
 72
8
 73
4
 74
0
 40
0
 40
0
 40
0
 40
0
 40
1
 40
1
 40
1
 40
1
 10
127.663770
 20
128.276620
 30
0.0
 10
126.757050
 20
129.196590
 30
0.0
 10
126.173010
 20
130.403010
 30
0.0
 10
125.995900
 20
131.721890
 30
0.0
  0
SPLINE
  5
1b8
100
AcDbEntity
  8
Layer_1
 62
7
100
AcDbSpline
 70
8
 71
3
 72
8
 73
4
 74
0
 40
0
 40
0
 40
0
 40
0
 40
1
 40
1
 40
1
 40
1
 10
125.995900
 20
131.721890
 30
0.0
 10
125.949100
 20
132.070270
 30
0.0
 10
125.942800
 20
132.849960
 30
0.0
 10
125.983900
 20
133.190190
 30
0.0
  0
SPLINE
  5
1b9
100
AcDbEntity
  8
Layer_1
 62
7
100
AcDbSpline
 70
8
 71
3
 72
8
 73
4
 74
0
 40
0
 40
0
 40
0
 40
0
 40
1
 40
1
 40
1
 40
1
 10
125.983900
 20
133.190190
 30
0.0
 10
126.029900
 20
133.570030
 30
0.0
 10
126.121720
 20
133.993110
 30
0.0
 10
126.234990
 20
134.346800
 30
0.0
  0
LWPOLYLINE
  5
1ba
100
AcDbEntity
  8
Layer_1
 62
7
100
AcDbPolyline
 90
1
 70
1
 10
87.600970
 20
128.971230
 30
0.0
  0
SPLINE
  5
1bb
100
AcDbEntity
  8
Layer_1
 62
7
100
AcDbSpline
 70
8
 71
3
 72
8
 73
4
 74
0
 40
0
 40
0
 40
0
 40
0
 40
1
 40
1
 40
1
 40
1
 10
123.435640
 20
136.337720
 30
0.0
 10
121.838350
 20
137.252710
 30
0.0
 10
120.496400
 20
138.018590
 30
0.0
 10
120.453540
 20
138.039680
 30
0.0
  0
SPLINE
  5
1bc
100
AcDbEntity
  8
Layer_1
 62
7
100
AcDbSpline
 70
8
 71
3
 72
8
 73
4
 74
0
 40
0
 40
0
 40
0
 40
0
 40
1
 40
1
 40
1
 40
1
 10
120.453540
 20
138.039680
 30
0.0
 10
120.379840
 20
138.075980
 30
0.0
 10
120.361740
 20
138.069680
 30
0.0
 10
120.117690
 20
137.922540
 30
0.0
  0
SPLINE
  5
1bd
100
AcDbEntity
  8
Layer_1
 62
7
100
AcDbSpline
 70
8
 71
3
 72
8
 73
4
 74
0
 40
0
 40
0
 40
0
 40
0
 40
1
 40
1
 40
1
 40
1
 10
120.117690
 20
137.922540
 30
0.0
 10
119.797370
 20
137.729440
 30
0.0
 10
119.505270
 20
137.606530
 30
0.0
 10
119.156200
 20
137.517980
 30
0.0
  0
SPLINE
  5
1be
100
AcDbEntity
  8
Layer_1
 62
7
100
AcDbSpline
 70
8
 71
3
 72
8
 73
4
 74
0
 40
0
 40
0
 40
0
 40
0
 40
1
 40
1
 40
1
 40
1
 10
119.156200
 20
137.517980
 30
0.0
 10
119.007990
 20
137.480380
 30
0.0
 10
118.879090
 20
137.440380
 30
0.0
 10
118.869750
 20
137.429180
 30
0.0
  0
SPLINE
  5
1bf
100
AcDbEntity
  8
Layer_1
 62
7
100
AcDbSpline
 70
8
 71
3
 72
8
 73
4
 74
0
 40
0
 40
0
 40
0
 40
0
 40
1
 40
1
 40
1
 40
1
 10
118.869750
 20
137.429180
 30
0.0
 10
118.847050
 20
137.401880
 30
0.0
 10
117.308000
 20
130.565650
 30
0.0
 10
117.322070
 20
130.554800
 30
0.0
  0
SPLINE
  5
1c0
100
AcDbEntity
  8
Layer_1
 62
7
100
AcDbSpline
 70
8
 71
3
 72
8
 73
4
 74
0
 40
0
 40
0
 40
0
 40
0
 40
1
 40
1
 40
1
 40
1
 10
117.322070
 20
130.554800
 30
0.0
 10
117.350770
 20
130.532700
 30
0.0
 10
127.415590
 20
127.409350
 30
0.0
 10
127.464840
 20
127.407280
 30
0.0
  0
SPLINE
  5
1c1
100
AcDbEntity
  8
Layer_1
 62
7
100
AcDbSpline
 70
8
 71
3
 72
8
 73
4
 74
0
 40
0
 40
0
 40
0
 40
0
 40
1
 40
1
 40
1
 40
1
 10
127.464840
 20
127.407280
 30
0.0
 10
127.506340
 20
127.405280
 30
0.0
 10
127.571680
 20
127.481680
 30
0.0
 10
127.711780
 20
127.695020
 30
0.0
  0
LWPOLYLINE
  5
1c2
100
AcDbEntity
  8
Layer_1
 62
7
100
AcDbPolyline
 90
3
 70
0
 10
126.234990
 20
134.346800
 30
0.0
 10
126.339810
 20
134.674100
 30
0.0
 10
123.435640
 20
136.337720
 30
0.0
  0
SPLINE
  5
1c3
100
AcDbEntity
  8
Layer_1
 62
7
100
AcDbSpline
 70
8
 71
3
 72
8
 73
4
 74
0
 40
0
 40
0
 40
0
 40
0
 40
1
 40
1
 40
1
 40
1
 10
67.882910
 20
128.508320
 30
0.0
 10
68.850390
 20
129.065430
 30
0.0
 10
71.967000
 20
130.872670
 30
0.0
 10
71.986510
 20
130.887880
 30
0.0
  0
SPLINE
  5
1c4
100
AcDbEntity
  8
Layer_1
 62
7
100
AcDbSpline
 70
8
 71
3
 72
8
 73
4
 74
0
 40
0
 40
0
 40
0
 40
0
 40
1
 40
1
 40
1
 40
1
 10
71.986510
 20
130.887880
 30
0.0
 10
71.990510
 20
130.890880
 30
0.0
 10
71.955010
 20
131.004600
 30
0.0
 10
71.908610
 20
131.141060
 30
0.0
  0
SPLINE
  5
1c5
100
AcDbEntity
  8
Layer_1
 62
7
100
AcDbSpline
 70
8
 71
3
 72
8
 73
4
 74
0
 40
0
 40
0
 40
0
 40
0
 40
1
 40
1
 40
1
 40
1
 10
71.908610
 20
131.141060
 30
0.0
 10
71.161150
 20
133.338650
 30
0.0
 10
71.717430
 20
135.763230
 30
0.0
 10
73.341940
 20
137.388310
 30
0.0
  0
SPLINE
  5
1c6
100
AcDbEntity
  8
Layer_1
 62
7
100
AcDbSpline
 70
8
 71
3
 72
8
 73
4
 74
0
 40
0
 40
0
 40
0
 40
0
 40
1
 40
1
 40
1
 40
1
 10
73.341940
 20
137.388310
 30
0.0
 10
73.616800
 20
137.663260
 30
0.0
 10
73.630060
 20
137.681900
 30
0.0
 10
73.596170
 20
137.745530
 30
0.0
  0
SPLINE
  5
1c7
100
AcDbEntity
  8
Layer_1
 62
7
100
AcDbSpline
 70
8
 71
3
 72
8
 73
4
 74
0
 40
0
 40
0
 40
0
 40
0
 40
1
 40
1
 40
1
 40
1
 10
73.596170
 20
137.745530
 30
0.0
 10
73.561370
 20
137.810930
 30
0.0
 10
73.470520
 20
137.729630
 30
0.0
 10
70.138470
 20
134.651870
 30
0.0
  0
LWPOLYLINE
  5
1c8
100
AcDbEntity
  8
Layer_1
 62
7
100
AcDbPolyline
 90
1
 70
1
 10
127.711780
 20
127.695020
 30
0.0
  0
SPLINE
  5
1c9
100
AcDbEntity
  8
Layer_1
 62
7
100
AcDbSpline
 70
8
 71
3
 72
8
 73
4
 74
0
 40
0
 40
0
 40
0
 40
0
 40
1
 40
1
 40
1
 40
1
 10
66.716520
 20
129.673250
 30
0.0
 10
66.716520
 20
128.673460
 30
0.0
 10
66.723520
 20
127.855450
 30
0.0
 10
66.732820
 20
127.855450
 30
0.0
  0
SPLINE
  5
1ca
100
AcDbEntity
  8
Layer_1
 62
7
100
AcDbSpline
 70
8
 71
3
 72
8
 73
4
 74
0
 40
0
 40
0
 40
0
 40
0
 40
1
 40
1
 40
1
 40
1
 10
66.732820
 20
127.855450
 30
0.0
 10
66.741820
 20
127.855450
 30
0.0
 10
67.259310
 20
128.149240
 30
0.0
 10
67.882880
 20
128.508320
 30
0.0
  0
LWPOLYLINE
  5
1cb
100
AcDbEntity
  8
Layer_1
 62
7
100
AcDbPolyline
 90
3
 70
0
 10
70.138470
 20
134.651870
 30
0.0
 10
66.716520
 20
131.491060
 30
0.0
 10
66.716520
 20
129.673250
 30
0.0
  0
LWPOLYLINE
  5
1cc
100
AcDbEntity
  8
Layer_1
 62
7
100
AcDbPolyline
 90
1
 70
1
 10
67.882880
 20
128.508320
 30
0.0
  0
SPLINE
  5
1cd
100
AcDbEntity
  8
Layer_1
 62
7
100
AcDbSpline
 70
8
 71
3
 72
8
 73
4
 74
0
 40
0
 40
0
 40
0
 40
0
 40
1
 40
1
 40
1
 40
1
 10
139.861500
 20
134.652400
 30
0.0
 10
136.508600
 20
137.749130
 30
0.0
 10
136.438820
 20
137.811520
 30
0.0
 10
136.403230
 20
137.744570
 30
0.0
  0
SPLINE
  5
1ce
100
AcDbEntity
  8
Layer_1
 62
7
100
AcDbSpline
 70
8
 71
3
 72
8
 73
4
 74
0
 40
0
 40
0
 40
0
 40
0
 40
1
 40
1
 40
1
 40
1
 10
136.403230
 20
137.744570
 30
0.0
 10
136.368630
 20
137.679470
 30
0.0
 10
136.379430
 20
137.663870
 30
0.0
 10
136.631130
 20
137.415450
 30
0.0
  0
SPLINE
  5
1cf
100
AcDbEntity
  8
Layer_1
 62
7
100
AcDbSpline
 70
8
 71
3
 72
8
 73
4
 74
0
 40
0
 40
0
 40
0
 40
0
 40
1
 40
1
 40
1
 40
1
 10
136.631130
 20
137.415450
 30
0.0
 10
138.250350
 20
135.817320
 30
0.0
 10
138.829300
 20
133.410280
 30
0.0
 10
138.118600
 20
131.231140
 30
0.0
  0
SPLINE
  5
1d0
100
AcDbEntity
  8
Layer_1
 62
7
100
AcDbSpline
 70
8
 71
3
 72
8
 73
4
 74
0
 40
0
 40
0
 40
0
 40
0
 40
1
 40
1
 40
1
 40
1
 10
138.118600
 20
131.231140
 30
0.0
 10
138.057800
 20
131.044590
 30
0.0
 10
138.010680
 20
130.890290
 30
0.0
 10
138.013990
 20
130.888270
 30
0.0
  0
SPLINE
  5
1d1
100
AcDbEntity
  8
Layer_1
 62
7
100
AcDbSpline
 70
8
 71
3
 72
8
 73
4
 74
0
 40
0
 40
0
 40
0
 40
0
 40
1
 40
1
 40
1
 40
1
 10
138.013990
 20
130.888270
 30
0.0
 10
138.016990
 20
130.886270
 30
0.0
 10
138.623250
 20
130.533960
 30
0.0
 10
139.360560
 20
130.105410
 30
0.0
  0
SPLINE
  5
1d2
100
AcDbEntity
  8
Layer_1
 62
7
100
AcDbSpline
 70
8
 71
3
 72
8
 73
4
 74
0
 40
0
 40
0
 40
0
 40
0
 40
1
 40
1
 40
1
 40
1
 10
139.360560
 20
130.105410
 30
0.0
 10
141.638220
 20
128.781550
 30
0.0
 10
143.240140
 20
127.858380
 30
0.0
 10
143.262280
 20
127.856880
 30
0.0
  0
SPLINE
  5
1d3
100
AcDbEntity
  8
Layer_1
 62
7
100
AcDbSpline
 70
8
 71
3
 72
8
 73
4
 74
0
 40
0
 40
0
 40
0
 40
0
 40
1
 40
1
 40
1
 40
1
 10
143.262280
 20
127.856880
 30
0.0
 10
143.273880
 20
127.856090
 30
0.0
 10
143.283480
 20
128.673650
 30
0.0
 10
143.283480
 20
129.673680
 30
0.0
  0
LWPOLYLINE
  5
1d4
100
AcDbEntity
  8
Layer_1
 62
7
100
AcDbPolyline
 90
3
 70
0
 10
143.283440
 20
129.673680
 30
0.0
 10
143.283440
 20
131.491910
 30
0.0
 10
139.861500
 20
134.652400
 30
0.0
  0
SPLINE
  5
1d5
100
AcDbEntity
  8
Layer_1
 62
7
100
AcDbSpline
 70
8
 71
3
 72
8
 73
4
 74
0
 40
0
 40
0
 40
0
 40
0
 40
1
 40
1
 40
1
 40
1
 10
96.542840
 20
131.752560
 30
0.0
 10
98.871080
 20
132.477520
 30
0.0
 10
100.035530
 20
132.839750
 30
0.0
 10
100.846950
 20
133.091460
 30
0.0
  0
SPLINE
  5
1d6
100
AcDbEntity
  8
Layer_1
 62
7
100
AcDbSpline
 70
8
 71
3
 72
8
 73
4
 74
0
 40
0
 40
0
 40
0
 40
0
 40
1
 40
1
 40
1
 40
1
 10
100.846950
 20
133.091460
 30
0.0
 10
101.263630
 20
133.220730
 30
0.0
 10
101.608600
 20
133.330580
 30
0.0
 10
101.613540
 20
133.335580
 30
0.0
  0
SPLINE
  5
1d7
100
AcDbEntity
  8
Layer_1
 62
7
100
AcDbSpline
 70
8
 71
3
 72
8
 73
4
 74
0
 40
0
 40
0
 40
0
 40
0
 40
1
 40
1
 40
1
 40
1
 10
101.613540
 20
133.335580
 30
0.0
 10
101.618540
 20
133.340580
 30
0.0
 10
101.644040
 20
133.470950
 30
0.0
 10
101.670240
 20
133.625290
 30
0.0
  0
SPLINE
  5
1d8
100
AcDbEntity
  8
Layer_1
 62
7
100
AcDbSpline
 70
8
 71
3
 72
8
 73
4
 74
0
 40
0
 40
0
 40
0
 40
0
 40
1
 40
1
 40
1
 40
1
 10
101.670240
 20
133.625290
 30
0.0
 10
101.799900
 20
134.387360
 30
0.0
 10
102.149280
 20
135.030990
 30
0.0
 10
102.717950
 20
135.555430
 30
0.0
  0
LWPOLYLINE
  5
1d9
100
AcDbEntity
  8
Layer_1
 62
7
100
AcDbPolyline
 90
1
 70
1
 10
143.283480
 20
129.673680
 30
0.0
  0
SPLINE
  5
1da
100
AcDbEntity
  8
Layer_1
 62
7
100
AcDbSpline
 70
8
 71
3
 72
8
 73
4
 74
0
 40
0
 40
0
 40
0
 40
0
 40
1
 40
1
 40
1
 40
1
 10
102.059550
 20
138.758350
 30
0.0
 10
101.557510
 20
140.390920
 30
0.0
 10
101.141730
 20
141.740630
 30
0.0
 10
101.135590
 20
141.757700
 30
0.0
  0
SPLINE
  5
1db
100
AcDbEntity
  8
Layer_1
 62
7
100
AcDbSpline
 70
8
 71
3
 72
8
 73
4
 74
0
 40
0
 40
0
 40
0
 40
0
 40
1
 40
1
 40
1
 40
1
 10
101.135590
 20
141.757700
 30
0.0
 10
101.128590
 20
141.778300
 30
0.0
 10
100.941620
 20
141.746700
 30
0.0
 10
100.578640
 20
141.663400
 30
0.0
  0
SPLINE
  5
1dc
100
AcDbEntity
  8
Layer_1
 62
7
100
AcDbSpline
 70
8
 71
3
 72
8
 73
4
 74
0
 40
0
 40
0
 40
0
 40
0
 40
1
 40
1
 40
1
 40
1
 10
100.578640
 20
141.663400
 30
0.0
 10
100.278460
 20
141.594400
 30
0.0
 10
98.904690
 20
141.279940
 30
0.0
 10
97.525840
 20
140.964500
 30
0.0
  0
SPLINE
  5
1dd
100
AcDbEntity
  8
Layer_1
 62
7
100
AcDbSpline
 70
8
 71
3
 72
8
 73
4
 74
0
 40
0
 40
0
 40
0
 40
0
 40
1
 40
1
 40
1
 40
1
 10
97.525840
 20
140.964500
 30
0.0
 10
96.146980
 20
140.649070
 30
0.0
 10
95.013750
 20
140.385900
 30
0.0
 10
95.007530
 20
140.379690
 30
0.0
  0
SPLINE
  5
1de
100
AcDbEntity
  8
Layer_1
 62
7
100
AcDbSpline
 70
8
 71
3
 72
8
 73
4
 74
0
 40
0
 40
0
 40
0
 40
0
 40
1
 40
1
 40
1
 40
1
 10
95.007530
 20
140.379690
 30
0.0
 10
95.001530
 20
140.373690
 30
0.0
 10
94.976930
 20
140.267790
 30
0.0
 10
94.953430
 20
140.144840
 30
0.0
  0
SPLINE
  5
1df
100
AcDbEntity
  8
Layer_1
 62
7
100
AcDbSpline
 70
8
 71
3
 72
8
 73
4
 74
0
 40
0
 40
0
 40
0
 40
0
 40
1
 40
1
 40
1
 40
1
 10
94.953430
 20
140.144840
 30
0.0
 10
94.805150
 20
139.369870
 30
0.0
 10
94.371870
 20
138.644370
 30
0.0
 10
93.778160
 20
138.176950
 30
0.0
  0
SPLINE
  5
1e0
100
AcDbEntity
  8
Layer_1
 62
7
100
AcDbSpline
 70
8
 71
3
 72
8
 73
4
 74
0
 40
0
 40
0
 40
0
 40
0
 40
1
 40
1
 40
1
 40
1
 10
93.778160
 20
138.176950
 30
0.0
 10
93.607310
 20
138.042440
 30
0.0
 10
93.557960
 20
137.988170
 30
0.0
 10
93.567160
 20
137.944930
 30
0.0
  0
SPLINE
  5
1e1
100
AcDbEntity
  8
Layer_1
 62
7
100
AcDbSpline
 70
8
 71
3
 72
8
 73
4
 74
0
 40
0
 40
0
 40
0
 40
0
 40
1
 40
1
 40
1
 40
1
 10
93.567160
 20
137.944930
 30
0.0
 10
93.675350
 20
137.436260
 30
0.0
 10
95.067480
 20
131.298600
 30
0.0
 10
95.074670
 20
131.298600
 30
0.0
  0
SPLINE
  5
1e2
100
AcDbEntity
  8
Layer_1
 62
7
100
AcDbSpline
 70
8
 71
3
 72
8
 73
4
 74
0
 40
0
 40
0
 40
0
 40
0
 40
1
 40
1
 40
1
 40
1
 10
95.074670
 20
131.298600
 30
0.0
 10
95.080670
 20
131.298600
 30
0.0
 10
95.740840
 20
131.502900
 30
0.0
 10
96.542770
 20
131.752600
 30
0.0
  0
LWPOLYLINE
  5
1e3
100
AcDbEntity
  8
Layer_1
 62
7
100
AcDbPolyline
 90
3
 70
0
 10
102.717950
 20
135.555430
 30
0.0
 10
102.972340
 20
135.790030
 30
0.0
 10
102.059550
 20
138.758350
 30
0.0
  0
SPLINE
  5
1e4
100
AcDbEntity
  8
Layer_1
 62
7
100
AcDbSpline
 70
8
 71
3
 72
8
 73
4
 74
0
 40
0
 40
0
 40
0
 40
0
 40
1
 40
1
 40
1
 40
1
 10
115.680160
 20
134.601530
 30
0.0
 10
116.090220
 20
136.418160
 30
0.0
 10
116.426690
 20
137.927340
 30
0.0
 10
116.427860
 20
137.955260
 30
0.0
  0
SPLINE
  5
1e5
100
AcDbEntity
  8
Layer_1
 62
7
100
AcDbSpline
 70
8
 71
3
 72
8
 73
4
 74
0
 40
0
 40
0
 40
0
 40
0
 40
1
 40
1
 40
1
 40
1
 10
116.427860
 20
137.955260
 30
0.0
 10
116.428860
 20
137.986160
 30
0.0
 10
116.344960
 20
138.073860
 30
0.0
 10
116.212630
 20
138.179330
 30
0.0
  0
SPLINE
  5
1e6
100
AcDbEntity
  8
Layer_1
 62
7
100
AcDbSpline
 70
8
 71
3
 72
8
 73
4
 74
0
 40
0
 40
0
 40
0
 40
0
 40
1
 40
1
 40
1
 40
1
 10
116.212630
 20
138.179330
 30
0.0
 10
115.598230
 20
138.669200
 30
0.0
 10
115.158280
 20
139.443870
 30
0.0
 10
115.019910
 20
140.279500
 30
0.0
  0
SPLINE
  5
1e7
100
AcDbEntity
  8
Layer_1
 62
7
100
AcDbSpline
 70
8
 71
3
 72
8
 73
4
 74
0
 40
0
 40
0
 40
0
 40
0
 40
1
 40
1
 40
1
 40
1
 10
115.019910
 20
140.279500
 30
0.0
 10
115.004610
 20
140.372000
 30
0.0
 10
114.990010
 20
140.387710
 30
0.0
 10
114.897810
 20
140.411030
 30
0.0
  0
SPLINE
  5
1e8
100
AcDbEntity
  8
Layer_1
 62
7
100
AcDbSpline
 70
8
 71
3
 72
8
 73
4
 74
0
 40
0
 40
0
 40
0
 40
0
 40
1
 40
1
 40
1
 40
1
 10
114.897810
 20
140.411030
 30
0.0
 10
114.840210
 20
140.425630
 30
0.0
 10
113.586610
 20
140.712830
 30
0.0
 10
112.112000
 20
141.049330
 30
0.0
  0
SPLINE
  5
1e9
100
AcDbEntity
  8
Layer_1
 62
7
100
AcDbSpline
 70
8
 71
3
 72
8
 73
4
 74
0
 40
0
 40
0
 40
0
 40
0
 40
1
 40
1
 40
1
 40
1
 10
112.112000
 20
141.049330
 30
0.0
 10
110.637390
 20
141.385830
 30
0.0
 10
109.306060
 20
141.690200
 30
0.0
 10
109.153500
 20
141.725700
 30
0.0
  0
SPLINE
  5
1ea
100
AcDbEntity
  8
Layer_1
 62
7
100
AcDbSpline
 70
8
 71
3
 72
8
 73
4
 74
0
 40
0
 40
0
 40
0
 40
0
 40
1
 40
1
 40
1
 40
1
 10
109.153500
 20
141.725700
 30
0.0
 10
108.959280
 20
141.770900
 30
0.0
 10
108.872670
 20
141.780700
 30
0.0
 10
108.864660
 20
141.758500
 30
0.0
  0
SPLINE
  5
1eb
100
AcDbEntity
  8
Layer_1
 62
7
100
AcDbSpline
 70
8
 71
3
 72
8
 73
4
 74
0
 40
0
 40
0
 40
0
 40
0
 40
1
 40
1
 40
1
 40
1
 10
108.864660
 20
141.758500
 30
0.0
 10
108.858660
 20
141.741000
 30
0.0
 10
108.442630
 20
140.391550
 30
0.0
 10
107.940810
 20
138.759700
 30
0.0
  0
LWPOLYLINE
  5
1ec
100
AcDbEntity
  8
Layer_1
 62
7
100
AcDbPolyline
 90
1
 70
1
 10
96.542770
 20
131.752600
 30
0.0
  0
SPLINE
  5
1ed
100
AcDbEntity
  8
Layer_1
 62
7
100
AcDbSpline
 70
8
 71
3
 72
8
 73
4
 74
0
 40
0
 40
0
 40
0
 40
0
 40
1
 40
1
 40
1
 40
1
 10
107.276010
 20
135.562550
 30
0.0
 10
107.848280
 20
135.030610
 30
0.0
 10
108.200920
 20
134.382290
 30
0.0
 10
108.329720
 20
133.625330
 30
0.0
  0
SPLINE
  5
1ee
100
AcDbEntity
  8
Layer_1
 62
7
100
AcDbSpline
 70
8
 71
3
 72
8
 73
4
 74
0
 40
0
 40
0
 40
0
 40
0
 40
1
 40
1
 40
1
 40
1
 10
108.329720
 20
133.625330
 30
0.0
 10
108.356020
 20
133.470990
 30
0.0
 10
108.380720
 20
133.341450
 30
0.0
 10
108.384620
 20
133.337460
 30
0.0
  0
SPLINE
  5
1ef
100
AcDbEntity
  8
Layer_1
 62
7
100
AcDbSpline
 70
8
 71
3
 72
8
 73
4
 74
0
 40
0
 40
0
 40
0
 40
0
 40
1
 40
1
 40
1
 40
1
 10
108.384620
 20
133.337460
 30
0.0
 10
108.388620
 20
133.333460
 30
0.0
 10
109.774920
 20
132.899900
 30
0.0
 10
111.465440
 20
132.373950
 30
0.0
  0
SPLINE
  5
1f0
100
AcDbEntity
  8
Layer_1
 62
7
100
AcDbSpline
 70
8
 71
3
 72
8
 73
4
 74
0
 40
0
 40
0
 40
0
 40
0
 40
1
 40
1
 40
1
 40
1
 10
111.465440
 20
132.373950
 30
0.0
 10
113.155960
 20
131.848010
 30
0.0
 10
114.621670
 20
131.391610
 30
0.0
 10
114.722570
 20
131.359730
 30
0.0
  0
SPLINE
  5
1f1
100
AcDbEntity
  8
Layer_1
 62
7
100
AcDbSpline
 70
8
 71
3
 72
8
 73
4
 74
0
 40
0
 40
0
 40
0
 40
0
 40
1
 40
1
 40
1
 40
1
 10
114.722570
 20
131.359730
 30
0.0
 10
114.823460
 20
131.327830
 30
0.0
 10
114.912440
 20
131.301030
 30
0.0
 10
114.920310
 20
131.300130
 30
0.0
  0
SPLINE
  5
1f2
100
AcDbEntity
  8
Layer_1
 62
7
100
AcDbSpline
 70
8
 71
3
 72
8
 73
4
 74
0
 40
0
 40
0
 40
0
 40
0
 40
1
 40
1
 40
1
 40
1
 10
114.920310
 20
131.300130
 30
0.0
 10
114.928310
 20
131.299260
 30
0.0
 10
115.270110
 20
132.784880
 30
0.0
 10
115.680170
 20
134.601520
 30
0.0
  0
LWPOLYLINE
  5
1f3
100
AcDbEntity
  8
Layer_1
 62
7
100
AcDbPolyline
 90
3
 70
0
 10
107.940810
 20
138.759700
 30
0.0
 10
107.028420
 20
135.792680
 30
0.0
 10
107.276010
 20
135.562550
 30
0.0
  0
SPLINE
  5
1f4
100
AcDbEntity
  8
Layer_1
 62
7
100
AcDbSpline
 70
8
 71
3
 72
8
 73
4
 74
0
 40
0
 40
0
 40
0
 40
0
 40
1
 40
1
 40
1
 40
1
 10
69.630500
 20
137.561060
 30
0.0
 10
71.147800
 20
138.961350
 30
0.0
 10
72.388520
 20
140.122210
 30
0.0
 10
72.387670
 20
140.140740
 30
0.0
  0
SPLINE
  5
1f5
100
AcDbEntity
  8
Layer_1
 62
7
100
AcDbSpline
 70
8
 71
3
 72
8
 73
4
 74
0
 40
0
 40
0
 40
0
 40
0
 40
1
 40
1
 40
1
 40
1
 10
72.387670
 20
140.140740
 30
0.0
 10
72.386810
 20
140.159240
 30
0.0
 10
71.761340
 20
141.421430
 30
0.0
 10
70.997720
 20
142.945530
 30
0.0
  0
LWPOLYLINE
  5
1f6
100
AcDbEntity
  8
Layer_1
 62
7
100
AcDbPolyline
 90
1
 70
1
 10
115.680170
 20
134.601520
 30
0.0
  0
SPLINE
  5
1f7
100
AcDbEntity
  8
Layer_1
 62
7
100
AcDbSpline
 70
8
 71
3
 72
8
 73
4
 74
0
 40
0
 40
0
 40
0
 40
0
 40
1
 40
1
 40
1
 40
1
 10
66.794150
 20
134.943620
 30
0.0
 10
66.836850
 20
134.982920
 30
0.0
 10
68.113190
 20
136.160750
 30
0.0
 10
69.630480
 20
137.561030
 30
0.0
  0
LWPOLYLINE
  5
1f8
100
AcDbEntity
  8
Layer_1
 62
7
100
AcDbPolyline
 90
7
 70
0
 10
70.997720
 20
142.945530
 30
0.0
 10
69.609330
 20
145.716620
 30
0.0
 10
68.162570
 20
142.832640
 30
0.0
 10
66.715820
 20
139.948670
 30
0.0
 10
66.716180
 20
137.410440
 30
0.0
 10
66.716550
 20
134.872220
 30
0.0
 10
66.794150
 20
134.943620
 30
0.0
  0
LWPOLYLINE
  5
1f9
100
AcDbEntity
  8
Layer_1
 62
7
100
AcDbPolyline
 90
1
 70
1
 10
69.630480
 20
137.561030
 30
0.0
  0
SPLINE
  5
1fa
100
AcDbEntity
  8
Layer_1
 62
7
100
AcDbSpline
 70
8
 71
3
 72
8
 73
4
 74
0
 40
0
 40
0
 40
0
 40
0
 40
1
 40
1
 40
1
 40
1
 10
139.002280
 20
142.945940
 30
0.0
 10
138.238660
 20
141.421620
 30
0.0
 10
137.613190
 20
140.159260
 30
0.0
 10
137.612330
 20
140.140700
 30
0.0
  0
SPLINE
  5
1fb
100
AcDbEntity
  8
Layer_1
 62
7
100
AcDbSpline
 70
8
 71
3
 72
8
 73
4
 74
0
 40
0
 40
0
 40
0
 40
0
 40
1
 40
1
 40
1
 40
1
 10
137.612330
 20
140.140700
 30
0.0
 10
137.611490
 20
140.122100
 30
0.0
 10
138.883950
 20
138.931120
 30
0.0
 10
140.440060
 20
137.493990
 30
0.0
  0
LWPOLYLINE
  5
1fc
100
AcDbEntity
  8
Layer_1
 62
7
100
AcDbPolyline
 90
3
 70
0
 10
141.837210
 20
142.831950
 30
0.0
 10
140.390670
 20
145.717430
 30
0.0
 10
139.002280
 20
142.945940
 30
0.0
  0
LWPOLYLINE
  5
1fd
100
AcDbEntity
  8
Layer_1
 62
7
100
AcDbPolyline
 90
5
 70
0
 10
140.440060
 20
137.493990
 30
0.0
 10
143.269330
 20
134.881020
 30
0.0
 10
143.276330
 20
137.413750
 30
0.0
 10
143.283330
 20
139.946470
 30
0.0
 10
141.837210
 20
142.831950
 30
0.0
  0
SPLINE
  5
1fe
100
AcDbEntity
  8
Layer_1
 62
7
100
AcDbSpline
 70
8
 71
3
 72
8
 73
4
 74
0
 40
0
 40
0
 40
0
 40
0
 40
1
 40
1
 40
1
 40
1
 10
88.282620
 20
140.710080
 30
0.0
 10
88.271020
 20
141.074820
 30
0.0
 10
88.324920
 20
141.477340
 30
0.0
 10
88.429220
 20
141.805890
 30
0.0
  0
LWPOLYLINE
  5
1ff
100
AcDbEntity
  8
Layer_1
 62
7
100
AcDbPolyline
 90
3
 70
0
 10
85.347220
 20
138.673650
 30
0.0
 10
88.292720
 20
140.390200
 30
0.0
 10
88.282620
 20
140.710080
 30
0.0
  0
SPLINE
  5
200
100
AcDbEntity
  8
Layer_1
 62
7
100
AcDbSpline
 70
8
 71
3
 72
8
 73
4
 74
0
 40
0
 40
0
 40
0
 40
0
 40
1
 40
1
 40
1
 40
1
 10
85.919340
 20
144.398160
 30
0.0
 10
84.501730
 20
145.706890
 30
0.0
 10
83.329730
 20
146.781710
 30
0.0
 10
83.314900
 20
146.786660
 30
0.0
  0
SPLINE
  5
201
100
AcDbEntity
  8
Layer_1
 62
7
100
AcDbSpline
 70
8
 71
3
 72
8
 73
4
 74
0
 40
0
 40
0
 40
0
 40
0
 40
1
 40
1
 40
1
 40
1
 10
83.314900
 20
146.786660
 30
0.0
 10
83.300100
 20
146.791660
 30
0.0
 10
81.531070
 20
145.173810
 30
0.0
 10
79.383790
 20
143.191560
 30
0.0
  0
SPLINE
  5
202
100
AcDbEntity
  8
Layer_1
 62
7
100
AcDbSpline
 70
8
 71
3
 72
8
 73
4
 74
0
 40
0
 40
0
 40
0
 40
0
 40
1
 40
1
 40
1
 40
1
 10
79.383790
 20
143.191560
 30
0.0
 10
77.236510
 20
141.209320
 30
0.0
 10
75.475700
 20
139.584360
 30
0.0
 10
75.470870
 20
139.580560
 30
0.0
  0
SPLINE
  5
203
100
AcDbEntity
  8
Layer_1
 62
7
100
AcDbSpline
 70
8
 71
3
 72
8
 73
4
 74
0
 40
0
 40
0
 40
0
 40
0
 40
1
 40
1
 40
1
 40
1
 10
75.470870
 20
139.580560
 30
0.0
 10
75.465870
 20
139.576560
 30
0.0
 10
75.538670
 20
139.420980
 30
0.0
 10
75.632170
 20
139.234390
 30
0.0
  0
LWPOLYLINE
  5
204
100
AcDbEntity
  8
Layer_1
 62
7
100
AcDbPolyline
 90
3
 70
0
 10
88.429220
 20
141.805890
 30
0.0
 10
88.496820
 20
142.018650
 30
0.0
 10
85.919340
 20
144.398160
 30
0.0
  0
SPLINE
  5
205
100
AcDbEntity
  8
Layer_1
 62
7
100
AcDbSpline
 70
8
 71
3
 72
8
 73
4
 74
0
 40
0
 40
0
 40
0
 40
0
 40
1
 40
1
 40
1
 40
1
 10
76.050160
 20
138.963730
 30
0.0
 10
76.603190
 20
139.116710
 30
0.0
 10
76.927240
 20
139.156510
 30
0.0
 10
77.624530
 20
139.157100
 30
0.0
  0
SPLINE
  5
206
100
AcDbEntity
  8
Layer_1
 62
7
100
AcDbSpline
 70
8
 71
3
 72
8
 73
4
 74
0
 40
0
 40
0
 40
0
 40
0
 40
1
 40
1
 40
1
 40
1
 10
77.624530
 20
139.157100
 30
0.0
 10
78.342060
 20
139.157690
 30
0.0
 10
78.693890
 20
139.112800
 30
0.0
 10
79.296110
 20
138.943680
 30
0.0
  0
SPLINE
  5
207
100
AcDbEntity
  8
Layer_1
 62
7
100
AcDbSpline
 70
8
 71
3
 72
8
 73
4
 74
0
 40
0
 40
0
 40
0
 40
0
 40
1
 40
1
 40
1
 40
1
 10
79.296110
 20
138.943680
 30
0.0
 10
80.371520
 20
138.641710
 30
0.0
 10
81.448090
 20
137.970450
 30
0.0
 10
82.140090
 20
137.170410
 30
0.0
  0
SPLINE
  5
208
100
AcDbEntity
  8
Layer_1
 62
7
100
AcDbSpline
 70
8
 71
3
 72
8
 73
4
 74
0
 40
0
 40
0
 40
0
 40
0
 40
1
 40
1
 40
1
 40
1
 10
82.140090
 20
137.170410
 30
0.0
 10
82.248740
 20
137.044780
 30
0.0
 10
82.352080
 20
136.945410
 30
0.0
 10
82.369730
 20
136.949560
 30
0.0
  0
SPLINE
  5
209
100
AcDbEntity
  8
Layer_1
 62
7
100
AcDbSpline
 70
8
 71
3
 72
8
 73
4
 74
0
 40
0
 40
0
 40
0
 40
0
 40
1
 40
1
 40
1
 40
1
 10
82.369730
 20
136.949560
 30
0.0
 10
82.387430
 20
136.953560
 30
0.0
 10
83.727290
 20
137.729570
 30
0.0
 10
85.347310
 20
138.673660
 30
0.0
  0
LWPOLYLINE
  5
20a
100
AcDbEntity
  8
Layer_1
 62
7
100
AcDbPolyline
 90
3
 70
0
 10
75.632170
 20
139.234390
 30
0.0
 10
75.802230
 20
138.895130
 30
0.0
 10
76.050160
 20
138.963730
 30
0.0
  0
SPLINE
  5
20b
100
AcDbEntity
  8
Layer_1
 62
7
100
AcDbSpline
 70
8
 71
3
 72
8
 73
4
 74
0
 40
0
 40
0
 40
0
 40
0
 40
1
 40
1
 40
1
 40
1
 10
127.858130
 20
137.168650
 30
0.0
 10
128.554320
 20
137.971720
 30
0.0
 10
129.607270
 20
138.627940
 30
0.0
 10
130.704190
 20
138.942390
 30
0.0
  0
SPLINE
  5
20c
100
AcDbEntity
  8
Layer_1
 62
7
100
AcDbSpline
 70
8
 71
3
 72
8
 73
4
 74
0
 40
0
 40
0
 40
0
 40
0
 40
1
 40
1
 40
1
 40
1
 10
130.704190
 20
138.942390
 30
0.0
 10
131.285220
 20
139.108960
 30
0.0
 10
131.656950
 20
139.157240
 30
0.0
 10
132.361440
 20
139.157630
 30
0.0
  0
SPLINE
  5
20d
100
AcDbEntity
  8
Layer_1
 62
7
100
AcDbSpline
 70
8
 71
3
 72
8
 73
4
 74
0
 40
0
 40
0
 40
0
 40
0
 40
1
 40
1
 40
1
 40
1
 10
132.361440
 20
139.157630
 30
0.0
 10
133.057830
 20
139.158030
 30
0.0
 10
133.350760
 20
139.123530
 30
0.0
 10
133.898960
 20
138.976440
 30
0.0
  0
LWPOLYLINE
  5
20e
100
AcDbEntity
  8
Layer_1
 62
7
100
AcDbPolyline
 90
1
 70
1
 10
85.347310
 20
138.673660
 30
0.0
  0
SPLINE
  5
20f
100
AcDbEntity
  8
Layer_1
 62
7
100
AcDbSpline
 70
8
 71
3
 72
8
 73
4
 74
0
 40
0
 40
0
 40
0
 40
0
 40
1
 40
1
 40
1
 40
1
 10
134.368480
 20
139.235530
 30
0.0
 10
134.462080
 20
139.422190
 30
0.0
 10
134.528180
 20
139.584050
 30
0.0
 10
134.515420
 20
139.595220
 30
0.0
  0
SPLINE
  5
210
100
AcDbEntity
  8
Layer_1
 62
7
100
AcDbSpline
 70
8
 71
3
 72
8
 73
4
 74
0
 40
0
 40
0
 40
0
 40
0
 40
1
 40
1
 40
1
 40
1
 10
134.515420
 20
139.595220
 30
0.0
 10
134.502620
 20
139.606420
 30
0.0
 10
132.741980
 20
141.231140
 30
0.0
 10
130.602790
 20
143.205790
 30
0.0
  0
SPLINE
  5
211
100
AcDbEntity
  8
Layer_1
 62
7
100
AcDbSpline
 70
8
 71
3
 72
8
 73
4
 74
0
 40
0
 40
0
 40
0
 40
0
 40
1
 40
1
 40
1
 40
1
 10
130.602790
 20
143.205790
 30
0.0
 10
128.463610
 20
145.180450
 30
0.0
 10
126.701040
 20
146.791960
 30
0.0
 10
126.685980
 20
146.786940
 30
0.0
  0
SPLINE
  5
212
100
AcDbEntity
  8
Layer_1
 62
7
100
AcDbSpline
 70
8
 71
3
 72
8
 73
4
 74
0
 40
0
 40
0
 40
0
 40
0
 40
1
 40
1
 40
1
 40
1
 10
126.685980
 20
146.786940
 30
0.0
 10
126.670880
 20
146.781940
 30
0.0
 10
125.498270
 20
145.706280
 30
0.0
 10
124.080070
 20
144.396630
 30
0.0
  0
LWPOLYLINE
  5
213
100
AcDbEntity
  8
Layer_1
 62
7
100
AcDbPolyline
 90
3
 70
0
 10
133.898960
 20
138.976440
 30
0.0
 10
134.198350
 20
138.896140
 30
0.0
 10
134.368480
 20
139.235530
 30
0.0
  0
SPLINE
  5
214
100
AcDbEntity
  8
Layer_1
 62
7
100
AcDbSpline
 70
8
 71
3
 72
8
 73
4
 74
0
 40
0
 40
0
 40
0
 40
0
 40
1
 40
1
 40
1
 40
1
 10
121.552840
 20
141.866430
 30
0.0
 10
121.663050
 20
141.546070
 30
0.0
 10
121.705200
 20
141.258710
 30
0.0
 10
121.706410
 20
140.819230
 30
0.0
  0
LWPOLYLINE
  5
215
100
AcDbEntity
  8
Layer_1
 62
7
100
AcDbPolyline
 90
3
 70
0
 10
124.080070
 20
144.396630
 30
0.0
 10
121.501540
 20
142.015440
 30
0.0
 10
121.552840
 20
141.866430
 30
0.0
  0
SPLINE
  5
216
100
AcDbEntity
  8
Layer_1
 62
7
100
AcDbSpline
 70
8
 71
3
 72
8
 73
4
 74
0
 40
0
 40
0
 40
0
 40
0
 40
1
 40
1
 40
1
 40
1
 10
124.656630
 20
138.669940
 30
0.0
 10
126.278710
 20
137.723050
 30
0.0
 10
127.618570
 20
136.947130
 30
0.0
 10
127.634110
 20
136.945670
 30
0.0
  0
SPLINE
  5
217
100
AcDbEntity
  8
Layer_1
 62
7
100
AcDbSpline
 70
8
 71
3
 72
8
 73
4
 74
0
 40
0
 40
0
 40
0
 40
0
 40
1
 40
1
 40
1
 40
1
 10
127.634110
 20
136.945670
 30
0.0
 10
127.649610
 20
136.944670
 30
0.0
 10
127.750400
 20
137.044570
 30
0.0
 10
127.857980
 20
137.168670
 30
0.0
  0
LWPOLYLINE
  5
218
100
AcDbEntity
  8
Layer_1
 62
7
100
AcDbPolyline
 90
3
 70
0
 10
121.706410
 20
140.819230
 30
0.0
 10
121.707410
 20
140.391550
 30
0.0
 10
124.656630
 20
138.669940
 30
0.0
  0
SPLINE
  5
219
100
AcDbEntity
  8
Layer_1
 62
7
100
AcDbSpline
 70
8
 71
3
 72
8
 73
4
 74
0
 40
0
 40
0
 40
0
 40
0
 40
1
 40
1
 40
1
 40
1
 10
105.735350
 20
140.024010
 30
0.0
 10
106.118430
 20
141.270910
 30
0.0
 10
106.433540
 20
142.303120
 30
0.0
 10
106.435600
 20
142.317790
 30
0.0
  0
SPLINE
  5
21a
100
AcDbEntity
  8
Layer_1
 62
7
100
AcDbSpline
 70
8
 71
3
 72
8
 73
4
 74
0
 40
0
 40
0
 40
0
 40
0
 40
1
 40
1
 40
1
 40
1
 10
106.435600
 20
142.317790
 30
0.0
 10
106.437600
 20
142.332490
 30
0.0
 10
106.116440
 20
142.418860
 30
0.0
 10
105.721790
 20
142.509780
 30
0.0
  0
LWPOLYLINE
  5
21b
100
AcDbEntity
  8
Layer_1
 62
7
100
AcDbPolyline
 90
2
 70
0
 10
127.857980
 20
137.168670
 30
0.0
 10
127.858130
 20
137.168650
 30
0.0
  0
SPLINE
  5
21c
100
AcDbEntity
  8
Layer_1
 62
7
100
AcDbSpline
 70
8
 71
3
 72
8
 73
4
 74
0
 40
0
 40
0
 40
0
 40
0
 40
1
 40
1
 40
1
 40
1
 10
104.282450
 20
142.509080
 30
0.0
 10
103.885470
 20
142.417780
 30
0.0
 10
103.562340
 20
142.331390
 30
0.0
 10
103.564390
 20
142.317100
 30
0.0
  0
SPLINE
  5
21d
100
AcDbEntity
  8
Layer_1
 62
7
100
AcDbSpline
 70
8
 71
3
 72
8
 73
4
 74
0
 40
0
 40
0
 40
0
 40
0
 40
1
 40
1
 40
1
 40
1
 10
103.564390
 20
142.317100
 30
0.0
 10
103.566390
 20
142.302800
 30
0.0
 10
103.889500
 20
141.245170
 30
0.0
 10
104.282300
 20
139.966780
 30
0.0
  0
SPLINE
  5
21e
100
AcDbEntity
  8
Layer_1
 62
7
100
AcDbSpline
 70
8
 71
3
 72
8
 73
4
 74
0
 40
0
 40
0
 40
0
 40
0
 40
1
 40
1
 40
1
 40
1
 10
104.282300
 20
139.966780
 30
0.0
 10
104.786590
 20
138.325590
 30
0.0
 10
105.002720
 20
137.659270
 30
0.0
 10
105.017660
 20
137.699680
 30
0.0
  0
SPLINE
  5
21f
100
AcDbEntity
  8
Layer_1
 62
7
100
AcDbSpline
 70
8
 71
3
 72
8
 73
4
 74
0
 40
0
 40
0
 40
0
 40
0
 40
1
 40
1
 40
1
 40
1
 10
105.017660
 20
137.699680
 30
0.0
 10
105.029260
 20
137.731180
 30
0.0
 10
105.352260
 20
138.777090
 30
0.0
 10
105.735350
 20
140.024010
 30
0.0
  0
LWPOLYLINE
  5
220
100
AcDbEntity
  8
Layer_1
 62
7
100
AcDbPolyline
 90
3
 70
0
 10
105.721790
 20
142.509780
 30
0.0
 10
105.004240
 20
142.675090
 30
0.0
 10
104.282450
 20
142.509080
 30
0.0
  0
LWPOLYLINE
  5
221
100
AcDbEntity
  8
Layer_1
 62
7
100
AcDbPolyline
 90
1
 70
1
 10
105.735350
 20
140.024010
 30
0.0
  0
SPLINE
  5
222
100
AcDbEntity
  8
Layer_1
 62
7
100
AcDbSpline
 70
8
 71
3
 72
8
 73
4
 74
0
 40
0
 40
0
 40
0
 40
0
 40
1
 40
1
 40
1
 40
1
 10
81.385160
 20
148.587370
 30
0.0
 10
81.334660
 20
148.635970
 30
0.0
 10
79.794750
 20
150.057360
 30
0.0
 10
77.963130
 20
151.745900
 30
0.0
  0
SPLINE
  5
223
100
AcDbEntity
  8
Layer_1
 62
7
100
AcDbSpline
 70
8
 71
3
 72
8
 73
4
 74
0
 40
0
 40
0
 40
0
 40
0
 40
1
 40
1
 40
1
 40
1
 10
77.963130
 20
151.745900
 30
0.0
 10
76.131500
 20
153.434440
 30
0.0
 10
74.560810
 20
154.885820
 30
0.0
 10
74.472710
 20
154.971180
 30
0.0
  0
LWPOLYLINE
  5
224
100
AcDbEntity
  8
Layer_1
 62
7
100
AcDbPolyline
 90
3
 70
0
 10
78.268030
 20
145.536100
 30
0.0
 10
81.476960
 20
148.498870
 30
0.0
 10
81.385160
 20
148.587370
 30
0.0
  0
SPLINE
  5
225
100
AcDbEntity
  8
Layer_1
 62
7
100
AcDbSpline
 70
8
 71
3
 72
8
 73
4
 74
0
 40
0
 40
0
 40
0
 40
0
 40
1
 40
1
 40
1
 40
1
 10
74.684530
 20
142.226020
 30
0.0
 10
74.890550
 20
142.417060
 30
0.0
 10
76.503140
 20
143.906620
 30
0.0
 10
78.268050
 20
145.536140
 30
0.0
  0
LWPOLYLINE
  5
226
100
AcDbEntity
  8
Layer_1
 62
7
100
AcDbPolyline
 90
7
 70
0
 10
74.472710
 20
154.971180
 30
0.0
 10
74.312510
 20
155.126380
 30
0.0
 10
72.655920
 20
151.813290
 30
0.0
 10
70.999320
 20
148.500200
 30
0.0
 10
72.654640
 20
145.189430
 30
0.0
 10
74.309950
 20
141.878660
 30
0.0
 10
74.684530
 20
142.226020
 30
0.0
  0
LWPOLYLINE
  5
227
100
AcDbEntity
  8
Layer_1
 62
7
100
AcDbPolyline
 90
1
 70
1
 10
78.268050
 20
145.536140
 30
0.0
  0
SPLINE
  5
228
100
AcDbEntity
  8
Layer_1
 62
7
100
AcDbSpline
 70
8
 71
3
 72
8
 73
4
 74
0
 40
0
 40
0
 40
0
 40
0
 40
1
 40
1
 40
1
 40
1
 10
135.189960
 20
154.657830
 30
0.0
 10
134.914860
 20
154.403050
 30
0.0
 10
133.309050
 20
152.919660
 30
0.0
 10
131.621490
 20
151.361410
 30
0.0
  0
SPLINE
  5
229
100
AcDbEntity
  8
Layer_1
 62
7
100
AcDbSpline
 70
8
 71
3
 72
8
 73
4
 74
0
 40
0
 40
0
 40
0
 40
0
 40
1
 40
1
 40
1
 40
1
 10
131.621490
 20
151.361410
 30
0.0
 10
129.933940
 20
149.803160
 30
0.0
 10
128.553240
 20
148.515520
 30
0.0
 10
128.553270
 20
148.500000
 30
0.0
  0
SPLINE
  5
22a
100
AcDbEntity
  8
Layer_1
 62
7
100
AcDbSpline
 70
8
 71
3
 72
8
 73
4
 74
0
 40
0
 40
0
 40
0
 40
0
 40
1
 40
1
 40
1
 40
1
 10
128.553270
 20
148.500000
 30
0.0
 10
128.553270
 20
148.467600
 30
0.0
 10
135.670200
 20
141.885200
 30
0.0
 10
135.691670
 20
141.897630
 30
0.0
  0
SPLINE
  5
22b
100
AcDbEntity
  8
Layer_1
 62
7
100
AcDbSpline
 70
8
 71
3
 72
8
 73
4
 74
0
 40
0
 40
0
 40
0
 40
0
 40
1
 40
1
 40
1
 40
1
 10
135.691670
 20
141.897630
 30
0.0
 10
135.699670
 20
141.902630
 30
0.0
 10
136.447120
 20
143.389560
 30
0.0
 10
137.353210
 20
145.203030
 30
0.0
  0
LWPOLYLINE
  5
22c
100
AcDbEntity
  8
Layer_1
 62
7
100
AcDbPolyline
 90
5
 70
0
 10
137.353210
 20
145.203030
 30
0.0
 10
139.000650
 20
148.500240
 30
0.0
 10
137.345400
 20
151.810650
 30
0.0
 10
135.690150
 20
155.121050
 30
0.0
 10
135.189960
 20
154.657830
 30
0.0
  0
SPLINE
  5
22d
100
AcDbEntity
  8
Layer_1
 62
7
100
AcDbSpline
 70
8
 71
3
 72
8
 73
4
 74
0
 40
0
 40
0
 40
0
 40
0
 40
1
 40
1
 40
1
 40
1
 10
96.829670
 20
143.349430
 30
0.0
 10
97.442790
 20
143.489820
 30
0.0
 10
98.484190
 20
143.727130
 30
0.0
 10
99.143890
 20
143.876790
 30
0.0
  0
SPLINE
  5
22e
100
AcDbEntity
  8
Layer_1
 62
7
100
AcDbSpline
 70
8
 71
3
 72
8
 73
4
 74
0
 40
0
 40
0
 40
0
 40
0
 40
1
 40
1
 40
1
 40
1
 10
99.143890
 20
143.876790
 30
0.0
 10
99.803580
 20
144.026450
 30
0.0
 10
100.353190
 20
144.157310
 30
0.0
 10
100.365230
 20
144.167590
 30
0.0
  0
SPLINE
  5
22f
100
AcDbEntity
  8
Layer_1
 62
7
100
AcDbSpline
 70
8
 71
3
 72
8
 73
4
 74
0
 40
0
 40
0
 40
0
 40
0
 40
1
 40
1
 40
1
 40
1
 10
100.365230
 20
144.167590
 30
0.0
 10
100.382730
 20
144.182590
 30
0.0
 10
100.216720
 20
144.761430
 30
0.0
 10
99.985280
 20
145.492280
 30
0.0
  0
SPLINE
  5
230
100
AcDbEntity
  8
Layer_1
 62
7
100
AcDbSpline
 70
8
 71
3
 72
8
 73
4
 74
0
 40
0
 40
0
 40
0
 40
0
 40
1
 40
1
 40
1
 40
1
 10
99.985280
 20
145.492280
 30
0.0
 10
99.965480
 20
145.554780
 30
0.0
 10
99.775660
 20
145.781760
 30
0.0
 10
99.449140
 20
146.133390
 30
0.0
  0
LWPOLYLINE
  5
231
100
AcDbEntity
  8
Layer_1
 62
7
100
AcDbPolyline
 90
1
 70
1
 10
137.353210
 20
145.203030
 30
0.0
  0
SPLINE
  5
232
100
AcDbEntity
  8
Layer_1
 62
7
100
AcDbSpline
 70
8
 71
3
 72
8
 73
4
 74
0
 40
0
 40
0
 40
0
 40
0
 40
1
 40
1
 40
1
 40
1
 10
97.279870
 20
144.887290
 30
0.0
 10
96.364800
 20
143.902530
 30
0.0
 10
95.616110
 20
143.089300
 30
0.0
 10
95.616110
 20
143.080120
 30
0.0
  0
SPLINE
  5
233
100
AcDbEntity
  8
Layer_1
 62
7
100
AcDbSpline
 70
8
 71
3
 72
8
 73
4
 74
0
 40
0
 40
0
 40
0
 40
0
 40
1
 40
1
 40
1
 40
1
 10
95.616110
 20
143.080120
 30
0.0
 10
95.616110
 20
143.071120
 30
0.0
 10
95.638310
 20
143.070120
 30
0.0
 10
95.665510
 20
143.079120
 30
0.0
  0
SPLINE
  5
234
100
AcDbEntity
  8
Layer_1
 62
7
100
AcDbSpline
 70
8
 71
3
 72
8
 73
4
 74
0
 40
0
 40
0
 40
0
 40
0
 40
1
 40
1
 40
1
 40
1
 10
95.665510
 20
143.079120
 30
0.0
 10
95.692710
 20
143.087120
 30
0.0
 10
96.216550
 20
143.209360
 30
0.0
 10
96.829680
 20
143.349750
 30
0.0
  0
LWPOLYLINE
  5
235
100
AcDbEntity
  8
Layer_1
 62
7
100
AcDbPolyline
 90
3
 70
0
 10
99.449140
 20
146.133390
 30
0.0
 10
98.943620
 20
146.677770
 30
0.0
 10
97.279870
 20
144.887290
 30
0.0
  0
SPLINE
  5
236
100
AcDbEntity
  8
Layer_1
 62
7
100
AcDbSpline
 70
8
 71
3
 72
8
 73
4
 74
0
 40
0
 40
0
 40
0
 40
0
 40
1
 40
1
 40
1
 40
1
 10
114.040590
 20
143.468770
 30
0.0
 10
113.847280
 20
143.674780
 30
0.0
 10
113.096840
 20
144.480780
 30
0.0
 10
112.372950
 20
145.259870
 30
0.0
  0
LWPOLYLINE
  5
237
100
AcDbEntity
  8
Layer_1
 62
7
100
AcDbPolyline
 90
2
 70
0
 10
96.829680
 20
143.349750
 30
0.0
 10
96.829670
 20
143.349430
 30
0.0
  0
SPLINE
  5
238
100
AcDbEntity
  8
Layer_1
 62
7
100
AcDbSpline
 70
8
 71
3
 72
8
 73
4
 74
0
 40
0
 40
0
 40
0
 40
0
 40
1
 40
1
 40
1
 40
1
 10
110.550720
 20
146.131690
 30
0.0
 10
110.226870
 20
145.783090
 30
0.0
 10
110.033770
 20
145.552520
 30
0.0
 10
110.014380
 20
145.491270
 30
0.0
  0
SPLINE
  5
239
100
AcDbEntity
  8
Layer_1
 62
7
100
AcDbSpline
 70
8
 71
3
 72
8
 73
4
 74
0
 40
0
 40
0
 40
0
 40
0
 40
1
 40
1
 40
1
 40
1
 10
110.014380
 20
145.491270
 30
0.0
 10
109.752400
 20
144.663610
 30
0.0
 10
109.617360
 20
144.183460
 30
0.0
 10
109.642230
 20
144.168090
 30
0.0
  0
SPLINE
  5
23a
100
AcDbEntity
  8
Layer_1
 62
7
100
AcDbSpline
 70
8
 71
3
 72
8
 73
4
 74
0
 40
0
 40
0
 40
0
 40
0
 40
1
 40
1
 40
1
 40
1
 10
109.642230
 20
144.168090
 30
0.0
 10
109.658330
 20
144.158090
 30
0.0
 10
110.157180
 20
144.039010
 30
0.0
 10
110.750680
 20
143.903420
 30
0.0
  0
SPLINE
  5
23b
100
AcDbEntity
  8
Layer_1
 62
7
100
AcDbSpline
 70
8
 71
3
 72
8
 73
4
 74
0
 40
0
 40
0
 40
0
 40
0
 40
1
 40
1
 40
1
 40
1
 10
110.750680
 20
143.903420
 30
0.0
 10
111.344180
 20
143.767840
 30
0.0
 10
112.401280
 20
143.525990
 30
0.0
 10
113.099780
 20
143.365990
 30
0.0
  0
SPLINE
  5
23c
100
AcDbEntity
  8
Layer_1
 62
7
100
AcDbSpline
 70
8
 71
3
 72
8
 73
4
 74
0
 40
0
 40
0
 40
0
 40
0
 40
1
 40
1
 40
1
 40
1
 10
113.099780
 20
143.365990
 30
0.0
 10
113.798280
 20
143.205990
 30
0.0
 10
114.374790
 20
143.079380
 30
0.0
 10
114.380910
 20
143.084640
 30
0.0
  0
SPLINE
  5
23d
100
AcDbEntity
  8
Layer_1
 62
7
100
AcDbSpline
 70
8
 71
3
 72
8
 73
4
 74
0
 40
0
 40
0
 40
0
 40
0
 40
1
 40
1
 40
1
 40
1
 10
114.380910
 20
143.084640
 30
0.0
 10
114.386910
 20
143.089640
 30
0.0
 10
114.233890
 20
143.262760
 30
0.0
 10
114.040590
 20
143.468770
 30
0.0
  0
LWPOLYLINE
  5
23e
100
AcDbEntity
  8
Layer_1
 62
7
100
AcDbPolyline
 90
3
 70
0
 10
112.372950
 20
145.259870
 30
0.0
 10
111.056770
 20
146.676410
 30
0.0
 10
110.550720
 20
146.131690
 30
0.0
  0
SPLINE
  5
23f
100
AcDbEntity
  8
Layer_1
 62
7
100
AcDbSpline
 70
8
 71
3
 72
8
 73
4
 74
0
 40
0
 40
0
 40
0
 40
0
 40
1
 40
1
 40
1
 40
1
 10
90.874780
 20
144.076070
 30
0.0
 10
91.127950
 20
144.139270
 30
0.0
 10
91.234820
 20
144.150270
 30
0.0
 10
91.608550
 20
144.151770
 30
0.0
  0
SPLINE
  5
240
100
AcDbEntity
  8
Layer_1
 62
7
100
AcDbSpline
 70
8
 71
3
 72
8
 73
4
 74
0
 40
0
 40
0
 40
0
 40
0
 40
1
 40
1
 40
1
 40
1
 10
91.608550
 20
144.151770
 30
0.0
 10
92.081370
 20
144.153770
 30
0.0
 10
92.352310
 20
144.112370
 30
0.0
 10
92.723330
 20
143.981530
 30
0.0
  0
SPLINE
  5
241
100
AcDbEntity
  8
Layer_1
 62
7
100
AcDbSpline
 70
8
 71
3
 72
8
 73
4
 74
0
 40
0
 40
0
 40
0
 40
0
 40
1
 40
1
 40
1
 40
1
 10
92.723330
 20
143.981530
 30
0.0
 10
92.831990
 20
143.943230
 30
0.0
 10
92.932580
 20
143.909130
 30
0.0
 10
92.946870
 20
143.905830
 30
0.0
  0
SPLINE
  5
242
100
AcDbEntity
  8
Layer_1
 62
7
100
AcDbSpline
 70
8
 71
3
 72
8
 73
4
 74
0
 40
0
 40
0
 40
0
 40
0
 40
1
 40
1
 40
1
 40
1
 10
92.946870
 20
143.905830
 30
0.0
 10
92.967370
 20
143.900830
 30
0.0
 10
96.090170
 20
147.234410
 30
0.0
 10
97.040570
 20
148.275520
 30
0.0
  0
LWPOLYLINE
  5
243
100
AcDbEntity
  8
Layer_1
 62
7
100
AcDbPolyline
 90
1
 70
1
 10
114.040590
 20
143.468770
 30
0.0
  0
SPLINE
  5
244
100
AcDbEntity
  8
Layer_1
 62
7
100
AcDbSpline
 70
8
 71
3
 72
8
 73
4
 74
0
 40
0
 40
0
 40
0
 40
0
 40
1
 40
1
 40
1
 40
1
 10
95.110380
 20
150.801410
 30
0.0
 10
93.934770
 20
152.065750
 30
0.0
 10
92.961200
 20
153.097480
 30
0.0
 10
92.946900
 20
153.094130
 30
0.0
  0
SPLINE
  5
245
100
AcDbEntity
  8
Layer_1
 62
7
100
AcDbSpline
 70
8
 71
3
 72
8
 73
4
 74
0
 40
0
 40
0
 40
0
 40
0
 40
1
 40
1
 40
1
 40
1
 10
92.946900
 20
153.094130
 30
0.0
 10
92.932600
 20
153.091130
 30
0.0
 10
92.829590
 20
153.056530
 30
0.0
 10
92.718000
 20
153.018030
 30
0.0
  0
SPLINE
  5
246
100
AcDbEntity
  8
Layer_1
 62
7
100
AcDbSpline
 70
8
 71
3
 72
8
 73
4
 74
0
 40
0
 40
0
 40
0
 40
0
 40
1
 40
1
 40
1
 40
1
 10
92.718000
 20
153.018030
 30
0.0
 10
91.966730
 20
152.758730
 30
0.0
 10
91.104520
 20
152.781900
 30
0.0
 10
90.379470
 20
153.080930
 30
0.0
  0
LWPOLYLINE
  5
247
100
AcDbEntity
  8
Layer_1
 62
7
100
AcDbPolyline
 90
3
 70
0
 10
97.040570
 20
148.275520
 30
0.0
 10
97.247860
 20
148.502600
 30
0.0
 10
95.110380
 20
150.801410
 30
0.0
  0
SPLINE
  5
248
100
AcDbEntity
  8
Layer_1
 62
7
100
AcDbSpline
 70
8
 71
3
 72
8
 73
4
 74
0
 40
0
 40
0
 40
0
 40
0
 40
1
 40
1
 40
1
 40
1
 10
87.755490
 20
150.922070
 30
0.0
 10
86.420980
 20
149.689880
 30
0.0
 10
85.286670
 20
148.639460
 30
0.0
 10
85.234790
 20
148.587830
 30
0.0
  0
LWPOLYLINE
  5
249
100
AcDbEntity
  8
Layer_1
 62
7
100
AcDbPolyline
 90
3
 70
0
 10
90.379470
 20
153.080930
 30
0.0
 10
90.181880
 20
153.162430
 30
0.0
 10
87.755490
 20
150.922070
 30
0.0
  0
SPLINE
  5
24a
100
AcDbEntity
  8
Layer_1
 62
7
100
AcDbSpline
 70
8
 71
3
 72
8
 73
4
 74
0
 40
0
 40
0
 40
0
 40
0
 40
1
 40
1
 40
1
 40
1
 10
90.380090
 20
143.919930
 30
0.0
 10
90.489190
 20
143.965230
 30
0.0
 10
90.711810
 20
144.035490
 30
0.0
 10
90.874800
 20
144.076140
 30
0.0
  0
LWPOLYLINE
  5
24b
100
AcDbEntity
  8
Layer_1
 62
7
100
AcDbPolyline
 90
5
 70
0
 10
85.234790
 20
148.587830
 30
0.0
 10
85.140490
 20
148.493930
 30
0.0
 10
87.661100
 20
146.165780
 30
0.0
 10
90.181710
 20
143.837630
 30
0.0
 10
90.380090
 20
143.919930
 30
0.0
  0
LWPOLYLINE
  5
24c
100
AcDbEntity
  8
Layer_1
 62
7
100
AcDbPolyline
 90
1
 70
1
 10
90.874800
 20
144.076140
 30
0.0
  0
SPLINE
  5
24d
100
AcDbEntity
  8
Layer_1
 62
7
100
AcDbSpline
 70
8
 71
3
 72
8
 73
4
 74
0
 40
0
 40
0
 40
0
 40
0
 40
1
 40
1
 40
1
 40
1
 10
124.751120
 20
148.601480
 30
0.0
 10
124.691420
 20
148.660580
 30
0.0
 10
123.557340
 20
149.711110
 30
0.0
 10
122.230830
 20
150.935870
 30
0.0
  0
LWPOLYLINE
  5
24e
100
AcDbEntity
  8
Layer_1
 62
7
100
AcDbPolyline
 90
3
 70
0
 10
122.465120
 20
146.284360
 30
0.0
 10
124.859570
 20
148.493940
 30
0.0
 10
124.751120
 20
148.601480
 30
0.0
  0
SPLINE
  5
24f
100
AcDbEntity
  8
Layer_1
 62
7
100
AcDbSpline
 70
8
 71
3
 72
8
 73
4
 74
0
 40
0
 40
0
 40
0
 40
0
 40
1
 40
1
 40
1
 40
1
 10
119.620970
 20
153.081020
 30
0.0
 10
119.258170
 20
152.931420
 30
0.0
 10
118.756270
 20
152.832070
 30
0.0
 10
118.363220
 20
152.832070
 30
0.0
  0
SPLINE
  5
250
100
AcDbEntity
  8
Layer_1
 62
7
100
AcDbSpline
 70
8
 71
3
 72
8
 73
4
 74
0
 40
0
 40
0
 40
0
 40
0
 40
1
 40
1
 40
1
 40
1
 10
118.363220
 20
152.832070
 30
0.0
 10
117.997630
 20
152.832070
 30
0.0
 10
117.451060
 20
152.934710
 30
0.0
 10
117.166040
 20
153.056880
 30
0.0
  0
LWPOLYLINE
  5
251
100
AcDbEntity
  8
Layer_1
 62
7
100
AcDbPolyline
 90
3
 70
0
 10
122.230830
 20
150.935870
 30
0.0
 10
119.819000
 20
153.162720
 30
0.0
 10
119.620970
 20
153.081020
 30
0.0
  0
SPLINE
  5
252
100
AcDbEntity
  8
Layer_1
 62
7
100
AcDbSpline
 70
8
 71
3
 72
8
 73
4
 74
0
 40
0
 40
0
 40
0
 40
0
 40
1
 40
1
 40
1
 40
1
 10
115.000410
 20
150.919080
 30
0.0
 10
113.880470
 20
149.712760
 30
0.0
 10
112.915790
 20
148.674980
 30
0.0
 10
112.856680
 20
148.612890
 30
0.0
  0
LWPOLYLINE
  5
253
100
AcDbEntity
  8
Layer_1
 62
7
100
AcDbPolyline
 90
3
 70
0
 10
117.166040
 20
153.056880
 30
0.0
 10
117.036670
 20
153.112380
 30
0.0
 10
115.000410
 20
150.919080
 30
0.0
  0
SPLINE
  5
254
100
AcDbEntity
  8
Layer_1
 62
7
100
AcDbSpline
 70
8
 71
3
 72
8
 73
4
 74
0
 40
0
 40
0
 40
0
 40
0
 40
1
 40
1
 40
1
 40
1
 10
117.165820
 20
143.943040
 30
0.0
 10
117.336980
 20
144.016440
 30
0.0
 10
117.675350
 20
144.100580
 30
0.0
 10
117.948990
 20
144.137860
 30
0.0
  0
SPLINE
  5
255
100
AcDbEntity
  8
Layer_1
 62
7
100
AcDbSpline
 70
8
 71
3
 72
8
 73
4
 74
0
 40
0
 40
0
 40
0
 40
0
 40
1
 40
1
 40
1
 40
1
 10
117.948990
 20
144.137860
 30
0.0
 10
118.497770
 20
144.212660
 30
0.0
 10
119.108160
 20
144.132860
 30
0.0
 10
119.619110
 20
143.918730
 30
0.0
  0
LWPOLYLINE
  5
256
100
AcDbEntity
  8
Layer_1
 62
7
100
AcDbPolyline
 90
5
 70
0
 10
112.856680
 20
148.612890
 30
0.0
 10
112.749220
 20
148.500000
 30
0.0
 10
114.892720
 20
146.193720
 30
0.0
 10
117.036230
 20
143.887440
 30
0.0
 10
117.165820
 20
143.943040
 30
0.0
  0
SPLINE
  5
257
100
AcDbEntity
  8
Layer_1
 62
7
100
AcDbSpline
 70
8
 71
3
 72
8
 73
4
 74
0
 40
0
 40
0
 40
0
 40
0
 40
1
 40
1
 40
1
 40
1
 10
119.943670
 20
143.955410
 30
0.0
 10
120.013570
 20
144.021110
 30
0.0
 10
121.148170
 20
145.069110
 30
0.0
 10
122.465120
 20
146.284380
 30
0.0
  0
LWPOLYLINE
  5
258
100
AcDbEntity
  8
Layer_1
 62
7
100
AcDbPolyline
 90
3
 70
0
 10
119.619110
 20
143.918730
 30
0.0
 10
119.816670
 20
143.836030
 30
0.0
 10
119.943670
 20
143.955410
 30
0.0
  0
LWPOLYLINE
  5
259
100
AcDbEntity
  8
Layer_1
 62
7
100
AcDbPolyline
 90
1
 70
1
 10
122.465120
 20
146.284380
 30
0.0
  0
SPLINE
  5
25a
100
AcDbEntity
  8
Layer_1
 62
7
100
AcDbSpline
 70
8
 71
3
 72
8
 73
4
 74
0
 40
0
 40
0
 40
0
 40
0
 40
1
 40
1
 40
1
 40
1
 10
107.237470
 20
146.211720
 30
0.0
 10
107.555100
 20
146.551950
 30
0.0
 10
107.831190
 20
146.869450
 30
0.0
 10
107.850990
 20
146.917270
 30
0.0
  0
SPLINE
  5
25b
100
AcDbEntity
  8
Layer_1
 62
7
100
AcDbSpline
 70
8
 71
3
 72
8
 73
4
 74
0
 40
0
 40
0
 40
0
 40
0
 40
1
 40
1
 40
1
 40
1
 10
107.850990
 20
146.917270
 30
0.0
 10
107.870790
 20
146.965070
 30
0.0
 10
107.990420
 20
147.341050
 30
0.0
 10
108.116810
 20
147.752720
 30
0.0
  0
LWPOLYLINE
  5
25c
100
AcDbEntity
  8
Layer_1
 62
7
100
AcDbPolyline
 90
3
 70
0
 10
106.041650
 20
145.454970
 30
0.0
 10
106.659950
 20
145.593110
 30
0.0
 10
107.237470
 20
146.211720
 30
0.0
  0
SPLINE
  5
25d
100
AcDbEntity
  8
Layer_1
 62
7
100
AcDbSpline
 70
8
 71
3
 72
8
 73
4
 74
0
 40
0
 40
0
 40
0
 40
0
 40
1
 40
1
 40
1
 40
1
 10
108.103520
 20
149.290830
 30
0.0
 10
107.969820
 20
149.725120
 30
0.0
 10
107.840790
 20
150.110890
 30
0.0
 10
107.816780
 20
150.148110
 30
0.0
  0
SPLINE
  5
25e
100
AcDbEntity
  8
Layer_1
 62
7
100
AcDbSpline
 70
8
 71
3
 72
8
 73
4
 74
0
 40
0
 40
0
 40
0
 40
0
 40
1
 40
1
 40
1
 40
1
 10
107.816780
 20
150.148110
 30
0.0
 10
107.792780
 20
150.185310
 30
0.0
 10
107.522510
 20
150.483770
 30
0.0
 10
107.216200
 20
150.811330
 30
0.0
  0
LWPOLYLINE
  5
25f
100
AcDbEntity
  8
Layer_1
 62
7
100
AcDbPolyline
 90
3
 70
0
 10
108.116810
 20
147.752720
 30
0.0
 10
108.346610
 20
148.501220
 30
0.0
 10
108.103520
 20
149.290830
 30
0.0
  0
SPLINE
  5
260
100
AcDbEntity
  8
Layer_1
 62
7
100
AcDbSpline
 70
8
 71
3
 72
8
 73
4
 74
0
 40
0
 40
0
 40
0
 40
0
 40
1
 40
1
 40
1
 40
1
 10
105.846340
 20
151.589070
 30
0.0
 10
105.399230
 20
151.689260
 30
0.0
 10
105.006170
 20
151.768990
 30
0.0
 10
104.972860
 20
151.766230
 30
0.0
  0
SPLINE
  5
261
100
AcDbEntity
  8
Layer_1
 62
7
100
AcDbSpline
 70
8
 71
3
 72
8
 73
4
 74
0
 40
0
 40
0
 40
0
 40
0
 40
1
 40
1
 40
1
 40
1
 10
104.972860
 20
151.766230
 30
0.0
 10
104.917160
 20
151.761230
 30
0.0
 10
103.482110
 20
151.437070
 30
0.0
 10
103.370880
 20
151.403930
 30
0.0
  0
SPLINE
  5
262
100
AcDbEntity
  8
Layer_1
 62
7
100
AcDbSpline
 70
8
 71
3
 72
8
 73
4
 74
0
 40
0
 40
0
 40
0
 40
0
 40
1
 40
1
 40
1
 40
1
 10
103.370880
 20
151.403930
 30
0.0
 10
103.320780
 20
151.389030
 30
0.0
 10
102.259870
 20
150.266970
 30
0.0
 10
102.182680
 20
150.147290
 30
0.0
  0
SPLINE
  5
263
100
AcDbEntity
  8
Layer_1
 62
7
100
AcDbSpline
 70
8
 71
3
 72
8
 73
4
 74
0
 40
0
 40
0
 40
0
 40
0
 40
1
 40
1
 40
1
 40
1
 10
102.182680
 20
150.147290
 30
0.0
 10
102.158980
 20
150.110490
 30
0.0
 10
102.030180
 20
149.725120
 30
0.0
 10
101.896480
 20
149.290830
 30
0.0
  0
LWPOLYLINE
  5
264
100
AcDbEntity
  8
Layer_1
 62
7
100
AcDbPolyline
 90
3
 70
0
 10
107.216200
 20
150.811330
 30
0.0
 10
106.659260
 20
151.406890
 30
0.0
 10
105.846340
 20
151.589070
 30
0.0
  0
SPLINE
  5
265
100
AcDbEntity
  8
Layer_1
 62
7
100
AcDbSpline
 70
8
 71
3
 72
8
 73
4
 74
0
 40
0
 40
0
 40
0
 40
0
 40
1
 40
1
 40
1
 40
1
 10
101.883190
 20
147.752720
 30
0.0
 10
102.009580
 20
147.341050
 30
0.0
 10
102.129110
 20
146.965310
 30
0.0
 10
102.148810
 20
146.917750
 30
0.0
  0
SPLINE
  5
266
100
AcDbEntity
  8
Layer_1
 62
7
100
AcDbSpline
 70
8
 71
3
 72
8
 73
4
 74
0
 40
0
 40
0
 40
0
 40
0
 40
1
 40
1
 40
1
 40
1
 10
102.148810
 20
146.917750
 30
0.0
 10
102.198410
 20
146.797970
 30
0.0
 10
103.308860
 20
145.611290
 30
0.0
 10
103.390500
 20
145.590800
 30
0.0
  0
SPLINE
  5
267
100
AcDbEntity
  8
Layer_1
 62
7
100
AcDbSpline
 70
8
 71
3
 72
8
 73
4
 74
0
 40
0
 40
0
 40
0
 40
0
 40
1
 40
1
 40
1
 40
1
 10
103.390500
 20
145.590800
 30
0.0
 10
103.426700
 20
145.581800
 30
0.0
 10
103.802970
 20
145.494700
 30
0.0
 10
104.226630
 20
145.397480
 30
0.0
  0
LWPOLYLINE
  5
268
100
AcDbEntity
  8
Layer_1
 62
7
100
AcDbPolyline
 90
3
 70
0
 10
101.896480
 20
149.290830
 30
0.0
 10
101.653390
 20
148.501220
 30
0.0
 10
101.883190
 20
147.752720
 30
0.0
  0
SPLINE
  5
269
100
AcDbEntity
  8
Layer_1
 62
7
100
AcDbSpline
 70
8
 71
3
 72
8
 73
4
 74
0
 40
0
 40
0
 40
0
 40
0
 40
1
 40
1
 40
1
 40
1
 10
105.210120
 20
145.268790
 30
0.0
 10
105.327390
 20
145.295190
 30
0.0
 10
105.701570
 20
145.379020
 30
0.0
 10
106.041650
 20
145.455000
 30
0.0
  0
LWPOLYLINE
  5
26a
100
AcDbEntity
  8
Layer_1
 62
7
100
AcDbPolyline
 90
3
 70
0
 10
104.226630
 20
145.397480
 30
0.0
 10
104.996910
 20
145.220690
 30
0.0
 10
105.210120
 20
145.268790
 30
0.0
  0
LWPOLYLINE
  5
26b
100
AcDbEntity
  8
Layer_1
 62
7
100
AcDbPolyline
 90
1
 70
1
 10
106.041650
 20
145.455000
 30
0.0
  0
LWPOLYLINE
  5
26c
100
AcDbEntity
  8
Layer_1
 62
7
100
AcDbPolyline
 90
7
 70
1
 10
67.469480
 20
149.995950
 30
0.0
 10
66.719640
 20
151.491560
 30
0.0
 10
66.719670
 20
148.500000
 30
0.0
 10
66.719700
 20
145.508450
 30
0.0
 10
67.469500
 20
147.004400
 30
0.0
 10
68.219300
 20
148.500350
 30
0.0
 10
67.469460
 20
149.995950
 30
0.0
  0
SPLINE
  5
26d
100
AcDbEntity
  8
Layer_1
 62
7
100
AcDbSpline
 70
8
 71
3
 72
8
 73
4
 74
0
 40
0
 40
0
 40
0
 40
0
 40
1
 40
1
 40
1
 40
1
 10
142.524380
 20
147.011550
 30
0.0
 10
142.933620
 20
146.192600
 30
0.0
 10
143.271720
 20
145.522560
 30
0.0
 10
143.275720
 20
145.522560
 30
0.0
  0
SPLINE
  5
26e
100
AcDbEntity
  8
Layer_1
 62
7
100
AcDbSpline
 70
8
 71
3
 72
8
 73
4
 74
0
 40
0
 40
0
 40
0
 40
0
 40
1
 40
1
 40
1
 40
1
 10
143.275720
 20
145.522560
 30
0.0
 10
143.279720
 20
145.522560
 30
0.0
 10
143.282720
 20
146.865580
 30
0.0
 10
143.281720
 20
148.507060
 30
0.0
  0
LWPOLYLINE
  5
26f
100
AcDbEntity
  8
Layer_1
 62
7
100
AcDbPolyline
 90
5
 70
0
 10
143.281900
 20
148.507060
 30
0.0
 10
143.279900
 20
151.491560
 30
0.0
 10
142.530100
 20
149.996050
 30
0.0
 10
141.780310
 20
148.500530
 30
0.0
 10
142.524380
 20
147.011550
 30
0.0
  0
LWPOLYLINE
  5
270
100
AcDbEntity
  8
Layer_1
 62
7
100
AcDbPolyline
 90
2
 70
0
 10
143.281720
 20
148.507060
 30
0.0
 10
143.281900
 20
148.507060
 30
0.0
  0
SPLINE
  5
271
100
AcDbEntity
  8
Layer_1
 62
7
100
AcDbSpline
 70
8
 71
3
 72
8
 73
4
 74
0
 40
0
 40
0
 40
0
 40
0
 40
1
 40
1
 40
1
 40
1
 10
88.429270
 20
155.193890
 30
0.0
 10
88.324890
 20
155.522610
 30
0.0
 10
88.271020
 20
155.925110
 30
0.0
 10
88.282590
 20
156.289820
 30
0.0
  0
LWPOLYLINE
  5
272
100
AcDbEntity
  8
Layer_1
 62
7
100
AcDbPolyline
 90
3
 70
0
 10
85.919090
 20
152.601550
 30
0.0
 10
88.496870
 20
154.980910
 30
0.0
 10
88.429270
 20
155.193890
 30
0.0
  0
SPLINE
  5
273
100
AcDbEntity
  8
Layer_1
 62
7
100
AcDbSpline
 70
8
 71
3
 72
8
 73
4
 74
0
 40
0
 40
0
 40
0
 40
0
 40
1
 40
1
 40
1
 40
1
 10
85.371560
 20
158.310490
 30
0.0
 10
83.764940
 20
159.245980
 30
0.0
 10
82.428500
 20
160.024520
 30
0.0
 10
82.401700
 20
160.040570
 30
0.0
  0
SPLINE
  5
274
100
AcDbEntity
  8
Layer_1
 62
7
100
AcDbSpline
 70
8
 71
3
 72
8
 73
4
 74
0
 40
0
 40
0
 40
0
 40
0
 40
1
 40
1
 40
1
 40
1
 10
82.401700
 20
160.040570
 30
0.0
 10
82.361300
 20
160.064770
 30
0.0
 10
82.328000
 20
160.040970
 30
0.0
 10
82.206540
 20
159.901100
 30
0.0
  0
SPLINE
  5
275
100
AcDbEntity
  8
Layer_1
 62
7
100
AcDbSpline
 70
8
 71
3
 72
8
 73
4
 74
0
 40
0
 40
0
 40
0
 40
0
 40
1
 40
1
 40
1
 40
1
 10
82.206540
 20
159.901100
 30
0.0
 10
81.297360
 20
158.853970
 30
0.0
 10
80.056520
 20
158.161420
 30
0.0
 10
78.635080
 20
157.907740
 30
0.0
  0
SPLINE
  5
276
100
AcDbEntity
  8
Layer_1
 62
7
100
AcDbSpline
 70
8
 71
3
 72
8
 73
4
 74
0
 40
0
 40
0
 40
0
 40
0
 40
1
 40
1
 40
1
 40
1
 10
78.635080
 20
157.907740
 30
0.0
 10
78.327450
 20
157.852840
 30
0.0
 10
78.176740
 20
157.843240
 30
0.0
 10
77.624430
 20
157.843340
 30
0.0
  0
SPLINE
  5
277
100
AcDbEntity
  8
Layer_1
 62
7
100
AcDbSpline
 70
8
 71
3
 72
8
 73
4
 74
0
 40
0
 40
0
 40
0
 40
0
 40
1
 40
1
 40
1
 40
1
 10
77.624430
 20
157.843340
 30
0.0
 10
76.924750
 20
157.843340
 30
0.0
 10
76.712310
 20
157.868740
 30
0.0
 10
76.105810
 20
158.024030
 30
0.0
  0
LWPOLYLINE
  5
278
100
AcDbEntity
  8
Layer_1
 62
7
100
AcDbPolyline
 90
3
 70
0
 10
88.282590
 20
156.289820
 30
0.0
 10
88.292690
 20
156.609590
 30
0.0
 10
85.371560
 20
158.310490
 30
0.0
  0
SPLINE
  5
279
100
AcDbEntity
  8
Layer_1
 62
7
100
AcDbSpline
 70
8
 71
3
 72
8
 73
4
 74
0
 40
0
 40
0
 40
0
 40
0
 40
1
 40
1
 40
1
 40
1
 10
75.631380
 20
157.764240
 30
0.0
 10
75.538180
 20
157.578400
 30
0.0
 10
75.465940
 20
157.423240
 30
0.0
 10
75.470770
 20
157.419430
 30
0.0
  0
SPLINE
  5
27a
100
AcDbEntity
  8
Layer_1
 62
7
100
AcDbSpline
 70
8
 71
3
 72
8
 73
4
 74
0
 40
0
 40
0
 40
0
 40
0
 40
1
 40
1
 40
1
 40
1
 10
75.470770
 20
157.419430
 30
0.0
 10
75.475770
 20
157.415430
 30
0.0
 10
77.236400
 20
155.790680
 30
0.0
 10
79.383680
 20
153.808430
 30
0.0
  0
SPLINE
  5
27b
100
AcDbEntity
  8
Layer_1
 62
7
100
AcDbSpline
 70
8
 71
3
 72
8
 73
4
 74
0
 40
0
 40
0
 40
0
 40
0
 40
1
 40
1
 40
1
 40
1
 10
79.383680
 20
153.808430
 30
0.0
 10
81.530960
 20
151.826190
 30
0.0
 10
83.299860
 20
150.208360
 30
0.0
 10
83.314560
 20
150.213260
 30
0.0
  0
SPLINE
  5
27c
100
AcDbEntity
  8
Layer_1
 62
7
100
AcDbSpline
 70
8
 71
3
 72
8
 73
4
 74
0
 40
0
 40
0
 40
0
 40
0
 40
1
 40
1
 40
1
 40
1
 10
83.314560
 20
150.213260
 30
0.0
 10
83.329260
 20
150.218260
 30
0.0
 10
84.501300
 20
151.292890
 30
0.0
 10
85.919080
 20
152.601540
 30
0.0
  0
LWPOLYLINE
  5
27d
100
AcDbEntity
  8
Layer_1
 62
7
100
AcDbPolyline
 90
3
 70
0
 10
76.105810
 20
158.024030
 30
0.0
 10
75.800750
 20
158.102130
 30
0.0
 10
75.631380
 20
157.764240
 30
0.0
  0
SPLINE
  5
27e
100
AcDbEntity
  8
Layer_1
 62
7
100
AcDbSpline
 70
8
 71
3
 72
8
 73
4
 74
0
 40
0
 40
0
 40
0
 40
0
 40
1
 40
1
 40
1
 40
1
 10
130.604680
 20
153.795980
 30
0.0
 10
132.742830
 20
155.769670
 30
0.0
 10
134.502660
 20
157.393640
 30
0.0
 10
134.515420
 20
157.404810
 30
0.0
  0
SPLINE
  5
27f
100
AcDbEntity
  8
Layer_1
 62
7
100
AcDbSpline
 70
8
 71
3
 72
8
 73
4
 74
0
 40
0
 40
0
 40
0
 40
0
 40
1
 40
1
 40
1
 40
1
 10
134.515420
 20
157.404810
 30
0.0
 10
134.528220
 20
157.416010
 30
0.0
 10
134.462220
 20
157.577440
 30
0.0
 10
134.368920
 20
157.763620
 30
0.0
  0
LWPOLYLINE
  5
280
100
AcDbEntity
  8
Layer_1
 62
7
100
AcDbPolyline
 90
1
 70
1
 10
85.919080
 20
152.601540
 30
0.0
  0
SPLINE
  5
281
100
AcDbEntity
  8
Layer_1
 62
7
100
AcDbSpline
 70
8
 71
3
 72
8
 73
4
 74
0
 40
0
 40
0
 40
0
 40
0
 40
1
 40
1
 40
1
 40
1
 10
133.882180
 20
158.020540
 30
0.0
 10
133.296090
 20
157.869620
 30
0.0
 10
133.079270
 20
157.844160
 30
0.0
 10
132.375560
 20
157.843700
 30
0.0
  0
SPLINE
  5
282
100
AcDbEntity
  8
Layer_1
 62
7
100
AcDbSpline
 70
8
 71
3
 72
8
 73
4
 74
0
 40
0
 40
0
 40
0
 40
0
 40
1
 40
1
 40
1
 40
1
 10
132.375560
 20
157.843700
 30
0.0
 10
131.820580
 20
157.843330
 30
0.0
 10
131.673480
 20
157.852700
 30
0.0
 10
131.361230
 20
157.908400
 30
0.0
  0
SPLINE
  5
283
100
AcDbEntity
  8
Layer_1
 62
7
100
AcDbSpline
 70
8
 71
3
 72
8
 73
4
 74
0
 40
0
 40
0
 40
0
 40
0
 40
1
 40
1
 40
1
 40
1
 10
131.361230
 20
157.908400
 30
0.0
 10
130.163910
 20
158.121970
 30
0.0
 10
129.139310
 20
158.625010
 30
0.0
 10
128.241000
 20
159.440340
 30
0.0
  0
SPLINE
  5
284
100
AcDbEntity
  8
Layer_1
 62
7
100
AcDbSpline
 70
8
 71
3
 72
8
 73
4
 74
0
 40
0
 40
0
 40
0
 40
0
 40
1
 40
1
 40
1
 40
1
 10
128.241000
 20
159.440340
 30
0.0
 10
128.124580
 20
159.546000
 30
0.0
 10
127.946780
 20
159.728220
 30
0.0
 10
127.845890
 20
159.845280
 30
0.0
  0
SPLINE
  5
285
100
AcDbEntity
  8
Layer_1
 62
7
100
AcDbSpline
 70
8
 71
3
 72
8
 73
4
 74
0
 40
0
 40
0
 40
0
 40
0
 40
1
 40
1
 40
1
 40
1
 10
127.845890
 20
159.845280
 30
0.0
 10
127.744990
 20
159.962340
 30
0.0
 10
127.648570
 20
160.054700
 30
0.0
 10
127.631610
 20
160.050520
 30
0.0
  0
SPLINE
  5
286
100
AcDbEntity
  8
Layer_1
 62
7
100
AcDbSpline
 70
8
 71
3
 72
8
 73
4
 74
0
 40
0
 40
0
 40
0
 40
0
 40
1
 40
1
 40
1
 40
1
 10
127.631610
 20
160.050520
 30
0.0
 10
127.614610
 20
160.046520
 30
0.0
 10
126.274800
 20
159.270160
 30
0.0
 10
124.654160
 20
158.325660
 30
0.0
  0
LWPOLYLINE
  5
287
100
AcDbEntity
  8
Layer_1
 62
7
100
AcDbPolyline
 90
3
 70
0
 10
134.368920
 20
157.763620
 30
0.0
 10
134.199230
 20
158.102140
 30
0.0
 10
133.882180
 20
158.020540
 30
0.0
  0
SPLINE
  5
288
100
AcDbEntity
  8
Layer_1
 62
7
100
AcDbSpline
 70
8
 71
3
 72
8
 73
4
 74
0
 40
0
 40
0
 40
0
 40
0
 40
1
 40
1
 40
1
 40
1
 10
121.707560
 20
156.194880
 30
0.0
 10
121.707560
 20
155.765820
 30
0.0
 10
121.676160
 20
155.542120
 30
0.0
 10
121.565970
 20
155.184460
 30
0.0
  0
LWPOLYLINE
  5
289
100
AcDbEntity
  8
Layer_1
 62
7
100
AcDbPolyline
 90
3
 70
0
 10
124.654160
 20
158.325660
 30
0.0
 10
121.707560
 20
156.608390
 30
0.0
 10
121.707560
 20
156.194880
 30
0.0
  0
SPLINE
  5
28a
100
AcDbEntity
  8
Layer_1
 62
7
100
AcDbSpline
 70
8
 71
3
 72
8
 73
4
 74
0
 40
0
 40
0
 40
0
 40
0
 40
1
 40
1
 40
1
 40
1
 10
124.089110
 20
152.595070
 30
0.0
 10
125.511050
 20
151.281900
 30
0.0
 10
126.684060
 20
150.207490
 30
0.0
 10
126.695810
 20
150.207490
 30
0.0
  0
SPLINE
  5
28b
100
AcDbEntity
  8
Layer_1
 62
7
100
AcDbSpline
 70
8
 71
3
 72
8
 73
4
 74
0
 40
0
 40
0
 40
0
 40
0
 40
1
 40
1
 40
1
 40
1
 10
126.695810
 20
150.207490
 30
0.0
 10
126.707510
 20
150.207490
 30
0.0
 10
128.466560
 20
151.822330
 30
0.0
 10
130.604700
 20
153.796020
 30
0.0
  0
LWPOLYLINE
  5
28c
100
AcDbEntity
  8
Layer_1
 62
7
100
AcDbPolyline
 90
3
 70
0
 10
121.565970
 20
155.184460
 30
0.0
 10
121.503770
 20
154.982650
 30
0.0
 10
124.089110
 20
152.595070
 30
0.0
  0
SPLINE
  5
28d
100
AcDbEntity
  8
Layer_1
 62
7
100
AcDbSpline
 70
8
 71
3
 72
8
 73
4
 74
0
 40
0
 40
0
 40
0
 40
0
 40
1
 40
1
 40
1
 40
1
 10
99.448250
 20
150.865660
 30
0.0
 10
99.775410
 20
151.217970
 30
0.0
 10
99.965490
 20
151.445230
 30
0.0
 10
99.985280
 20
151.507720
 30
0.0
  0
SPLINE
  5
28e
100
AcDbEntity
  8
Layer_1
 62
7
100
AcDbSpline
 70
8
 71
3
 72
8
 73
4
 74
0
 40
0
 40
0
 40
0
 40
0
 40
1
 40
1
 40
1
 40
1
 10
99.985280
 20
151.507720
 30
0.0
 10
100.216850
 20
152.238970
 30
0.0
 10
100.382750
 20
152.817490
 30
0.0
 10
100.365230
 20
152.832570
 30
0.0
  0
SPLINE
  5
28f
100
AcDbEntity
  8
Layer_1
 62
7
100
AcDbSpline
 70
8
 71
3
 72
8
 73
4
 74
0
 40
0
 40
0
 40
0
 40
0
 40
1
 40
1
 40
1
 40
1
 10
100.365230
 20
152.832570
 30
0.0
 10
100.353230
 20
152.842970
 30
0.0
 10
100.025830
 20
152.922970
 30
0.0
 10
99.637780
 20
153.010500
 30
0.0
  0
SPLINE
  5
290
100
AcDbEntity
  8
Layer_1
 62
7
100
AcDbSpline
 70
8
 71
3
 72
8
 73
4
 74
0
 40
0
 40
0
 40
0
 40
0
 40
1
 40
1
 40
1
 40
1
 10
99.637780
 20
153.010500
 30
0.0
 10
98.891210
 20
153.178830
 30
0.0
 10
98.327910
 20
153.307430
 30
0.0
 10
96.660330
 20
153.690250
 30
0.0
  0
SPLINE
  5
291
100
AcDbEntity
  8
Layer_1
 62
7
100
AcDbSpline
 70
8
 71
3
 72
8
 73
4
 74
0
 40
0
 40
0
 40
0
 40
0
 40
1
 40
1
 40
1
 40
1
 10
96.660330
 20
153.690250
 30
0.0
 10
96.093770
 20
153.820310
 30
0.0
 10
95.625880
 20
153.922690
 30
0.0
 10
95.620570
 20
153.917750
 30
0.0
  0
SPLINE
  5
292
100
AcDbEntity
  8
Layer_1
 62
7
100
AcDbSpline
 70
8
 71
3
 72
8
 73
4
 74
0
 40
0
 40
0
 40
0
 40
0
 40
1
 40
1
 40
1
 40
1
 10
95.620570
 20
153.917750
 30
0.0
 10
95.613570
 20
153.910750
 30
0.0
 10
98.913350
 20
150.333590
 30
0.0
 10
98.937040
 20
150.322580
 30
0.0
  0
SPLINE
  5
293
100
AcDbEntity
  8
Layer_1
 62
7
100
AcDbSpline
 70
8
 71
3
 72
8
 73
4
 74
0
 40
0
 40
0
 40
0
 40
0
 40
1
 40
1
 40
1
 40
1
 10
98.937040
 20
150.322580
 30
0.0
 10
98.940040
 20
150.321580
 30
0.0
 10
99.169740
 20
150.565730
 30
0.0
 10
99.448250
 20
150.865660
 30
0.0
  0
LWPOLYLINE
  5
294
100
AcDbEntity
  8
Layer_1
 62
7
100
AcDbPolyline
 90
1
 70
1
 10
130.604700
 20
153.796020
 30
0.0
  0
SPLINE
  5
295
100
AcDbEntity
  8
Layer_1
 62
7
100
AcDbSpline
 70
8
 71
3
 72
8
 73
4
 74
0
 40
0
 40
0
 40
0
 40
0
 40
1
 40
1
 40
1
 40
1
 10
114.378370
 20
153.906280
 30
0.0
 10
114.383370
 20
153.918180
 30
0.0
 10
114.300570
 20
153.908280
 30
0.0
 10
114.194930
 20
153.884080
 30
0.0
  0
SPLINE
  5
296
100
AcDbEntity
  8
Layer_1
 62
7
100
AcDbSpline
 70
8
 71
3
 72
8
 73
4
 74
0
 40
0
 40
0
 40
0
 40
0
 40
1
 40
1
 40
1
 40
1
 10
114.194930
 20
153.884080
 30
0.0
 10
111.467110
 20
153.261900
 30
0.0
 10
109.640150
 20
152.839110
 30
0.0
 10
109.628330
 20
152.827280
 30
0.0
  0
SPLINE
  5
297
100
AcDbEntity
  8
Layer_1
 62
7
100
AcDbSpline
 70
8
 71
3
 72
8
 73
4
 74
0
 40
0
 40
0
 40
0
 40
0
 40
1
 40
1
 40
1
 40
1
 10
109.628330
 20
152.827280
 30
0.0
 10
109.616430
 20
152.815380
 30
0.0
 10
109.808730
 20
152.158430
 30
0.0
 10
110.014380
 20
151.508720
 30
0.0
  0
SPLINE
  5
298
100
AcDbEntity
  8
Layer_1
 62
7
100
AcDbSpline
 70
8
 71
3
 72
8
 73
4
 74
0
 40
0
 40
0
 40
0
 40
0
 40
1
 40
1
 40
1
 40
1
 10
110.014380
 20
151.508720
 30
0.0
 10
110.033780
 20
151.447420
 30
0.0
 10
110.226910
 20
151.216860
 30
0.0
 10
110.550870
 20
150.868140
 30
0.0
  0
LWPOLYLINE
  5
299
100
AcDbEntity
  8
Layer_1
 62
7
100
AcDbPolyline
 90
1
 70
1
 10
99.448250
 20
150.865660
 30
0.0
  0
SPLINE
  5
29a
100
AcDbEntity
  8
Layer_1
 62
7
100
AcDbSpline
 70
8
 71
3
 72
8
 73
4
 74
0
 40
0
 40
0
 40
0
 40
0
 40
1
 40
1
 40
1
 40
1
 10
112.713420
 20
152.103960
 30
0.0
 10
113.624420
 20
153.083340
 30
0.0
 10
114.373640
 20
153.894380
 30
0.0
 10
114.378370
 20
153.906270
 30
0.0
  0
LWPOLYLINE
  5
29b
100
AcDbEntity
  8
Layer_1
 62
7
100
AcDbPolyline
 90
3
 70
0
 10
110.550870
 20
150.868140
 30
0.0
 10
111.057060
 20
150.323270
 30
0.0
 10
112.713420
 20
152.103960
 30
0.0
  0
SPLINE
  5
29c
100
AcDbEntity
  8
Layer_1
 62
7
100
AcDbSpline
 70
8
 71
3
 72
8
 73
4
 74
0
 40
0
 40
0
 40
0
 40
0
 40
1
 40
1
 40
1
 40
1
 10
72.387670
 20
156.859480
 30
0.0
 10
72.388520
 20
156.878180
 30
0.0
 10
71.116050
 20
158.069400
 30
0.0
 10
69.559940
 20
159.506720
 30
0.0
  0
LWPOLYLINE
  5
29d
100
AcDbEntity
  8
Layer_1
 62
7
100
AcDbPolyline
 90
1
 70
1
 10
114.378370
 20
153.906270
 30
0.0
  0
SPLINE
  5
29e
100
AcDbEntity
  8
Layer_1
 62
7
100
AcDbSpline
 70
8
 71
3
 72
8
 73
4
 74
0
 40
0
 40
0
 40
0
 40
0
 40
1
 40
1
 40
1
 40
1
 10
70.997070
 20
154.054580
 30
0.0
 10
71.760690
 20
155.578620
 30
0.0
 10
72.386160
 20
156.840820
 30
0.0
 10
72.387020
 20
156.859480
 30
0.0
  0
LWPOLYLINE
  5
29f
100
AcDbEntity
  8
Layer_1
 62
7
100
AcDbPolyline
 90
7
 70
0
 10
69.559940
 20
159.506720
 30
0.0
 10
66.730660
 20
162.120030
 30
0.0
 10
66.722660
 20
159.585680
 30
0.0
 10
66.714660
 20
157.051340
 30
0.0
 10
68.161670
 20
154.167460
 30
0.0
 10
69.608680
 20
151.283590
 30
0.0
 10
70.997070
 20
154.054580
 30
0.0
  0
LWPOLYLINE
  5
2a0
100
AcDbEntity
  8
Layer_1
 62
7
100
AcDbPolyline
 90
2
 70
0
 10
72.387020
 20
156.859480
 30
0.0
 10
72.387670
 20
156.859480
 30
0.0
  0
SPLINE
  5
2a1
100
AcDbEntity
  8
Layer_1
 62
7
100
AcDbSpline
 70
8
 71
3
 72
8
 73
4
 74
0
 40
0
 40
0
 40
0
 40
0
 40
1
 40
1
 40
1
 40
1
 10
143.185330
 20
162.036550
 30
0.0
 10
142.765990
 20
161.668360
 30
0.0
 10
137.611260
 20
156.887140
 30
0.0
 10
137.611260
 20
156.866370
 30
0.0
  0
SPLINE
  5
2a2
100
AcDbEntity
  8
Layer_1
 62
7
100
AcDbSpline
 70
8
 71
3
 72
8
 73
4
 74
0
 40
0
 40
0
 40
0
 40
0
 40
1
 40
1
 40
1
 40
1
 10
137.611260
 20
156.866370
 30
0.0
 10
137.611260
 20
156.851770
 30
0.0
 10
138.236410
 20
155.589410
 30
0.0
 10
139.000480
 20
154.061170
 30
0.0
  0
LWPOLYLINE
  5
2a3
100
AcDbEntity
  8
Layer_1
 62
7
100
AcDbPolyline
 90
3
 70
0
 10
143.276830
 20
159.559370
 30
0.0
 10
143.284830
 20
162.123850
 30
0.0
 10
143.185330
 20
162.036550
 30
0.0
  0
SPLINE
  5
2a4
100
AcDbEntity
  8
Layer_1
 62
7
100
AcDbSpline
 70
8
 71
3
 72
8
 73
4
 74
0
 40
0
 40
0
 40
0
 40
0
 40
1
 40
1
 40
1
 40
1
 10
105.747890
 20
154.493900
 30
0.0
 10
106.128180
 20
154.582700
 30
0.0
 10
106.437660
 20
154.667420
 30
0.0
 10
106.435610
 20
154.682140
 30
0.0
  0
SPLINE
  5
2a5
100
AcDbEntity
  8
Layer_1
 62
7
100
AcDbSpline
 70
8
 71
3
 72
8
 73
4
 74
0
 40
0
 40
0
 40
0
 40
0
 40
1
 40
1
 40
1
 40
1
 10
106.435610
 20
154.682140
 30
0.0
 10
106.428610
 20
154.736040
 30
0.0
 10
105.004990
 20
159.351730
 30
0.0
 10
104.998050
 20
159.344650
 30
0.0
  0
SPLINE
  5
2a6
100
AcDbEntity
  8
Layer_1
 62
7
100
AcDbSpline
 70
8
 71
3
 72
8
 73
4
 74
0
 40
0
 40
0
 40
0
 40
0
 40
1
 40
1
 40
1
 40
1
 10
104.998050
 20
159.344650
 30
0.0
 10
104.987450
 20
159.333850
 30
0.0
 10
103.576980
 20
154.752090
 30
0.0
 10
103.568170
 20
154.699930
 30
0.0
  0
SPLINE
  5
2a7
100
AcDbEntity
  8
Layer_1
 62
7
100
AcDbSpline
 70
8
 71
3
 72
8
 73
4
 74
0
 40
0
 40
0
 40
0
 40
0
 40
1
 40
1
 40
1
 40
1
 10
103.568170
 20
154.699930
 30
0.0
 10
103.562170
 20
154.664030
 30
0.0
 10
103.693030
 20
154.624730
 30
0.0
 10
104.252110
 20
154.494430
 30
0.0
  0
SPLINE
  5
2a8
100
AcDbEntity
  8
Layer_1
 62
7
100
AcDbSpline
 70
8
 71
3
 72
8
 73
4
 74
0
 40
0
 40
0
 40
0
 40
0
 40
1
 40
1
 40
1
 40
1
 10
104.252110
 20
154.494430
 30
0.0
 10
104.632410
 20
154.405830
 30
0.0
 10
104.968960
 20
154.333100
 30
0.0
 10
105.000000
 20
154.332860
 30
0.0
  0
SPLINE
  5
2a9
100
AcDbEntity
  8
Layer_1
 62
7
100
AcDbSpline
 70
8
 71
3
 72
8
 73
4
 74
0
 40
0
 40
0
 40
0
 40
0
 40
1
 40
1
 40
1
 40
1
 10
105.000000
 20
154.332860
 30
0.0
 10
105.031000
 20
154.332580
 30
0.0
 10
105.367590
 20
154.405060
 30
0.0
 10
105.747890
 20
154.493900
 30
0.0
  0
LWPOLYLINE
  5
2aa
100
AcDbEntity
  8
Layer_1
 62
7
100
AcDbPolyline
 90
5
 70
0
 10
139.000480
 20
154.061170
 30
0.0
 10
140.389700
 20
151.282560
 30
0.0
 10
141.829750
 20
154.138750
 30
0.0
 10
143.269810
 20
156.994930
 30
0.0
 10
143.276830
 20
159.559370
 30
0.0
  0
LWPOLYLINE
  5
2ab
100
AcDbEntity
  8
Layer_1
 62
7
100
AcDbPolyline
 90
1
 70
1
 10
105.747890
 20
154.493900
 30
0.0
  0
SPLINE
  5
2ac
100
AcDbEntity
  8
Layer_1
 62
7
100
AcDbSpline
 70
8
 71
3
 72
8
 73
4
 74
0
 40
0
 40
0
 40
0
 40
0
 40
1
 40
1
 40
1
 40
1
 10
102.724860
 20
161.438240
 30
0.0
 10
102.154570
 20
161.964170
 30
0.0
 10
101.799270
 20
162.616590
 30
0.0
 10
101.670280
 20
163.374710
 30
0.0
  0
SPLINE
  5
2ad
100
AcDbEntity
  8
Layer_1
 62
7
100
AcDbSpline
 70
8
 71
3
 72
8
 73
4
 74
0
 40
0
 40
0
 40
0
 40
0
 40
1
 40
1
 40
1
 40
1
 10
101.670280
 20
163.374710
 30
0.0
 10
101.643980
 20
163.529060
 30
0.0
 10
101.618480
 20
163.659430
 30
0.0
 10
101.613580
 20
163.664420
 30
0.0
  0
SPLINE
  5
2ae
100
AcDbEntity
  8
Layer_1
 62
7
100
AcDbSpline
 70
8
 71
3
 72
8
 73
4
 74
0
 40
0
 40
0
 40
0
 40
0
 40
1
 40
1
 40
1
 40
1
 10
101.613580
 20
163.664420
 30
0.0
 10
101.608580
 20
163.669420
 30
0.0
 10
101.263670
 20
163.779270
 30
0.0
 10
100.846990
 20
163.908540
 30
0.0
  0
SPLINE
  5
2af
100
AcDbEntity
  8
Layer_1
 62
7
100
AcDbSpline
 70
8
 71
3
 72
8
 73
4
 74
0
 40
0
 40
0
 40
0
 40
0
 40
1
 40
1
 40
1
 40
1
 10
100.846990
 20
163.908540
 30
0.0
 10
100.035070
 20
164.160410
 30
0.0
 10
98.871400
 20
164.522400
 30
0.0
 10
96.537420
 20
165.249140
 30
0.0
  0
SPLINE
  5
2b0
100
AcDbEntity
  8
Layer_1
 62
7
100
AcDbSpline
 70
8
 71
3
 72
8
 73
4
 74
0
 40
0
 40
0
 40
0
 40
0
 40
1
 40
1
 40
1
 40
1
 10
96.537420
 20
165.249140
 30
0.0
 10
95.732500
 20
165.499780
 30
0.0
 10
95.070750
 20
165.700900
 30
0.0
 10
95.066880
 20
165.696090
 30
0.0
  0
SPLINE
  5
2b1
100
AcDbEntity
  8
Layer_1
 62
7
100
AcDbSpline
 70
8
 71
3
 72
8
 73
4
 74
0
 40
0
 40
0
 40
0
 40
0
 40
1
 40
1
 40
1
 40
1
 10
95.066880
 20
165.696090
 30
0.0
 10
95.053080
 20
165.678990
 30
0.0
 10
93.553320
 20
159.006000
 30
0.0
 10
93.561600
 20
158.998680
 30
0.0
  0
SPLINE
  5
2b2
100
AcDbEntity
  8
Layer_1
 62
7
100
AcDbSpline
 70
8
 71
3
 72
8
 73
4
 74
0
 40
0
 40
0
 40
0
 40
0
 40
1
 40
1
 40
1
 40
1
 10
93.561600
 20
158.998680
 30
0.0
 10
93.566600
 20
158.994680
 30
0.0
 10
93.667850
 20
158.913880
 30
0.0
 10
93.787410
 20
158.819290
 30
0.0
  0
SPLINE
  5
2b3
100
AcDbEntity
  8
Layer_1
 62
7
100
AcDbSpline
 70
8
 71
3
 72
8
 73
4
 74
0
 40
0
 40
0
 40
0
 40
0
 40
1
 40
1
 40
1
 40
1
 10
93.787410
 20
158.819290
 30
0.0
 10
94.398930
 20
158.335600
 30
0.0
 10
94.841830
 20
157.556430
 30
0.0
 10
94.979980
 20
156.721320
 30
0.0
  0
SPLINE
  5
2b4
100
AcDbEntity
  8
Layer_1
 62
7
100
AcDbSpline
 70
8
 71
3
 72
8
 73
4
 74
0
 40
0
 40
0
 40
0
 40
0
 40
1
 40
1
 40
1
 40
1
 10
94.979980
 20
156.721320
 30
0.0
 10
94.990580
 20
156.657320
 30
0.0
 10
95.015880
 20
156.611690
 30
0.0
 10
95.045680
 20
156.603140
 30
0.0
  0
SPLINE
  5
2b5
100
AcDbEntity
  8
Layer_1
 62
7
100
AcDbSpline
 70
8
 71
3
 72
8
 73
4
 74
0
 40
0
 40
0
 40
0
 40
0
 40
1
 40
1
 40
1
 40
1
 10
95.045680
 20
156.603140
 30
0.0
 10
95.072280
 20
156.595140
 30
0.0
 10
96.218040
 20
156.332660
 30
0.0
 10
97.591760
 20
156.019100
 30
0.0
  0
SPLINE
  5
2b6
100
AcDbEntity
  8
Layer_1
 62
7
100
AcDbSpline
 70
8
 71
3
 72
8
 73
4
 74
0
 40
0
 40
0
 40
0
 40
0
 40
1
 40
1
 40
1
 40
1
 10
97.591760
 20
156.019100
 30
0.0
 10
98.965470
 20
155.705530
 30
0.0
 10
100.318020
 20
155.395960
 30
0.0
 10
100.597420
 20
155.331160
 30
0.0
  0
SPLINE
  5
2b7
100
AcDbEntity
  8
Layer_1
 62
7
100
AcDbSpline
 70
8
 71
3
 72
8
 73
4
 74
0
 40
0
 40
0
 40
0
 40
0
 40
1
 40
1
 40
1
 40
1
 10
100.597420
 20
155.331160
 30
0.0
 10
100.876820
 20
155.266360
 30
0.0
 10
101.111570
 20
155.218170
 30
0.0
 10
101.119090
 20
155.224070
 30
0.0
  0
SPLINE
  5
2b8
100
AcDbEntity
  8
Layer_1
 62
7
100
AcDbSpline
 70
8
 71
3
 72
8
 73
4
 74
0
 40
0
 40
0
 40
0
 40
0
 40
1
 40
1
 40
1
 40
1
 10
101.119090
 20
155.224070
 30
0.0
 10
101.127090
 20
155.230070
 30
0.0
 10
101.546760
 20
156.579160
 30
0.0
 10
102.052760
 20
158.222260
 30
0.0
  0
LWPOLYLINE
  5
2b9
100
AcDbEntity
  8
Layer_1
 62
7
100
AcDbPolyline
 90
3
 70
0
 10
102.052670
 20
158.222260
 30
0.0
 10
102.972680
 20
161.209700
 30
0.0
 10
102.724860
 20
161.438240
 30
0.0
  0
SPLINE
  5
2ba
100
AcDbEntity
  8
Layer_1
 62
7
100
AcDbSpline
 70
8
 71
3
 72
8
 73
4
 74
0
 40
0
 40
0
 40
0
 40
0
 40
1
 40
1
 40
1
 40
1
 10
112.112000
 20
155.950670
 30
0.0
 10
113.586610
 20
156.287170
 30
0.0
 10
114.840230
 20
156.574410
 30
0.0
 10
114.897810
 20
156.588970
 30
0.0
  0
SPLINE
  5
2bb
100
AcDbEntity
  8
Layer_1
 62
7
100
AcDbSpline
 70
8
 71
3
 72
8
 73
4
 74
0
 40
0
 40
0
 40
0
 40
0
 40
1
 40
1
 40
1
 40
1
 10
114.897810
 20
156.588970
 30
0.0
 10
114.990010
 20
156.612270
 30
0.0
 10
115.004590
 20
156.627970
 30
0.0
 10
115.019910
 20
156.720510
 30
0.0
  0
SPLINE
  5
2bc
100
AcDbEntity
  8
Layer_1
 62
7
100
AcDbSpline
 70
8
 71
3
 72
8
 73
4
 74
0
 40
0
 40
0
 40
0
 40
0
 40
1
 40
1
 40
1
 40
1
 10
115.019910
 20
156.720510
 30
0.0
 10
115.158650
 20
157.558360
 30
0.0
 10
115.596060
 20
158.328660
 30
0.0
 10
116.212630
 20
158.820900
 30
0.0
  0
SPLINE
  5
2bd
100
AcDbEntity
  8
Layer_1
 62
7
100
AcDbSpline
 70
8
 71
3
 72
8
 73
4
 74
0
 40
0
 40
0
 40
0
 40
0
 40
1
 40
1
 40
1
 40
1
 10
116.212630
 20
158.820900
 30
0.0
 10
116.386240
 20
158.959510
 30
0.0
 10
116.428840
 20
159.008320
 30
0.0
 10
116.424230
 20
159.063350
 30
0.0
  0
SPLINE
  5
2be
100
AcDbEntity
  8
Layer_1
 62
7
100
AcDbSpline
 70
8
 71
3
 72
8
 73
4
 74
0
 40
0
 40
0
 40
0
 40
0
 40
1
 40
1
 40
1
 40
1
 10
116.424230
 20
159.063350
 30
0.0
 10
116.421230
 20
159.101250
 30
0.0
 10
116.084780
 20
160.610260
 30
0.0
 10
115.676930
 20
162.416700
 30
0.0
  0
SPLINE
  5
2bf
100
AcDbEntity
  8
Layer_1
 62
7
100
AcDbSpline
 70
8
 71
3
 72
8
 73
4
 74
0
 40
0
 40
0
 40
0
 40
0
 40
1
 40
1
 40
1
 40
1
 10
115.676930
 20
162.416700
 30
0.0
 10
115.065330
 20
165.125590
 30
0.0
 10
114.927860
 20
165.698980
 30
0.0
 10
114.892470
 20
165.688830
 30
0.0
  0
SPLINE
  5
2c0
100
AcDbEntity
  8
Layer_1
 62
7
100
AcDbSpline
 70
8
 71
3
 72
8
 73
4
 74
0
 40
0
 40
0
 40
0
 40
0
 40
1
 40
1
 40
1
 40
1
 10
114.892470
 20
165.688830
 30
0.0
 10
114.729480
 20
165.642030
 30
0.0
 10
108.390270
 20
163.668320
 30
0.0
 10
108.384610
 20
163.662580
 30
0.0
  0
SPLINE
  5
2c1
100
AcDbEntity
  8
Layer_1
 62
7
100
AcDbSpline
 70
8
 71
3
 72
8
 73
4
 74
0
 40
0
 40
0
 40
0
 40
0
 40
1
 40
1
 40
1
 40
1
 10
108.384610
 20
163.662580
 30
0.0
 10
108.380610
 20
163.658580
 30
0.0
 10
108.356010
 20
163.529060
 30
0.0
 10
108.329710
 20
163.374710
 30
0.0
  0
SPLINE
  5
2c2
100
AcDbEntity
  8
Layer_1
 62
7
100
AcDbSpline
 70
8
 71
3
 72
8
 73
4
 74
0
 40
0
 40
0
 40
0
 40
0
 40
1
 40
1
 40
1
 40
1
 10
108.329710
 20
163.374710
 30
0.0
 10
108.200910
 20
162.617750
 30
0.0
 10
107.848270
 20
161.969430
 30
0.0
 10
107.276000
 20
161.437500
 30
0.0
  0
LWPOLYLINE
  5
2c3
100
AcDbEntity
  8
Layer_1
 62
7
100
AcDbPolyline
 90
1
 70
1
 10
102.052760
 20
158.222260
 30
0.0
  0
SPLINE
  5
2c4
100
AcDbEntity
  8
Layer_1
 62
7
100
AcDbSpline
 70
8
 71
3
 72
8
 73
4
 74
0
 40
0
 40
0
 40
0
 40
0
 40
1
 40
1
 40
1
 40
1
 10
107.940800
 20
158.240350
 30
0.0
 10
108.442620
 20
156.608490
 30
0.0
 10
108.858350
 20
155.259030
 30
0.0
 10
108.864650
 20
155.241550
 30
0.0
  0
SPLINE
  5
2c5
100
AcDbEntity
  8
Layer_1
 62
7
100
AcDbSpline
 70
8
 71
3
 72
8
 73
4
 74
0
 40
0
 40
0
 40
0
 40
0
 40
1
 40
1
 40
1
 40
1
 10
108.864650
 20
155.241550
 30
0.0
 10
108.872650
 20
155.219250
 30
0.0
 10
108.959250
 20
155.229150
 30
0.0
 10
109.153490
 20
155.274350
 30
0.0
  0
SPLINE
  5
2c6
100
AcDbEntity
  8
Layer_1
 62
7
100
AcDbSpline
 70
8
 71
3
 72
8
 73
4
 74
0
 40
0
 40
0
 40
0
 40
0
 40
1
 40
1
 40
1
 40
1
 10
109.153490
 20
155.274350
 30
0.0
 10
109.306050
 20
155.309850
 30
0.0
 10
110.637380
 20
155.614210
 30
0.0
 10
112.111990
 20
155.950710
 30
0.0
  0
LWPOLYLINE
  5
2c7
100
AcDbEntity
  8
Layer_1
 62
7
100
AcDbPolyline
 90
3
 70
0
 10
107.276000
 20
161.437500
 30
0.0
 10
107.028410
 20
161.207360
 30
0.0
 10
107.940800
 20
158.240350
 30
0.0
  0
SPLINE
  5
2c8
100
AcDbEntity
  8
Layer_1
 62
7
100
AcDbSpline
 70
8
 71
3
 72
8
 73
4
 74
0
 40
0
 40
0
 40
0
 40
0
 40
1
 40
1
 40
1
 40
1
 10
89.887350
 20
159.080530
 30
0.0
 10
90.202750
 20
159.270670
 30
0.0
 10
90.496190
 20
159.393860
 30
0.0
 10
90.843750
 20
159.482020
 30
0.0
  0
SPLINE
  5
2c9
100
AcDbEntity
  8
Layer_1
 62
7
100
AcDbSpline
 70
8
 71
3
 72
8
 73
4
 74
0
 40
0
 40
0
 40
0
 40
0
 40
1
 40
1
 40
1
 40
1
 10
90.843750
 20
159.482020
 30
0.0
 10
90.991960
 20
159.519620
 30
0.0
 10
91.120860
 20
159.559620
 30
0.0
 10
91.130200
 20
159.570820
 30
0.0
  0
SPLINE
  5
2ca
100
AcDbEntity
  8
Layer_1
 62
7
100
AcDbSpline
 70
8
 71
3
 72
8
 73
4
 74
0
 40
0
 40
0
 40
0
 40
0
 40
1
 40
1
 40
1
 40
1
 10
91.130200
 20
159.570820
 30
0.0
 10
91.153000
 20
159.598320
 30
0.0
 10
92.691880
 20
166.434240
 30
0.0
 10
92.677880
 20
166.445770
 30
0.0
  0
SPLINE
  5
2cb
100
AcDbEntity
  8
Layer_1
 62
7
100
AcDbSpline
 70
8
 71
3
 72
8
 73
4
 74
0
 40
0
 40
0
 40
0
 40
0
 40
1
 40
1
 40
1
 40
1
 10
92.677880
 20
166.445770
 30
0.0
 10
92.671880
 20
166.450770
 30
0.0
 10
90.387240
 20
167.163070
 30
0.0
 10
87.601000
 20
168.028700
 30
0.0
  0
SPLINE
  5
2cc
100
AcDbEntity
  8
Layer_1
 62
7
100
AcDbSpline
 70
8
 71
3
 72
8
 73
4
 74
0
 40
0
 40
0
 40
0
 40
0
 40
1
 40
1
 40
1
 40
1
 10
87.601000
 20
168.028700
 30
0.0
 10
84.814760
 20
168.894340
 30
0.0
 10
82.527170
 20
169.607240
 30
0.0
 10
82.517460
 20
169.612930
 30
0.0
  0
SPLINE
  5
2cd
100
AcDbEntity
  8
Layer_1
 62
7
100
AcDbSpline
 70
8
 71
3
 72
8
 73
4
 74
0
 40
0
 40
0
 40
0
 40
0
 40
1
 40
1
 40
1
 40
1
 10
82.517460
 20
169.612930
 30
0.0
 10
82.498460
 20
169.624030
 30
0.0
 10
82.097670
 20
169.030760
 30
0.0
 10
82.097670
 20
168.991590
 30
0.0
  0
SPLINE
  5
2ce
100
AcDbEntity
  8
Layer_1
 62
7
100
AcDbSpline
 70
8
 71
3
 72
8
 73
4
 74
0
 40
0
 40
0
 40
0
 40
0
 40
1
 40
1
 40
1
 40
1
 10
82.097670
 20
168.991590
 30
0.0
 10
82.097670
 20
168.978690
 30
0.0
 10
82.205070
 20
168.858570
 30
0.0
 10
82.336330
 20
168.724700
 30
0.0
  0
SPLINE
  5
2cf
100
AcDbEntity
  8
Layer_1
 62
7
100
AcDbSpline
 70
8
 71
3
 72
8
 73
4
 74
0
 40
0
 40
0
 40
0
 40
0
 40
1
 40
1
 40
1
 40
1
 10
82.336330
 20
168.724700
 30
0.0
 10
83.266800
 20
167.775760
 30
0.0
 10
83.866640
 20
166.507510
 30
0.0
 10
84.018670
 20
165.167730
 30
0.0
  0
SPLINE
  5
2d0
100
AcDbEntity
  8
Layer_1
 62
7
100
AcDbSpline
 70
8
 71
3
 72
8
 73
4
 74
0
 40
0
 40
0
 40
0
 40
0
 40
1
 40
1
 40
1
 40
1
 10
84.018670
 20
165.167730
 30
0.0
 10
84.062070
 20
164.785600
 30
0.0
 10
84.038470
 20
163.853800
 30
0.0
 10
83.976870
 20
163.514180
 30
0.0
  0
SPLINE
  5
2d1
100
AcDbEntity
  8
Layer_1
 62
7
100
AcDbSpline
 70
8
 71
3
 72
8
 73
4
 74
0
 40
0
 40
0
 40
0
 40
0
 40
1
 40
1
 40
1
 40
1
 10
83.976870
 20
163.514180
 30
0.0
 10
83.916670
 20
163.182590
 30
0.0
 10
83.807350
 20
162.757360
 30
0.0
 10
83.721290
 20
162.520250
 30
0.0
  0
SPLINE
  5
2d2
100
AcDbEntity
  8
Layer_1
 62
7
100
AcDbSpline
 70
8
 71
3
 72
8
 73
4
 74
0
 40
0
 40
0
 40
0
 40
0
 40
1
 40
1
 40
1
 40
1
 10
83.721290
 20
162.520250
 30
0.0
 10
83.683490
 20
162.416120
 30
0.0
 10
83.655190
 20
162.328820
 30
0.0
 10
83.658290
 20
162.326250
 30
0.0
  0
SPLINE
  5
2d3
100
AcDbEntity
  8
Layer_1
 62
7
100
AcDbSpline
 70
8
 71
3
 72
8
 73
4
 74
0
 40
0
 40
0
 40
0
 40
0
 40
1
 40
1
 40
1
 40
1
 10
83.658290
 20
162.326250
 30
0.0
 10
83.691090
 20
162.299550
 30
0.0
 10
89.596410
 20
158.931020
 30
0.0
 10
89.612620
 20
158.929770
 30
0.0
  0
SPLINE
  5
2d4
100
AcDbEntity
  8
Layer_1
 62
7
100
AcDbSpline
 70
8
 71
3
 72
8
 73
4
 74
0
 40
0
 40
0
 40
0
 40
0
 40
1
 40
1
 40
1
 40
1
 10
89.612620
 20
158.929770
 30
0.0
 10
89.624720
 20
158.928840
 30
0.0
 10
89.748320
 20
158.996670
 30
0.0
 10
89.887380
 20
159.080490
 30
0.0
  0
LWPOLYLINE
  5
2d5
100
AcDbEntity
  8
Layer_1
 62
7
100
AcDbPolyline
 90
1
 70
1
 10
112.111990
 20
155.950710
 30
0.0
  0
LWPOLYLINE
  5
2d6
100
AcDbEntity
  8
Layer_1
 62
7
100
AcDbPolyline
 90
1
 70
1
 10
89.887380
 20
159.080490
 30
0.0
  0
SPLINE
  5
2d7
100
AcDbEntity
  8
Layer_1
 62
7
100
AcDbSpline
 70
8
 71
3
 72
8
 73
4
 74
0
 40
0
 40
0
 40
0
 40
0
 40
1
 40
1
 40
1
 40
1
 10
126.235030
 20
162.653230
 30
0.0
 10
126.035660
 20
163.275790
 30
0.0
 10
125.954720
 20
163.815040
 30
0.0
 10
125.955550
 20
164.515370
 30
0.0
  0
SPLINE
  5
2d8
100
AcDbEntity
  8
Layer_1
 62
7
100
AcDbSpline
 70
8
 71
3
 72
8
 73
4
 74
0
 40
0
 40
0
 40
0
 40
0
 40
1
 40
1
 40
1
 40
1
 10
125.955550
 20
164.515370
 30
0.0
 10
125.956550
 20
165.493890
 30
0.0
 10
126.159060
 20
166.355560
 30
0.0
 10
126.587880
 20
167.208060
 30
0.0
  0
SPLINE
  5
2d9
100
AcDbEntity
  8
Layer_1
 62
7
100
AcDbSpline
 70
8
 71
3
 72
8
 73
4
 74
0
 40
0
 40
0
 40
0
 40
0
 40
1
 40
1
 40
1
 40
1
 10
126.587880
 20
167.208060
 30
0.0
 10
126.899970
 20
167.828490
 30
0.0
 10
127.205720
 20
168.259190
 30
0.0
 10
127.663580
 20
168.723380
 30
0.0
  0
SPLINE
  5
2da
100
AcDbEntity
  8
Layer_1
 62
7
100
AcDbSpline
 70
8
 71
3
 72
8
 73
4
 74
0
 40
0
 40
0
 40
0
 40
0
 40
1
 40
1
 40
1
 40
1
 10
127.663580
 20
168.723380
 30
0.0
 10
127.794900
 20
168.856510
 30
0.0
 10
127.902330
 20
168.976560
 30
0.0
 10
127.902330
 20
168.990170
 30
0.0
  0
SPLINE
  5
2db
100
AcDbEntity
  8
Layer_1
 62
7
100
AcDbSpline
 70
8
 71
3
 72
8
 73
4
 74
0
 40
0
 40
0
 40
0
 40
0
 40
1
 40
1
 40
1
 40
1
 10
127.902330
 20
168.990170
 30
0.0
 10
127.902330
 20
169.003770
 30
0.0
 10
127.816630
 20
169.146190
 30
0.0
 10
127.711830
 20
169.306660
 30
0.0
  0
SPLINE
  5
2dc
100
AcDbEntity
  8
Layer_1
 62
7
100
AcDbSpline
 70
8
 71
3
 72
8
 73
4
 74
0
 40
0
 40
0
 40
0
 40
0
 40
1
 40
1
 40
1
 40
1
 10
127.711830
 20
169.306660
 30
0.0
 10
127.543990
 20
169.563710
 30
0.0
 10
127.512940
 20
169.597170
 30
0.0
 10
127.450780
 20
169.588010
 30
0.0
  0
SPLINE
  5
2dd
100
AcDbEntity
  8
Layer_1
 62
7
100
AcDbSpline
 70
8
 71
3
 72
8
 73
4
 74
0
 40
0
 40
0
 40
0
 40
0
 40
1
 40
1
 40
1
 40
1
 10
127.450780
 20
169.588010
 30
0.0
 10
127.384580
 20
169.578010
 30
0.0
 10
117.345840
 20
166.463320
 30
0.0
 10
117.322120
 20
166.445170
 30
0.0
  0
SPLINE
  5
2de
100
AcDbEntity
  8
Layer_1
 62
7
100
AcDbSpline
 70
8
 71
3
 72
8
 73
4
 74
0
 40
0
 40
0
 40
0
 40
0
 40
1
 40
1
 40
1
 40
1
 10
117.322120
 20
166.445170
 30
0.0
 10
117.308020
 20
166.434370
 30
0.0
 10
118.847140
 20
159.598190
 30
0.0
 10
118.869800
 20
159.570860
 30
0.0
  0
SPLINE
  5
2df
100
AcDbEntity
  8
Layer_1
 62
7
100
AcDbSpline
 70
8
 71
3
 72
8
 73
4
 74
0
 40
0
 40
0
 40
0
 40
0
 40
1
 40
1
 40
1
 40
1
 10
118.869800
 20
159.570860
 30
0.0
 10
118.878800
 20
159.559560
 30
0.0
 10
119.008040
 20
159.519660
 30
0.0
 10
119.156250
 20
159.482060
 30
0.0
  0
SPLINE
  5
2e0
100
AcDbEntity
  8
Layer_1
 62
7
100
AcDbSpline
 70
8
 71
3
 72
8
 73
4
 74
0
 40
0
 40
0
 40
0
 40
0
 40
1
 40
1
 40
1
 40
1
 10
119.156250
 20
159.482060
 30
0.0
 10
119.505730
 20
159.393360
 30
0.0
 10
119.800610
 20
159.269290
 30
0.0
 10
120.106530
 20
159.082080
 30
0.0
  0
SPLINE
  5
2e1
100
AcDbEntity
  8
Layer_1
 62
7
100
AcDbSpline
 70
8
 71
3
 72
8
 73
4
 74
0
 40
0
 40
0
 40
0
 40
0
 40
1
 40
1
 40
1
 40
1
 10
120.106530
 20
159.082080
 30
0.0
 10
120.242020
 20
158.999180
 30
0.0
 10
120.364390
 20
158.930600
 30
0.0
 10
120.378460
 20
158.929730
 30
0.0
  0
SPLINE
  5
2e2
100
AcDbEntity
  8
Layer_1
 62
7
100
AcDbSpline
 70
8
 71
3
 72
8
 73
4
 74
0
 40
0
 40
0
 40
0
 40
0
 40
1
 40
1
 40
1
 40
1
 10
120.378460
 20
158.929730
 30
0.0
 10
120.392560
 20
158.928860
 30
0.0
 10
121.739580
 20
159.692670
 30
0.0
 10
123.371930
 20
160.627080
 30
0.0
  0
LWPOLYLINE
  5
2e3
100
AcDbEntity
  8
Layer_1
 62
7
100
AcDbPolyline
 90
3
 70
0
 10
123.371930
 20
160.627040
 30
0.0
 10
126.339840
 20
162.325970
 30
0.0
 10
126.235030
 20
162.653230
 30
0.0
  0
SPLINE
  5
2e4
100
AcDbEntity
  8
Layer_1
 62
7
100
AcDbSpline
 70
8
 71
3
 72
8
 73
4
 74
0
 40
0
 40
0
 40
0
 40
0
 40
1
 40
1
 40
1
 40
1
 10
73.341970
 20
159.611690
 30
0.0
 10
71.717820
 20
161.236410
 30
0.0
 10
71.161350
 20
163.661840
 30
0.0
 10
71.908640
 20
165.858950
 30
0.0
  0
SPLINE
  5
2e5
100
AcDbEntity
  8
Layer_1
 62
7
100
AcDbSpline
 70
8
 71
3
 72
8
 73
4
 74
0
 40
0
 40
0
 40
0
 40
0
 40
1
 40
1
 40
1
 40
1
 10
71.908640
 20
165.858950
 30
0.0
 10
71.955040
 20
165.995400
 30
0.0
 10
71.990040
 20
166.109330
 30
0.0
 10
71.986540
 20
166.112130
 30
0.0
  0
SPLINE
  5
2e6
100
AcDbEntity
  8
Layer_1
 62
7
100
AcDbSpline
 70
8
 71
3
 72
8
 73
4
 74
0
 40
0
 40
0
 40
0
 40
0
 40
1
 40
1
 40
1
 40
1
 10
71.986540
 20
166.112130
 30
0.0
 10
71.922340
 20
166.162230
 30
0.0
 10
66.755400
 20
169.144560
 30
0.0
 10
66.732880
 20
169.144560
 30
0.0
  0
SPLINE
  5
2e7
100
AcDbEntity
  8
Layer_1
 62
7
100
AcDbSpline
 70
8
 71
3
 72
8
 73
4
 74
0
 40
0
 40
0
 40
0
 40
0
 40
1
 40
1
 40
1
 40
1
 10
66.732880
 20
169.144560
 30
0.0
 10
66.723880
 20
169.144560
 30
0.0
 10
66.716580
 20
168.326540
 30
0.0
 10
66.716580
 20
167.326750
 30
0.0
  0
LWPOLYLINE
  5
2e8
100
AcDbEntity
  8
Layer_1
 62
7
100
AcDbPolyline
 90
1
 70
1
 10
123.371930
 20
160.627080
 30
0.0
  0
SPLINE
  5
2e9
100
AcDbEntity
  8
Layer_1
 62
7
100
AcDbSpline
 70
8
 71
3
 72
8
 73
4
 74
0
 40
0
 40
0
 40
0
 40
0
 40
1
 40
1
 40
1
 40
1
 10
70.138530
 20
162.348140
 30
0.0
 10
73.470580
 20
159.270360
 30
0.0
 10
73.561410
 20
159.189090
 30
0.0
 10
73.596230
 20
159.254470
 30
0.0
  0
SPLINE
  5
2ea
100
AcDbEntity
  8
Layer_1
 62
7
100
AcDbSpline
 70
8
 71
3
 72
8
 73
4
 74
0
 40
0
 40
0
 40
0
 40
0
 40
1
 40
1
 40
1
 40
1
 10
73.596230
 20
159.254470
 30
0.0
 10
73.630130
 20
159.318070
 30
0.0
 10
73.616830
 20
159.336770
 30
0.0
 10
73.342000
 20
159.611690
 30
0.0
  0
LWPOLYLINE
  5
2eb
100
AcDbEntity
  8
Layer_1
 62
7
100
AcDbPolyline
 90
3
 70
0
 10
66.716580
 20
167.326750
 30
0.0
 10
66.716580
 20
165.508940
 30
0.0
 10
70.138530
 20
162.348140
 30
0.0
  0
LWPOLYLINE
  5
2ec
100
AcDbEntity
  8
Layer_1
 62
7
100
AcDbPolyline
 90
1
 70
1
 10
73.342000
 20
159.611690
 30
0.0
  0
SPLINE
  5
2ed
100
AcDbEntity
  8
Layer_1
 62
7
100
AcDbSpline
 70
8
 71
3
 72
8
 73
4
 74
0
 40
0
 40
0
 40
0
 40
0
 40
1
 40
1
 40
1
 40
1
 10
143.283440
 20
167.326480
 30
0.0
 10
143.283440
 20
168.326420
 30
0.0
 10
143.276440
 20
169.144560
 30
0.0
 10
143.268040
 20
169.144560
 30
0.0
  0
SPLINE
  5
2ee
100
AcDbEntity
  8
Layer_1
 62
7
100
AcDbSpline
 70
8
 71
3
 72
8
 73
4
 74
0
 40
0
 40
0
 40
0
 40
0
 40
1
 40
1
 40
1
 40
1
 10
143.268040
 20
169.144560
 30
0.0
 10
143.247740
 20
169.144560
 30
0.0
 10
138.456080
 20
166.378630
 30
0.0
 10
138.013970
 20
166.111680
 30
0.0
  0
SPLINE
  5
2ef
100
AcDbEntity
  8
Layer_1
 62
7
100
AcDbSpline
 70
8
 71
3
 72
8
 73
4
 74
0
 40
0
 40
0
 40
0
 40
0
 40
1
 40
1
 40
1
 40
1
 10
138.013970
 20
166.111680
 30
0.0
 10
138.010970
 20
166.109680
 30
0.0
 10
138.057770
 20
165.955420
 30
0.0
 10
138.118580
 20
165.768860
 30
0.0
  0
SPLINE
  5
2f0
100
AcDbEntity
  8
Layer_1
 62
7
100
AcDbSpline
 70
8
 71
3
 72
8
 73
4
 74
0
 40
0
 40
0
 40
0
 40
0
 40
1
 40
1
 40
1
 40
1
 10
138.118580
 20
165.768860
 30
0.0
 10
138.829640
 20
163.588600
 30
0.0
 10
138.254190
 20
161.195770
 30
0.0
 10
136.631460
 20
159.585190
 30
0.0
  0
SPLINE
  5
2f1
100
AcDbEntity
  8
Layer_1
 62
7
100
AcDbSpline
 70
8
 71
3
 72
8
 73
4
 74
0
 40
0
 40
0
 40
0
 40
0
 40
1
 40
1
 40
1
 40
1
 10
136.631460
 20
159.585190
 30
0.0
 10
136.384070
 20
159.339650
 30
0.0
 10
136.371180
 20
159.321050
 30
0.0
 10
136.401800
 20
159.253850
 30
0.0
  0
LWPOLYLINE
  5
2f2
100
AcDbEntity
  8
Layer_1
 62
7
100
AcDbPolyline
 90
3
 70
0
 10
139.988500
 20
162.465950
 30
0.0
 10
143.283440
 20
165.508410
 30
0.0
 10
143.283440
 20
167.326480
 30
0.0
  0
SPLINE
  5
2f3
100
AcDbEntity
  8
Layer_1
 62
7
100
AcDbSpline
 70
8
 71
3
 72
8
 73
4
 74
0
 40
0
 40
0
 40
0
 40
0
 40
1
 40
1
 40
1
 40
1
 10
136.563850
 20
159.303080
 30
0.0
 10
136.635150
 20
159.369280
 30
0.0
 10
138.176220
 20
160.792610
 30
0.0
 10
139.988440
 20
162.465960
 30
0.0
  0
LWPOLYLINE
  5
2f4
100
AcDbEntity
  8
Layer_1
 62
7
100
AcDbPolyline
 90
3
 70
0
 10
136.401800
 20
159.253850
 30
0.0
 10
136.434200
 20
159.182650
 30
0.0
 10
136.563850
 20
159.303080
 30
0.0
  0
SPLINE
  5
2f5
100
AcDbEntity
  8
Layer_1
 62
7
100
AcDbSpline
 70
8
 71
3
 72
8
 73
4
 74
0
 40
0
 40
0
 40
0
 40
0
 40
1
 40
1
 40
1
 40
1
 10
102.605880
 20
166.288330
 30
0.0
 10
102.857650
 20
166.539070
 30
0.0
 10
103.242880
 20
166.817250
 30
0.0
 10
103.506790
 20
166.938890
 30
0.0
  0
LWPOLYLINE
  5
2f6
100
AcDbEntity
  8
Layer_1
 62
7
100
AcDbPolyline
 90
1
 70
1
 10
139.988440
 20
162.465960
 30
0.0
  0
SPLINE
  5
2f7
100
AcDbEntity
  8
Layer_1
 62
7
100
AcDbSpline
 70
8
 71
3
 72
8
 73
4
 74
0
 40
0
 40
0
 40
0
 40
0
 40
1
 40
1
 40
1
 40
1
 10
103.669060
 20
167.853630
 30
0.0
 10
103.679260
 20
168.320330
 30
0.0
 10
103.687660
 20
169.872820
 30
0.0
 10
103.687660
 20
171.303620
 30
0.0
  0
LWPOLYLINE
  5
2f8
100
AcDbEntity
  8
Layer_1
 62
7
100
AcDbPolyline
 90
3
 70
0
 10
103.506790
 20
166.938890
 30
0.0
 10
103.650460
 20
167.005090
 30
0.0
 10
103.669060
 20
167.853630
 30
0.0
  0
SPLINE
  5
2f9
100
AcDbEntity
  8
Layer_1
 62
7
100
AcDbSpline
 70
8
 71
3
 72
8
 73
4
 74
0
 40
0
 40
0
 40
0
 40
0
 40
1
 40
1
 40
1
 40
1
 10
103.483050
 20
173.941350
 30
0.0
 10
102.580000
 20
174.101720
 30
0.0
 10
101.581170
 20
174.570250
 30
0.0
 10
100.808990
 20
175.195690
 30
0.0
  0
SPLINE
  5
2fa
100
AcDbEntity
  8
Layer_1
 62
7
100
AcDbSpline
 70
8
 71
3
 72
8
 73
4
 74
0
 40
0
 40
0
 40
0
 40
0
 40
1
 40
1
 40
1
 40
1
 10
100.808990
 20
175.195690
 30
0.0
 10
99.799870
 20
176.013040
 30
0.0
 10
99.020130
 20
177.263970
 30
0.0
 10
98.737680
 20
178.518670
 30
0.0
  0
SPLINE
  5
2fb
100
AcDbEntity
  8
Layer_1
 62
7
100
AcDbSpline
 70
8
 71
3
 72
8
 73
4
 74
0
 40
0
 40
0
 40
0
 40
0
 40
1
 40
1
 40
1
 40
1
 10
98.737680
 20
178.518670
 30
0.0
 10
98.718980
 20
178.601770
 30
0.0
 10
98.764880
 20
178.598970
 30
0.0
 10
98.165010
 20
178.553370
 30
0.0
  0
LWPOLYLINE
  5
2fc
100
AcDbEntity
  8
Layer_1
 62
7
100
AcDbPolyline
 90
3
 70
0
 10
103.687660
 20
171.303620
 30
0.0
 10
103.687660
 20
173.905050
 30
0.0
 10
103.483050
 20
173.941350
 30
0.0
  0
SPLINE
  5
2fd
100
AcDbEntity
  8
Layer_1
 62
7
100
AcDbSpline
 70
8
 71
3
 72
8
 73
4
 74
0
 40
0
 40
0
 40
0
 40
0
 40
1
 40
1
 40
1
 40
1
 10
97.933560
 20
178.406150
 30
0.0
 10
97.917760
 20
178.333650
 30
0.0
 10
97.390060
 20
175.995560
 30
0.0
 10
96.760870
 20
173.210410
 30
0.0
  0
SPLINE
  5
2fe
100
AcDbEntity
  8
Layer_1
 62
7
100
AcDbSpline
 70
8
 71
3
 72
8
 73
4
 74
0
 40
0
 40
0
 40
0
 40
0
 40
1
 40
1
 40
1
 40
1
 10
96.760870
 20
173.210410
 30
0.0
 10
96.131670
 20
170.425250
 30
0.0
 10
95.621670
 20
168.141700
 30
0.0
 10
95.627520
 20
168.135840
 30
0.0
  0
SPLINE
  5
2ff
100
AcDbEntity
  8
Layer_1
 62
7
100
AcDbSpline
 70
8
 71
3
 72
8
 73
4
 74
0
 40
0
 40
0
 40
0
 40
0
 40
1
 40
1
 40
1
 40
1
 10
95.627520
 20
168.135840
 30
0.0
 10
95.638320
 20
168.125040
 30
0.0
 10
102.302870
 20
166.045360
 30
0.0
 10
102.337770
 20
166.041880
 30
0.0
  0
SPLINE
  5
300
100
AcDbEntity
  8
Layer_1
 62
7
100
AcDbSpline
 70
8
 71
3
 72
8
 73
4
 74
0
 40
0
 40
0
 40
0
 40
0
 40
1
 40
1
 40
1
 40
1
 10
102.337770
 20
166.041880
 30
0.0
 10
102.348170
 20
166.040880
 30
0.0
 10
102.468800
 20
166.151690
 30
0.0
 10
102.605880
 20
166.288210
 30
0.0
  0
LWPOLYLINE
  5
301
100
AcDbEntity
  8
Layer_1
 62
7
100
AcDbPolyline
 90
3
 70
0
 10
98.165010
 20
178.553370
 30
0.0
 10
97.962260
 20
178.537970
 30
0.0
 10
97.933560
 20
178.406150
 30
0.0
  0
SPLINE
  5
302
100
AcDbEntity
  8
Layer_1
 62
7
100
AcDbSpline
 70
8
 71
3
 72
8
 73
4
 74
0
 40
0
 40
0
 40
0
 40
0
 40
1
 40
1
 40
1
 40
1
 10
111.010850
 20
167.081460
 30
0.0
 10
112.852510
 20
167.654200
 30
0.0
 10
114.364680
 20
168.128160
 30
0.0
 10
114.371230
 20
168.134720
 30
0.0
  0
SPLINE
  5
303
100
AcDbEntity
  8
Layer_1
 62
7
100
AcDbSpline
 70
8
 71
3
 72
8
 73
4
 74
0
 40
0
 40
0
 40
0
 40
0
 40
1
 40
1
 40
1
 40
1
 10
114.371230
 20
168.134720
 30
0.0
 10
114.382430
 20
168.145920
 30
0.0
 10
112.048650
 20
178.516540
 30
0.0
 10
112.031010
 20
178.534180
 30
0.0
  0
SPLINE
  5
304
100
AcDbEntity
  8
Layer_1
 62
7
100
AcDbSpline
 70
8
 71
3
 72
8
 73
4
 74
0
 40
0
 40
0
 40
0
 40
0
 40
1
 40
1
 40
1
 40
1
 10
112.031010
 20
178.534180
 30
0.0
 10
112.027010
 20
178.538180
 30
0.0
 10
111.858780
 20
178.553780
 30
0.0
 10
111.658210
 20
178.567780
 30
0.0
  0
SPLINE
  5
305
100
AcDbEntity
  8
Layer_1
 62
7
100
AcDbSpline
 70
8
 71
3
 72
8
 73
4
 74
0
 40
0
 40
0
 40
0
 40
0
 40
1
 40
1
 40
1
 40
1
 10
111.658210
 20
178.567780
 30
0.0
 10
111.278730
 20
178.594280
 30
0.0
 10
111.252610
 20
178.588480
 30
0.0
 10
111.251650
 20
178.478680
 30
0.0
  0
SPLINE
  5
306
100
AcDbEntity
  8
Layer_1
 62
7
100
AcDbSpline
 70
8
 71
3
 72
8
 73
4
 74
0
 40
0
 40
0
 40
0
 40
0
 40
1
 40
1
 40
1
 40
1
 10
111.251650
 20
178.478680
 30
0.0
 10
111.250670
 20
178.364190
 30
0.0
 10
110.957930
 20
177.551260
 30
0.0
 10
110.803490
 20
177.234110
 30
0.0
  0
SPLINE
  5
307
100
AcDbEntity
  8
Layer_1
 62
7
100
AcDbSpline
 70
8
 71
3
 72
8
 73
4
 74
0
 40
0
 40
0
 40
0
 40
0
 40
1
 40
1
 40
1
 40
1
 10
110.803490
 20
177.234110
 30
0.0
 10
110.427960
 20
176.462950
 30
0.0
 10
109.847180
 20
175.729500
 30
0.0
 10
109.185020
 20
175.190200
 30
0.0
  0
SPLINE
  5
308
100
AcDbEntity
  8
Layer_1
 62
7
100
AcDbSpline
 70
8
 71
3
 72
8
 73
4
 74
0
 40
0
 40
0
 40
0
 40
0
 40
1
 40
1
 40
1
 40
1
 10
109.185020
 20
175.190200
 30
0.0
 10
108.461410
 20
174.600860
 30
0.0
 10
107.511350
 20
174.145900
 30
0.0
 10
106.626750
 20
173.965110
 30
0.0
  0
LWPOLYLINE
  5
309
100
AcDbEntity
  8
Layer_1
 62
7
100
AcDbPolyline
 90
2
 70
0
 10
102.605880
 20
166.288210
 30
0.0
 10
102.605880
 20
166.288330
 30
0.0
  0
SPLINE
  5
30a
100
AcDbEntity
  8
Layer_1
 62
7
100
AcDbSpline
 70
8
 71
3
 72
8
 73
4
 74
0
 40
0
 40
0
 40
0
 40
0
 40
1
 40
1
 40
1
 40
1
 10
106.312330
 20
171.275740
 30
0.0
 10
106.312330
 20
169.831950
 30
0.0
 10
106.320330
 20
168.281520
 30
0.0
 10
106.330830
 20
167.830340
 30
0.0
  0
LWPOLYLINE
  5
30b
100
AcDbEntity
  8
Layer_1
 62
7
100
AcDbPolyline
 90
3
 70
0
 10
106.626750
 20
173.965110
 30
0.0
 10
106.312330
 20
173.900810
 30
0.0
 10
106.312330
 20
171.275740
 30
0.0
  0
SPLINE
  5
30c
100
AcDbEntity
  8
Layer_1
 62
7
100
AcDbSpline
 70
8
 71
3
 72
8
 73
4
 74
0
 40
0
 40
0
 40
0
 40
0
 40
1
 40
1
 40
1
 40
1
 10
106.577730
 20
166.892560
 30
0.0
 10
106.875450
 20
166.739480
 30
0.0
 10
107.255330
 20
166.451750
 30
0.0
 10
107.460790
 20
166.223730
 30
0.0
  0
SPLINE
  5
30d
100
AcDbEntity
  8
Layer_1
 62
7
100
AcDbSpline
 70
8
 71
3
 72
8
 73
4
 74
0
 40
0
 40
0
 40
0
 40
0
 40
1
 40
1
 40
1
 40
1
 10
107.460790
 20
166.223730
 30
0.0
 10
107.550890
 20
166.123730
 30
0.0
 10
107.633060
 20
166.041540
 30
0.0
 10
107.643430
 20
166.041030
 30
0.0
  0
SPLINE
  5
30e
100
AcDbEntity
  8
Layer_1
 62
7
100
AcDbSpline
 70
8
 71
3
 72
8
 73
4
 74
0
 40
0
 40
0
 40
0
 40
0
 40
1
 40
1
 40
1
 40
1
 10
107.643430
 20
166.041030
 30
0.0
 10
107.653830
 20
166.040530
 30
0.0
 10
109.169100
 20
166.508720
 30
0.0
 10
111.010760
 20
167.081460
 30
0.0
  0
LWPOLYLINE
  5
30f
100
AcDbEntity
  8
Layer_1
 62
7
100
AcDbPolyline
 90
3
 70
0
 10
106.330830
 20
167.830340
 30
0.0
 10
106.349330
 20
167.010000
 30
0.0
 10
106.577730
 20
166.892560
 30
0.0
  0
SPLINE
  5
310
100
AcDbEntity
  8
Layer_1
 62
7
100
AcDbSpline
 70
8
 71
3
 72
8
 73
4
 74
0
 40
0
 40
0
 40
0
 40
0
 40
1
 40
1
 40
1
 40
1
 10
73.553050
 20
168.620080
 30
0.0
 10
74.493640
 20
169.619050
 30
0.0
 10
75.606880
 20
170.225620
 30
0.0
 10
76.956840
 20
170.474700
 30
0.0
  0
SPLINE
  5
311
100
AcDbEntity
  8
Layer_1
 62
7
100
AcDbSpline
 70
8
 71
3
 72
8
 73
4
 74
0
 40
0
 40
0
 40
0
 40
0
 40
1
 40
1
 40
1
 40
1
 10
76.956840
 20
170.474700
 30
0.0
 10
77.351760
 20
170.547600
 30
0.0
 10
78.246990
 20
170.576130
 30
0.0
 10
78.655290
 20
170.528900
 30
0.0
  0
SPLINE
  5
312
100
AcDbEntity
  8
Layer_1
 62
7
100
AcDbSpline
 70
8
 71
3
 72
8
 73
4
 74
0
 40
0
 40
0
 40
0
 40
0
 40
1
 40
1
 40
1
 40
1
 10
78.655290
 20
170.528900
 30
0.0
 10
79.009640
 20
170.487900
 30
0.0
 10
79.373070
 20
170.414800
 30
0.0
 10
79.698780
 20
170.319010
 30
0.0
  0
LWPOLYLINE
  5
313
100
AcDbEntity
  8
Layer_1
 62
7
100
AcDbPolyline
 90
1
 70
1
 10
111.010760
 20
167.081460
 30
0.0
  0
SPLINE
  5
314
100
AcDbEntity
  8
Layer_1
 62
7
100
AcDbSpline
 70
8
 71
3
 72
8
 73
4
 74
0
 40
0
 40
0
 40
0
 40
0
 40
1
 40
1
 40
1
 40
1
 10
79.986870
 20
170.310310
 30
0.0
 10
80.032370
 20
170.368710
 30
0.0
 10
80.032370
 20
170.373410
 30
0.0
 10
79.986870
 20
170.393010
 30
0.0
  0
SPLINE
  5
315
100
AcDbEntity
  8
Layer_1
 62
7
100
AcDbSpline
 70
8
 71
3
 72
8
 73
4
 74
0
 40
0
 40
0
 40
0
 40
0
 40
1
 40
1
 40
1
 40
1
 10
79.986870
 20
170.393010
 30
0.0
 10
79.888770
 20
170.435310
 30
0.0
 10
70.670230
 20
173.293170
 30
0.0
 10
70.631710
 20
173.293170
 30
0.0
  0
SPLINE
  5
316
100
AcDbEntity
  8
Layer_1
 62
7
100
AcDbSpline
 70
8
 71
3
 72
8
 73
4
 74
0
 40
0
 40
0
 40
0
 40
0
 40
1
 40
1
 40
1
 40
1
 10
70.631710
 20
173.293170
 30
0.0
 10
70.609710
 20
173.293170
 30
0.0
 10
70.364360
 20
173.191940
 30
0.0
 10
70.086420
 20
173.068200
 30
0.0
  0
SPLINE
  5
317
100
AcDbEntity
  8
Layer_1
 62
7
100
AcDbSpline
 70
8
 71
3
 72
8
 73
4
 74
0
 40
0
 40
0
 40
0
 40
0
 40
1
 40
1
 40
1
 40
1
 10
70.086420
 20
173.068200
 30
0.0
 10
69.808470
 20
172.944470
 30
0.0
 10
69.343740
 20
172.750790
 30
0.0
 10
69.053680
 20
172.637810
 30
0.0
  0
LWPOLYLINE
  5
318
100
AcDbEntity
  8
Layer_1
 62
7
100
AcDbPolyline
 90
3
 70
0
 10
79.698780
 20
170.319010
 30
0.0
 10
79.938670
 20
170.248410
 30
0.0
 10
79.986870
 20
170.310310
 30
0.0
  0
SPLINE
  5
319
100
AcDbEntity
  8
Layer_1
 62
7
100
AcDbSpline
 70
8
 71
3
 72
8
 73
4
 74
0
 40
0
 40
0
 40
0
 40
0
 40
1
 40
1
 40
1
 40
1
 10
67.825020
 20
171.407250
 30
0.0
 10
68.985480
 20
170.725140
 30
0.0
 10
73.209000
 20
168.297730
 30
0.0
 10
73.234870
 20
168.298000
 30
0.0
  0
SPLINE
  5
31a
100
AcDbEntity
  8
Layer_1
 62
7
100
AcDbSpline
 70
8
 71
3
 72
8
 73
4
 74
0
 40
0
 40
0
 40
0
 40
0
 40
1
 40
1
 40
1
 40
1
 10
73.234870
 20
168.298000
 30
0.0
 10
73.242870
 20
168.298090
 30
0.0
 10
73.386330
 20
168.443000
 30
0.0
 10
73.553000
 20
168.620030
 30
0.0
  0
LWPOLYLINE
  5
31b
100
AcDbEntity
  8
Layer_1
 62
7
100
AcDbPolyline
 90
5
 70
0
 10
69.053680
 20
172.637810
 30
0.0
 10
68.526290
 20
172.432400
 30
0.0
 10
68.045520
 20
171.996310
 30
0.0
 10
67.564750
 20
171.560230
 30
0.0
 10
67.825020
 20
171.407250
 30
0.0
  0
SPLINE
  5
31c
100
AcDbEntity
  8
Layer_1
 62
7
100
AcDbSpline
 70
8
 71
3
 72
8
 73
4
 74
0
 40
0
 40
0
 40
0
 40
0
 40
1
 40
1
 40
1
 40
1
 10
138.147000
 20
169.080360
 30
0.0
 10
139.419060
 20
169.808070
 30
0.0
 10
142.201220
 20
171.414420
 30
0.0
 10
142.359760
 20
171.512710
 30
0.0
  0
LWPOLYLINE
  5
31d
100
AcDbEntity
  8
Layer_1
 62
7
100
AcDbPolyline
 90
1
 70
1
 10
73.553000
 20
168.620030
 30
0.0
  0
SPLINE
  5
31e
100
AcDbEntity
  8
Layer_1
 62
7
100
AcDbSpline
 70
8
 71
3
 72
8
 73
4
 74
0
 40
0
 40
0
 40
0
 40
0
 40
1
 40
1
 40
1
 40
1
 10
141.955390
 20
171.996830
 30
0.0
 10
141.660840
 20
172.262730
 30
0.0
 10
141.426950
 20
172.451100
 30
0.0
 10
141.355080
 20
172.480300
 30
0.0
  0
SPLINE
  5
31f
100
AcDbEntity
  8
Layer_1
 62
7
100
AcDbSpline
 70
8
 71
3
 72
8
 73
4
 74
0
 40
0
 40
0
 40
0
 40
0
 40
1
 40
1
 40
1
 40
1
 10
141.355080
 20
172.480300
 30
0.0
 10
141.290280
 20
172.506600
 30
0.0
 10
141.027480
 20
172.610460
 30
0.0
 10
140.771000
 20
172.711080
 30
0.0
  0
SPLINE
  5
320
100
AcDbEntity
  8
Layer_1
 62
7
100
AcDbSpline
 70
8
 71
3
 72
8
 73
4
 74
0
 40
0
 40
0
 40
0
 40
0
 40
1
 40
1
 40
1
 40
1
 10
140.771000
 20
172.711080
 30
0.0
 10
140.514510
 20
172.811690
 30
0.0
 10
140.146210
 20
172.965720
 30
0.0
 10
139.952560
 20
173.053370
 30
0.0
  0
SPLINE
  5
321
100
AcDbEntity
  8
Layer_1
 62
7
100
AcDbSpline
 70
8
 71
3
 72
8
 73
4
 74
0
 40
0
 40
0
 40
0
 40
0
 40
1
 40
1
 40
1
 40
1
 10
139.952560
 20
173.053370
 30
0.0
 10
139.758900
 20
173.140970
 30
0.0
 10
139.547760
 20
173.233100
 30
0.0
 10
139.483360
 20
173.258010
 30
0.0
  0
LWPOLYLINE
  5
322
100
AcDbEntity
  8
Layer_1
 62
7
100
AcDbPolyline
 90
3
 70
0
 10
142.359760
 20
171.512710
 30
0.0
 10
142.437960
 20
171.561210
 30
0.0
 10
141.955390
 20
171.996830
 30
0.0
  0
SPLINE
  5
323
100
AcDbEntity
  8
Layer_1
 62
7
100
AcDbSpline
 70
8
 71
3
 72
8
 73
4
 74
0
 40
0
 40
0
 40
0
 40
0
 40
1
 40
1
 40
1
 40
1
 10
134.699700
 20
171.853860
 30
0.0
 10
132.133080
 20
171.056670
 30
0.0
 10
130.022410
 20
170.395370
 30
0.0
 10
130.009330
 20
170.384310
 30
0.0
  0
SPLINE
  5
324
100
AcDbEntity
  8
Layer_1
 62
7
100
AcDbSpline
 70
8
 71
3
 72
8
 73
4
 74
0
 40
0
 40
0
 40
0
 40
0
 40
1
 40
1
 40
1
 40
1
 10
130.009330
 20
170.384310
 30
0.0
 10
129.967330
 20
170.348810
 30
0.0
 10
130.046430
 20
170.238810
 30
0.0
 10
130.098730
 20
170.260100
 30
0.0
  0
SPLINE
  5
325
100
AcDbEntity
  8
Layer_1
 62
7
100
AcDbSpline
 70
8
 71
3
 72
8
 73
4
 74
0
 40
0
 40
0
 40
0
 40
0
 40
1
 40
1
 40
1
 40
1
 10
130.098730
 20
170.260100
 30
0.0
 10
130.124730
 20
170.270700
 30
0.0
 10
130.315150
 20
170.322400
 30
0.0
 10
130.521940
 20
170.375040
 30
0.0
  0
SPLINE
  5
326
100
AcDbEntity
  8
Layer_1
 62
7
100
AcDbSpline
 70
8
 71
3
 72
8
 73
4
 74
0
 40
0
 40
0
 40
0
 40
0
 40
1
 40
1
 40
1
 40
1
 10
130.521940
 20
170.375040
 30
0.0
 10
131.948240
 20
170.738170
 30
0.0
 10
133.522290
 20
170.554190
 30
0.0
 10
134.816730
 20
169.873060
 30
0.0
  0
SPLINE
  5
327
100
AcDbEntity
  8
Layer_1
 62
7
100
AcDbSpline
 70
8
 71
3
 72
8
 73
4
 74
0
 40
0
 40
0
 40
0
 40
0
 40
1
 40
1
 40
1
 40
1
 10
134.816730
 20
169.873060
 30
0.0
 10
135.428430
 20
169.551180
 30
0.0
 10
135.939940
 20
169.158630
 30
0.0
 10
136.439810
 20
168.627440
 30
0.0
  0
SPLINE
  5
328
100
AcDbEntity
  8
Layer_1
 62
7
100
AcDbSpline
 70
8
 71
3
 72
8
 73
4
 74
0
 40
0
 40
0
 40
0
 40
0
 40
1
 40
1
 40
1
 40
1
 10
136.439810
 20
168.627440
 30
0.0
 10
136.647440
 20
168.406800
 30
0.0
 10
136.763940
 20
168.303120
 30
0.0
 10
136.792280
 20
168.313760
 30
0.0
  0
SPLINE
  5
329
100
AcDbEntity
  8
Layer_1
 62
7
100
AcDbSpline
 70
8
 71
3
 72
8
 73
4
 74
0
 40
0
 40
0
 40
0
 40
0
 40
1
 40
1
 40
1
 40
1
 10
136.792280
 20
168.313760
 30
0.0
 10
136.815580
 20
168.322760
 30
0.0
 10
137.425170
 20
168.667480
 30
0.0
 10
138.146950
 20
169.080390
 30
0.0
  0
LWPOLYLINE
  5
32a
100
AcDbEntity
  8
Layer_1
 62
7
100
AcDbPolyline
 90
3
 70
0
 10
139.483360
 20
173.258010
 30
0.0
 10
139.366280
 20
173.303310
 30
0.0
 10
134.699700
 20
171.853860
 30
0.0
  0
SPLINE
  5
32b
100
AcDbEntity
  8
Layer_1
 62
7
100
AcDbSpline
 70
8
 71
3
 72
8
 73
4
 74
0
 40
0
 40
0
 40
0
 40
0
 40
1
 40
1
 40
1
 40
1
 10
121.552330
 20
170.358740
 30
0.0
 10
124.012610
 20
171.123060
 30
0.0
 10
126.035440
 20
171.757270
 30
0.0
 10
126.047510
 20
171.768080
 30
0.0
  0
SPLINE
  5
32c
100
AcDbEntity
  8
Layer_1
 62
7
100
AcDbSpline
 70
8
 71
3
 72
8
 73
4
 74
0
 40
0
 40
0
 40
0
 40
0
 40
1
 40
1
 40
1
 40
1
 10
126.047510
 20
171.768080
 30
0.0
 10
126.065810
 20
171.784480
 30
0.0
 10
122.119780
 20
177.807030
 30
0.0
 10
122.019850
 20
177.915110
 30
0.0
  0
SPLINE
  5
32d
100
AcDbEntity
  8
Layer_1
 62
7
100
AcDbSpline
 70
8
 71
3
 72
8
 73
4
 74
0
 40
0
 40
0
 40
0
 40
0
 40
1
 40
1
 40
1
 40
1
 10
122.019850
 20
177.915110
 30
0.0
 10
121.995650
 20
177.941210
 30
0.0
 10
121.162690
 20
178.000210
 30
0.0
 10
118.926160
 20
178.134080
 30
0.0
  0
SPLINE
  5
32e
100
AcDbEntity
  8
Layer_1
 62
7
100
AcDbSpline
 70
8
 71
3
 72
8
 73
4
 74
0
 40
0
 40
0
 40
0
 40
0
 40
1
 40
1
 40
1
 40
1
 10
118.926160
 20
178.134080
 30
0.0
 10
117.242830
 20
178.234840
 30
0.0
 10
115.586160
 20
178.334400
 30
0.0
 10
115.244670
 20
178.355320
 30
0.0
  0
SPLINE
  5
32f
100
AcDbEntity
  8
Layer_1
 62
7
100
AcDbSpline
 70
8
 71
3
 72
8
 73
4
 74
0
 40
0
 40
0
 40
0
 40
0
 40
1
 40
1
 40
1
 40
1
 10
115.244670
 20
178.355320
 30
0.0
 10
114.903180
 20
178.376220
 30
0.0
 10
114.621280
 20
178.391620
 30
0.0
 10
114.618230
 20
178.389520
 30
0.0
  0
SPLINE
  5
330
100
AcDbEntity
  8
Layer_1
 62
7
100
AcDbSpline
 70
8
 71
3
 72
8
 73
4
 74
0
 40
0
 40
0
 40
0
 40
0
 40
1
 40
1
 40
1
 40
1
 10
114.618230
 20
178.389520
 30
0.0
 10
114.615230
 20
178.387520
 30
0.0
 10
115.094520
 20
176.252440
 30
0.0
 10
115.683430
 20
173.645170
 30
0.0
  0
SPLINE
  5
331
100
AcDbEntity
  8
Layer_1
 62
7
100
AcDbSpline
 70
8
 71
3
 72
8
 73
4
 74
0
 40
0
 40
0
 40
0
 40
0
 40
1
 40
1
 40
1
 40
1
 10
115.683430
 20
173.645170
 30
0.0
 10
116.272340
 20
171.037900
 30
0.0
 10
116.754260
 20
168.896490
 30
0.0
 10
116.754360
 20
168.886470
 30
0.0
  0
SPLINE
  5
332
100
AcDbEntity
  8
Layer_1
 62
7
100
AcDbSpline
 70
8
 71
3
 72
8
 73
4
 74
0
 40
0
 40
0
 40
0
 40
0
 40
1
 40
1
 40
1
 40
1
 10
116.754360
 20
168.886470
 30
0.0
 10
116.754360
 20
168.876470
 30
0.0
 10
116.827560
 20
168.890470
 30
0.0
 10
116.916830
 20
168.918670
 30
0.0
  0
SPLINE
  5
333
100
AcDbEntity
  8
Layer_1
 62
7
100
AcDbSpline
 70
8
 71
3
 72
8
 73
4
 74
0
 40
0
 40
0
 40
0
 40
0
 40
1
 40
1
 40
1
 40
1
 10
116.916830
 20
168.918670
 30
0.0
 10
117.006130
 20
168.946370
 30
0.0
 10
119.092060
 20
169.594430
 30
0.0
 10
121.552330
 20
170.358750
 30
0.0
  0
LWPOLYLINE
  5
334
100
AcDbEntity
  8
Layer_1
 62
7
100
AcDbPolyline
 90
1
 70
1
 10
138.146950
 20
169.080390
 30
0.0
  0
SPLINE
  5
335
100
AcDbEntity
  8
Layer_1
 62
7
100
AcDbSpline
 70
8
 71
3
 72
8
 73
4
 74
0
 40
0
 40
0
 40
0
 40
0
 40
1
 40
1
 40
1
 40
1
 10
93.314350
 20
169.208060
 30
0.0
 10
93.540370
 20
170.188010
 30
0.0
 10
95.386440
 20
178.386220
 30
0.0
 10
95.381780
 20
178.389290
 30
0.0
  0
SPLINE
  5
336
100
AcDbEntity
  8
Layer_1
 62
7
100
AcDbSpline
 70
8
 71
3
 72
8
 73
4
 74
0
 40
0
 40
0
 40
0
 40
0
 40
1
 40
1
 40
1
 40
1
 10
95.381780
 20
178.389290
 30
0.0
 10
95.378780
 20
178.391290
 30
0.0
 10
94.684070
 20
178.350990
 30
0.0
 10
93.838110
 20
178.299690
 30
0.0
  0
SPLINE
  5
337
100
AcDbEntity
  8
Layer_1
 62
7
100
AcDbSpline
 70
8
 71
3
 72
8
 73
4
 74
0
 40
0
 40
0
 40
0
 40
0
 40
1
 40
1
 40
1
 40
1
 10
93.838110
 20
178.299690
 30
0.0
 10
92.992150
 20
178.248390
 30
0.0
 10
91.335020
 20
178.148460
 30
0.0
 10
90.155600
 20
178.077640
 30
0.0
  0
SPLINE
  5
338
100
AcDbEntity
  8
Layer_1
 62
7
100
AcDbSpline
 70
8
 71
3
 72
8
 73
4
 74
0
 40
0
 40
0
 40
0
 40
0
 40
1
 40
1
 40
1
 40
1
 10
90.155600
 20
178.077640
 30
0.0
 10
88.637100
 20
177.986440
 30
0.0
 10
88.001850
 20
177.938730
 30
0.0
 10
87.979170
 20
177.914120
 30
0.0
  0
SPLINE
  5
339
100
AcDbEntity
  8
Layer_1
 62
7
100
AcDbSpline
 70
8
 71
3
 72
8
 73
4
 74
0
 40
0
 40
0
 40
0
 40
0
 40
1
 40
1
 40
1
 40
1
 10
87.979170
 20
177.914120
 30
0.0
 10
87.922270
 20
177.852420
 30
0.0
 10
83.965200
 20
171.841120
 30
0.0
 10
83.955550
 20
171.801780
 30
0.0
  0
SPLINE
  5
33a
100
AcDbEntity
  8
Layer_1
 62
7
100
AcDbSpline
 70
8
 71
3
 72
8
 73
4
 74
0
 40
0
 40
0
 40
0
 40
0
 40
1
 40
1
 40
1
 40
1
 10
83.955550
 20
171.801780
 30
0.0
 10
83.948550
 20
171.774080
 30
0.0
 10
85.199870
 20
171.372910
 30
0.0
 10
88.546440
 20
170.329570
 30
0.0
  0
SPLINE
  5
33b
100
AcDbEntity
  8
Layer_1
 62
7
100
AcDbSpline
 70
8
 71
3
 72
8
 73
4
 74
0
 40
0
 40
0
 40
0
 40
0
 40
1
 40
1
 40
1
 40
1
 10
88.546440
 20
170.329570
 30
0.0
 10
91.076570
 20
169.540760
 30
0.0
 10
93.167920
 20
168.894300
 30
0.0
 10
93.193890
 20
168.892980
 30
0.0
  0
SPLINE
  5
33c
100
AcDbEntity
  8
Layer_1
 62
7
100
AcDbSpline
 70
8
 71
3
 72
8
 73
4
 74
0
 40
0
 40
0
 40
0
 40
0
 40
1
 40
1
 40
1
 40
1
 10
93.193890
 20
168.892980
 30
0.0
 10
93.231390
 20
168.890980
 30
0.0
 10
93.256290
 20
168.956280
 30
0.0
 10
93.314350
 20
169.208080
 30
0.0
  0
LWPOLYLINE
  5
33d
100
AcDbEntity
  8
Layer_1
 62
7
100
AcDbPolyline
 90
1
 70
1
 10
121.552330
 20
170.358750
 30
0.0
  0
SPLINE
  5
33e
100
AcDbEntity
  8
Layer_1
 62
7
100
AcDbSpline
 70
8
 71
3
 72
8
 73
4
 74
0
 40
0
 40
0
 40
0
 40
0
 40
1
 40
1
 40
1
 40
1
 10
83.186770
 20
175.162120
 30
0.0
 10
84.812310
 20
177.624880
 30
0.0
 10
84.883790
 20
177.738590
 30
0.0
 10
84.811180
 20
177.746590
 30
0.0
  0
SPLINE
  5
33f
100
AcDbEntity
  8
Layer_1
 62
7
100
AcDbSpline
 70
8
 71
3
 72
8
 73
4
 74
0
 40
0
 40
0
 40
0
 40
0
 40
1
 40
1
 40
1
 40
1
 10
84.811180
 20
177.746590
 30
0.0
 10
84.747680
 20
177.753590
 30
0.0
 10
82.732410
 20
177.637650
 30
0.0
 10
79.275440
 20
177.428170
 30
0.0
  0
SPLINE
  5
340
100
AcDbEntity
  8
Layer_1
 62
7
100
AcDbSpline
 70
8
 71
3
 72
8
 73
4
 74
0
 40
0
 40
0
 40
0
 40
0
 40
1
 40
1
 40
1
 40
1
 10
79.275440
 20
177.428170
 30
0.0
 10
78.895150
 20
177.405170
 30
0.0
 10
78.253800
 20
177.366670
 30
0.0
 10
77.850220
 20
177.342670
 30
0.0
  0
SPLINE
  5
341
100
AcDbEntity
  8
Layer_1
 62
7
100
AcDbSpline
 70
8
 71
3
 72
8
 73
4
 74
0
 40
0
 40
0
 40
0
 40
0
 40
1
 40
1
 40
1
 40
1
 10
77.850220
 20
177.342670
 30
0.0
 10
77.446640
 20
177.318670
 30
0.0
 10
76.928110
 20
177.286770
 30
0.0
 10
76.697920
 20
177.271670
 30
0.0
  0
SPLINE
  5
342
100
AcDbEntity
  8
Layer_1
 62
7
100
AcDbSpline
 70
8
 71
3
 72
8
 73
4
 74
0
 40
0
 40
0
 40
0
 40
0
 40
1
 40
1
 40
1
 40
1
 10
76.697920
 20
177.271670
 30
0.0
 10
76.467730
 20
177.256670
 30
0.0
 10
76.257460
 20
177.244370
 30
0.0
 10
76.230640
 20
177.244370
 30
0.0
  0
SPLINE
  5
343
100
AcDbEntity
  8
Layer_1
 62
7
100
AcDbSpline
 70
8
 71
3
 72
8
 73
4
 74
0
 40
0
 40
0
 40
0
 40
0
 40
1
 40
1
 40
1
 40
1
 10
76.230640
 20
177.244370
 30
0.0
 10
76.203840
 20
177.244370
 30
0.0
 10
75.998460
 20
177.071530
 30
0.0
 10
75.774270
 20
176.860280
 30
0.0
  0
SPLINE
  5
344
100
AcDbEntity
  8
Layer_1
 62
7
100
AcDbSpline
 70
8
 71
3
 72
8
 73
4
 74
0
 40
0
 40
0
 40
0
 40
0
 40
1
 40
1
 40
1
 40
1
 10
75.774270
 20
176.860280
 30
0.0
 10
75.252010
 20
176.368150
 30
0.0
 10
74.620820
 20
175.838530
 30
0.0
 10
74.002860
 20
175.373920
 30
0.0
  0
LWPOLYLINE
  5
345
100
AcDbEntity
  8
Layer_1
 62
7
100
AcDbPolyline
 90
1
 70
1
 10
93.314350
 20
169.208080
 30
0.0
  0
SPLINE
  5
346
100
AcDbEntity
  8
Layer_1
 62
7
100
AcDbSpline
 70
8
 71
3
 72
8
 73
4
 74
0
 40
0
 40
0
 40
0
 40
0
 40
1
 40
1
 40
1
 40
1
 10
77.474190
 20
173.773100
 30
0.0
 10
79.652330
 20
173.094830
 30
0.0
 10
81.446130
 20
172.550260
 30
0.0
 10
81.460420
 20
172.562960
 30
0.0
  0
SPLINE
  5
347
100
AcDbEntity
  8
Layer_1
 62
7
100
AcDbSpline
 70
8
 71
3
 72
8
 73
4
 74
0
 40
0
 40
0
 40
0
 40
0
 40
1
 40
1
 40
1
 40
1
 10
81.460420
 20
172.562960
 30
0.0
 10
81.474720
 20
172.575660
 30
0.0
 10
82.251570
 20
173.745290
 30
0.0
 10
83.186770
 20
175.162150
 30
0.0
  0
LWPOLYLINE
  5
348
100
AcDbEntity
  8
Layer_1
 62
7
100
AcDbPolyline
 90
3
 70
0
 10
74.002860
 20
175.373920
 30
0.0
 10
73.513940
 20
175.006330
 30
0.0
 10
77.474190
 20
173.773100
 30
0.0
  0
LWPOLYLINE
  5
349
100
AcDbEntity
  8
Layer_1
 62
7
100
AcDbPolyline
 90
1
 70
1
 10
83.186770
 20
175.162150
 30
0.0
  0
SPLINE
  5
34a
100
AcDbEntity
  8
Layer_1
 62
7
100
AcDbSpline
 70
8
 71
3
 72
8
 73
4
 74
0
 40
0
 40
0
 40
0
 40
0
 40
1
 40
1
 40
1
 40
1
 10
136.416250
 20
175.057070
 30
0.0
 10
136.379150
 20
175.088170
 30
0.0
 10
136.235910
 20
175.195750
 30
0.0
 10
136.097860
 20
175.296250
 30
0.0
  0
SPLINE
  5
34b
100
AcDbEntity
  8
Layer_1
 62
7
100
AcDbSpline
 70
8
 71
3
 72
8
 73
4
 74
0
 40
0
 40
0
 40
0
 40
0
 40
1
 40
1
 40
1
 40
1
 10
136.097860
 20
175.296250
 30
0.0
 10
135.530580
 20
175.709270
 30
0.0
 10
134.727560
 20
176.379910
 30
0.0
 10
134.224100
 20
176.861100
 30
0.0
  0
SPLINE
  5
34c
100
AcDbEntity
  8
Layer_1
 62
7
100
AcDbSpline
 70
8
 71
3
 72
8
 73
4
 74
0
 40
0
 40
0
 40
0
 40
0
 40
1
 40
1
 40
1
 40
1
 10
134.224100
 20
176.861100
 30
0.0
 10
134.092160
 20
176.987200
 30
0.0
 10
133.945500
 20
177.124930
 30
0.0
 10
133.898180
 20
177.167170
 30
0.0
  0
LWPOLYLINE
  5
34d
100
AcDbEntity
  8
Layer_1
 62
7
100
AcDbPolyline
 90
3
 70
0
 10
132.806830
 20
173.859040
 30
0.0
 10
136.483650
 20
175.000670
 30
0.0
 10
136.416250
 20
175.057070
 30
0.0
  0
SPLINE
  5
34e
100
AcDbEntity
  8
Layer_1
 62
7
100
AcDbSpline
 70
8
 71
3
 72
8
 73
4
 74
0
 40
0
 40
0
 40
0
 40
0
 40
1
 40
1
 40
1
 40
1
 10
129.791890
 20
177.484510
 30
0.0
 10
127.580720
 20
177.616810
 30
0.0
 10
125.620660
 20
177.733230
 30
0.0
 10
125.436200
 20
177.743220
 30
0.0
  0
LWPOLYLINE
  5
34f
100
AcDbEntity
  8
Layer_1
 62
7
100
AcDbPolyline
 90
3
 70
0
 10
133.898180
 20
177.167170
 30
0.0
 10
133.812180
 20
177.243970
 30
0.0
 10
129.791890
 20
177.484510
 30
0.0
  0
SPLINE
  5
350
100
AcDbEntity
  8
Layer_1
 62
7
100
AcDbSpline
 70
8
 71
3
 72
8
 73
4
 74
0
 40
0
 40
0
 40
0
 40
0
 40
1
 40
1
 40
1
 40
1
 10
125.199320
 20
177.608710
 30
0.0
 10
125.253520
 20
177.524710
 30
0.0
 10
125.809670
 20
176.681300
 30
0.0
 10
126.435230
 20
175.734450
 30
0.0
  0
SPLINE
  5
351
100
AcDbEntity
  8
Layer_1
 62
7
100
AcDbSpline
 70
8
 71
3
 72
8
 73
4
 74
0
 40
0
 40
0
 40
0
 40
0
 40
1
 40
1
 40
1
 40
1
 10
126.435230
 20
175.734450
 30
0.0
 10
127.060780
 20
174.787590
 30
0.0
 10
127.791750
 20
173.680320
 30
0.0
 10
128.059590
 20
173.273850
 30
0.0
  0
LWPOLYLINE
  5
352
100
AcDbEntity
  8
Layer_1
 62
7
100
AcDbPolyline
 90
3
 70
0
 10
125.436200
 20
177.743220
 30
0.0
 10
125.100820
 20
177.761420
 30
0.0
 10
125.199320
 20
177.608710
 30
0.0
  0
SPLINE
  5
353
100
AcDbEntity
  8
Layer_1
 62
7
100
AcDbSpline
 70
8
 71
3
 72
8
 73
4
 74
0
 40
0
 40
0
 40
0
 40
0
 40
1
 40
1
 40
1
 40
1
 10
128.838290
 20
172.626100
 30
0.0
 10
128.998740
 20
172.676300
 30
0.0
 10
130.784580
 20
173.231130
 30
0.0
 10
132.806840
 20
173.859030
 30
0.0
  0
LWPOLYLINE
  5
354
100
AcDbEntity
  8
Layer_1
 62
7
100
AcDbPolyline
 90
3
 70
0
 10
128.059590
 20
173.273850
 30
0.0
 10
128.546580
 20
172.534800
 30
0.0
 10
128.838290
 20
172.626100
 30
0.0
  0
SPLINE
  5
355
100
AcDbEntity
  8
Layer_1
 62
7
100
AcDbSpline
 70
8
 71
3
 72
8
 73
4
 74
0
 40
0
 40
0
 40
0
 40
0
 40
1
 40
1
 40
1
 40
1
 10
72.069980
 20
178.286420
 30
0.0
 10
72.597380
 20
178.394530
 30
0.0
 10
73.082280
 20
178.597750
 30
0.0
 10
73.546330
 20
178.905130
 30
0.0
  0
SPLINE
  5
356
100
AcDbEntity
  8
Layer_1
 62
7
100
AcDbSpline
 70
8
 71
3
 72
8
 73
4
 74
0
 40
0
 40
0
 40
0
 40
0
 40
1
 40
1
 40
1
 40
1
 10
73.546330
 20
178.905130
 30
0.0
 10
73.859100
 20
179.112300
 30
0.0
 10
74.387700
 20
179.640900
 30
0.0
 10
74.594870
 20
179.953670
 30
0.0
  0
SPLINE
  5
357
100
AcDbEntity
  8
Layer_1
 62
7
100
AcDbSpline
 70
8
 71
3
 72
8
 73
4
 74
0
 40
0
 40
0
 40
0
 40
0
 40
1
 40
1
 40
1
 40
1
 10
74.594870
 20
179.953670
 30
0.0
 10
75.243920
 20
180.933530
 30
0.0
 10
75.445570
 20
182.065020
 30
0.0
 10
75.168820
 20
183.174060
 30
0.0
  0
SPLINE
  5
358
100
AcDbEntity
  8
Layer_1
 62
7
100
AcDbSpline
 70
8
 71
3
 72
8
 73
4
 74
0
 40
0
 40
0
 40
0
 40
0
 40
1
 40
1
 40
1
 40
1
 10
75.168820
 20
183.174060
 30
0.0
 10
74.830700
 20
184.529000
 30
0.0
 10
73.811110
 20
185.610010
 30
0.0
 10
72.486200
 20
186.018280
 30
0.0
  0
SPLINE
  5
359
100
AcDbEntity
  8
Layer_1
 62
7
100
AcDbSpline
 70
8
 71
3
 72
8
 73
4
 74
0
 40
0
 40
0
 40
0
 40
0
 40
1
 40
1
 40
1
 40
1
 10
72.486200
 20
186.018280
 30
0.0
 10
72.079470
 20
186.143620
 30
0.0
 10
71.752170
 20
186.192300
 30
0.0
 10
71.302660
 20
186.194330
 30
0.0
  0
SPLINE
  5
35a
100
AcDbEntity
  8
Layer_1
 62
7
100
AcDbSpline
 70
8
 71
3
 72
8
 73
4
 74
0
 40
0
 40
0
 40
0
 40
0
 40
1
 40
1
 40
1
 40
1
 10
71.302660
 20
186.194330
 30
0.0
 10
70.657460
 20
186.197330
 30
0.0
 10
70.132810
 20
186.077990
 30
0.0
 10
69.552890
 20
185.796630
 30
0.0
  0
SPLINE
  5
35b
100
AcDbEntity
  8
Layer_1
 62
7
100
AcDbSpline
 70
8
 71
3
 72
8
 73
4
 74
0
 40
0
 40
0
 40
0
 40
0
 40
1
 40
1
 40
1
 40
1
 10
69.552890
 20
185.796630
 30
0.0
 10
69.130570
 20
185.591740
 30
0.0
 10
68.795600
 20
185.354510
 30
0.0
 10
68.482370
 20
185.038480
 30
0.0
  0
SPLINE
  5
35c
100
AcDbEntity
  8
Layer_1
 62
7
100
AcDbSpline
 70
8
 71
3
 72
8
 73
4
 74
0
 40
0
 40
0
 40
0
 40
0
 40
1
 40
1
 40
1
 40
1
 10
68.482370
 20
185.038480
 30
0.0
 10
68.135790
 20
184.688790
 30
0.0
 10
67.924500
 20
184.395080
 30
0.0
 10
67.717560
 20
183.975340
 30
0.0
  0
SPLINE
  5
35d
100
AcDbEntity
  8
Layer_1
 62
7
100
AcDbSpline
 70
8
 71
3
 72
8
 73
4
 74
0
 40
0
 40
0
 40
0
 40
0
 40
1
 40
1
 40
1
 40
1
 10
67.717560
 20
183.975340
 30
0.0
 10
67.420740
 20
183.373280
 30
0.0
 10
67.309430
 20
182.888470
 30
0.0
 10
67.309350
 20
182.197340
 30
0.0
  0
SPLINE
  5
35e
100
AcDbEntity
  8
Layer_1
 62
7
100
AcDbSpline
 70
8
 71
3
 72
8
 73
4
 74
0
 40
0
 40
0
 40
0
 40
0
 40
1
 40
1
 40
1
 40
1
 10
67.309350
 20
182.197340
 30
0.0
 10
67.309320
 20
181.947510
 30
0.0
 10
67.326550
 20
181.675920
 30
0.0
 10
67.351450
 20
181.534700
 30
0.0
  0
SPLINE
  5
35f
100
AcDbEntity
  8
Layer_1
 62
7
100
AcDbSpline
 70
8
 71
3
 72
8
 73
4
 74
0
 40
0
 40
0
 40
0
 40
0
 40
1
 40
1
 40
1
 40
1
 10
67.351450
 20
181.534700
 30
0.0
 10
67.660100
 20
179.780850
 30
0.0
 10
69.060540
 20
178.454530
 30
0.0
 10
70.837040
 20
178.233600
 30
0.0
  0
SPLINE
  5
360
100
AcDbEntity
  8
Layer_1
 62
7
100
AcDbSpline
 70
8
 71
3
 72
8
 73
4
 74
0
 40
0
 40
0
 40
0
 40
0
 40
1
 40
1
 40
1
 40
1
 10
70.837040
 20
178.233600
 30
0.0
 10
71.157620
 20
178.193700
 30
0.0
 10
71.739490
 20
178.218700
 30
0.0
 10
72.070020
 20
178.286400
 30
0.0
  0
LWPOLYLINE
  5
361
100
AcDbEntity
  8
Layer_1
 62
7
100
AcDbPolyline
 90
1
 70
1
 10
132.806840
 20
173.859030
 30
0.0
  0
SPLINE
  5
362
100
AcDbEntity
  8
Layer_1
 62
7
100
AcDbSpline
 70
8
 71
3
 72
8
 73
4
 74
0
 40
0
 40
0
 40
0
 40
0
 40
1
 40
1
 40
1
 40
1
 10
139.120670
 20
178.232620
 30
0.0
 10
140.519540
 20
178.388090
 30
0.0
 10
141.671780
 20
179.196250
 30
0.0
 10
142.298820
 20
180.461700
 30
0.0
  0
SPLINE
  5
363
100
AcDbEntity
  8
Layer_1
 62
7
100
AcDbSpline
 70
8
 71
3
 72
8
 73
4
 74
0
 40
0
 40
0
 40
0
 40
0
 40
1
 40
1
 40
1
 40
1
 10
142.298820
 20
180.461700
 30
0.0
 10
142.569890
 20
181.008740
 30
0.0
 10
142.690730
 20
181.544010
 30
0.0
 10
142.690650
 20
182.197370
 30
0.0
  0
SPLINE
  5
364
100
AcDbEntity
  8
Layer_1
 62
7
100
AcDbSpline
 70
8
 71
3
 72
8
 73
4
 74
0
 40
0
 40
0
 40
0
 40
0
 40
1
 40
1
 40
1
 40
1
 10
142.690650
 20
182.197370
 30
0.0
 10
142.690650
 20
182.890040
 30
0.0
 10
142.578590
 20
183.377070
 30
0.0
 10
142.281880
 20
183.975370
 30
0.0
  0
SPLINE
  5
365
100
AcDbEntity
  8
Layer_1
 62
7
100
AcDbSpline
 70
8
 71
3
 72
8
 73
4
 74
0
 40
0
 40
0
 40
0
 40
0
 40
1
 40
1
 40
1
 40
1
 10
142.281880
 20
183.975370
 30
0.0
 10
141.708190
 20
185.132150
 30
0.0
 10
140.650100
 20
185.920330
 30
0.0
 10
139.360930
 20
186.151210
 30
0.0
  0
SPLINE
  5
366
100
AcDbEntity
  8
Layer_1
 62
7
100
AcDbSpline
 70
8
 71
3
 72
8
 73
4
 74
0
 40
0
 40
0
 40
0
 40
0
 40
1
 40
1
 40
1
 40
1
 10
139.360930
 20
186.151210
 30
0.0
 10
139.037740
 20
186.209110
 30
0.0
 10
138.396590
 20
186.207010
 30
0.0
 10
138.042680
 20
186.147210
 30
0.0
  0
SPLINE
  5
367
100
AcDbEntity
  8
Layer_1
 62
7
100
AcDbSpline
 70
8
 71
3
 72
8
 73
4
 74
0
 40
0
 40
0
 40
0
 40
0
 40
1
 40
1
 40
1
 40
1
 10
138.042680
 20
186.147210
 30
0.0
 10
136.476040
 20
185.881400
 30
0.0
 10
135.215540
 20
184.714550
 30
0.0
 10
134.831180
 20
183.174300
 30
0.0
  0
SPLINE
  5
368
100
AcDbEntity
  8
Layer_1
 62
7
100
AcDbSpline
 70
8
 71
3
 72
8
 73
4
 74
0
 40
0
 40
0
 40
0
 40
0
 40
1
 40
1
 40
1
 40
1
 10
134.831180
 20
183.174300
 30
0.0
 10
134.554000
 20
182.063530
 30
0.0
 10
134.755080
 20
180.935290
 30
0.0
 10
135.405130
 20
179.953910
 30
0.0
  0
SPLINE
  5
369
100
AcDbEntity
  8
Layer_1
 62
7
100
AcDbSpline
 70
8
 71
3
 72
8
 73
4
 74
0
 40
0
 40
0
 40
0
 40
0
 40
1
 40
1
 40
1
 40
1
 10
135.405130
 20
179.953910
 30
0.0
 10
135.612040
 20
179.641530
 30
0.0
 10
136.140470
 20
179.113450
 30
0.0
 10
136.453670
 20
178.906060
 30
0.0
  0
SPLINE
  5
36a
100
AcDbEntity
  8
Layer_1
 62
7
100
AcDbSpline
 70
8
 71
3
 72
8
 73
4
 74
0
 40
0
 40
0
 40
0
 40
0
 40
1
 40
1
 40
1
 40
1
 10
136.453670
 20
178.906060
 30
0.0
 10
137.277430
 20
178.360600
 30
0.0
 10
138.192350
 20
178.129650
 30
0.0
 10
139.120670
 20
178.232830
 30
0.0
  0
LWPOLYLINE
  5
36b
100
AcDbEntity
  8
Layer_1
 62
7
100
AcDbPolyline
 90
1
 70
1
 10
72.070020
 20
178.286400
 30
0.0
  0
SPLINE
  5
36c
100
AcDbEntity
  8
Layer_1
 62
7
100
AcDbSpline
 70
8
 71
3
 72
8
 73
4
 74
0
 40
0
 40
0
 40
0
 40
0
 40
1
 40
1
 40
1
 40
1
 10
82.586840
 20
180.109680
 30
0.0
 10
84.792880
 20
180.242040
 30
0.0
 10
86.606790
 20
180.359520
 30
0.0
 10
86.617770
 20
180.370740
 30
0.0
  0
SPLINE
  5
36d
100
AcDbEntity
  8
Layer_1
 62
7
100
AcDbSpline
 70
8
 71
3
 72
8
 73
4
 74
0
 40
0
 40
0
 40
0
 40
0
 40
1
 40
1
 40
1
 40
1
 10
86.617770
 20
180.370740
 30
0.0
 10
86.628770
 20
180.381940
 30
0.0
 10
87.584650
 20
181.826240
 30
0.0
 10
88.742010
 20
183.580250
 30
0.0
  0
LWPOLYLINE
  5
36e
100
AcDbEntity
  8
Layer_1
 62
7
100
AcDbPolyline
 90
2
 70
0
 10
139.120670
 20
178.232830
 30
0.0
 10
139.120670
 20
178.232620
 30
0.0
  0
SPLINE
  5
36f
100
AcDbEntity
  8
Layer_1
 62
7
100
AcDbSpline
 70
8
 71
3
 72
8
 73
4
 74
0
 40
0
 40
0
 40
0
 40
0
 40
1
 40
1
 40
1
 40
1
 10
84.797530
 20
186.357680
 30
0.0
 10
83.898910
 20
186.070300
 30
0.0
 10
83.432100
 20
185.907490
 30
0.0
 10
83.360740
 20
185.856580
 30
0.0
  0
SPLINE
  5
370
100
AcDbEntity
  8
Layer_1
 62
7
100
AcDbSpline
 70
8
 71
3
 72
8
 73
4
 74
0
 40
0
 40
0
 40
0
 40
0
 40
1
 40
1
 40
1
 40
1
 10
83.360740
 20
185.856580
 30
0.0
 10
83.302640
 20
185.815080
 30
0.0
 10
82.590150
 20
185.177910
 30
0.0
 10
81.777520
 20
184.440600
 30
0.0
  0
LWPOLYLINE
  5
371
100
AcDbEntity
  8
Layer_1
 62
7
100
AcDbPolyline
 90
5
 70
0
 10
88.742010
 20
183.580250
 30
0.0
 10
90.846290
 20
186.769370
 30
0.0
 10
88.487460
 20
186.776370
 30
0.0
 10
86.128630
 20
186.783370
 30
0.0
 10
84.797530
 20
186.357680
 30
0.0
  0
SPLINE
  5
372
100
AcDbEntity
  8
Layer_1
 62
7
100
AcDbSpline
 70
8
 71
3
 72
8
 73
4
 74
0
 40
0
 40
0
 40
0
 40
0
 40
1
 40
1
 40
1
 40
1
 10
80.095360
 20
182.690820
 30
0.0
 10
79.649100
 20
181.798410
 30
0.0
 10
79.109110
 20
180.882400
 30
0.0
 10
78.593870
 20
180.143770
 30
0.0
  0
LWPOLYLINE
  5
373
100
AcDbEntity
  8
Layer_1
 62
7
100
AcDbPolyline
 90
3
 70
0
 10
81.777520
 20
184.440600
 30
0.0
 10
80.300000
 20
183.100050
 30
0.0
 10
80.095360
 20
182.690820
 30
0.0
  0
SPLINE
  5
374
100
AcDbEntity
  8
Layer_1
 62
7
100
AcDbSpline
 70
8
 71
3
 72
8
 73
4
 74
0
 40
0
 40
0
 40
0
 40
0
 40
1
 40
1
 40
1
 40
1
 10
78.488920
 20
179.868600
 30
0.0
 10
78.536720
 20
179.868600
 30
0.0
 10
80.380830
 20
179.976900
 30
0.0
 10
82.586870
 20
180.109250
 30
0.0
  0
LWPOLYLINE
  5
375
100
AcDbEntity
  8
Layer_1
 62
7
100
AcDbPolyline
 90
3
 70
0
 10
78.593870
 20
180.143770
 30
0.0
 10
78.401920
 20
179.868600
 30
0.0
 10
78.488920
 20
179.868600
 30
0.0
  0
SPLINE
  5
376
100
AcDbEntity
  8
Layer_1
 62
7
100
AcDbSpline
 70
8
 71
3
 72
8
 73
4
 74
0
 40
0
 40
0
 40
0
 40
0
 40
1
 40
1
 40
1
 40
1
 10
131.406130
 20
180.144180
 30
0.0
 10
130.894000
 20
180.878350
 30
0.0
 10
130.476320
 20
181.581450
 30
0.0
 10
129.992480
 20
182.523820
 30
0.0
  0
LWPOLYLINE
  5
377
100
AcDbEntity
  8
Layer_1
 62
7
100
AcDbPolyline
 90
2
 70
0
 10
82.586870
 20
180.109250
 30
0.0
 10
82.586840
 20
180.109680
 30
0.0
  0
SPLINE
  5
378
100
AcDbEntity
  8
Layer_1
 62
7
100
AcDbSpline
 70
8
 71
3
 72
8
 73
4
 74
0
 40
0
 40
0
 40
0
 40
0
 40
1
 40
1
 40
1
 40
1
 10
128.163360
 20
184.491340
 30
0.0
 10
127.321270
 20
185.254220
 30
0.0
 10
126.610070
 20
185.890170
 30
0.0
 10
126.582920
 20
185.904580
 30
0.0
  0
SPLINE
  5
379
100
AcDbEntity
  8
Layer_1
 62
7
100
AcDbSpline
 70
8
 71
3
 72
8
 73
4
 74
0
 40
0
 40
0
 40
0
 40
0
 40
1
 40
1
 40
1
 40
1
 10
126.582920
 20
185.904580
 30
0.0
 10
126.555720
 20
185.918980
 30
0.0
 10
125.935820
 20
186.122700
 30
0.0
 10
125.205250
 20
186.357280
 30
0.0
  0
LWPOLYLINE
  5
37a
100
AcDbEntity
  8
Layer_1
 62
7
100
AcDbPolyline
 90
3
 70
0
 10
129.992480
 20
182.523820
 30
0.0
 10
129.694440
 20
183.104300
 30
0.0
 10
128.163360
 20
184.491340
 30
0.0
  0
SPLINE
  5
37b
100
AcDbEntity
  8
Layer_1
 62
7
100
AcDbSpline
 70
8
 71
3
 72
8
 73
4
 74
0
 40
0
 40
0
 40
0
 40
0
 40
1
 40
1
 40
1
 40
1
 10
121.257990
 20
183.580660
 30
0.0
 10
122.415340
 20
181.826650
 30
0.0
 10
123.370960
 20
180.382700
 30
0.0
 10
123.381580
 20
180.371870
 30
0.0
  0
SPLINE
  5
37c
100
AcDbEntity
  8
Layer_1
 62
7
100
AcDbSpline
 70
8
 71
3
 72
8
 73
4
 74
0
 40
0
 40
0
 40
0
 40
0
 40
1
 40
1
 40
1
 40
1
 10
123.381580
 20
180.371870
 30
0.0
 10
123.392180
 20
180.361070
 30
0.0
 10
124.474040
 20
180.288070
 30
0.0
 10
125.785670
 20
180.209730
 30
0.0
  0
SPLINE
  5
37d
100
AcDbEntity
  8
Layer_1
 62
7
100
AcDbSpline
 70
8
 71
3
 72
8
 73
4
 74
0
 40
0
 40
0
 40
0
 40
0
 40
1
 40
1
 40
1
 40
1
 10
125.785670
 20
180.209730
 30
0.0
 10
127.097290
 20
180.131330
 30
0.0
 10
128.481590
 20
180.048350
 30
0.0
 10
128.861890
 20
180.025220
 30
0.0
  0
SPLINE
  5
37e
100
AcDbEntity
  8
Layer_1
 62
7
100
AcDbSpline
 70
8
 71
3
 72
8
 73
4
 74
0
 40
0
 40
0
 40
0
 40
0
 40
1
 40
1
 40
1
 40
1
 10
128.861890
 20
180.025220
 30
0.0
 10
129.242180
 20
180.002120
 30
0.0
 10
129.877180
 20
179.963920
 30
0.0
 10
130.273000
 20
179.940420
 30
0.0
  0
SPLINE
  5
37f
100
AcDbEntity
  8
Layer_1
 62
7
100
AcDbSpline
 70
8
 71
3
 72
8
 73
4
 74
0
 40
0
 40
0
 40
0
 40
0
 40
1
 40
1
 40
1
 40
1
 10
130.273000
 20
179.940420
 30
0.0
 10
130.668820
 20
179.916920
 30
0.0
 10
131.049820
 20
179.893520
 30
0.0
 10
131.119670
 20
179.888520
 30
0.0
  0
SPLINE
  5
380
100
AcDbEntity
  8
Layer_1
 62
7
100
AcDbSpline
 70
8
 71
3
 72
8
 73
4
 74
0
 40
0
 40
0
 40
0
 40
0
 40
1
 40
1
 40
1
 40
1
 10
131.119670
 20
179.888520
 30
0.0
 10
131.189470
 20
179.883520
 30
0.0
 10
131.325730
 20
179.877120
 30
0.0
 10
131.422370
 20
179.874420
 30
0.0
  0
LWPOLYLINE
  5
381
100
AcDbEntity
  8
Layer_1
 62
7
100
AcDbPolyline
 90
5
 70
0
 10
125.205250
 20
186.357280
 30
0.0
 10
123.876940
 20
186.783780
 30
0.0
 10
121.515320
 20
186.776780
 30
0.0
 10
119.153710
 20
186.769780
 30
0.0
 10
121.257990
 20
183.580660
 30
0.0
  0
SPLINE
  5
382
100
AcDbEntity
  8
Layer_1
 62
7
100
AcDbSpline
 70
8
 71
3
 72
8
 73
4
 74
0
 40
0
 40
0
 40
0
 40
0
 40
1
 40
1
 40
1
 40
1
 10
91.566220
 20
180.646220
 30
0.0
 10
92.482030
 20
180.701320
 30
0.0
 10
93.838920
 20
180.783010
 30
0.0
 10
94.581530
 20
180.827720
 30
0.0
  0
SPLINE
  5
383
100
AcDbEntity
  8
Layer_1
 62
7
100
AcDbSpline
 70
8
 71
3
 72
8
 73
4
 74
0
 40
0
 40
0
 40
0
 40
0
 40
1
 40
1
 40
1
 40
1
 10
94.581530
 20
180.827720
 30
0.0
 10
95.324140
 20
180.872420
 30
0.0
 10
95.938990
 20
180.916220
 30
0.0
 10
95.947870
 20
180.925120
 30
0.0
  0
SPLINE
  5
384
100
AcDbEntity
  8
Layer_1
 62
7
100
AcDbSpline
 70
8
 71
3
 72
8
 73
4
 74
0
 40
0
 40
0
 40
0
 40
0
 40
1
 40
1
 40
1
 40
1
 10
95.947870
 20
180.925120
 30
0.0
 10
95.959670
 20
180.936920
 30
0.0
 10
97.280070
 20
186.732030
 30
0.0
 10
97.281060
 20
186.776370
 30
0.0
  0
SPLINE
  5
385
100
AcDbEntity
  8
Layer_1
 62
7
100
AcDbSpline
 70
8
 71
3
 72
8
 73
4
 74
0
 40
0
 40
0
 40
0
 40
0
 40
1
 40
1
 40
1
 40
1
 10
97.281060
 20
186.776370
 30
0.0
 10
97.281060
 20
186.780370
 30
0.0
 10
96.503350
 20
186.783370
 30
0.0
 10
95.552610
 20
186.783370
 30
0.0
  0
LWPOLYLINE
  5
386
100
AcDbEntity
  8
Layer_1
 62
7
100
AcDbPolyline
 90
3
 70
0
 10
131.422370
 20
179.874420
 30
0.0
 10
131.598080
 20
179.869420
 30
0.0
 10
131.406130
 20
180.144180
 30
0.0
  0
SPLINE
  5
387
100
AcDbEntity
  8
Layer_1
 62
7
100
AcDbSpline
 70
8
 71
3
 72
8
 73
4
 74
0
 40
0
 40
0
 40
0
 40
0
 40
1
 40
1
 40
1
 40
1
 10
91.820220
 20
183.745740
 30
0.0
 10
90.718140
 20
182.075320
 30
0.0
 10
89.792970
 20
180.672190
 30
0.0
 10
89.764280
 20
180.627680
 30
0.0
  0
LWPOLYLINE
  5
388
100
AcDbEntity
  8
Layer_1
 62
7
100
AcDbPolyline
 90
3
 70
0
 10
95.552610
 20
186.783370
 30
0.0
 10
93.824000
 20
186.782870
 30
0.0
 10
91.820220
 20
183.745740
 30
0.0
  0
SPLINE
  5
389
100
AcDbEntity
  8
Layer_1
 62
7
100
AcDbSpline
 70
8
 71
3
 72
8
 73
4
 74
0
 40
0
 40
0
 40
0
 40
0
 40
1
 40
1
 40
1
 40
1
 10
89.806580
 20
180.546610
 30
0.0
 10
89.858580
 20
180.546520
 30
0.0
 10
90.650380
 20
180.591510
 30
0.0
 10
91.566190
 20
180.646650
 30
0.0
  0
LWPOLYLINE
  5
38a
100
AcDbEntity
  8
Layer_1
 62
7
100
AcDbPolyline
 90
3
 70
0
 10
89.764280
 20
180.627680
 30
0.0
 10
89.712080
 20
180.546780
 30
0.0
 10
89.806580
 20
180.546610
 30
0.0
  0
SPLINE
  5
38b
100
AcDbEntity
  8
Layer_1
 62
7
100
AcDbSpline
 70
8
 71
3
 72
8
 73
4
 74
0
 40
0
 40
0
 40
0
 40
0
 40
1
 40
1
 40
1
 40
1
 10
120.235720
 20
180.627320
 30
0.0
 10
120.207020
 20
180.671820
 30
0.0
 10
119.281860
 20
182.074960
 30
0.0
 10
118.179780
 20
183.745380
 30
0.0
  0
LWPOLYLINE
  5
38c
100
AcDbEntity
  8
Layer_1
 62
7
100
AcDbPolyline
 90
2
 70
0
 10
91.566190
 20
180.646650
 30
0.0
 10
91.566220
 20
180.646220
 30
0.0
  0
SPLINE
  5
38d
100
AcDbEntity
  8
Layer_1
 62
7
100
AcDbSpline
 70
8
 71
3
 72
8
 73
4
 74
0
 40
0
 40
0
 40
0
 40
0
 40
1
 40
1
 40
1
 40
1
 10
112.731960
 20
186.706610
 30
0.0
 10
112.742560
 20
186.664310
 30
0.0
 10
113.036450
 20
185.365730
 30
0.0
 10
113.385000
 20
183.820890
 30
0.0
  0
SPLINE
  5
38e
100
AcDbEntity
  8
Layer_1
 62
7
100
AcDbSpline
 70
8
 71
3
 72
8
 73
4
 74
0
 40
0
 40
0
 40
0
 40
0
 40
1
 40
1
 40
1
 40
1
 10
113.385000
 20
183.820890
 30
0.0
 10
113.733560
 20
182.276050
 30
0.0
 10
114.025100
 20
180.991300
 30
0.0
 10
114.032870
 20
180.965900
 30
0.0
  0
SPLINE
  5
38f
100
AcDbEntity
  8
Layer_1
 62
7
100
AcDbSpline
 70
8
 71
3
 72
8
 73
4
 74
0
 40
0
 40
0
 40
0
 40
0
 40
1
 40
1
 40
1
 40
1
 10
114.032870
 20
180.965900
 30
0.0
 10
114.050770
 20
180.907300
 30
0.0
 10
114.081370
 20
180.904400
 30
0.0
 10
115.639770
 20
180.812930
 30
0.0
  0
SPLINE
  5
390
100
AcDbEntity
  8
Layer_1
 62
7
100
AcDbSpline
 70
8
 71
3
 72
8
 73
4
 74
0
 40
0
 40
0
 40
0
 40
0
 40
1
 40
1
 40
1
 40
1
 10
115.639770
 20
180.812930
 30
0.0
 10
116.322750
 20
180.772830
 30
0.0
 10
117.567350
 20
180.698050
 30
0.0
 10
118.405550
 20
180.646730
 30
0.0
  0
SPLINE
  5
391
100
AcDbEntity
  8
Layer_1
 62
7
100
AcDbSpline
 70
8
 71
3
 72
8
 73
4
 74
0
 40
0
 40
0
 40
0
 40
0
 40
1
 40
1
 40
1
 40
1
 10
118.405550
 20
180.646730
 30
0.0
 10
119.243750
 20
180.595430
 30
0.0
 10
120.010170
 20
180.551830
 30
0.0
 10
120.108710
 20
180.549930
 30
0.0
  0
LWPOLYLINE
  5
392
100
AcDbEntity
  8
Layer_1
 62
7
100
AcDbPolyline
 90
5
 70
0
 10
118.179780
 20
183.745380
 30
0.0
 10
116.176000
 20
186.782510
 30
0.0
 10
114.444330
 20
186.783010
 30
0.0
 10
112.712660
 20
186.783510
 30
0.0
 10
112.731960
 20
186.706610
 30
0.0
  0
SPLINE
  5
393
100
AcDbEntity
  8
Layer_1
 62
7
100
AcDbSpline
 70
8
 71
3
 72
8
 73
4
 74
0
 40
0
 40
0
 40
0
 40
0
 40
1
 40
1
 40
1
 40
1
 10
98.645660
 20
181.078870
 30
0.0
 10
98.683960
 20
181.093970
 30
0.0
 10
98.719260
 20
181.182810
 30
0.0
 10
98.779050
 20
181.415010
 30
0.0
  0
SPLINE
  5
394
100
AcDbEntity
  8
Layer_1
 62
7
100
AcDbSpline
 70
8
 71
3
 72
8
 73
4
 74
0
 40
0
 40
0
 40
0
 40
0
 40
1
 40
1
 40
1
 40
1
 10
98.779050
 20
181.415010
 30
0.0
 10
99.350460
 20
183.633930
 30
0.0
 10
101.175950
 20
185.366030
 30
0.0
 10
103.426610
 20
185.824810
 30
0.0
  0
LWPOLYLINE
  5
395
100
AcDbEntity
  8
Layer_1
 62
7
100
AcDbPolyline
 90
3
 70
0
 10
120.108710
 20
180.549930
 30
0.0
 10
120.287870
 20
180.545930
 30
0.0
 10
120.235720
 20
180.627320
 30
0.0
  0
SPLINE
  5
396
100
AcDbEntity
  8
Layer_1
 62
7
100
AcDbSpline
 70
8
 71
3
 72
8
 73
4
 74
0
 40
0
 40
0
 40
0
 40
0
 40
1
 40
1
 40
1
 40
1
 10
99.811740
 20
186.719990
 30
0.0
 10
99.728440
 20
186.381230
 30
0.0
 10
98.551240
 20
181.130740
 30
0.0
 10
98.551240
 20
181.097950
 30
0.0
  0
SPLINE
  5
397
100
AcDbEntity
  8
Layer_1
 62
7
100
AcDbSpline
 70
8
 71
3
 72
8
 73
4
 74
0
 40
0
 40
0
 40
0
 40
0
 40
1
 40
1
 40
1
 40
1
 10
98.551240
 20
181.097950
 30
0.0
 10
98.551240
 20
181.050650
 30
0.0
 10
98.566240
 20
181.047550
 30
0.0
 10
98.645640
 20
181.078850
 30
0.0
  0
LWPOLYLINE
  5
398
100
AcDbEntity
  8
Layer_1
 62
7
100
AcDbPolyline
 90
7
 70
0
 10
103.426610
 20
185.824810
 30
0.0
 10
103.744110
 20
185.889510
 30
0.0
 10
103.744110
 20
186.336500
 30
0.0
 10
103.744110
 20
186.783490
 30
0.0
 10
101.785730
 20
186.783490
 30
0.0
 10
99.827340
 20
186.783490
 30
0.0
 10
99.811740
 20
186.719990
 30
0.0
  0
SPLINE
  5
399
100
AcDbEntity
  8
Layer_1
 62
7
100
AcDbSpline
 70
8
 71
3
 72
8
 73
4
 74
0
 40
0
 40
0
 40
0
 40
0
 40
1
 40
1
 40
1
 40
1
 10
111.448780
 20
181.097970
 30
0.0
 10
111.448780
 20
181.130770
 30
0.0
 10
110.271580
 20
186.381250
 30
0.0
 10
110.188270
 20
186.720010
 30
0.0
  0
LWPOLYLINE
  5
39a
100
AcDbEntity
  8
Layer_1
 62
7
100
AcDbPolyline
 90
1
 70
1
 10
98.645640
 20
181.078850
 30
0.0
  0
SPLINE
  5
39b
100
AcDbEntity
  8
Layer_1
 62
7
100
AcDbSpline
 70
8
 71
3
 72
8
 73
4
 74
0
 40
0
 40
0
 40
0
 40
0
 40
1
 40
1
 40
1
 40
1
 10
106.573400
 20
185.825310
 30
0.0
 10
108.805650
 20
185.382190
 30
0.0
 10
110.650070
 20
183.631940
 30
0.0
 10
111.220960
 20
181.415030
 30
0.0
  0
SPLINE
  5
39c
100
AcDbEntity
  8
Layer_1
 62
7
100
AcDbSpline
 70
8
 71
3
 72
8
 73
4
 74
0
 40
0
 40
0
 40
0
 40
0
 40
1
 40
1
 40
1
 40
1
 10
111.220960
 20
181.415030
 30
0.0
 10
111.280760
 20
181.182830
 30
0.0
 10
111.316060
 20
181.093980
 30
0.0
 10
111.354340
 20
181.078890
 30
0.0
  0
SPLINE
  5
39d
100
AcDbEntity
  8
Layer_1
 62
7
100
AcDbSpline
 70
8
 71
3
 72
8
 73
4
 74
0
 40
0
 40
0
 40
0
 40
0
 40
1
 40
1
 40
1
 40
1
 10
111.354340
 20
181.078890
 30
0.0
 10
111.433840
 20
181.047590
 30
0.0
 10
111.448740
 20
181.050690
 30
0.0
 10
111.448740
 20
181.097990
 30
0.0
  0
LWPOLYLINE
  5
39e
100
AcDbEntity
  8
Layer_1
 62
7
100
AcDbPolyline
 90
7
 70
0
 10
110.188270
 20
186.720010
 30
0.0
 10
110.172670
 20
186.783510
 30
0.0
 10
108.214280
 20
186.783510
 30
0.0
 10
106.255900
 20
186.783510
 30
0.0
 10
106.255900
 20
186.335910
 30
0.0
 10
106.255900
 20
185.888310
 30
0.0
 10
106.573400
 20
185.825310
 30
0.0
  0
LWPOLYLINE
  5
39f
100
AcDbEntity
  8
Layer_1
 62
7
100
AcDbPolyline
 90
1
 70
1
 10
111.448740
 20
181.097990
 30
0.0
  0
ENDSEC
  0
SECTION
  2
OBJECTS
  0
DICTIONARY
  5
C
330
0
100
AcDbDictionary
  3
ACAD_GROUP
350
D
  3
ACAD_MLINESTYLE
350
17
  0
DICTIONARY
  5
D
330
C
100
AcDbDictionary
  0
DICTIONARY
  5
1A
330
C
100
AcDbDictionary
  0
DICTIONARY
  5
17
330
C
100
AcDbDictionary
  3
STANDARD
350
18
  0
DICTIONARY
  5
19
330
C
100
AcDbDictionary
  0
ENDSEC
  0
EOF
