  0
SECTION
  2
HEADER
  9
$ACADVER
  1
AC1014
  9
$HANDSEED
  5
FFFF
  9
$MEASUREMENT
 70
     1
  0
ENDSEC
  0
SECTION
  2
TABLES
  0
TABLE
  2
VPORT
  5
8
330
0
100
AcDbSymbolTable
 70
     4
  0
VPORT
  5
2E
330
8
100
AcDbSymbolTableRecord
100
AcDbViewportTableRecord
  2
*ACTIVE
 70
     0
 10
0.0
 20
0.0
 11
1.0
 21
1.0
 12
210.0
 22
148.5
 13
0.0
 23
0.0
 14
10.0
 24
10.0
 15
10.0
 25
10.0
 16
0.0
 26
0.0
 36
1.0
 17
0.0
 27
0.0
 37
0.0
 40
341.0
 41
1.24
 42
50.0
 43
0.0
 44
0.0
 50
0.0
 51
0.0
 71
     0
 72
   100
 73
     1
 74
     3
 75
     0
 76
     0
 77
     0
 78
     0
  0
ENDTAB
  0
TABLE
  2
LTYPE
  5
5
330
0
100
AcDbSymbolTable
 70
     1
  0
LTYPE
  5
14
330
5
100
AcDbSymbolTableRecord
100
AcDbLinetypeTableRecord
  2
BYBLOCK
 70
     0
  3

 72
    65
 73
     0
 40
0.0
  0
LTYPE
  5
15
330
5
100
AcDbSymbolTableRecord
100
AcDbLinetypeTableRecord
  2
BYLAYER
 70
     0
  3

 72
    65
 73
     0
 40
0.0
  0
LTYPE
  5
16
330
5
100
AcDbSymbolTableRecord
100
AcDbLinetypeTableRecord
  2
CONTINUOUS
 70
     0
  3
Solid line
 72
    65
 73
     0
 40
0.0
  0
ENDTAB
  0
TABLE
  2
LAYER
  5
2
100
AcDbSymbolTable
 70
2
  0
LAYER
  5
50
100
AcDbSymbolTableRecord
100
AcDbLayerTableRecord
  2
0
 70
0
  6
CONTINUOUS
  0
LAYER
  5
51
100
AcDbSymbolTableRecord
100
AcDbLayerTableRecord
  2
Layer_1
 70
0
  6
CONTINUOUS
  0
ENDTAB
  0
TABLE
  2
STYLE
  5
3
330
0
100
AcDbSymbolTable
 70
     1
  0
STYLE
  5
11
330
3
100
AcDbSymbolTableRecord
100
AcDbTextStyleTableRecord
  2
STANDARD
 70
     0
 40
0.0
 41
1.0
 50
0.0
 71
     0
 42
2.5
  3
txt
  4

  0
ENDTAB
  0
TABLE
  2
VIEW
  5
6
330
0
100
AcDbSymbolTable
 70
     0
  0
ENDTAB
  0
TABLE
  2
UCS
  5
7
330
0
100
AcDbSymbolTable
 70
     0
  0
ENDTAB
  0
TABLE
  2
APPID
  5
9
330
0
100
AcDbSymbolTable
 70
     2
  0
APPID
  5
12
330
9
100
AcDbSymbolTableRecord
100
AcDbRegAppTableRecord
  2
ACAD
 70
     0
  0
ENDTAB
  0
TABLE
  2
DIMSTYLE
  5
A
330
0
100
AcDbSymbolTable
 70
     1
  0
DIMSTYLE
105
27
330
A
100
AcDbSymbolTableRecord
100
AcDbDimStyleTableRecord
  2
ISO-25
 70
     0
  3

  4

  5

  6

  7

 40
1.0
 41
2.5
 42
0.625
 43
3.75
 44
1.25
 45
0.0
 46
0.0
 47
0.0
 48
0.0
140
2.5
141
2.5
142
0.0
143
0.03937007874016
144
1.0
145
0.0
146
1.0
147
0.625
 71
     0
 72
     0
 73
     0
 74
     0
 75
     0
 76
     0
 77
     1
 78
     8
170
     0
171
     3
172
     1
173
     0
174
     0
175
     0
176
     0
177
     0
178
     0
270
     2
271
     2
272
     2
273
     2
274
     3
340
11
275
     0
280
     0
281
     0
282
     0
283
     0
284
     8
285
     0
286
     0
287
     3
288
     0
  0
ENDTAB
  0
TABLE
  2
BLOCK_RECORD
  5
1
330
0
100
AcDbSymbolTable
 70
     1
  0
BLOCK_RECORD
  5
1F
330
1
100
AcDbSymbolTableRecord
100
AcDbBlockTableRecord
  2
*MODEL_SPACE
  0
BLOCK_RECORD
  5
1B
330
1
100
AcDbSymbolTableRecord
100
AcDbBlockTableRecord
  2
*PAPER_SPACE
  0
ENDTAB
  0
ENDSEC
  0
SECTION
  2
BLOCKS
  0
BLOCK
  5
20
330
1F
100
AcDbEntity
  8
0
100
AcDbBlockBegin
  2
*MODEL_SPACE
 70
     0
 10
0.0
 20
0.0
 30
0.0
  3
*MODEL_SPACE
  1

  0
ENDBLK
  5
21
330
1F
100
AcDbEntity
  8
0
100
AcDbBlockEnd
  0
BLOCK
  5
1C
330
1B
100
AcDbEntity
 67
     1
  8
0
100
AcDbBlockBegin
  2
*PAPER_SPACE
  1

  0
ENDBLK
  5
1D
330
1B
100
AcDbEntity
 67
     1
  8
0
100
AcDbBlockEnd
  0
ENDSEC
  0
SECTION
  2
ENTITIES
  0
SPLINE
  5
100
100
AcDbEntity
  8
Layer_1
 62
7
100
AcDbSpline
 70
8
 71
3
 72
8
 73
4
 74
0
 40
0
 40
0
 40
0
 40
0
 40
1
 40
1
 40
1
 40
1
 10
91.192670
 20
110.308280
 30
0.0
 10
91.027960
 20
110.585140
 30
0.0
 10
86.913740
 20
117.065510
 30
0.0
 10
86.886110
 20
117.091630
 30
0.0
  0
SPLINE
  5
101
100
AcDbEntity
  8
Layer_1
 62
7
100
AcDbSpline
 70
8
 71
3
 72
8
 73
4
 74
0
 40
0
 40
0
 40
0
 40
0
 40
1
 40
1
 40
1
 40
1
 10
86.886110
 20
117.091630
 30
0.0
 10
86.864310
 20
117.112230
 30
0.0
 10
85.979660
 20
117.158130
 30
0.0
 10
84.270780
 20
117.227200
 30
0.0
  0
SPLINE
  5
102
100
AcDbEntity
  8
Layer_1
 62
7
100
AcDbSpline
 70
8
 71
3
 72
8
 73
4
 74
0
 40
0
 40
0
 40
0
 40
0
 40
1
 40
1
 40
1
 40
1
 10
84.270780
 20
117.227200
 30
0.0
 10
82.850490
 20
117.284600
 30
0.0
 10
80.932790
 20
117.363100
 30
0.0
 10
80.009220
 20
117.401610
 30
0.0
  0
SPLINE
  5
103
100
AcDbEntity
  8
Layer_1
 62
7
100
AcDbSpline
 70
8
 71
3
 72
8
 73
4
 74
0
 40
0
 40
0
 40
0
 40
0
 40
1
 40
1
 40
1
 40
1
 10
80.009220
 20
117.401610
 30
0.0
 10
79.085650
 20
117.440110
 30
0.0
 10
78.294800
 20
117.468010
 30
0.0
 10
78.251770
 20
117.463610
 30
0.0
  0
SPLINE
  5
104
100
AcDbEntity
  8
Layer_1
 62
7
100
AcDbSpline
 70
8
 71
3
 72
8
 73
4
 74
0
 40
0
 40
0
 40
0
 40
0
 40
1
 40
1
 40
1
 40
1
 10
78.251770
 20
117.463610
 30
0.0
 10
78.173970
 20
117.455610
 30
0.0
 10
78.175070
 20
117.453310
 30
0.0
 10
78.431960
 20
117.088680
 30
0.0
  0
SPLINE
  5
105
100
AcDbEntity
  8
Layer_1
 62
7
100
AcDbSpline
 70
8
 71
3
 72
8
 73
4
 74
0
 40
0
 40
0
 40
0
 40
0
 40
1
 40
1
 40
1
 40
1
 10
78.431960
 20
117.088680
 30
0.0
 10
79.841340
 20
115.087640
 30
0.0
 10
80.892520
 20
112.865680
 30
0.0
 10
81.492790
 20
110.618730
 30
0.0
  0
LWPOLYLINE
  5
106
100
AcDbEntity
  8
Layer_1
 62
7
100
AcDbPolyline
 90
8
 70
1
 10
61.721220
 20
148.500000
 30
0.0
 10
61.721220
 20
191.778780
 30
0.0
 10
105.000000
 20
191.778780
 30
0.0
 10
148.278780
 20
191.778780
 30
0.0
 10
148.278780
 20
148.500000
 30
0.0
 10
148.278780
 20
105.221220
 30
0.0
 10
105.000000
 20
105.221220
 30
0.0
 10
61.721220
 20
105.221220
 30
0.0
  0
LWPOLYLINE
  5
107
100
AcDbEntity
  8
Layer_1
 62
7
100
AcDbPolyline
 90
5
 70
0
 10
81.492790
 20
110.618730
 30
0.0
 10
81.600230
 20
110.216570
 30
0.0
 10
86.423740
 20
110.216570
 30
0.0
 10
91.247240
 20
110.216570
 30
0.0
 10
91.192670
 20
110.308280
 30
0.0
  0
SPLINE
  5
108
100
AcDbEntity
  8
Layer_1
 62
7
100
AcDbSpline
 70
8
 71
3
 72
8
 73
4
 74
0
 40
0
 40
0
 40
0
 40
0
 40
1
 40
1
 40
1
 40
1
 10
96.565160
 20
116.043130
 30
0.0
 10
96.434950
 20
116.971450
 30
0.0
 10
96.443020
 20
117.862090
 30
0.0
 10
96.589460
 20
118.726690
 30
0.0
  0
SPLINE
  5
109
100
AcDbEntity
  8
Layer_1
 62
7
100
AcDbSpline
 70
8
 71
3
 72
8
 73
4
 74
0
 40
0
 40
0
 40
0
 40
0
 40
1
 40
1
 40
1
 40
1
 10
96.589460
 20
118.726690
 30
0.0
 10
96.956960
 20
120.896070
 30
0.0
 10
98.107020
 20
122.789460
 30
0.0
 10
99.863520
 20
124.116910
 30
0.0
  0
LWPOLYLINE
  5
10a
100
AcDbEntity
  8
Layer_1
 62
7
100
AcDbPolyline
 90
3
 70
0
 10
95.486270
 20
112.966900
 30
0.0
 10
96.612860
 20
115.703140
 30
0.0
 10
96.565160
 20
116.043130
 30
0.0
  0
SPLINE
  5
10b
100
AcDbEntity
  8
Layer_1
 62
7
100
AcDbSpline
 70
8
 71
3
 72
8
 73
4
 74
0
 40
0
 40
0
 40
0
 40
0
 40
1
 40
1
 40
1
 40
1
 10
101.086280
 20
126.571700
 30
0.0
 10
101.588060
 20
127.792800
 30
0.0
 10
101.994460
 20
128.795400
 30
0.0
 10
101.989390
 20
128.799700
 30
0.0
  0
SPLINE
  5
10c
100
AcDbEntity
  8
Layer_1
 62
7
100
AcDbSpline
 70
8
 71
3
 72
8
 73
4
 74
0
 40
0
 40
0
 40
0
 40
0
 40
1
 40
1
 40
1
 40
1
 10
101.989390
 20
128.799700
 30
0.0
 10
101.984390
 20
128.803700
 30
0.0
 10
99.217930
 20
126.391220
 30
0.0
 10
95.841850
 20
123.437970
 30
0.0
  0
SPLINE
  5
10d
100
AcDbEntity
  8
Layer_1
 62
7
100
AcDbSpline
 70
8
 71
3
 72
8
 73
4
 74
0
 40
0
 40
0
 40
0
 40
0
 40
1
 40
1
 40
1
 40
1
 10
95.841850
 20
123.437970
 30
0.0
 10
89.998370
 20
118.326360
 30
0.0
 10
89.701150
 20
118.061850
 30
0.0
 10
89.654230
 20
117.931330
 30
0.0
  0
SPLINE
  5
10e
100
AcDbEntity
  8
Layer_1
 62
7
100
AcDbSpline
 70
8
 71
3
 72
8
 73
4
 74
0
 40
0
 40
0
 40
0
 40
0
 40
1
 40
1
 40
1
 40
1
 10
89.654230
 20
117.931330
 30
0.0
 10
89.627130
 20
117.855930
 30
0.0
 10
89.584430
 20
117.754030
 30
0.0
 10
89.559330
 20
117.704900
 30
0.0
  0
SPLINE
  5
10f
100
AcDbEntity
  8
Layer_1
 62
7
100
AcDbSpline
 70
8
 71
3
 72
8
 73
4
 74
0
 40
0
 40
0
 40
0
 40
0
 40
1
 40
1
 40
1
 40
1
 10
89.559330
 20
117.704900
 30
0.0
 10
89.534230
 20
117.655800
 30
0.0
 10
89.518330
 20
117.603570
 30
0.0
 10
89.523930
 20
117.588880
 30
0.0
  0
SPLINE
  5
110
100
AcDbEntity
  8
Layer_1
 62
7
100
AcDbSpline
 70
8
 71
3
 72
8
 73
4
 74
0
 40
0
 40
0
 40
0
 40
0
 40
1
 40
1
 40
1
 40
1
 10
89.523930
 20
117.588880
 30
0.0
 10
89.529930
 20
117.574180
 30
0.0
 10
90.581580
 20
115.908830
 30
0.0
 10
91.861790
 20
113.888060
 30
0.0
  0
SPLINE
  5
111
100
AcDbEntity
  8
Layer_1
 62
7
100
AcDbSpline
 70
8
 71
3
 72
8
 73
4
 74
0
 40
0
 40
0
 40
0
 40
0
 40
1
 40
1
 40
1
 40
1
 10
91.861790
 20
113.888060
 30
0.0
 10
94.163610
 20
110.254710
 30
0.0
 10
94.190390
 20
110.214030
 30
0.0
 10
94.274510
 20
110.222300
 30
0.0
  0
LWPOLYLINE
  5
112
100
AcDbEntity
  8
Layer_1
 62
7
100
AcDbPolyline
 90
3
 70
0
 10
99.863520
 20
124.116910
 30
0.0
 10
100.173960
 20
124.351520
 30
0.0
 10
101.086280
 20
126.571700
 30
0.0
  0
SPLINE
  5
113
100
AcDbEntity
  8
Layer_1
 62
7
100
AcDbSpline
 70
8
 71
3
 72
8
 73
4
 74
0
 40
0
 40
0
 40
0
 40
0
 40
1
 40
1
 40
1
 40
1
 10
100.036500
 20
110.389760
 30
0.0
 10
99.344140
 20
110.882250
 30
0.0
 10
98.575580
 20
111.642260
 30
0.0
 10
98.109710
 20
112.295120
 30
0.0
  0
SPLINE
  5
114
100
AcDbEntity
  8
Layer_1
 62
7
100
AcDbSpline
 70
8
 71
3
 72
8
 73
4
 74
0
 40
0
 40
0
 40
0
 40
0
 40
1
 40
1
 40
1
 40
1
 10
98.109710
 20
112.295120
 30
0.0
 10
98.016110
 20
112.426240
 30
0.0
 10
97.971710
 20
112.468620
 30
0.0
 10
97.956430
 20
112.441310
 30
0.0
  0
SPLINE
  5
115
100
AcDbEntity
  8
Layer_1
 62
7
100
AcDbSpline
 70
8
 71
3
 72
8
 73
4
 74
0
 40
0
 40
0
 40
0
 40
0
 40
1
 40
1
 40
1
 40
1
 10
97.956430
 20
112.441310
 30
0.0
 10
97.917530
 20
112.371710
 30
0.0
 10
97.055440
 20
110.266980
 30
0.0
 10
97.055440
 20
110.241480
 30
0.0
  0
SPLINE
  5
116
100
AcDbEntity
  8
Layer_1
 62
7
100
AcDbSpline
 70
8
 71
3
 72
8
 73
4
 74
0
 40
0
 40
0
 40
0
 40
0
 40
1
 40
1
 40
1
 40
1
 10
97.055440
 20
110.241480
 30
0.0
 10
97.055440
 20
110.227380
 30
0.0
 10
97.753920
 20
110.216580
 30
0.0
 10
98.667720
 20
110.216580
 30
0.0
  0
LWPOLYLINE
  5
117
100
AcDbEntity
  8
Layer_1
 62
7
100
AcDbPolyline
 90
3
 70
0
 10
94.274510
 20
110.222300
 30
0.0
 10
94.359610
 20
110.230300
 30
0.0
 10
95.486270
 20
112.966900
 30
0.0
  0
SPLINE
  5
118
100
AcDbEntity
  8
Layer_1
 62
7
100
AcDbSpline
 70
8
 71
3
 72
8
 73
4
 74
0
 40
0
 40
0
 40
0
 40
0
 40
1
 40
1
 40
1
 40
1
 10
112.944560
 20
110.240240
 30
0.0
 10
112.944560
 20
110.265140
 30
0.0
 10
112.082110
 20
112.372450
 30
0.0
 10
112.044170
 20
112.440230
 30
0.0
  0
SPLINE
  5
119
100
AcDbEntity
  8
Layer_1
 62
7
100
AcDbSpline
 70
8
 71
3
 72
8
 73
4
 74
0
 40
0
 40
0
 40
0
 40
0
 40
1
 40
1
 40
1
 40
1
 10
112.044170
 20
112.440230
 30
0.0
 10
112.028070
 20
112.468930
 30
0.0
 10
111.993270
 20
112.439230
 30
0.0
 10
111.914610
 20
112.328740
 30
0.0
  0
SPLINE
  5
11a
100
AcDbEntity
  8
Layer_1
 62
7
100
AcDbSpline
 70
8
 71
3
 72
8
 73
4
 74
0
 40
0
 40
0
 40
0
 40
0
 40
1
 40
1
 40
1
 40
1
 10
111.914610
 20
112.328740
 30
0.0
 10
111.424300
 20
111.641830
 30
0.0
 10
110.670280
 20
110.892510
 30
0.0
 10
109.963500
 20
110.389760
 30
0.0
  0
LWPOLYLINE
  5
11b
100
AcDbEntity
  8
Layer_1
 62
7
100
AcDbPolyline
 90
3
 70
0
 10
98.667720
 20
110.216580
 30
0.0
 10
100.280000
 20
110.216580
 30
0.0
 10
100.036500
 20
110.389760
 30
0.0
  0
SPLINE
  5
11c
100
AcDbEntity
  8
Layer_1
 62
7
100
AcDbSpline
 70
8
 71
3
 72
8
 73
4
 74
0
 40
0
 40
0
 40
0
 40
0
 40
1
 40
1
 40
1
 40
1
 10
111.332280
 20
110.216560
 30
0.0
 10
112.219030
 20
110.216560
 30
0.0
 10
112.944560
 20
110.227260
 30
0.0
 10
112.944560
 20
110.240260
 30
0.0
  0
LWPOLYLINE
  5
11d
100
AcDbEntity
  8
Layer_1
 62
7
100
AcDbPolyline
 90
3
 70
0
 10
109.963500
 20
110.389760
 30
0.0
 10
109.720000
 20
110.216560
 30
0.0
 10
111.332280
 20
110.216560
 30
0.0
  0
SPLINE
  5
11e
100
AcDbEntity
  8
Layer_1
 62
7
100
AcDbSpline
 70
8
 71
3
 72
8
 73
4
 74
0
 40
0
 40
0
 40
0
 40
0
 40
1
 40
1
 40
1
 40
1
 10
118.150640
 20
113.908720
 30
0.0
 10
119.431730
 20
115.931660
 30
0.0
 10
120.479890
 20
117.602340
 30
0.0
 10
120.479890
 20
117.621360
 30
0.0
  0
SPLINE
  5
11f
100
AcDbEntity
  8
Layer_1
 62
7
100
AcDbSpline
 70
8
 71
3
 72
8
 73
4
 74
0
 40
0
 40
0
 40
0
 40
0
 40
1
 40
1
 40
1
 40
1
 10
120.479890
 20
117.621360
 30
0.0
 10
120.479890
 20
117.640360
 30
0.0
 10
120.467890
 20
117.667960
 30
0.0
 10
120.453190
 20
117.682760
 30
0.0
  0
SPLINE
  5
120
100
AcDbEntity
  8
Layer_1
 62
7
100
AcDbSpline
 70
8
 71
3
 72
8
 73
4
 74
0
 40
0
 40
0
 40
0
 40
0
 40
1
 40
1
 40
1
 40
1
 10
120.453190
 20
117.682760
 30
0.0
 10
120.438590
 20
117.697460
 30
0.0
 10
120.397290
 20
117.790560
 30
0.0
 10
120.361490
 20
117.889540
 30
0.0
  0
LWPOLYLINE
  5
121
100
AcDbEntity
  8
Layer_1
 62
7
100
AcDbPolyline
 90
1
 70
1
 10
112.944560
 20
110.240260
 30
0.0
  0
SPLINE
  5
122
100
AcDbEntity
  8
Layer_1
 62
7
100
AcDbSpline
 70
8
 71
3
 72
8
 73
4
 74
0
 40
0
 40
0
 40
0
 40
0
 40
1
 40
1
 40
1
 40
1
 10
114.158060
 20
123.439320
 30
0.0
 10
110.781980
 20
126.392710
 30
0.0
 10
108.015570
 20
128.805230
 30
0.0
 10
108.010480
 20
128.800470
 30
0.0
  0
SPLINE
  5
123
100
AcDbEntity
  8
Layer_1
 62
7
100
AcDbSpline
 70
8
 71
3
 72
8
 73
4
 74
0
 40
0
 40
0
 40
0
 40
0
 40
1
 40
1
 40
1
 40
1
 10
108.010480
 20
128.800470
 30
0.0
 10
108.005480
 20
128.795470
 30
0.0
 10
108.412550
 20
127.792760
 30
0.0
 10
108.915280
 20
126.571700
 30
0.0
  0
LWPOLYLINE
  5
124
100
AcDbEntity
  8
Layer_1
 62
7
100
AcDbPolyline
 90
3
 70
0
 10
120.361490
 20
117.889540
 30
0.0
 10
120.296390
 20
118.069520
 30
0.0
 10
114.158060
 20
123.439320
 30
0.0
  0
SPLINE
  5
125
100
AcDbEntity
  8
Layer_1
 62
7
100
AcDbSpline
 70
8
 71
3
 72
8
 73
4
 74
0
 40
0
 40
0
 40
0
 40
0
 40
1
 40
1
 40
1
 40
1
 10
110.121320
 20
124.129510
 30
0.0
 10
111.190770
 20
123.316130
 30
0.0
 10
112.018150
 20
122.329800
 30
0.0
 10
112.600340
 20
121.174210
 30
0.0
  0
SPLINE
  5
126
100
AcDbEntity
  8
Layer_1
 62
7
100
AcDbSpline
 70
8
 71
3
 72
8
 73
4
 74
0
 40
0
 40
0
 40
0
 40
0
 40
1
 40
1
 40
1
 40
1
 10
112.600340
 20
121.174210
 30
0.0
 10
113.156290
 20
120.070720
 30
0.0
 10
113.429690
 20
119.064620
 30
0.0
 10
113.511960
 20
117.819450
 30
0.0
  0
SPLINE
  5
127
100
AcDbEntity
  8
Layer_1
 62
7
100
AcDbSpline
 70
8
 71
3
 72
8
 73
4
 74
0
 40
0
 40
0
 40
0
 40
0
 40
1
 40
1
 40
1
 40
1
 10
113.511960
 20
117.819450
 30
0.0
 10
113.548560
 20
117.265240
 30
0.0
 10
113.522760
 20
116.670850
 30
0.0
 10
113.434760
 20
116.043220
 30
0.0
  0
LWPOLYLINE
  5
128
100
AcDbEntity
  8
Layer_1
 62
7
100
AcDbPolyline
 90
3
 70
0
 10
108.915280
 20
126.571700
 30
0.0
 10
109.829330
 20
124.351590
 30
0.0
 10
110.121320
 20
124.129510
 30
0.0
  0
SPLINE
  5
129
100
AcDbEntity
  8
Layer_1
 62
7
100
AcDbSpline
 70
8
 71
3
 72
8
 73
4
 74
0
 40
0
 40
0
 40
0
 40
0
 40
1
 40
1
 40
1
 40
1
 10
114.495670
 20
113.009330
 30
0.0
 10
115.105410
 20
111.527640
 30
0.0
 10
115.616260
 20
110.292380
 30
0.0
 10
115.630910
 20
110.264310
 30
0.0
  0
SPLINE
  5
12a
100
AcDbEntity
  8
Layer_1
 62
7
100
AcDbSpline
 70
8
 71
3
 72
8
 73
4
 74
0
 40
0
 40
0
 40
0
 40
0
 40
1
 40
1
 40
1
 40
1
 10
115.630910
 20
110.264310
 30
0.0
 10
115.649310
 20
110.229110
 30
0.0
 10
115.682910
 20
110.216010
 30
0.0
 10
115.739420
 20
110.222010
 30
0.0
  0
SPLINE
  5
12b
100
AcDbEntity
  8
Layer_1
 62
7
100
AcDbSpline
 70
8
 71
3
 72
8
 73
4
 74
0
 40
0
 40
0
 40
0
 40
0
 40
1
 40
1
 40
1
 40
1
 10
115.739420
 20
110.222010
 30
0.0
 10
115.815120
 20
110.230010
 30
0.0
 10
115.996310
 20
110.507080
 30
0.0
 10
118.150540
 20
113.908770
 30
0.0
  0
LWPOLYLINE
  5
12c
100
AcDbEntity
  8
Layer_1
 62
7
100
AcDbPolyline
 90
3
 70
0
 10
113.434760
 20
116.043220
 30
0.0
 10
113.387060
 20
115.703320
 30
0.0
 10
114.495670
 20
113.009330
 30
0.0
  0
SPLINE
  5
12d
100
AcDbEntity
  8
Layer_1
 62
7
100
AcDbSpline
 70
8
 71
3
 72
8
 73
4
 74
0
 40
0
 40
0
 40
0
 40
0
 40
1
 40
1
 40
1
 40
1
 10
128.436870
 20
110.364720
 30
0.0
 10
129.012460
 20
112.657180
 30
0.0
 10
130.135060
 20
115.068170
 30
0.0
 10
131.567480
 20
117.088310
 30
0.0
  0
SPLINE
  5
12e
100
AcDbEntity
  8
Layer_1
 62
7
100
AcDbSpline
 70
8
 71
3
 72
8
 73
4
 74
0
 40
0
 40
0
 40
0
 40
0
 40
1
 40
1
 40
1
 40
1
 10
131.567480
 20
117.088310
 30
0.0
 10
131.710420
 20
117.289900
 30
0.0
 10
131.814420
 20
117.459160
 30
0.0
 10
131.798590
 20
117.464430
 30
0.0
  0
SPLINE
  5
12f
100
AcDbEntity
  8
Layer_1
 62
7
100
AcDbSpline
 70
8
 71
3
 72
8
 73
4
 74
0
 40
0
 40
0
 40
0
 40
0
 40
1
 40
1
 40
1
 40
1
 10
131.798590
 20
117.464430
 30
0.0
 10
131.782790
 20
117.469430
 30
0.0
 10
131.467950
 20
117.461430
 30
0.0
 10
131.099020
 20
117.445530
 30
0.0
  0
SPLINE
  5
130
100
AcDbEntity
  8
Layer_1
 62
7
100
AcDbSpline
 70
8
 71
3
 72
8
 73
4
 74
0
 40
0
 40
0
 40
0
 40
0
 40
1
 40
1
 40
1
 40
1
 10
131.099020
 20
117.445530
 30
0.0
 10
130.730080
 20
117.429830
 30
0.0
 10
128.789920
 20
117.350830
 30
0.0
 10
126.787560
 20
117.269920
 30
0.0
  0
SPLINE
  5
131
100
AcDbEntity
  8
Layer_1
 62
7
100
AcDbSpline
 70
8
 71
3
 72
8
 73
4
 74
0
 40
0
 40
0
 40
0
 40
0
 40
1
 40
1
 40
1
 40
1
 10
126.787560
 20
117.269920
 30
0.0
 10
124.362240
 20
117.171920
 30
0.0
 10
123.135850
 20
117.112420
 30
0.0
 10
123.113820
 20
117.091650
 30
0.0
  0
SPLINE
  5
132
100
AcDbEntity
  8
Layer_1
 62
7
100
AcDbSpline
 70
8
 71
3
 72
8
 73
4
 74
0
 40
0
 40
0
 40
0
 40
0
 40
1
 40
1
 40
1
 40
1
 10
123.113820
 20
117.091650
 30
0.0
 10
123.086120
 20
117.065550
 30
0.0
 10
118.973180
 20
110.587040
 30
0.0
 10
118.807330
 20
110.308310
 30
0.0
  0
LWPOLYLINE
  5
133
100
AcDbEntity
  8
Layer_1
 62
7
100
AcDbPolyline
 90
2
 70
0
 10
118.150540
 20
113.908770
 30
0.0
 10
118.150640
 20
113.908720
 30
0.0
  0
SPLINE
  5
134
100
AcDbEntity
  8
Layer_1
 62
7
100
AcDbSpline
 70
8
 71
3
 72
8
 73
4
 74
0
 40
0
 40
0
 40
0
 40
0
 40
1
 40
1
 40
1
 40
1
 10
71.951780
 20
110.854230
 30
0.0
 10
73.509920
 20
111.105220
 30
0.0
 10
74.783440
 20
112.281610
 30
0.0
 10
75.168820
 20
113.825950
 30
0.0
  0
SPLINE
  5
135
100
AcDbEntity
  8
Layer_1
 62
7
100
AcDbSpline
 70
8
 71
3
 72
8
 73
4
 74
0
 40
0
 40
0
 40
0
 40
0
 40
1
 40
1
 40
1
 40
1
 10
75.168820
 20
113.825950
 30
0.0
 10
75.445570
 20
114.934990
 30
0.0
 10
75.243920
 20
116.066480
 30
0.0
 10
74.594870
 20
117.046340
 30
0.0
  0
SPLINE
  5
136
100
AcDbEntity
  8
Layer_1
 62
7
100
AcDbSpline
 70
8
 71
3
 72
8
 73
4
 74
0
 40
0
 40
0
 40
0
 40
0
 40
1
 40
1
 40
1
 40
1
 10
74.594870
 20
117.046340
 30
0.0
 10
74.387720
 20
117.359070
 30
0.0
 10
73.859120
 20
117.887690
 30
0.0
 10
73.546330
 20
118.094900
 30
0.0
  0
SPLINE
  5
137
100
AcDbEntity
  8
Layer_1
 62
7
100
AcDbSpline
 70
8
 71
3
 72
8
 73
4
 74
0
 40
0
 40
0
 40
0
 40
0
 40
1
 40
1
 40
1
 40
1
 10
73.546330
 20
118.094900
 30
0.0
 10
72.415490
 20
118.844040
 30
0.0
 10
71.070600
 20
118.995990
 30
0.0
 10
69.838510
 20
118.513810
 30
0.0
  0
SPLINE
  5
138
100
AcDbEntity
  8
Layer_1
 62
7
100
AcDbSpline
 70
8
 71
3
 72
8
 73
4
 74
0
 40
0
 40
0
 40
0
 40
0
 40
1
 40
1
 40
1
 40
1
 10
69.838510
 20
118.513810
 30
0.0
 10
68.692070
 20
118.065140
 30
0.0
 10
67.824870
 20
117.124860
 30
0.0
 10
67.466240
 20
115.941620
 30
0.0
  0
SPLINE
  5
139
100
AcDbEntity
  8
Layer_1
 62
7
100
AcDbSpline
 70
8
 71
3
 72
8
 73
4
 74
0
 40
0
 40
0
 40
0
 40
0
 40
1
 40
1
 40
1
 40
1
 10
67.466240
 20
115.941620
 30
0.0
 10
67.349440
 20
115.556240
 30
0.0
 10
67.309290
 20
115.264820
 30
0.0
 10
67.309350
 20
114.802670
 30
0.0
  0
SPLINE
  5
13a
100
AcDbEntity
  8
Layer_1
 62
7
100
AcDbSpline
 70
8
 71
3
 72
8
 73
4
 74
0
 40
0
 40
0
 40
0
 40
0
 40
1
 40
1
 40
1
 40
1
 10
67.309350
 20
114.802670
 30
0.0
 10
67.309430
 20
114.109900
 30
0.0
 10
67.421430
 20
113.622840
 30
0.0
 10
67.718180
 20
113.024670
 30
0.0
  0
SPLINE
  5
13b
100
AcDbEntity
  8
Layer_1
 62
7
100
AcDbSpline
 70
8
 71
3
 72
8
 73
4
 74
0
 40
0
 40
0
 40
0
 40
0
 40
1
 40
1
 40
1
 40
1
 10
67.718180
 20
113.024670
 30
0.0
 10
68.121040
 20
112.212640
 30
0.0
 10
68.739360
 20
111.598680
 30
0.0
 10
69.552890
 20
111.202930
 30
0.0
  0
SPLINE
  5
13c
100
AcDbEntity
  8
Layer_1
 62
7
100
AcDbSpline
 70
8
 71
3
 72
8
 73
4
 74
0
 40
0
 40
0
 40
0
 40
0
 40
1
 40
1
 40
1
 40
1
 10
69.552890
 20
111.202930
 30
0.0
 10
70.304350
 20
110.837370
 30
0.0
 10
71.115300
 20
110.719490
 30
0.0
 10
71.951780
 20
110.854230
 30
0.0
  0
LWPOLYLINE
  5
13d
100
AcDbEntity
  8
Layer_1
 62
7
100
AcDbPolyline
 90
5
 70
0
 10
118.807330
 20
110.308310
 30
0.0
 10
118.752730
 20
110.216610
 30
0.0
 10
123.576180
 20
110.216610
 30
0.0
 10
128.399630
 20
110.216610
 30
0.0
 10
128.436870
 20
110.364720
 30
0.0
  0
SPLINE
  5
13e
100
AcDbEntity
  8
Layer_1
 62
7
100
AcDbSpline
 70
8
 71
3
 72
8
 73
4
 74
0
 40
0
 40
0
 40
0
 40
0
 40
1
 40
1
 40
1
 40
1
 10
139.360560
 20
110.852230
 30
0.0
 10
139.736540
 20
110.913230
 30
0.0
 10
140.079660
 20
111.023830
 30
0.0
 10
140.447110
 20
111.202430
 30
0.0
  0
SPLINE
  5
13f
100
AcDbEntity
  8
Layer_1
 62
7
100
AcDbSpline
 70
8
 71
3
 72
8
 73
4
 74
0
 40
0
 40
0
 40
0
 40
0
 40
1
 40
1
 40
1
 40
1
 10
140.447110
 20
111.202430
 30
0.0
 10
141.260890
 20
111.597960
 30
0.0
 10
141.878790
 20
112.211520
 30
0.0
 10
142.281880
 20
113.024290
 30
0.0
  0
SPLINE
  5
140
100
AcDbEntity
  8
Layer_1
 62
7
100
AcDbSpline
 70
8
 71
3
 72
8
 73
4
 74
0
 40
0
 40
0
 40
0
 40
0
 40
1
 40
1
 40
1
 40
1
 10
142.281880
 20
113.024290
 30
0.0
 10
142.578590
 20
113.622590
 30
0.0
 10
142.690560
 20
114.109610
 30
0.0
 10
142.690650
 20
114.802290
 30
0.0
  0
SPLINE
  5
141
100
AcDbEntity
  8
Layer_1
 62
7
100
AcDbSpline
 70
8
 71
3
 72
8
 73
4
 74
0
 40
0
 40
0
 40
0
 40
0
 40
1
 40
1
 40
1
 40
1
 10
142.690650
 20
114.802290
 30
0.0
 10
142.690650
 20
115.052120
 30
0.0
 10
142.673450
 20
115.323700
 30
0.0
 10
142.648550
 20
115.464930
 30
0.0
  0
SPLINE
  5
142
100
AcDbEntity
  8
Layer_1
 62
7
100
AcDbSpline
 70
8
 71
3
 72
8
 73
4
 74
0
 40
0
 40
0
 40
0
 40
0
 40
1
 40
1
 40
1
 40
1
 10
142.648550
 20
115.464930
 30
0.0
 10
142.257540
 20
117.686800
 30
0.0
 10
140.114800
 20
119.158100
 30
0.0
 10
137.921060
 20
118.711040
 30
0.0
  0
SPLINE
  5
143
100
AcDbEntity
  8
Layer_1
 62
7
100
AcDbSpline
 70
8
 71
3
 72
8
 73
4
 74
0
 40
0
 40
0
 40
0
 40
0
 40
1
 40
1
 40
1
 40
1
 10
137.921060
 20
118.711040
 30
0.0
 10
137.130960
 20
118.550030
 30
0.0
 10
136.472380
 20
118.193340
 30
0.0
 10
135.888860
 20
117.610400
 30
0.0
  0
SPLINE
  5
144
100
AcDbEntity
  8
Layer_1
 62
7
100
AcDbSpline
 70
8
 71
3
 72
8
 73
4
 74
0
 40
0
 40
0
 40
0
 40
0
 40
1
 40
1
 40
1
 40
1
 10
135.888860
 20
117.610400
 30
0.0
 10
135.547560
 20
117.269430
 30
0.0
 10
135.328040
 20
116.970070
 30
0.0
 10
135.133500
 20
116.580290
 30
0.0
  0
SPLINE
  5
145
100
AcDbEntity
  8
Layer_1
 62
7
100
AcDbSpline
 70
8
 71
3
 72
8
 73
4
 74
0
 40
0
 40
0
 40
0
 40
0
 40
1
 40
1
 40
1
 40
1
 10
135.133500
 20
116.580290
 30
0.0
 10
134.234210
 20
114.778460
 30
0.0
 10
134.810790
 20
112.595190
 30
0.0
 10
136.482060
 20
111.473890
 30
0.0
  0
SPLINE
  5
146
100
AcDbEntity
  8
Layer_1
 62
7
100
AcDbSpline
 70
8
 71
3
 72
8
 73
4
 74
0
 40
0
 40
0
 40
0
 40
0
 40
1
 40
1
 40
1
 40
1
 10
136.482060
 20
111.473890
 30
0.0
 10
137.319020
 20
110.912350
 30
0.0
 10
138.353820
 20
110.688860
 30
0.0
 10
139.360520
 20
110.852230
 30
0.0
  0
LWPOLYLINE
  5
147
100
AcDbEntity
  8
Layer_1
 62
7
100
AcDbPolyline
 90
1
 70
1
 10
71.951780
 20
110.854230
 30
0.0
  0
SPLINE
  5
148
100
AcDbEntity
  8
Layer_1
 62
7
100
AcDbSpline
 70
8
 71
3
 72
8
 73
4
 74
0
 40
0
 40
0
 40
0
 40
0
 40
1
 40
1
 40
1
 40
1
 10
86.041320
 20
119.707850
 30
0.0
 10
86.057720
 20
119.743850
 30
0.0
 10
86.121620
 20
119.831610
 30
0.0
 10
86.183290
 20
119.902870
 30
0.0
  0
SPLINE
  5
149
100
AcDbEntity
  8
Layer_1
 62
7
100
AcDbSpline
 70
8
 71
3
 72
8
 73
4
 74
0
 40
0
 40
0
 40
0
 40
0
 40
1
 40
1
 40
1
 40
1
 10
86.183290
 20
119.902870
 30
0.0
 10
86.295070
 20
120.032030
 30
0.0
 10
86.295850
 20
120.034620
 30
0.0
 10
86.426590
 20
120.705250
 30
0.0
  0
SPLINE
  5
14a
100
AcDbEntity
  8
Layer_1
 62
7
100
AcDbSpline
 70
8
 71
3
 72
8
 73
4
 74
0
 40
0
 40
0
 40
0
 40
0
 40
1
 40
1
 40
1
 40
1
 10
86.426590
 20
120.705250
 30
0.0
 10
86.498690
 20
121.075290
 30
0.0
 10
87.210430
 20
124.680060
 30
0.0
 10
88.008150
 20
128.715830
 30
0.0
  0
SPLINE
  5
14b
100
AcDbEntity
  8
Layer_1
 62
7
100
AcDbSpline
 70
8
 71
3
 72
8
 73
4
 74
0
 40
0
 40
0
 40
0
 40
0
 40
1
 40
1
 40
1
 40
1
 10
88.008150
 20
128.715830
 30
0.0
 10
88.805860
 20
132.751610
 30
0.0
 10
89.455990
 20
136.056250
 30
0.0
 10
89.452880
 20
136.059480
 30
0.0
  0
SPLINE
  5
14c
100
AcDbEntity
  8
Layer_1
 62
7
100
AcDbSpline
 70
8
 71
3
 72
8
 73
4
 74
0
 40
0
 40
0
 40
0
 40
0
 40
1
 40
1
 40
1
 40
1
 10
89.452880
 20
136.059480
 30
0.0
 10
89.449880
 20
136.062480
 30
0.0
 10
88.787340
 20
135.209470
 30
0.0
 10
87.980830
 20
134.163390
 30
0.0
  0
SPLINE
  5
14d
100
AcDbEntity
  8
Layer_1
 62
7
100
AcDbSpline
 70
8
 71
3
 72
8
 73
4
 74
0
 40
0
 40
0
 40
0
 40
0
 40
1
 40
1
 40
1
 40
1
 10
87.980830
 20
134.163390
 30
0.0
 10
86.985900
 20
132.872920
 30
0.0
 10
86.508160
 20
132.231340
 30
0.0
 10
86.494890
 20
132.167850
 30
0.0
  0
SPLINE
  5
14e
100
AcDbEntity
  8
Layer_1
 62
7
100
AcDbSpline
 70
8
 71
3
 72
8
 73
4
 74
0
 40
0
 40
0
 40
0
 40
0
 40
1
 40
1
 40
1
 40
1
 10
86.494890
 20
132.167850
 30
0.0
 10
86.484090
 20
132.116350
 30
0.0
 10
86.449290
 20
131.883780
 30
0.0
 10
86.417590
 20
131.650950
 30
0.0
  0
SPLINE
  5
14f
100
AcDbEntity
  8
Layer_1
 62
7
100
AcDbSpline
 70
8
 71
3
 72
8
 73
4
 74
0
 40
0
 40
0
 40
0
 40
0
 40
1
 40
1
 40
1
 40
1
 10
86.417590
 20
131.650950
 30
0.0
 10
86.175180
 20
129.875560
 30
0.0
 10
85.312780
 20
128.162130
 30
0.0
 10
84.006410
 20
126.860390
 30
0.0
  0
SPLINE
  5
150
100
AcDbEntity
  8
Layer_1
 62
7
100
AcDbSpline
 70
8
 71
3
 72
8
 73
4
 74
0
 40
0
 40
0
 40
0
 40
0
 40
1
 40
1
 40
1
 40
1
 10
84.006410
 20
126.860390
 30
0.0
 10
83.207840
 20
126.064650
 30
0.0
 10
82.219400
 20
125.415150
 30
0.0
 10
81.156880
 20
124.987990
 30
0.0
  0
LWPOLYLINE
  5
151
100
AcDbEntity
  8
Layer_1
 62
7
100
AcDbPolyline
 90
1
 70
1
 10
139.360520
 20
110.852230
 30
0.0
  0
SPLINE
  5
152
100
AcDbEntity
  8
Layer_1
 62
7
100
AcDbSpline
 70
8
 71
3
 72
8
 73
4
 74
0
 40
0
 40
0
 40
0
 40
0
 40
1
 40
1
 40
1
 40
1
 10
78.937020
 20
122.432860
 30
0.0
 10
77.915350
 20
121.107650
 30
0.0
 10
77.083580
 20
120.019130
 30
0.0
 10
77.088640
 20
120.013910
 30
0.0
  0
SPLINE
  5
153
100
AcDbEntity
  8
Layer_1
 62
7
100
AcDbSpline
 70
8
 71
3
 72
8
 73
4
 74
0
 40
0
 40
0
 40
0
 40
0
 40
1
 40
1
 40
1
 40
1
 10
77.088640
 20
120.013910
 30
0.0
 10
77.097640
 20
120.003910
 30
0.0
 10
77.964080
 20
119.965310
 30
0.0
 10
79.981050
 20
119.883290
 30
0.0
  0
SPLINE
  5
154
100
AcDbEntity
  8
Layer_1
 62
7
100
AcDbSpline
 70
8
 71
3
 72
8
 73
4
 74
0
 40
0
 40
0
 40
0
 40
0
 40
1
 40
1
 40
1
 40
1
 10
79.981050
 20
119.883290
 30
0.0
 10
80.578660
 20
119.858990
 30
0.0
 10
81.359710
 20
119.826790
 30
0.0
 10
81.716720
 20
119.811790
 30
0.0
  0
SPLINE
  5
155
100
AcDbEntity
  8
Layer_1
 62
7
100
AcDbSpline
 70
8
 71
3
 72
8
 73
4
 74
0
 40
0
 40
0
 40
0
 40
0
 40
1
 40
1
 40
1
 40
1
 10
81.716720
 20
119.811790
 30
0.0
 10
82.073730
 20
119.796790
 30
0.0
 10
82.854780
 20
119.764490
 30
0.0
 10
83.452390
 20
119.739990
 30
0.0
  0
SPLINE
  5
156
100
AcDbEntity
  8
Layer_1
 62
7
100
AcDbSpline
 70
8
 71
3
 72
8
 73
4
 74
0
 40
0
 40
0
 40
0
 40
0
 40
1
 40
1
 40
1
 40
1
 10
83.452390
 20
119.739990
 30
0.0
 10
84.049990
 20
119.715590
 30
0.0
 10
84.761190
 20
119.685490
 30
0.0
 10
85.032830
 20
119.673190
 30
0.0
  0
SPLINE
  5
157
100
AcDbEntity
  8
Layer_1
 62
7
100
AcDbSpline
 70
8
 71
3
 72
8
 73
4
 74
0
 40
0
 40
0
 40
0
 40
0
 40
1
 40
1
 40
1
 40
1
 10
85.032830
 20
119.673190
 30
0.0
 10
85.959620
 20
119.631190
 30
0.0
 10
86.007220
 20
119.632890
 30
0.0
 10
86.041370
 20
119.707790
 30
0.0
  0
LWPOLYLINE
  5
158
100
AcDbEntity
  8
Layer_1
 62
7
100
AcDbPolyline
 90
3
 70
0
 10
81.156880
 20
124.987990
 30
0.0
 10
80.794590
 20
124.842340
 30
0.0
 10
78.937020
 20
122.432860
 30
0.0
  0
SPLINE
  5
159
100
AcDbEntity
  8
Layer_1
 62
7
100
AcDbSpline
 70
8
 71
3
 72
8
 73
4
 74
0
 40
0
 40
0
 40
0
 40
0
 40
1
 40
1
 40
1
 40
1
 10
128.382110
 20
119.811690
 30
0.0
 10
130.733730
 20
119.905790
 30
0.0
 10
132.717010
 20
119.991920
 30
0.0
 10
132.789410
 20
120.003090
 30
0.0
  0
LWPOLYLINE
  5
15a
100
AcDbEntity
  8
Layer_1
 62
7
100
AcDbPolyline
 90
1
 70
1
 10
86.041370
 20
119.707790
 30
0.0
  0
SPLINE
  5
15b
100
AcDbEntity
  8
Layer_1
 62
7
100
AcDbSpline
 70
8
 71
3
 72
8
 73
4
 74
0
 40
0
 40
0
 40
0
 40
0
 40
1
 40
1
 40
1
 40
1
 10
128.842790
 20
124.989740
 30
0.0
 10
125.918460
 20
126.174420
 30
0.0
 10
123.904640
 20
128.799080
 30
0.0
 10
123.543650
 20
131.896230
 30
0.0
  0
SPLINE
  5
15c
100
AcDbEntity
  8
Layer_1
 62
7
100
AcDbSpline
 70
8
 71
3
 72
8
 73
4
 74
0
 40
0
 40
0
 40
0
 40
0
 40
1
 40
1
 40
1
 40
1
 10
123.543650
 20
131.896230
 30
0.0
 10
123.522450
 20
132.077700
 30
0.0
 10
123.488050
 20
132.250460
 30
0.0
 10
123.467150
 20
132.280130
 30
0.0
  0
SPLINE
  5
15d
100
AcDbEntity
  8
Layer_1
 62
7
100
AcDbSpline
 70
8
 71
3
 72
8
 73
4
 74
0
 40
0
 40
0
 40
0
 40
0
 40
1
 40
1
 40
1
 40
1
 10
123.467150
 20
132.280130
 30
0.0
 10
123.375750
 20
132.409820
 30
0.0
 10
120.551740
 20
136.064290
 30
0.0
 10
120.546870
 20
136.059230
 30
0.0
  0
SPLINE
  5
15e
100
AcDbEntity
  8
Layer_1
 62
7
100
AcDbSpline
 70
8
 71
3
 72
8
 73
4
 74
0
 40
0
 40
0
 40
0
 40
0
 40
1
 40
1
 40
1
 40
1
 10
120.546870
 20
136.059230
 30
0.0
 10
120.543870
 20
136.056230
 30
0.0
 10
121.187770
 20
132.783360
 30
0.0
 10
121.977700
 20
128.786390
 30
0.0
  0
SPLINE
  5
15f
100
AcDbEntity
  8
Layer_1
 62
7
100
AcDbSpline
 70
8
 71
3
 72
8
 73
4
 74
0
 40
0
 40
0
 40
0
 40
0
 40
1
 40
1
 40
1
 40
1
 10
121.977700
 20
128.786390
 30
0.0
 10
122.767640
 20
124.789420
 30
0.0
 10
123.479350
 20
121.184640
 30
0.0
 10
123.559280
 20
120.775780
 30
0.0
  0
LWPOLYLINE
  5
160
100
AcDbEntity
  8
Layer_1
 62
7
100
AcDbPolyline
 90
5
 70
0
 10
132.789410
 20
120.003090
 30
0.0
 10
132.921040
 20
120.023390
 30
0.0
 10
131.062870
 20
122.433260
 30
0.0
 10
129.204700
 20
124.843120
 30
0.0
 10
128.842790
 20
124.989740
 30
0.0
  0
SPLINE
  5
161
100
AcDbEntity
  8
Layer_1
 62
7
100
AcDbSpline
 70
8
 71
3
 72
8
 73
4
 74
0
 40
0
 40
0
 40
0
 40
0
 40
1
 40
1
 40
1
 40
1
 10
123.816740
 20
119.902840
 30
0.0
 10
123.878440
 20
119.831540
 30
0.0
 10
123.942280
 20
119.743850
 30
0.0
 10
123.958680
 20
119.707850
 30
0.0
  0
SPLINE
  5
162
100
AcDbEntity
  8
Layer_1
 62
7
100
AcDbSpline
 70
8
 71
3
 72
8
 73
4
 74
0
 40
0
 40
0
 40
0
 40
0
 40
1
 40
1
 40
1
 40
1
 10
123.958680
 20
119.707850
 30
0.0
 10
123.975680
 20
119.670450
 30
0.0
 10
124.013780
 20
119.642050
 30
0.0
 10
124.047480
 20
119.641450
 30
0.0
  0
SPLINE
  5
163
100
AcDbEntity
  8
Layer_1
 62
7
100
AcDbSpline
 70
8
 71
3
 72
8
 73
4
 74
0
 40
0
 40
0
 40
0
 40
0
 40
1
 40
1
 40
1
 40
1
 10
124.047480
 20
119.641450
 30
0.0
 10
124.079880
 20
119.640970
 30
0.0
 10
126.030500
 20
119.717550
 30
0.0
 10
128.382120
 20
119.811650
 30
0.0
  0
LWPOLYLINE
  5
164
100
AcDbEntity
  8
Layer_1
 62
7
100
AcDbPolyline
 90
3
 70
0
 10
123.559280
 20
120.775780
 30
0.0
 10
123.704620
 20
120.032380
 30
0.0
 10
123.816740
 20
119.902840
 30
0.0
  0
SPLINE
  5
165
100
AcDbEntity
  8
Layer_1
 62
7
100
AcDbSpline
 70
8
 71
3
 72
8
 73
4
 74
0
 40
0
 40
0
 40
0
 40
0
 40
1
 40
1
 40
1
 40
1
 10
95.638500
 20
126.554210
 30
0.0
 10
99.212920
 20
129.680280
 30
0.0
 10
102.133830
 20
132.247330
 30
0.0
 10
102.129390
 20
132.258780
 30
0.0
  0
SPLINE
  5
166
100
AcDbEntity
  8
Layer_1
 62
7
100
AcDbSpline
 70
8
 71
3
 72
8
 73
4
 74
0
 40
0
 40
0
 40
0
 40
0
 40
1
 40
1
 40
1
 40
1
 10
102.129390
 20
132.258780
 30
0.0
 10
102.125390
 20
132.270180
 30
0.0
 10
102.026080
 20
132.350880
 30
0.0
 10
101.909670
 20
132.437970
 30
0.0
  0
SPLINE
  5
167
100
AcDbEntity
  8
Layer_1
 62
7
100
AcDbSpline
 70
8
 71
3
 72
8
 73
4
 74
0
 40
0
 40
0
 40
0
 40
0
 40
1
 40
1
 40
1
 40
1
 10
101.909670
 20
132.437970
 30
0.0
 10
101.793250
 20
132.525070
 30
0.0
 10
101.572890
 20
132.720280
 30
0.0
 10
101.419970
 20
132.871740
 30
0.0
  0
SPLINE
  5
168
100
AcDbEntity
  8
Layer_1
 62
7
100
AcDbSpline
 70
8
 71
3
 72
8
 73
4
 74
0
 40
0
 40
0
 40
0
 40
0
 40
1
 40
1
 40
1
 40
1
 10
101.419970
 20
132.871740
 30
0.0
 10
100.367800
 20
133.913870
 30
0.0
 10
99.851240
 20
135.283940
 30
0.0
 10
99.938180
 20
136.801890
 30
0.0
  0
SPLINE
  5
169
100
AcDbEntity
  8
Layer_1
 62
7
100
AcDbSpline
 70
8
 71
3
 72
8
 73
4
 74
0
 40
0
 40
0
 40
0
 40
0
 40
1
 40
1
 40
1
 40
1
 10
99.938180
 20
136.801890
 30
0.0
 10
100.025880
 20
138.333290
 30
0.0
 10
100.867940
 20
139.792900
 30
0.0
 10
102.163670
 20
140.659560
 30
0.0
  0
SPLINE
  5
16a
100
AcDbEntity
  8
Layer_1
 62
7
100
AcDbSpline
 70
8
 71
3
 72
8
 73
4
 74
0
 40
0
 40
0
 40
0
 40
0
 40
1
 40
1
 40
1
 40
1
 10
102.163670
 20
140.659560
 30
0.0
 10
102.280080
 20
140.737460
 30
0.0
 10
102.416610
 20
140.822380
 30
0.0
 10
102.467060
 20
140.848350
 30
0.0
  0
SPLINE
  5
16b
100
AcDbEntity
  8
Layer_1
 62
7
100
AcDbSpline
 70
8
 71
3
 72
8
 73
4
 74
0
 40
0
 40
0
 40
0
 40
0
 40
1
 40
1
 40
1
 40
1
 10
102.467060
 20
140.848350
 30
0.0
 10
102.579160
 20
140.906050
 30
0.0
 10
102.583120
 20
140.938350
 30
0.0
 10
102.481160
 20
140.963730
 30
0.0
  0
SPLINE
  5
16c
100
AcDbEntity
  8
Layer_1
 62
7
100
AcDbSpline
 70
8
 71
3
 72
8
 73
4
 74
0
 40
0
 40
0
 40
0
 40
0
 40
1
 40
1
 40
1
 40
1
 10
102.481160
 20
140.963730
 30
0.0
 10
102.438460
 20
140.974330
 30
0.0
 10
102.258400
 20
141.039730
 30
0.0
 10
102.080990
 20
141.108930
 30
0.0
  0
SPLINE
  5
16d
100
AcDbEntity
  8
Layer_1
 62
7
100
AcDbSpline
 70
8
 71
3
 72
8
 73
4
 74
0
 40
0
 40
0
 40
0
 40
0
 40
1
 40
1
 40
1
 40
1
 10
102.080990
 20
141.108930
 30
0.0
 10
101.361270
 20
141.389900
 30
0.0
 10
100.529290
 20
141.880820
 30
0.0
 10
99.945360
 20
142.369090
 30
0.0
  0
LWPOLYLINE
  5
16e
100
AcDbEntity
  8
Layer_1
 62
7
100
AcDbPolyline
 90
1
 70
1
 10
128.382120
 20
119.811650
 30
0.0
  0
SPLINE
  5
16f
100
AcDbEntity
  8
Layer_1
 62
7
100
AcDbSpline
 70
8
 71
3
 72
8
 73
4
 74
0
 40
0
 40
0
 40
0
 40
0
 40
1
 40
1
 40
1
 40
1
 10
99.628140
 20
142.166960
 30
0.0
 10
99.549040
 20
141.093090
 30
0.0
 10
99.226330
 20
140.222290
 30
0.0
 10
98.596740
 20
139.384220
 30
0.0
  0
SPLINE
  5
170
100
AcDbEntity
  8
Layer_1
 62
7
100
AcDbSpline
 70
8
 71
3
 72
8
 73
4
 74
0
 40
0
 40
0
 40
0
 40
0
 40
1
 40
1
 40
1
 40
1
 10
98.596740
 20
139.384220
 30
0.0
 10
98.256670
 20
138.931560
 30
0.0
 10
97.690490
 20
138.426840
 30
0.0
 10
97.175980
 20
138.117700
 30
0.0
  0
SPLINE
  5
171
100
AcDbEntity
  8
Layer_1
 62
7
100
AcDbSpline
 70
8
 71
3
 72
8
 73
4
 74
0
 40
0
 40
0
 40
0
 40
0
 40
1
 40
1
 40
1
 40
1
 10
97.175980
 20
138.117700
 30
0.0
 10
95.827590
 20
137.307530
 30
0.0
 10
94.160300
 20
137.181040
 30
0.0
 10
92.678650
 20
137.776500
 30
0.0
  0
SPLINE
  5
172
100
AcDbEntity
  8
Layer_1
 62
7
100
AcDbSpline
 70
8
 71
3
 72
8
 73
4
 74
0
 40
0
 40
0
 40
0
 40
0
 40
1
 40
1
 40
1
 40
1
 10
92.678650
 20
137.776500
 30
0.0
 10
92.504630
 20
137.846400
 30
0.0
 10
92.359000
 20
137.900240
 30
0.0
 10
92.355030
 20
137.896050
 30
0.0
  0
SPLINE
  5
173
100
AcDbEntity
  8
Layer_1
 62
7
100
AcDbSpline
 70
8
 71
3
 72
8
 73
4
 74
0
 40
0
 40
0
 40
0
 40
0
 40
1
 40
1
 40
1
 40
1
 10
92.355030
 20
137.896050
 30
0.0
 10
92.351030
 20
137.892050
 30
0.0
 10
91.590210
 20
134.053050
 30
0.0
 10
90.664260
 20
129.365340
 30
0.0
  0
SPLINE
  5
174
100
AcDbEntity
  8
Layer_1
 62
7
100
AcDbSpline
 70
8
 71
3
 72
8
 73
4
 74
0
 40
0
 40
0
 40
0
 40
0
 40
1
 40
1
 40
1
 40
1
 10
90.664260
 20
129.365340
 30
0.0
 10
89.738320
 20
124.677620
 30
0.0
 10
88.972930
 20
120.810470
 30
0.0
 10
88.963410
 20
120.771670
 30
0.0
  0
LWPOLYLINE
  5
175
100
AcDbEntity
  8
Layer_1
 62
7
100
AcDbPolyline
 90
3
 70
0
 10
99.945360
 20
142.369090
 30
0.0
 10
99.660540
 20
142.607260
 30
0.0
 10
99.628140
 20
142.166960
 30
0.0
  0
SPLINE
  5
176
100
AcDbEntity
  8
Layer_1
 62
7
100
AcDbSpline
 70
8
 71
3
 72
8
 73
4
 74
0
 40
0
 40
0
 40
0
 40
0
 40
1
 40
1
 40
1
 40
1
 10
89.042810
 20
120.785770
 30
0.0
 10
89.096010
 20
120.832370
 30
0.0
 10
92.064060
 20
123.428130
 30
0.0
 10
95.638490
 20
126.554200
 30
0.0
  0
LWPOLYLINE
  5
177
100
AcDbEntity
  8
Layer_1
 62
7
100
AcDbPolyline
 90
3
 70
0
 10
88.963410
 20
120.771670
 30
0.0
 10
88.946110
 20
120.701070
 30
0.0
 10
89.042810
 20
120.785770
 30
0.0
  0
SPLINE
  5
178
100
AcDbEntity
  8
Layer_1
 62
7
100
AcDbSpline
 70
8
 71
3
 72
8
 73
4
 74
0
 40
0
 40
0
 40
0
 40
0
 40
1
 40
1
 40
1
 40
1
 10
119.346920
 20
129.309940
 30
0.0
 10
118.414780
 20
134.028120
 30
0.0
 10
117.648690
 20
137.892060
 30
0.0
 10
117.644510
 20
137.896480
 30
0.0
  0
SPLINE
  5
179
100
AcDbEntity
  8
Layer_1
 62
7
100
AcDbSpline
 70
8
 71
3
 72
8
 73
4
 74
0
 40
0
 40
0
 40
0
 40
0
 40
1
 40
1
 40
1
 40
1
 10
117.644510
 20
137.896480
 30
0.0
 10
117.640510
 20
137.900480
 30
0.0
 10
117.498690
 20
137.848080
 30
0.0
 10
117.329780
 20
137.779050
 30
0.0
  0
SPLINE
  5
17a
100
AcDbEntity
  8
Layer_1
 62
7
100
AcDbSpline
 70
8
 71
3
 72
8
 73
4
 74
0
 40
0
 40
0
 40
0
 40
0
 40
1
 40
1
 40
1
 40
1
 10
117.329780
 20
137.779050
 30
0.0
 10
115.777520
 20
137.144900
 30
0.0
 10
114.018480
 20
137.321950
 30
0.0
 10
112.620870
 20
138.253020
 30
0.0
  0
SPLINE
  5
17b
100
AcDbEntity
  8
Layer_1
 62
7
100
AcDbSpline
 70
8
 71
3
 72
8
 73
4
 74
0
 40
0
 40
0
 40
0
 40
0
 40
1
 40
1
 40
1
 40
1
 10
112.620870
 20
138.253020
 30
0.0
 10
111.856290
 20
138.762380
 30
0.0
 10
111.313840
 20
139.376220
 30
0.0
 10
110.895540
 20
140.205440
 30
0.0
  0
SPLINE
  5
17c
100
AcDbEntity
  8
Layer_1
 62
7
100
AcDbSpline
 70
8
 71
3
 72
8
 73
4
 74
0
 40
0
 40
0
 40
0
 40
0
 40
1
 40
1
 40
1
 40
1
 10
110.895540
 20
140.205440
 30
0.0
 10
110.589270
 20
140.812580
 30
0.0
 10
110.427160
 20
141.418720
 30
0.0
 10
110.371080
 20
142.166400
 30
0.0
  0
LWPOLYLINE
  5
17d
100
AcDbEntity
  8
Layer_1
 62
7
100
AcDbPolyline
 90
1
 70
1
 10
95.638490
 20
126.554200
 30
0.0
  0
SPLINE
  5
17e
100
AcDbEntity
  8
Layer_1
 62
7
100
AcDbSpline
 70
8
 71
3
 72
8
 73
4
 74
0
 40
0
 40
0
 40
0
 40
0
 40
1
 40
1
 40
1
 40
1
 10
110.053810
 20
142.367700
 30
0.0
 10
109.441350
 20
141.854000
 30
0.0
 10
108.470220
 20
141.295660
 30
0.0
 10
107.754500
 20
141.045740
 30
0.0
  0
SPLINE
  5
17f
100
AcDbEntity
  8
Layer_1
 62
7
100
AcDbSpline
 70
8
 71
3
 72
8
 73
4
 74
0
 40
0
 40
0
 40
0
 40
0
 40
1
 40
1
 40
1
 40
1
 10
107.754500
 20
141.045740
 30
0.0
 10
107.582350
 20
140.985640
 30
0.0
 10
107.441440
 20
140.927250
 30
0.0
 10
107.441350
 20
140.916010
 30
0.0
  0
SPLINE
  5
180
100
AcDbEntity
  8
Layer_1
 62
7
100
AcDbSpline
 70
8
 71
3
 72
8
 73
4
 74
0
 40
0
 40
0
 40
0
 40
0
 40
1
 40
1
 40
1
 40
1
 10
107.441350
 20
140.916010
 30
0.0
 10
107.441350
 20
140.904810
 30
0.0
 10
107.482450
 20
140.874310
 30
0.0
 10
107.532950
 20
140.848310
 30
0.0
  0
SPLINE
  5
181
100
AcDbEntity
  8
Layer_1
 62
7
100
AcDbSpline
 70
8
 71
3
 72
8
 73
4
 74
0
 40
0
 40
0
 40
0
 40
0
 40
1
 40
1
 40
1
 40
1
 10
107.532950
 20
140.848310
 30
0.0
 10
108.011800
 20
140.601840
 30
0.0
 10
108.665300
 20
140.025930
 30
0.0
 10
109.056440
 20
139.505700
 30
0.0
  0
SPLINE
  5
182
100
AcDbEntity
  8
Layer_1
 62
7
100
AcDbSpline
 70
8
 71
3
 72
8
 73
4
 74
0
 40
0
 40
0
 40
0
 40
0
 40
1
 40
1
 40
1
 40
1
 10
109.056440
 20
139.505700
 30
0.0
 10
110.042070
 20
138.194820
 30
0.0
 10
110.334370
 20
136.472470
 30
0.0
 10
109.835500
 20
134.915130
 30
0.0
  0
SPLINE
  5
183
100
AcDbEntity
  8
Layer_1
 62
7
100
AcDbSpline
 70
8
 71
3
 72
8
 73
4
 74
0
 40
0
 40
0
 40
0
 40
0
 40
1
 40
1
 40
1
 40
1
 10
109.835500
 20
134.915130
 30
0.0
 10
109.522500
 20
133.938010
 30
0.0
 10
108.883730
 20
133.031280
 30
0.0
 10
108.091610
 20
132.439710
 30
0.0
  0
SPLINE
  5
184
100
AcDbEntity
  8
Layer_1
 62
7
100
AcDbSpline
 70
8
 71
3
 72
8
 73
4
 74
0
 40
0
 40
0
 40
0
 40
0
 40
1
 40
1
 40
1
 40
1
 10
108.091610
 20
132.439710
 30
0.0
 10
107.968230
 20
132.347610
 30
0.0
 10
107.870100
 20
132.261920
 30
0.0
 10
107.873530
 20
132.249370
 30
0.0
  0
SPLINE
  5
185
100
AcDbEntity
  8
Layer_1
 62
7
100
AcDbSpline
 70
8
 71
3
 72
8
 73
4
 74
0
 40
0
 40
0
 40
0
 40
0
 40
1
 40
1
 40
1
 40
1
 10
107.873530
 20
132.249370
 30
0.0
 10
107.880530
 20
132.225570
 30
0.0
 10
121.025900
 20
120.716840
 30
0.0
 10
121.035990
 20
120.726110
 30
0.0
  0
SPLINE
  5
186
100
AcDbEntity
  8
Layer_1
 62
7
100
AcDbSpline
 70
8
 71
3
 72
8
 73
4
 74
0
 40
0
 40
0
 40
0
 40
0
 40
1
 40
1
 40
1
 40
1
 10
121.035990
 20
120.726110
 30
0.0
 10
121.038990
 20
120.729110
 30
0.0
 10
120.279080
 20
124.591720
 30
0.0
 10
119.346930
 20
129.309900
 30
0.0
  0
LWPOLYLINE
  5
187
100
AcDbEntity
  8
Layer_1
 62
7
100
AcDbPolyline
 90
3
 70
0
 10
110.371080
 20
142.166400
 30
0.0
 10
110.338080
 20
142.606130
 30
0.0
 10
110.053810
 20
142.367700
 30
0.0
  0
LWPOLYLINE
  5
188
100
AcDbEntity
  8
Layer_1
 62
7
100
AcDbPolyline
 90
1
 70
1
 10
119.346930
 20
129.309900
 30
0.0
  0
SPLINE
  5
189
100
AcDbEntity
  8
Layer_1
 62
7
100
AcDbSpline
 70
8
 71
3
 72
8
 73
4
 74
0
 40
0
 40
0
 40
0
 40
0
 40
1
 40
1
 40
1
 40
1
 10
76.880060
 20
124.460520
 30
0.0
 10
75.842160
 20
124.607230
 30
0.0
 10
75.021640
 20
124.866020
 30
0.0
 10
74.096670
 20
125.338390
 30
0.0
  0
SPLINE
  5
18a
100
AcDbEntity
  8
Layer_1
 62
7
100
AcDbSpline
 70
8
 71
3
 72
8
 73
4
 74
0
 40
0
 40
0
 40
0
 40
0
 40
1
 40
1
 40
1
 40
1
 10
74.096670
 20
125.338390
 30
0.0
 10
71.676000
 20
126.574580
 30
0.0
 10
69.982510
 20
128.938750
 30
0.0
 10
69.564510
 20
131.665420
 30
0.0
  0
SPLINE
  5
18b
100
AcDbEntity
  8
Layer_1
 62
7
100
AcDbSpline
 70
8
 71
3
 72
8
 73
4
 74
0
 40
0
 40
0
 40
0
 40
0
 40
1
 40
1
 40
1
 40
1
 10
69.564510
 20
131.665420
 30
0.0
 10
69.489110
 20
132.157130
 30
0.0
 10
69.460920
 20
133.177980
 30
0.0
 10
69.508610
 20
133.688110
 30
0.0
  0
SPLINE
  5
18c
100
AcDbEntity
  8
Layer_1
 62
7
100
AcDbSpline
 70
8
 71
3
 72
8
 73
4
 74
0
 40
0
 40
0
 40
0
 40
0
 40
1
 40
1
 40
1
 40
1
 10
69.508610
 20
133.688110
 30
0.0
 10
69.593310
 20
134.594140
 30
0.0
 10
69.854690
 20
135.604260
 30
0.0
 10
70.201100
 20
136.364420
 30
0.0
  0
SPLINE
  5
18d
100
AcDbEntity
  8
Layer_1
 62
7
100
AcDbSpline
 70
8
 71
3
 72
8
 73
4
 74
0
 40
0
 40
0
 40
0
 40
0
 40
1
 40
1
 40
1
 40
1
 10
70.201100
 20
136.364420
 30
0.0
 10
70.254200
 20
136.480840
 30
0.0
 10
70.288700
 20
136.576130
 30
0.0
 10
70.278000
 20
136.576190
 30
0.0
  0
SPLINE
  5
18e
100
AcDbEntity
  8
Layer_1
 62
7
100
AcDbSpline
 70
8
 71
3
 72
8
 73
4
 74
0
 40
0
 40
0
 40
0
 40
0
 40
1
 40
1
 40
1
 40
1
 10
70.278000
 20
136.576190
 30
0.0
 10
70.241100
 20
136.576470
 30
0.0
 10
66.843630
 20
136.122460
 30
0.0
 10
66.780050
 20
136.108840
 30
0.0
  0
LWPOLYLINE
  5
18f
100
AcDbEntity
  8
Layer_1
 62
7
100
AcDbPolyline
 90
3
 70
0
 10
76.080220
 20
122.789560
 30
0.0
 10
77.321010
 20
124.398220
 30
0.0
 10
76.880060
 20
124.460520
 30
0.0
  0
SPLINE
  5
190
100
AcDbEntity
  8
Layer_1
 62
7
100
AcDbSpline
 70
8
 71
3
 72
8
 73
4
 74
0
 40
0
 40
0
 40
0
 40
0
 40
1
 40
1
 40
1
 40
1
 10
67.217590
 20
124.965280
 30
0.0
 10
69.786330
 20
124.255070
 30
0.0
 10
72.299530
 20
122.984370
 30
0.0
 10
74.364140
 20
121.351900
 30
0.0
  0
LWPOLYLINE
  5
191
100
AcDbEntity
  8
Layer_1
 62
7
100
AcDbPolyline
 90
5
 70
0
 10
66.780050
 20
136.108840
 30
0.0
 10
66.716550
 20
136.095240
 30
0.0
 10
66.716640
 20
130.599500
 30
0.0
 10
66.716720
 20
125.103760
 30
0.0
 10
67.217590
 20
124.965280
 30
0.0
  0
SPLINE
  5
192
100
AcDbEntity
  8
Layer_1
 62
7
100
AcDbSpline
 70
8
 71
3
 72
8
 73
4
 74
0
 40
0
 40
0
 40
0
 40
0
 40
1
 40
1
 40
1
 40
1
 10
74.792000
 20
121.116060
 30
0.0
 10
74.818100
 20
121.151760
 30
0.0
 10
75.397820
 20
121.904820
 30
0.0
 10
76.080260
 20
122.789590
 30
0.0
  0
LWPOLYLINE
  5
193
100
AcDbEntity
  8
Layer_1
 62
7
100
AcDbPolyline
 90
3
 70
0
 10
74.364140
 20
121.351900
 30
0.0
 10
74.744500
 20
121.051160
 30
0.0
 10
74.792000
 20
121.116060
 30
0.0
  0
SPLINE
  5
194
100
AcDbEntity
  8
Layer_1
 62
7
100
AcDbSpline
 70
8
 71
3
 72
8
 73
4
 74
0
 40
0
 40
0
 40
0
 40
0
 40
1
 40
1
 40
1
 40
1
 10
135.711180
 20
121.408470
 30
0.0
 10
137.441410
 20
122.767950
 30
0.0
 10
139.529880
 20
123.893810
 30
0.0
 10
141.675000
 20
124.623470
 30
0.0
  0
SPLINE
  5
195
100
AcDbEntity
  8
Layer_1
 62
7
100
AcDbSpline
 70
8
 71
3
 72
8
 73
4
 74
0
 40
0
 40
0
 40
0
 40
0
 40
1
 40
1
 40
1
 40
1
 10
141.675000
 20
124.623470
 30
0.0
 10
142.134160
 20
124.779650
 30
0.0
 10
142.846560
 20
124.992890
 30
0.0
 10
143.135280
 20
125.060570
 30
0.0
  0
LWPOLYLINE
  5
196
100
AcDbEntity
  8
Layer_1
 62
7
100
AcDbPolyline
 90
1
 70
1
 10
76.080260
 20
122.789590
 30
0.0
  0
SPLINE
  5
197
100
AcDbEntity
  8
Layer_1
 62
7
100
AcDbSpline
 70
8
 71
3
 72
8
 73
4
 74
0
 40
0
 40
0
 40
0
 40
0
 40
1
 40
1
 40
1
 40
1
 10
143.219940
 20
136.109330
 30
0.0
 10
143.147040
 20
136.125530
 30
0.0
 10
139.778090
 20
136.576070
 30
0.0
 10
139.729860
 20
136.576070
 30
0.0
  0
SPLINE
  5
198
100
AcDbEntity
  8
Layer_1
 62
7
100
AcDbSpline
 70
8
 71
3
 72
8
 73
4
 74
0
 40
0
 40
0
 40
0
 40
0
 40
1
 40
1
 40
1
 40
1
 10
139.729860
 20
136.576070
 30
0.0
 10
139.710160
 20
136.576070
 30
0.0
 10
139.718460
 20
136.535770
 30
0.0
 10
139.751660
 20
136.470240
 30
0.0
  0
SPLINE
  5
199
100
AcDbEntity
  8
Layer_1
 62
7
100
AcDbSpline
 70
8
 71
3
 72
8
 73
4
 74
0
 40
0
 40
0
 40
0
 40
0
 40
1
 40
1
 40
1
 40
1
 10
139.751660
 20
136.470240
 30
0.0
 10
139.960300
 20
136.058310
 30
0.0
 10
140.243640
 20
135.176850
 30
0.0
 10
140.360230
 20
134.577010
 30
0.0
  0
SPLINE
  5
19a
100
AcDbEntity
  8
Layer_1
 62
7
100
AcDbSpline
 70
8
 71
3
 72
8
 73
4
 74
0
 40
0
 40
0
 40
0
 40
0
 40
1
 40
1
 40
1
 40
1
 10
140.360230
 20
134.577010
 30
0.0
 10
140.490290
 20
133.907920
 30
0.0
 10
140.525550
 20
133.468940
 30
0.0
 10
140.509120
 20
132.723740
 30
0.0
  0
SPLINE
  5
19b
100
AcDbEntity
  8
Layer_1
 62
7
100
AcDbSpline
 70
8
 71
3
 72
8
 73
4
 74
0
 40
0
 40
0
 40
0
 40
0
 40
1
 40
1
 40
1
 40
1
 10
140.509120
 20
132.723740
 30
0.0
 10
140.479320
 20
131.369870
 30
0.0
 10
140.231770
 20
130.361980
 30
0.0
 10
139.628950
 20
129.139520
 30
0.0
  0
SPLINE
  5
19c
100
AcDbEntity
  8
Layer_1
 62
7
100
AcDbSpline
 70
8
 71
3
 72
8
 73
4
 74
0
 40
0
 40
0
 40
0
 40
0
 40
1
 40
1
 40
1
 40
1
 10
139.628950
 20
129.139520
 30
0.0
 10
138.787840
 20
127.433800
 30
0.0
 10
137.496540
 20
126.132560
 30
0.0
 10
135.806600
 20
125.287740
 30
0.0
  0
SPLINE
  5
19d
100
AcDbEntity
  8
Layer_1
 62
7
100
AcDbSpline
 70
8
 71
3
 72
8
 73
4
 74
0
 40
0
 40
0
 40
0
 40
0
 40
1
 40
1
 40
1
 40
1
 10
135.806600
 20
125.287740
 30
0.0
 10
134.925040
 20
124.847030
 30
0.0
 10
134.137620
 20
124.604590
 30
0.0
 10
133.120070
 20
124.460570
 30
0.0
  0
LWPOLYLINE
  5
19e
100
AcDbEntity
  8
Layer_1
 62
7
100
AcDbPolyline
 90
5
 70
0
 10
143.135280
 20
125.060570
 30
0.0
 10
143.283440
 20
125.095270
 30
0.0
 10
143.283440
 20
130.595250
 30
0.0
 10
143.283440
 20
136.095230
 30
0.0
 10
143.219940
 20
136.109330
 30
0.0
  0
SPLINE
  5
19f
100
AcDbEntity
  8
Layer_1
 62
7
100
AcDbSpline
 70
8
 71
3
 72
8
 73
4
 74
0
 40
0
 40
0
 40
0
 40
0
 40
1
 40
1
 40
1
 40
1
 10
133.966740
 20
122.727530
 30
0.0
 10
135.099020
 20
121.258260
 30
0.0
 10
135.259960
 20
121.060960
 30
0.0
 10
135.301940
 20
121.090640
 30
0.0
  0
SPLINE
  5
1a0
100
AcDbEntity
  8
Layer_1
 62
7
100
AcDbSpline
 70
8
 71
3
 72
8
 73
4
 74
0
 40
0
 40
0
 40
0
 40
0
 40
1
 40
1
 40
1
 40
1
 10
135.301940
 20
121.090640
 30
0.0
 10
135.328240
 20
121.109240
 30
0.0
 10
135.512350
 20
121.252210
 30
0.0
 10
135.711160
 20
121.408420
 30
0.0
  0
LWPOLYLINE
  5
1a1
100
AcDbEntity
  8
Layer_1
 62
7
100
AcDbPolyline
 90
3
 70
0
 10
133.120070
 20
124.460570
 30
0.0
 10
132.679270
 20
124.398170
 30
0.0
 10
133.966740
 20
122.727530
 30
0.0
  0
SPLINE
  5
1a2
100
AcDbEntity
  8
Layer_1
 62
7
100
AcDbSpline
 70
8
 71
3
 72
8
 73
4
 74
0
 40
0
 40
0
 40
0
 40
0
 40
1
 40
1
 40
1
 40
1
 10
103.814670
 20
125.756240
 30
0.0
 10
104.432740
 20
125.854340
 30
0.0
 10
105.716670
 20
125.838440
 30
0.0
 10
106.368780
 20
125.724640
 30
0.0
  0
SPLINE
  5
1a3
100
AcDbEntity
  8
Layer_1
 62
7
100
AcDbSpline
 70
8
 71
3
 72
8
 73
4
 74
0
 40
0
 40
0
 40
0
 40
0
 40
1
 40
1
 40
1
 40
1
 10
106.368780
 20
125.724640
 30
0.0
 10
106.485190
 20
125.704340
 30
0.0
 10
106.583350
 20
125.690440
 30
0.0
 10
106.586900
 20
125.693840
 30
0.0
  0
SPLINE
  5
1a4
100
AcDbEntity
  8
Layer_1
 62
7
100
AcDbSpline
 70
8
 71
3
 72
8
 73
4
 74
0
 40
0
 40
0
 40
0
 40
0
 40
1
 40
1
 40
1
 40
1
 10
106.586900
 20
125.693840
 30
0.0
 10
106.590900
 20
125.696840
 30
0.0
 10
106.256020
 20
126.518340
 30
0.0
 10
105.843710
 20
127.518560
 30
0.0
  0
SPLINE
  5
1a5
100
AcDbEntity
  8
Layer_1
 62
7
100
AcDbSpline
 70
8
 71
3
 72
8
 73
4
 74
0
 40
0
 40
0
 40
0
 40
0
 40
1
 40
1
 40
1
 40
1
 10
105.843710
 20
127.518560
 30
0.0
 10
105.431400
 20
128.518770
 30
0.0
 10
105.074160
 20
129.386100
 30
0.0
 10
105.049830
 20
129.445960
 30
0.0
  0
SPLINE
  5
1a6
100
AcDbEntity
  8
Layer_1
 62
7
100
AcDbSpline
 70
8
 71
3
 72
8
 73
4
 74
0
 40
0
 40
0
 40
0
 40
0
 40
1
 40
1
 40
1
 40
1
 10
105.049830
 20
129.445960
 30
0.0
 10
105.018930
 20
129.521860
 30
0.0
 10
104.999130
 20
129.543160
 30
0.0
 10
104.984130
 20
129.516460
 30
0.0
  0
SPLINE
  5
1a7
100
AcDbEntity
  8
Layer_1
 62
7
100
AcDbSpline
 70
8
 71
3
 72
8
 73
4
 74
0
 40
0
 40
0
 40
0
 40
0
 40
1
 40
1
 40
1
 40
1
 10
104.984130
 20
129.516460
 30
0.0
 10
104.968530
 20
129.488560
 30
0.0
 10
103.517870
 20
125.979960
 30
0.0
 10
103.412900
 20
125.716200
 30
0.0
  0
SPLINE
  5
1a8
100
AcDbEntity
  8
Layer_1
 62
7
100
AcDbSpline
 70
8
 71
3
 72
8
 73
4
 74
0
 40
0
 40
0
 40
0
 40
0
 40
1
 40
1
 40
1
 40
1
 10
103.412900
 20
125.716200
 30
0.0
 10
103.402500
 20
125.689900
 30
0.0
 10
103.416900
 20
125.684000
 30
0.0
 10
103.465400
 20
125.695500
 30
0.0
  0
SPLINE
  5
1a9
100
AcDbEntity
  8
Layer_1
 62
7
100
AcDbSpline
 70
8
 71
3
 72
8
 73
4
 74
0
 40
0
 40
0
 40
0
 40
0
 40
1
 40
1
 40
1
 40
1
 10
103.465400
 20
125.695500
 30
0.0
 10
103.502300
 20
125.704500
 30
0.0
 10
103.659470
 20
125.731600
 30
0.0
 10
103.814700
 20
125.756300
 30
0.0
  0
LWPOLYLINE
  5
1aa
100
AcDbEntity
  8
Layer_1
 62
7
100
AcDbPolyline
 90
1
 70
1
 10
135.711160
 20
121.408420
 30
0.0
  0
SPLINE
  5
1ab
100
AcDbEntity
  8
Layer_1
 62
7
100
AcDbSpline
 70
8
 71
3
 72
8
 73
4
 74
0
 40
0
 40
0
 40
0
 40
0
 40
1
 40
1
 40
1
 40
1
 10
87.325670
 20
137.372120
 30
0.0
 10
88.020210
 20
138.274580
 30
0.0
 10
88.584670
 20
139.016740
 30
0.0
 10
88.580040
 20
139.021370
 30
0.0
  0
SPLINE
  5
1ac
100
AcDbEntity
  8
Layer_1
 62
7
100
AcDbSpline
 70
8
 71
3
 72
8
 73
4
 74
0
 40
0
 40
0
 40
0
 40
0
 40
1
 40
1
 40
1
 40
1
 10
88.580040
 20
139.021370
 30
0.0
 10
88.566340
 20
139.035070
 30
0.0
 10
84.468350
 20
138.482450
 30
0.0
 10
84.468790
 20
138.467000
 30
0.0
  0
SPLINE
  5
1ad
100
AcDbEntity
  8
Layer_1
 62
7
100
AcDbSpline
 70
8
 71
3
 72
8
 73
4
 74
0
 40
0
 40
0
 40
0
 40
0
 40
1
 40
1
 40
1
 40
1
 10
84.468790
 20
138.467000
 30
0.0
 10
84.469010
 20
138.459000
 30
0.0
 10
84.559990
 20
138.338590
 30
0.0
 10
84.670980
 20
138.198890
 30
0.0
  0
SPLINE
  5
1ae
100
AcDbEntity
  8
Layer_1
 62
7
100
AcDbSpline
 70
8
 71
3
 72
8
 73
4
 74
0
 40
0
 40
0
 40
0
 40
0
 40
1
 40
1
 40
1
 40
1
 10
84.670980
 20
138.198890
 30
0.0
 10
85.147470
 20
137.599110
 30
0.0
 10
85.696150
 20
136.641790
 30
0.0
 10
85.936690
 20
135.990500
 30
0.0
  0
SPLINE
  5
1af
100
AcDbEntity
  8
Layer_1
 62
7
100
AcDbSpline
 70
8
 71
3
 72
8
 73
4
 74
0
 40
0
 40
0
 40
0
 40
0
 40
1
 40
1
 40
1
 40
1
 10
85.936690
 20
135.990500
 30
0.0
 10
85.989690
 20
135.846920
 30
0.0
 10
86.039810
 20
135.729860
 30
0.0
 10
86.048000
 20
135.730370
 30
0.0
  0
SPLINE
  5
1b0
100
AcDbEntity
  8
Layer_1
 62
7
100
AcDbSpline
 70
8
 71
3
 72
8
 73
4
 74
0
 40
0
 40
0
 40
0
 40
0
 40
1
 40
1
 40
1
 40
1
 10
86.048000
 20
135.730370
 30
0.0
 10
86.056000
 20
135.730880
 30
0.0
 10
86.631140
 20
136.469670
 30
0.0
 10
87.325670
 20
137.372120
 30
0.0
  0
LWPOLYLINE
  5
1b1
100
AcDbEntity
  8
Layer_1
 62
7
100
AcDbPolyline
 90
1
 70
1
 10
103.814700
 20
125.756300
 30
0.0
  0
SPLINE
  5
1b2
100
AcDbEntity
  8
Layer_1
 62
7
100
AcDbSpline
 70
8
 71
3
 72
8
 73
4
 74
0
 40
0
 40
0
 40
0
 40
0
 40
1
 40
1
 40
1
 40
1
 10
124.062620
 20
135.990770
 30
0.0
 10
124.308520
 20
136.649890
 30
0.0
 10
124.853910
 20
137.600850
 30
0.0
 10
125.329020
 20
138.198890
 30
0.0
  0
SPLINE
  5
1b3
100
AcDbEntity
  8
Layer_1
 62
7
100
AcDbSpline
 70
8
 71
3
 72
8
 73
4
 74
0
 40
0
 40
0
 40
0
 40
0
 40
1
 40
1
 40
1
 40
1
 10
125.329020
 20
138.198890
 30
0.0
 10
125.440000
 20
138.338590
 30
0.0
 10
125.531000
 20
138.459570
 30
0.0
 10
125.531240
 20
138.467730
 30
0.0
  0
SPLINE
  5
1b4
100
AcDbEntity
  8
Layer_1
 62
7
100
AcDbSpline
 70
8
 71
3
 72
8
 73
4
 74
0
 40
0
 40
0
 40
0
 40
0
 40
1
 40
1
 40
1
 40
1
 10
125.531240
 20
138.467730
 30
0.0
 10
125.531720
 20
138.484630
 30
0.0
 10
121.435720
 20
139.037130
 30
0.0
 10
121.420770
 20
139.022180
 30
0.0
  0
SPLINE
  5
1b5
100
AcDbEntity
  8
Layer_1
 62
7
100
AcDbSpline
 70
8
 71
3
 72
8
 73
4
 74
0
 40
0
 40
0
 40
0
 40
0
 40
1
 40
1
 40
1
 40
1
 10
121.420770
 20
139.022180
 30
0.0
 10
121.409370
 20
139.010780
 30
0.0
 10
123.930280
 20
135.731790
 30
0.0
 10
123.951220
 20
135.730710
 30
0.0
  0
SPLINE
  5
1b6
100
AcDbEntity
  8
Layer_1
 62
7
100
AcDbSpline
 70
8
 71
3
 72
8
 73
4
 74
0
 40
0
 40
0
 40
0
 40
0
 40
1
 40
1
 40
1
 40
1
 10
123.951220
 20
135.730710
 30
0.0
 10
123.959220
 20
135.730320
 30
0.0
 10
124.009120
 20
135.847340
 30
0.0
 10
124.062620
 20
135.990770
 30
0.0
  0
LWPOLYLINE
  5
1b7
100
AcDbEntity
  8
Layer_1
 62
7
100
AcDbPolyline
 90
1
 70
1
 10
87.325670
 20
137.372120
 30
0.0
  0
LWPOLYLINE
  5
1b8
100
AcDbEntity
  8
Layer_1
 62
7
100
AcDbPolyline
 90
1
 70
1
 10
124.062620
 20
135.990770
 30
0.0
  0
SPLINE
  5
1b9
100
AcDbEntity
  8
Layer_1
 62
7
100
AcDbSpline
 70
8
 71
3
 72
8
 73
4
 74
0
 40
0
 40
0
 40
0
 40
0
 40
1
 40
1
 40
1
 40
1
 10
72.677250
 20
139.575260
 30
0.0
 10
73.981950
 20
140.614620
 30
0.0
 10
75.542030
 20
141.241660
 30
0.0
 10
77.229330
 20
141.404880
 30
0.0
  0
SPLINE
  5
1ba
100
AcDbEntity
  8
Layer_1
 62
7
100
AcDbSpline
 70
8
 71
3
 72
8
 73
4
 74
0
 40
0
 40
0
 40
0
 40
0
 40
1
 40
1
 40
1
 40
1
 10
77.229330
 20
141.404880
 30
0.0
 10
77.712210
 20
141.451580
 30
0.0
 10
78.734410
 20
141.422480
 30
0.0
 10
79.219000
 20
141.348180
 30
0.0
  0
SPLINE
  5
1bb
100
AcDbEntity
  8
Layer_1
 62
7
100
AcDbSpline
 70
8
 71
3
 72
8
 73
4
 74
0
 40
0
 40
0
 40
0
 40
0
 40
1
 40
1
 40
1
 40
1
 10
79.219000
 20
141.348180
 30
0.0
 10
79.933690
 20
141.238620
 30
0.0
 10
80.610700
 20
141.048060
 30
0.0
 10
81.302770
 20
140.761660
 30
0.0
  0
LWPOLYLINE
  5
1bc
100
AcDbEntity
  8
Layer_1
 62
7
100
AcDbPolyline
 90
3
 70
0
 10
69.589390
 20
138.987210
 30
0.0
 10
72.414940
 20
139.366300
 30
0.0
 10
72.677250
 20
139.575260
 30
0.0
  0
SPLINE
  5
1bd
100
AcDbEntity
  8
Layer_1
 62
7
100
AcDbSpline
 70
8
 71
3
 72
8
 73
4
 74
0
 40
0
 40
0
 40
0
 40
0
 40
1
 40
1
 40
1
 40
1
 10
82.727990
 20
140.747760
 30
0.0
 10
83.304880
 20
140.825760
 30
0.0
 10
84.376690
 20
140.969640
 30
0.0
 10
85.109780
 20
141.067450
 30
0.0
  0
SPLINE
  5
1be
100
AcDbEntity
  8
Layer_1
 62
7
100
AcDbSpline
 70
8
 71
3
 72
8
 73
4
 74
0
 40
0
 40
0
 40
0
 40
0
 40
1
 40
1
 40
1
 40
1
 10
85.109780
 20
141.067450
 30
0.0
 10
85.842870
 20
141.165250
 30
0.0
 10
86.433420
 20
141.253790
 30
0.0
 10
86.422110
 20
141.264160
 30
0.0
  0
SPLINE
  5
1bf
100
AcDbEntity
  8
Layer_1
 62
7
100
AcDbSpline
 70
8
 71
3
 72
8
 73
4
 74
0
 40
0
 40
0
 40
0
 40
0
 40
1
 40
1
 40
1
 40
1
 10
86.422110
 20
141.264160
 30
0.0
 10
86.410810
 20
141.274560
 30
0.0
 10
82.930170
 20
142.465800
 30
0.0
 10
78.687370
 20
143.911440
 30
0.0
  0
SPLINE
  5
1c0
100
AcDbEntity
  8
Layer_1
 62
7
100
AcDbSpline
 70
8
 71
3
 72
8
 73
4
 74
0
 40
0
 40
0
 40
0
 40
0
 40
1
 40
1
 40
1
 40
1
 10
78.687370
 20
143.911440
 30
0.0
 10
71.467550
 20
146.371430
 30
0.0
 10
70.966560
 20
146.538030
 30
0.0
 10
70.869810
 20
146.511160
 30
0.0
  0
SPLINE
  5
1c1
100
AcDbEntity
  8
Layer_1
 62
7
100
AcDbSpline
 70
8
 71
3
 72
8
 73
4
 74
0
 40
0
 40
0
 40
0
 40
0
 40
1
 40
1
 40
1
 40
1
 10
70.869810
 20
146.511160
 30
0.0
 10
70.813010
 20
146.495360
 30
0.0
 10
70.707670
 20
146.482360
 30
0.0
 10
70.635830
 20
146.482260
 30
0.0
  0
LWPOLYLINE
  5
1c2
100
AcDbEntity
  8
Layer_1
 62
7
100
AcDbPolyline
 90
3
 70
0
 10
81.302770
 20
140.761660
 30
0.0
 10
81.679090
 20
140.605920
 30
0.0
 10
82.727990
 20
140.747760
 30
0.0
  0
SPLINE
  5
1c3
100
AcDbEntity
  8
Layer_1
 62
7
100
AcDbSpline
 70
8
 71
3
 72
8
 73
4
 74
0
 40
0
 40
0
 40
0
 40
0
 40
1
 40
1
 40
1
 40
1
 10
66.716550
 20
138.929780
 30
0.0
 10
66.716550
 20
138.752850
 30
0.0
 10
66.727150
 20
138.608100
 30
0.0
 10
66.740150
 20
138.608100
 30
0.0
  0
SPLINE
  5
1c4
100
AcDbEntity
  8
Layer_1
 62
7
100
AcDbSpline
 70
8
 71
3
 72
8
 73
4
 74
0
 40
0
 40
0
 40
0
 40
0
 40
1
 40
1
 40
1
 40
1
 10
66.740150
 20
138.608100
 30
0.0
 10
66.753150
 20
138.608100
 30
0.0
 10
68.035290
 20
138.778700
 30
0.0
 10
69.589350
 20
138.987200
 30
0.0
  0
LWPOLYLINE
  5
1c5
100
AcDbEntity
  8
Layer_1
 62
7
100
AcDbPolyline
 90
5
 70
0
 10
70.635830
 20
146.482260
 30
0.0
 10
70.505210
 20
146.482100
 30
0.0
 10
68.610880
 20
142.866780
 30
0.0
 10
66.716550
 20
139.251450
 30
0.0
 10
66.716550
 20
138.929780
 30
0.0
  0
LWPOLYLINE
  5
1c6
100
AcDbEntity
  8
Layer_1
 62
7
100
AcDbPolyline
 90
1
 70
1
 10
69.589350
 20
138.987200
 30
0.0
  0
SPLINE
  5
1c7
100
AcDbEntity
  8
Layer_1
 62
7
100
AcDbSpline
 70
8
 71
3
 72
8
 73
4
 74
0
 40
0
 40
0
 40
0
 40
0
 40
1
 40
1
 40
1
 40
1
 10
139.325400
 20
146.484430
 30
0.0
 10
139.228300
 20
146.493430
 30
0.0
 10
139.122370
 20
146.509530
 30
0.0
 10
139.089950
 20
146.520130
 30
0.0
  0
SPLINE
  5
1c8
100
AcDbEntity
  8
Layer_1
 62
7
100
AcDbSpline
 70
8
 71
3
 72
8
 73
4
 74
0
 40
0
 40
0
 40
0
 40
0
 40
1
 40
1
 40
1
 40
1
 10
139.089950
 20
146.520130
 30
0.0
 10
139.049250
 20
146.533530
 30
0.0
 10
136.954590
 20
145.831930
 30
0.0
 10
132.316620
 20
144.251520
 30
0.0
  0
SPLINE
  5
1c9
100
AcDbEntity
  8
Layer_1
 62
7
100
AcDbSpline
 70
8
 71
3
 72
8
 73
4
 74
0
 40
0
 40
0
 40
0
 40
0
 40
1
 40
1
 40
1
 40
1
 10
132.316620
 20
144.251520
 30
0.0
 10
128.623700
 20
142.993140
 30
0.0
 10
125.151370
 20
141.810060
 30
0.0
 10
124.600330
 20
141.622450
 30
0.0
  0
SPLINE
  5
1ca
100
AcDbEntity
  8
Layer_1
 62
7
100
AcDbSpline
 70
8
 71
3
 72
8
 73
4
 74
0
 40
0
 40
0
 40
0
 40
0
 40
1
 40
1
 40
1
 40
1
 10
124.600330
 20
141.622450
 30
0.0
 10
124.049290
 20
141.434840
 30
0.0
 10
123.589410
 20
141.273450
 30
0.0
 10
123.578360
 20
141.263800
 30
0.0
  0
SPLINE
  5
1cb
100
AcDbEntity
  8
Layer_1
 62
7
100
AcDbSpline
 70
8
 71
3
 72
8
 73
4
 74
0
 40
0
 40
0
 40
0
 40
0
 40
1
 40
1
 40
1
 40
1
 10
123.578360
 20
141.263800
 30
0.0
 10
123.567360
 20
141.253800
 30
0.0
 10
124.634120
 20
141.102730
 30
0.0
 10
125.949030
 20
140.927320
 30
0.0
  0
LWPOLYLINE
  5
1cc
100
AcDbEntity
  8
Layer_1
 62
7
100
AcDbPolyline
 90
5
 70
0
 10
143.283440
 20
138.929710
 30
0.0
 10
143.283440
 20
139.251280
 30
0.0
 10
141.392680
 20
142.859660
 30
0.0
 10
139.501910
 20
146.468030
 30
0.0
 10
139.325400
 20
146.484430
 30
0.0
  0
SPLINE
  5
1cd
100
AcDbEntity
  8
Layer_1
 62
7
100
AcDbSpline
 70
8
 71
3
 72
8
 73
4
 74
0
 40
0
 40
0
 40
0
 40
0
 40
1
 40
1
 40
1
 40
1
 10
128.607890
 20
140.725530
 30
0.0
 10
129.239740
 20
141.001620
 30
0.0
 10
130.069130
 20
141.239300
 30
0.0
 10
130.780890
 20
141.348240
 30
0.0
  0
SPLINE
  5
1ce
100
AcDbEntity
  8
Layer_1
 62
7
100
AcDbSpline
 70
8
 71
3
 72
8
 73
4
 74
0
 40
0
 40
0
 40
0
 40
0
 40
1
 40
1
 40
1
 40
1
 10
130.780890
 20
141.348240
 30
0.0
 10
131.265720
 20
141.422440
 30
0.0
 10
132.288160
 20
141.451560
 30
0.0
 10
132.770670
 20
141.404840
 30
0.0
  0
SPLINE
  5
1cf
100
AcDbEntity
  8
Layer_1
 62
7
100
AcDbSpline
 70
8
 71
3
 72
8
 73
4
 74
0
 40
0
 40
0
 40
0
 40
0
 40
1
 40
1
 40
1
 40
1
 10
132.770670
 20
141.404840
 30
0.0
 10
134.458420
 20
141.241570
 30
0.0
 10
136.023670
 20
140.612760
 30
0.0
 10
137.321680
 20
139.576540
 30
0.0
  0
LWPOLYLINE
  5
1d0
100
AcDbEntity
  8
Layer_1
 62
7
100
AcDbPolyline
 90
3
 70
0
 10
125.949030
 20
140.927320
 30
0.0
 10
128.339780
 20
140.608380
 30
0.0
 10
128.607890
 20
140.725530
 30
0.0
  0
SPLINE
  5
1d1
100
AcDbEntity
  8
Layer_1
 62
7
100
AcDbSpline
 70
8
 71
3
 72
8
 73
4
 74
0
 40
0
 40
0
 40
0
 40
0
 40
1
 40
1
 40
1
 40
1
 10
140.369680
 20
138.991210
 30
0.0
 10
141.902400
 20
138.783970
 30
0.0
 10
143.185020
 20
138.612990
 30
0.0
 10
143.219940
 20
138.611250
 30
0.0
  0
SPLINE
  5
1d2
100
AcDbEntity
  8
Layer_1
 62
7
100
AcDbSpline
 70
8
 71
3
 72
8
 73
4
 74
0
 40
0
 40
0
 40
0
 40
0
 40
1
 40
1
 40
1
 40
1
 10
143.219940
 20
138.611250
 30
0.0
 10
143.282240
 20
138.608250
 30
0.0
 10
143.283440
 20
138.614250
 30
0.0
 10
143.283440
 20
138.929640
 30
0.0
  0
LWPOLYLINE
  5
1d3
100
AcDbEntity
  8
Layer_1
 62
7
100
AcDbPolyline
 90
3
 70
0
 10
137.321680
 20
139.576540
 30
0.0
 10
137.582900
 20
139.368000
 30
0.0
 10
140.369680
 20
138.991210
 30
0.0
  0
SPLINE
  5
1d4
100
AcDbEntity
  8
Layer_1
 62
7
100
AcDbSpline
 70
8
 71
3
 72
8
 73
4
 74
0
 40
0
 40
0
 40
0
 40
0
 40
1
 40
1
 40
1
 40
1
 10
89.520110
 20
142.937450
 30
0.0
 10
89.520110
 20
142.990250
 30
0.0
 10
89.545010
 20
143.177560
 30
0.0
 10
89.575410
 20
143.353730
 30
0.0
  0
SPLINE
  5
1d5
100
AcDbEntity
  8
Layer_1
 62
7
100
AcDbSpline
 70
8
 71
3
 72
8
 73
4
 74
0
 40
0
 40
0
 40
0
 40
0
 40
1
 40
1
 40
1
 40
1
 10
89.575410
 20
143.353730
 30
0.0
 10
89.906580
 20
145.272800
 30
0.0
 10
91.300400
 20
146.820390
 30
0.0
 10
93.189080
 20
147.366070
 30
0.0
  0
SPLINE
  5
1d6
100
AcDbEntity
  8
Layer_1
 62
7
100
AcDbSpline
 70
8
 71
3
 72
8
 73
4
 74
0
 40
0
 40
0
 40
0
 40
0
 40
1
 40
1
 40
1
 40
1
 10
93.189080
 20
147.366070
 30
0.0
 10
94.385490
 20
147.711740
 30
0.0
 10
95.757310
 20
147.571470
 30
0.0
 10
96.884040
 20
146.988240
 30
0.0
  0
SPLINE
  5
1d7
100
AcDbEntity
  8
Layer_1
 62
7
100
AcDbSpline
 70
8
 71
3
 72
8
 73
4
 74
0
 40
0
 40
0
 40
0
 40
0
 40
1
 40
1
 40
1
 40
1
 10
96.884040
 20
146.988240
 30
0.0
 10
97.061400
 20
146.896440
 30
0.0
 10
97.209790
 20
146.824610
 30
0.0
 10
97.213810
 20
146.828630
 30
0.0
  0
SPLINE
  5
1d8
100
AcDbEntity
  8
Layer_1
 62
7
100
AcDbSpline
 70
8
 71
3
 72
8
 73
4
 74
0
 40
0
 40
0
 40
0
 40
0
 40
1
 40
1
 40
1
 40
1
 10
97.213810
 20
146.828630
 30
0.0
 10
97.217810
 20
146.832630
 30
0.0
 10
97.197410
 20
146.975410
 30
0.0
 10
97.168510
 20
147.145870
 30
0.0
  0
SPLINE
  5
1d9
100
AcDbEntity
  8
Layer_1
 62
7
100
AcDbSpline
 70
8
 71
3
 72
8
 73
4
 74
0
 40
0
 40
0
 40
0
 40
0
 40
1
 40
1
 40
1
 40
1
 10
97.168510
 20
147.145870
 30
0.0
 10
97.017020
 20
148.038490
 30
0.0
 10
97.017110
 20
148.955960
 30
0.0
 10
97.168790
 20
149.854190
 30
0.0
  0
SPLINE
  5
1da
100
AcDbEntity
  8
Layer_1
 62
7
100
AcDbSpline
 70
8
 71
3
 72
8
 73
4
 74
0
 40
0
 40
0
 40
0
 40
0
 40
1
 40
1
 40
1
 40
1
 10
97.168790
 20
149.854190
 30
0.0
 10
97.197590
 20
150.024660
 30
0.0
 10
97.217790
 20
150.167520
 30
0.0
 10
97.213590
 20
150.171660
 30
0.0
  0
SPLINE
  5
1db
100
AcDbEntity
  8
Layer_1
 62
7
100
AcDbSpline
 70
8
 71
3
 72
8
 73
4
 74
0
 40
0
 40
0
 40
0
 40
0
 40
1
 40
1
 40
1
 40
1
 10
97.213590
 20
150.171660
 30
0.0
 10
97.209590
 20
150.175660
 30
0.0
 10
97.073760
 20
150.110560
 30
0.0
 10
96.912050
 20
150.026790
 30
0.0
  0
SPLINE
  5
1dc
100
AcDbEntity
  8
Layer_1
 62
7
100
AcDbSpline
 70
8
 71
3
 72
8
 73
4
 74
0
 40
0
 40
0
 40
0
 40
0
 40
1
 40
1
 40
1
 40
1
 10
96.912050
 20
150.026790
 30
0.0
 10
95.086100
 20
149.080360
 30
0.0
 10
92.925040
 20
149.304590
 30
0.0
 10
91.340470
 20
150.604880
 30
0.0
  0
SPLINE
  5
1dd
100
AcDbEntity
  8
Layer_1
 62
7
100
AcDbSpline
 70
8
 71
3
 72
8
 73
4
 74
0
 40
0
 40
0
 40
0
 40
0
 40
1
 40
1
 40
1
 40
1
 10
91.340470
 20
150.604880
 30
0.0
 10
90.563210
 20
151.242710
 30
0.0
 10
90.007530
 20
152.087640
 30
0.0
 10
89.699390
 20
153.100250
 30
0.0
  0
SPLINE
  5
1de
100
AcDbEntity
  8
Layer_1
 62
7
100
AcDbSpline
 70
8
 71
3
 72
8
 73
4
 74
0
 40
0
 40
0
 40
0
 40
0
 40
1
 40
1
 40
1
 40
1
 10
89.699390
 20
153.100250
 30
0.0
 10
89.624290
 20
153.346830
 30
0.0
 10
89.520130
 20
153.908120
 30
0.0
 10
89.520130
 20
154.065630
 30
0.0
  0
SPLINE
  5
1df
100
AcDbEntity
  8
Layer_1
 62
7
100
AcDbSpline
 70
8
 71
3
 72
8
 73
4
 74
0
 40
0
 40
0
 40
0
 40
0
 40
1
 40
1
 40
1
 40
1
 10
89.520130
 20
154.065630
 30
0.0
 10
89.520130
 20
154.133930
 30
0.0
 10
89.509030
 20
154.160330
 30
0.0
 10
89.484430
 20
154.150930
 30
0.0
  0
SPLINE
  5
1e0
100
AcDbEntity
  8
Layer_1
 62
7
100
AcDbSpline
 70
8
 71
3
 72
8
 73
4
 74
0
 40
0
 40
0
 40
0
 40
0
 40
1
 40
1
 40
1
 40
1
 10
89.484430
 20
154.150930
 30
0.0
 10
89.455030
 20
154.139630
 30
0.0
 10
79.200350
 20
150.643430
 30
0.0
 10
77.130610
 20
149.939030
 30
0.0
  0
SPLINE
  5
1e1
100
AcDbEntity
  8
Layer_1
 62
7
100
AcDbSpline
 70
8
 71
3
 72
8
 73
4
 74
0
 40
0
 40
0
 40
0
 40
0
 40
1
 40
1
 40
1
 40
1
 10
77.130610
 20
149.939030
 30
0.0
 10
74.089260
 20
148.903970
 30
0.0
 10
72.925860
 20
148.504390
 30
0.0
 10
72.932940
 20
148.497310
 30
0.0
  0
SPLINE
  5
1e2
100
AcDbEntity
  8
Layer_1
 62
7
100
AcDbSpline
 70
8
 71
3
 72
8
 73
4
 74
0
 40
0
 40
0
 40
0
 40
0
 40
1
 40
1
 40
1
 40
1
 10
72.932940
 20
148.497310
 30
0.0
 10
72.939940
 20
148.490310
 30
0.0
 10
74.545380
 20
147.940960
 30
0.0
 10
77.130610
 20
147.061000
 30
0.0
  0
SPLINE
  5
1e3
100
AcDbEntity
  8
Layer_1
 62
7
100
AcDbSpline
 70
8
 71
3
 72
8
 73
4
 74
0
 40
0
 40
0
 40
0
 40
0
 40
1
 40
1
 40
1
 40
1
 10
77.130610
 20
147.061000
 30
0.0
 10
77.464330
 20
146.947400
 30
0.0
 10
80.378980
 20
145.952750
 30
0.0
 10
83.607610
 20
144.850670
 30
0.0
  0
SPLINE
  5
1e4
100
AcDbEntity
  8
Layer_1
 62
7
100
AcDbSpline
 70
8
 71
3
 72
8
 73
4
 74
0
 40
0
 40
0
 40
0
 40
0
 40
1
 40
1
 40
1
 40
1
 10
83.607610
 20
144.850670
 30
0.0
 10
86.836230
 20
143.748580
 30
0.0
 10
89.487350
 20
142.845660
 30
0.0
 10
89.498990
 20
142.844190
 30
0.0
  0
SPLINE
  5
1e5
100
AcDbEntity
  8
Layer_1
 62
7
100
AcDbSpline
 70
8
 71
3
 72
8
 73
4
 74
0
 40
0
 40
0
 40
0
 40
0
 40
1
 40
1
 40
1
 40
1
 10
89.498990
 20
142.844190
 30
0.0
 10
89.510590
 20
142.843190
 30
0.0
 10
89.520190
 20
142.884690
 30
0.0
 10
89.520190
 20
142.937490
 30
0.0
  0
LWPOLYLINE
  5
1e6
100
AcDbEntity
  8
Layer_1
 62
7
100
AcDbPolyline
 90
1
 70
1
 10
143.283440
 20
138.929640
 30
0.0
  0
SPLINE
  5
1e7
100
AcDbEntity
  8
Layer_1
 62
7
100
AcDbSpline
 70
8
 71
3
 72
8
 73
4
 74
0
 40
0
 40
0
 40
0
 40
0
 40
1
 40
1
 40
1
 40
1
 10
128.773840
 20
145.663700
 30
0.0
 10
133.327050
 20
147.215920
 30
0.0
 10
137.059500
 20
148.485920
 30
0.0
 10
137.068180
 20
148.485920
 30
0.0
  0
SPLINE
  5
1e8
100
AcDbEntity
  8
Layer_1
 62
7
100
AcDbSpline
 70
8
 71
3
 72
8
 73
4
 74
0
 40
0
 40
0
 40
0
 40
0
 40
1
 40
1
 40
1
 40
1
 10
137.068180
 20
148.485920
 30
0.0
 10
137.125480
 20
148.485920
 30
0.0
 10
136.873300
 20
148.575120
 30
0.0
 10
135.309210
 20
149.108200
 30
0.0
  0
SPLINE
  5
1e9
100
AcDbEntity
  8
Layer_1
 62
7
100
AcDbSpline
 70
8
 71
3
 72
8
 73
4
 74
0
 40
0
 40
0
 40
0
 40
0
 40
1
 40
1
 40
1
 40
1
 10
135.309210
 20
149.108200
 30
0.0
 10
134.347630
 20
149.435930
 30
0.0
 10
130.621210
 20
150.706330
 30
0.0
 10
127.028270
 20
151.931320
 30
0.0
  0
SPLINE
  5
1ea
100
AcDbEntity
  8
Layer_1
 62
7
100
AcDbSpline
 70
8
 71
3
 72
8
 73
4
 74
0
 40
0
 40
0
 40
0
 40
0
 40
1
 40
1
 40
1
 40
1
 10
127.028270
 20
151.931320
 30
0.0
 10
123.435330
 20
153.156320
 30
0.0
 10
120.493930
 20
154.158590
 30
0.0
 10
120.491820
 20
154.158590
 30
0.0
  0
SPLINE
  5
1eb
100
AcDbEntity
  8
Layer_1
 62
7
100
AcDbSpline
 70
8
 71
3
 72
8
 73
4
 74
0
 40
0
 40
0
 40
0
 40
0
 40
1
 40
1
 40
1
 40
1
 10
120.491820
 20
154.158590
 30
0.0
 10
120.489820
 20
154.158590
 30
0.0
 10
120.479920
 20
154.072190
 30
0.0
 10
120.470120
 20
153.966480
 30
0.0
  0
SPLINE
  5
1ec
100
AcDbEntity
  8
Layer_1
 62
7
100
AcDbSpline
 70
8
 71
3
 72
8
 73
4
 74
0
 40
0
 40
0
 40
0
 40
0
 40
1
 40
1
 40
1
 40
1
 10
120.470120
 20
153.966480
 30
0.0
 10
120.441220
 20
153.656080
 30
0.0
 10
120.340670
 20
153.210910
 30
0.0
 10
120.220420
 20
152.861490
 30
0.0
  0
SPLINE
  5
1ed
100
AcDbEntity
  8
Layer_1
 62
7
100
AcDbSpline
 70
8
 71
3
 72
8
 73
4
 74
0
 40
0
 40
0
 40
0
 40
0
 40
1
 40
1
 40
1
 40
1
 10
120.220420
 20
152.861490
 30
0.0
 10
119.679370
 20
151.289340
 30
0.0
 10
118.422570
 20
150.099640
 30
0.0
 10
116.810920
 20
149.633990
 30
0.0
  0
SPLINE
  5
1ee
100
AcDbEntity
  8
Layer_1
 62
7
100
AcDbSpline
 70
8
 71
3
 72
8
 73
4
 74
0
 40
0
 40
0
 40
0
 40
0
 40
1
 40
1
 40
1
 40
1
 10
116.810920
 20
149.633990
 30
0.0
 10
116.441480
 20
149.527250
 30
0.0
 10
116.073790
 20
149.471360
 30
0.0
 10
115.625650
 20
149.453840
 30
0.0
  0
SPLINE
  5
1ef
100
AcDbEntity
  8
Layer_1
 62
7
100
AcDbSpline
 70
8
 71
3
 72
8
 73
4
 74
0
 40
0
 40
0
 40
0
 40
0
 40
1
 40
1
 40
1
 40
1
 10
115.625650
 20
149.453840
 30
0.0
 10
114.755920
 20
149.419840
 30
0.0
 10
113.946060
 20
149.597420
 30
0.0
 10
113.147970
 20
149.997220
 30
0.0
  0
SPLINE
  5
1f0
100
AcDbEntity
  8
Layer_1
 62
7
100
AcDbSpline
 70
8
 71
3
 72
8
 73
4
 74
0
 40
0
 40
0
 40
0
 40
0
 40
1
 40
1
 40
1
 40
1
 10
113.147970
 20
149.997220
 30
0.0
 10
112.951560
 20
150.095620
 30
0.0
 10
112.788170
 20
150.173410
 30
0.0
 10
112.784880
 20
150.170120
 30
0.0
  0
SPLINE
  5
1f1
100
AcDbEntity
  8
Layer_1
 62
7
100
AcDbSpline
 70
8
 71
3
 72
8
 73
4
 74
0
 40
0
 40
0
 40
0
 40
0
 40
1
 40
1
 40
1
 40
1
 10
112.784880
 20
150.170120
 30
0.0
 10
112.781880
 20
150.167120
 30
0.0
 10
112.802580
 20
150.024660
 30
0.0
 10
112.831480
 20
149.854190
 30
0.0
  0
SPLINE
  5
1f2
100
AcDbEntity
  8
Layer_1
 62
7
100
AcDbSpline
 70
8
 71
3
 72
8
 73
4
 74
0
 40
0
 40
0
 40
0
 40
0
 40
1
 40
1
 40
1
 40
1
 10
112.831480
 20
149.854190
 30
0.0
 10
112.981890
 20
148.967960
 30
0.0
 10
112.981890
 20
148.032100
 30
0.0
 10
112.831480
 20
147.145870
 30
0.0
  0
SPLINE
  5
1f3
100
AcDbEntity
  8
Layer_1
 62
7
100
AcDbSpline
 70
8
 71
3
 72
8
 73
4
 74
0
 40
0
 40
0
 40
0
 40
0
 40
1
 40
1
 40
1
 40
1
 10
112.831480
 20
147.145870
 30
0.0
 10
112.802580
 20
146.975410
 30
0.0
 10
112.782280
 20
146.832550
 30
0.0
 10
112.786380
 20
146.828410
 30
0.0
  0
SPLINE
  5
1f4
100
AcDbEntity
  8
Layer_1
 62
7
100
AcDbSpline
 70
8
 71
3
 72
8
 73
4
 74
0
 40
0
 40
0
 40
0
 40
0
 40
1
 40
1
 40
1
 40
1
 10
112.786380
 20
146.828410
 30
0.0
 10
112.790380
 20
146.824410
 30
0.0
 10
112.929560
 20
146.891710
 30
0.0
 10
113.095370
 20
146.978320
 30
0.0
  0
SPLINE
  5
1f5
100
AcDbEntity
  8
Layer_1
 62
7
100
AcDbSpline
 70
8
 71
3
 72
8
 73
4
 74
0
 40
0
 40
0
 40
0
 40
0
 40
1
 40
1
 40
1
 40
1
 10
113.095370
 20
146.978320
 30
0.0
 10
114.225840
 20
147.568690
 30
0.0
 10
115.609730
 20
147.713110
 30
0.0
 10
116.810880
 20
147.366070
 30
0.0
  0
SPLINE
  5
1f6
100
AcDbEntity
  8
Layer_1
 62
7
100
AcDbSpline
 70
8
 71
3
 72
8
 73
4
 74
0
 40
0
 40
0
 40
0
 40
0
 40
1
 40
1
 40
1
 40
1
 10
116.810880
 20
147.366070
 30
0.0
 10
117.997540
 20
147.023220
 30
0.0
 10
119.009680
 20
146.279670
 30
0.0
 10
119.671160
 20
145.264830
 30
0.0
  0
SPLINE
  5
1f7
100
AcDbEntity
  8
Layer_1
 62
7
100
AcDbSpline
 70
8
 71
3
 72
8
 73
4
 74
0
 40
0
 40
0
 40
0
 40
0
 40
1
 40
1
 40
1
 40
1
 10
119.671160
 20
145.264830
 30
0.0
 10
120.097510
 20
144.610720
 30
0.0
 10
120.402720
 20
143.758330
 30
0.0
 10
120.470080
 20
143.033590
 30
0.0
  0
SPLINE
  5
1f8
100
AcDbEntity
  8
Layer_1
 62
7
100
AcDbSpline
 70
8
 71
3
 72
8
 73
4
 74
0
 40
0
 40
0
 40
0
 40
0
 40
1
 40
1
 40
1
 40
1
 10
120.470080
 20
143.033590
 30
0.0
 10
120.480080
 20
142.927930
 30
0.0
 10
120.489580
 20
142.841480
 30
0.0
 10
120.491580
 20
142.841480
 30
0.0
  0
SPLINE
  5
1f9
100
AcDbEntity
  8
Layer_1
 62
7
100
AcDbSpline
 70
8
 71
3
 72
8
 73
4
 74
0
 40
0
 40
0
 40
0
 40
0
 40
1
 40
1
 40
1
 40
1
 10
120.491580
 20
142.841480
 30
0.0
 10
120.493580
 20
142.841480
 30
0.0
 10
124.220570
 20
144.111480
 30
0.0
 10
128.773780
 20
145.663700
 30
0.0
  0
LWPOLYLINE
  5
1fa
100
AcDbEntity
  8
Layer_1
 62
7
100
AcDbPolyline
 90
1
 70
1
 10
89.520190
 20
142.937490
 30
0.0
  0
SPLINE
  5
1fb
100
AcDbEntity
  8
Layer_1
 62
7
100
AcDbSpline
 70
8
 71
3
 72
8
 73
4
 74
0
 40
0
 40
0
 40
0
 40
0
 40
1
 40
1
 40
1
 40
1
 10
105.809950
 20
144.561710
 30
0.0
 10
106.598500
 20
144.729770
 30
0.0
 10
107.263730
 20
145.091240
 30
0.0
 10
107.837430
 20
145.663400
 30
0.0
  0
SPLINE
  5
1fc
100
AcDbEntity
  8
Layer_1
 62
7
100
AcDbSpline
 70
8
 71
3
 72
8
 73
4
 74
0
 40
0
 40
0
 40
0
 40
0
 40
1
 40
1
 40
1
 40
1
 10
107.837430
 20
145.663400
 30
0.0
 10
108.406310
 20
146.230740
 30
0.0
 10
108.767980
 20
146.898790
 30
0.0
 10
108.942470
 20
147.704490
 30
0.0
  0
SPLINE
  5
1fd
100
AcDbEntity
  8
Layer_1
 62
7
100
AcDbSpline
 70
8
 71
3
 72
8
 73
4
 74
0
 40
0
 40
0
 40
0
 40
0
 40
1
 40
1
 40
1
 40
1
 10
108.942470
 20
147.704490
 30
0.0
 10
109.031970
 20
148.117830
 30
0.0
 10
109.031970
 20
148.882230
 30
0.0
 10
108.942470
 20
149.295570
 30
0.0
  0
SPLINE
  5
1fe
100
AcDbEntity
  8
Layer_1
 62
7
100
AcDbSpline
 70
8
 71
3
 72
8
 73
4
 74
0
 40
0
 40
0
 40
0
 40
0
 40
1
 40
1
 40
1
 40
1
 10
108.942470
 20
149.295570
 30
0.0
 10
108.767190
 20
150.104940
 30
0.0
 10
108.411090
 20
150.762210
 30
0.0
 10
107.836630
 20
151.336660
 30
0.0
  0
SPLINE
  5
1ff
100
AcDbEntity
  8
Layer_1
 62
7
100
AcDbSpline
 70
8
 71
3
 72
8
 73
4
 74
0
 40
0
 40
0
 40
0
 40
0
 40
1
 40
1
 40
1
 40
1
 10
107.836630
 20
151.336660
 30
0.0
 10
107.262900
 20
151.910400
 30
0.0
 10
106.620600
 20
152.259050
 30
0.0
 10
105.800960
 20
152.441670
 30
0.0
  0
SPLINE
  5
200
100
AcDbEntity
  8
Layer_1
 62
7
100
AcDbSpline
 70
8
 71
3
 72
8
 73
4
 74
0
 40
0
 40
0
 40
0
 40
0
 40
1
 40
1
 40
1
 40
1
 10
105.800960
 20
152.441670
 30
0.0
 10
105.554340
 20
152.496570
 30
0.0
 10
105.427640
 20
152.506970
 30
0.0
 10
105.000000
 20
152.506970
 30
0.0
  0
SPLINE
  5
201
100
AcDbEntity
  8
Layer_1
 62
7
100
AcDbSpline
 70
8
 71
3
 72
8
 73
4
 74
0
 40
0
 40
0
 40
0
 40
0
 40
1
 40
1
 40
1
 40
1
 10
105.000000
 20
152.506970
 30
0.0
 10
104.572360
 20
152.506970
 30
0.0
 10
104.445660
 20
152.496670
 30
0.0
 10
104.199040
 20
152.441670
 30
0.0
  0
SPLINE
  5
202
100
AcDbEntity
  8
Layer_1
 62
7
100
AcDbSpline
 70
8
 71
3
 72
8
 73
4
 74
0
 40
0
 40
0
 40
0
 40
0
 40
1
 40
1
 40
1
 40
1
 10
104.199040
 20
152.441670
 30
0.0
 10
103.383140
 20
152.259890
 30
0.0
 10
102.729950
 20
151.905580
 30
0.0
 10
102.163370
 20
151.337470
 30
0.0
  0
SPLINE
  5
203
100
AcDbEntity
  8
Layer_1
 62
7
100
AcDbSpline
 70
8
 71
3
 72
8
 73
4
 74
0
 40
0
 40
0
 40
0
 40
0
 40
1
 40
1
 40
1
 40
1
 10
102.163370
 20
151.337470
 30
0.0
 10
101.588810
 20
150.761360
 30
0.0
 10
101.240860
 20
150.120110
 30
0.0
 10
101.058360
 20
149.300990
 30
0.0
  0
SPLINE
  5
204
100
AcDbEntity
  8
Layer_1
 62
7
100
AcDbSpline
 70
8
 71
3
 72
8
 73
4
 74
0
 40
0
 40
0
 40
0
 40
0
 40
1
 40
1
 40
1
 40
1
 10
101.058360
 20
149.300990
 30
0.0
 10
100.963960
 20
148.877340
 30
0.0
 10
100.963960
 20
148.122720
 30
0.0
 10
101.058360
 20
147.699070
 30
0.0
  0
SPLINE
  5
205
100
AcDbEntity
  8
Layer_1
 62
7
100
AcDbSpline
 70
8
 71
3
 72
8
 73
4
 74
0
 40
0
 40
0
 40
0
 40
0
 40
1
 40
1
 40
1
 40
1
 10
101.058360
 20
147.699070
 30
0.0
 10
101.240860
 20
146.879960
 30
0.0
 10
101.588810
 20
146.238700
 30
0.0
 10
102.163370
 20
145.662600
 30
0.0
  0
SPLINE
  5
206
100
AcDbEntity
  8
Layer_1
 62
7
100
AcDbSpline
 70
8
 71
3
 72
8
 73
4
 74
0
 40
0
 40
0
 40
0
 40
0
 40
1
 40
1
 40
1
 40
1
 10
102.163370
 20
145.662600
 30
0.0
 10
102.819830
 20
145.004370
 30
0.0
 10
103.547800
 20
144.652440
 30
0.0
 10
104.576670
 20
144.495910
 30
0.0
  0
SPLINE
  5
207
100
AcDbEntity
  8
Layer_1
 62
7
100
AcDbSpline
 70
8
 71
3
 72
8
 73
4
 74
0
 40
0
 40
0
 40
0
 40
0
 40
1
 40
1
 40
1
 40
1
 10
104.576670
 20
144.495910
 30
0.0
 10
104.783780
 20
144.464410
 30
0.0
 10
105.543590
 20
144.504910
 30
0.0
 10
105.809950
 20
144.561710
 30
0.0
  0
LWPOLYLINE
  5
208
100
AcDbEntity
  8
Layer_1
 62
7
100
AcDbPolyline
 90
1
 70
1
 10
128.773780
 20
145.663700
 30
0.0
  0
LWPOLYLINE
  5
209
100
AcDbEntity
  8
Layer_1
 62
7
100
AcDbPolyline
 90
1
 70
1
 10
105.809950
 20
144.561710
 30
0.0
  0
SPLINE
  5
20a
100
AcDbEntity
  8
Layer_1
 62
7
100
AcDbSpline
 70
8
 71
3
 72
8
 73
4
 74
0
 40
0
 40
0
 40
0
 40
0
 40
1
 40
1
 40
1
 40
1
 10
68.679530
 20
148.650830
 30
0.0
 10
68.582930
 20
148.847910
 30
0.0
 10
66.742690
 20
152.361940
 30
0.0
 10
66.727530
 20
152.378240
 30
0.0
  0
SPLINE
  5
20b
100
AcDbEntity
  8
Layer_1
 62
7
100
AcDbSpline
 70
8
 71
3
 72
8
 73
4
 74
0
 40
0
 40
0
 40
0
 40
0
 40
1
 40
1
 40
1
 40
1
 10
66.727530
 20
152.378240
 30
0.0
 10
66.721530
 20
152.384240
 30
0.0
 10
66.716730
 20
150.638450
 30
0.0
 10
66.717030
 20
148.497680
 30
0.0
  0
LWPOLYLINE
  5
20c
100
AcDbEntity
  8
Layer_1
 62
7
100
AcDbPolyline
 90
3
 70
0
 10
67.844760
 20
146.745830
 30
0.0
 10
68.757730
 20
148.491190
 30
0.0
 10
68.679530
 20
148.650830
 30
0.0
  0
SPLINE
  5
20d
100
AcDbEntity
  8
Layer_1
 62
7
100
AcDbSpline
 70
8
 71
3
 72
8
 73
4
 74
0
 40
0
 40
0
 40
0
 40
0
 40
1
 40
1
 40
1
 40
1
 10
66.824650
 20
144.802920
 30
0.0
 10
66.883650
 20
144.911580
 30
0.0
 10
67.342700
 20
145.785890
 30
0.0
 10
67.844840
 20
146.745830
 30
0.0
  0
LWPOLYLINE
  5
20e
100
AcDbEntity
  8
Layer_1
 62
7
100
AcDbPolyline
 90
3
 70
0
 10
66.717030
 20
148.497680
 30
0.0
 10
66.717430
 20
144.605370
 30
0.0
 10
66.824650
 20
144.802920
 30
0.0
  0
LWPOLYLINE
  5
20f
100
AcDbEntity
  8
Layer_1
 62
7
100
AcDbPolyline
 90
1
 70
1
 10
67.844840
 20
146.745830
 30
0.0
  0
SPLINE
  5
210
100
AcDbEntity
  8
Layer_1
 62
7
100
AcDbSpline
 70
8
 71
3
 72
8
 73
4
 74
0
 40
0
 40
0
 40
0
 40
0
 40
1
 40
1
 40
1
 40
1
 10
142.260640
 20
150.453970
 30
0.0
 10
141.705720
 20
149.394060
 30
0.0
 10
141.251690
 20
148.514780
 30
0.0
 10
141.251690
 20
148.500030
 30
0.0
  0
SPLINE
  5
211
100
AcDbEntity
  8
Layer_1
 62
7
100
AcDbSpline
 70
8
 71
3
 72
8
 73
4
 74
0
 40
0
 40
0
 40
0
 40
0
 40
1
 40
1
 40
1
 40
1
 10
141.251690
 20
148.500030
 30
0.0
 10
141.251690
 20
148.485330
 30
0.0
 10
141.705720
 20
147.606010
 30
0.0
 10
142.260640
 20
146.546090
 30
0.0
  0
LWPOLYLINE
  5
212
100
AcDbEntity
  8
Layer_1
 62
7
100
AcDbPolyline
 90
3
 70
0
 10
143.276580
 20
150.449820
 30
0.0
 10
143.269580
 20
152.381100
 30
0.0
 10
142.260640
 20
150.453970
 30
0.0
  0
SPLINE
  5
213
100
AcDbEntity
  8
Layer_1
 62
7
100
AcDbSpline
 70
8
 71
3
 72
8
 73
4
 74
0
 40
0
 40
0
 40
0
 40
0
 40
1
 40
1
 40
1
 40
1
 10
143.276580
 20
146.568760
 30
0.0
 10
143.280580
 20
147.641150
 30
0.0
 10
143.280580
 20
149.387620
 30
0.0
 10
143.276580
 20
150.449820
 30
0.0
  0
LWPOLYLINE
  5
214
100
AcDbEntity
  8
Layer_1
 62
7
100
AcDbPolyline
 90
3
 70
0
 10
142.260640
 20
146.546090
 30
0.0
 10
143.269580
 20
144.618970
 30
0.0
 10
143.276580
 20
146.568760
 30
0.0
  0
SPLINE
  5
215
100
AcDbEntity
  8
Layer_1
 62
7
100
AcDbSpline
 70
8
 71
3
 72
8
 73
4
 74
0
 40
0
 40
0
 40
0
 40
0
 40
1
 40
1
 40
1
 40
1
 10
78.689250
 20
153.089190
 30
0.0
 10
82.931020
 20
154.534430
 30
0.0
 10
86.410810
 20
155.725420
 30
0.0
 10
86.422110
 20
155.735830
 30
0.0
  0
SPLINE
  5
216
100
AcDbEntity
  8
Layer_1
 62
7
100
AcDbSpline
 70
8
 71
3
 72
8
 73
4
 74
0
 40
0
 40
0
 40
0
 40
0
 40
1
 40
1
 40
1
 40
1
 10
86.422110
 20
155.735830
 30
0.0
 10
86.433410
 20
155.746230
 30
0.0
 10
85.842870
 20
155.834830
 30
0.0
 10
85.109780
 20
155.932600
 30
0.0
  0
SPLINE
  5
217
100
AcDbEntity
  8
Layer_1
 62
7
100
AcDbSpline
 70
8
 71
3
 72
8
 73
4
 74
0
 40
0
 40
0
 40
0
 40
0
 40
1
 40
1
 40
1
 40
1
 10
85.109780
 20
155.932600
 30
0.0
 10
84.376690
 20
156.030400
 30
0.0
 10
83.303250
 20
156.174500
 30
0.0
 10
82.724350
 20
156.252790
 30
0.0
  0
LWPOLYLINE
  5
218
100
AcDbEntity
  8
Layer_1
 62
7
100
AcDbPolyline
 90
1
 70
1
 10
143.276580
 20
150.449820
 30
0.0
  0
SPLINE
  5
219
100
AcDbEntity
  8
Layer_1
 62
7
100
AcDbSpline
 70
8
 71
3
 72
8
 73
4
 74
0
 40
0
 40
0
 40
0
 40
0
 40
1
 40
1
 40
1
 40
1
 10
81.358060
 20
156.261170
 30
0.0
 10
79.840920
 20
155.613460
 30
0.0
 10
78.162880
 20
155.411080
 30
0.0
 10
76.566110
 20
155.683250
 30
0.0
  0
SPLINE
  5
21a
100
AcDbEntity
  8
Layer_1
 62
7
100
AcDbSpline
 70
8
 71
3
 72
8
 73
4
 74
0
 40
0
 40
0
 40
0
 40
0
 40
1
 40
1
 40
1
 40
1
 10
76.566110
 20
155.683250
 30
0.0
 10
75.129040
 20
155.928190
 30
0.0
 10
73.738260
 20
156.557100
 30
0.0
 10
72.622170
 20
157.466700
 30
0.0
  0
LWPOLYLINE
  5
21b
100
AcDbEntity
  8
Layer_1
 62
7
100
AcDbPolyline
 90
3
 70
0
 10
82.724350
 20
156.252790
 30
0.0
 10
81.671810
 20
156.395120
 30
0.0
 10
81.358060
 20
156.261170
 30
0.0
  0
SPLINE
  5
21c
100
AcDbEntity
  8
Layer_1
 62
7
100
AcDbSpline
 70
8
 71
3
 72
8
 73
4
 74
0
 40
0
 40
0
 40
0
 40
0
 40
1
 40
1
 40
1
 40
1
 10
69.590750
 20
158.012640
 30
0.0
 10
68.035950
 20
158.221250
 30
0.0
 10
66.753200
 20
158.391920
 30
0.0
 10
66.740200
 20
158.391920
 30
0.0
  0
SPLINE
  5
21d
100
AcDbEntity
  8
Layer_1
 62
7
100
AcDbSpline
 70
8
 71
3
 72
8
 73
4
 74
0
 40
0
 40
0
 40
0
 40
0
 40
1
 40
1
 40
1
 40
1
 10
66.740200
 20
158.391920
 30
0.0
 10
66.727200
 20
158.391920
 30
0.0
 10
66.716600
 20
158.247170
 30
0.0
 10
66.716600
 20
158.070250
 30
0.0
  0
LWPOLYLINE
  5
21e
100
AcDbEntity
  8
Layer_1
 62
7
100
AcDbPolyline
 90
3
 70
0
 10
72.622170
 20
157.466700
 30
0.0
 10
72.417660
 20
157.633370
 30
0.0
 10
69.590750
 20
158.012640
 30
0.0
  0
SPLINE
  5
21f
100
AcDbEntity
  8
Layer_1
 62
7
100
AcDbSpline
 70
8
 71
3
 72
8
 73
4
 74
0
 40
0
 40
0
 40
0
 40
0
 40
1
 40
1
 40
1
 40
1
 10
70.649980
 20
150.514920
 30
0.0
 10
70.729580
 20
150.512920
 30
0.0
 10
70.826460
 20
150.501920
 30
0.0
 10
70.865270
 20
150.489520
 30
0.0
  0
SPLINE
  5
220
100
AcDbEntity
  8
Layer_1
 62
7
100
AcDbSpline
 70
8
 71
3
 72
8
 73
4
 74
0
 40
0
 40
0
 40
0
 40
0
 40
1
 40
1
 40
1
 40
1
 10
70.865270
 20
150.489520
 30
0.0
 10
70.904070
 20
150.477120
 30
0.0
 10
70.945070
 20
150.465620
 30
0.0
 10
70.956370
 20
150.464120
 30
0.0
  0
SPLINE
  5
221
100
AcDbEntity
  8
Layer_1
 62
7
100
AcDbSpline
 70
8
 71
3
 72
8
 73
4
 74
0
 40
0
 40
0
 40
0
 40
0
 40
1
 40
1
 40
1
 40
1
 10
70.956370
 20
150.464120
 30
0.0
 10
70.967670
 20
150.462120
 30
0.0
 10
74.447480
 20
151.643780
 30
0.0
 10
78.689250
 20
153.089020
 30
0.0
  0
LWPOLYLINE
  5
222
100
AcDbEntity
  8
Layer_1
 62
7
100
AcDbPolyline
 90
5
 70
0
 10
66.716600
 20
158.070250
 30
0.0
 10
66.716600
 20
157.748570
 30
0.0
 10
68.610930
 20
154.133250
 30
0.0
 10
70.505260
 20
150.517920
 30
0.0
 10
70.649980
 20
150.514920
 30
0.0
  0
LWPOLYLINE
  5
223
100
AcDbEntity
  8
Layer_1
 62
7
100
AcDbPolyline
 90
2
 70
0
 10
78.689250
 20
153.089020
 30
0.0
 10
78.689250
 20
153.089190
 30
0.0
  0
SPLINE
  5
224
100
AcDbEntity
  8
Layer_1
 62
7
100
AcDbSpline
 70
8
 71
3
 72
8
 73
4
 74
0
 40
0
 40
0
 40
0
 40
0
 40
1
 40
1
 40
1
 40
1
 10
143.163500
 20
158.380850
 30
0.0
 10
143.097500
 20
158.370850
 30
0.0
 10
141.814860
 20
158.198760
 30
0.0
 10
140.313120
 20
157.997590
 30
0.0
  0
LWPOLYLINE
  5
225
100
AcDbEntity
  8
Layer_1
 62
7
100
AcDbPolyline
 90
7
 70
0
 10
139.325400
 20
150.514750
 30
0.0
 10
139.501910
 20
150.532050
 30
0.0
 10
141.392680
 20
154.140430
 30
0.0
 10
143.283440
 20
157.748800
 30
0.0
 10
143.283440
 20
158.073580
 30
0.0
 10
143.283440
 20
158.398350
 30
0.0
 10
143.163500
 20
158.380850
 30
0.0
  0
SPLINE
  5
226
100
AcDbEntity
  8
Layer_1
 62
7
100
AcDbSpline
 70
8
 71
3
 72
8
 73
4
 74
0
 40
0
 40
0
 40
0
 40
0
 40
1
 40
1
 40
1
 40
1
 10
137.321560
 20
157.423380
 30
0.0
 10
136.038080
 20
156.398760
 30
0.0
 10
134.475130
 20
155.765780
 30
0.0
 10
132.817060
 20
155.599100
 30
0.0
  0
SPLINE
  5
227
100
AcDbEntity
  8
Layer_1
 62
7
100
AcDbSpline
 70
8
 71
3
 72
8
 73
4
 74
0
 40
0
 40
0
 40
0
 40
0
 40
1
 40
1
 40
1
 40
1
 10
132.817060
 20
155.599100
 30
0.0
 10
132.443270
 20
155.561500
 30
0.0
 10
131.605880
 20
155.561300
 30
0.0
 10
131.228490
 20
155.598650
 30
0.0
  0
SPLINE
  5
228
100
AcDbEntity
  8
Layer_1
 62
7
100
AcDbSpline
 70
8
 71
3
 72
8
 73
4
 74
0
 40
0
 40
0
 40
0
 40
0
 40
1
 40
1
 40
1
 40
1
 10
131.228490
 20
155.598650
 30
0.0
 10
130.343850
 20
155.686250
 30
0.0
 10
129.392980
 20
155.931470
 30
0.0
 10
128.607890
 20
156.274520
 30
0.0
  0
LWPOLYLINE
  5
229
100
AcDbEntity
  8
Layer_1
 62
7
100
AcDbPolyline
 90
3
 70
0
 10
140.313120
 20
157.997590
 30
0.0
 10
137.582670
 20
157.631830
 30
0.0
 10
137.321560
 20
157.423380
 30
0.0
  0
SPLINE
  5
22a
100
AcDbEntity
  8
Layer_1
 62
7
100
AcDbSpline
 70
8
 71
3
 72
8
 73
4
 74
0
 40
0
 40
0
 40
0
 40
0
 40
1
 40
1
 40
1
 40
1
 10
125.949030
 20
156.072730
 30
0.0
 10
124.634120
 20
155.897320
 30
0.0
 10
123.567320
 20
155.745850
 30
0.0
 10
123.578360
 20
155.736140
 30
0.0
  0
SPLINE
  5
22b
100
AcDbEntity
  8
Layer_1
 62
7
100
AcDbSpline
 70
8
 71
3
 72
8
 73
4
 74
0
 40
0
 40
0
 40
0
 40
0
 40
1
 40
1
 40
1
 40
1
 10
123.578360
 20
155.736140
 30
0.0
 10
123.589360
 20
155.726140
 30
0.0
 10
124.182640
 20
155.519580
 30
0.0
 10
124.896670
 20
155.276500
 30
0.0
  0
SPLINE
  5
22c
100
AcDbEntity
  8
Layer_1
 62
7
100
AcDbSpline
 70
8
 71
3
 72
8
 73
4
 74
0
 40
0
 40
0
 40
0
 40
0
 40
1
 40
1
 40
1
 40
1
 10
124.896670
 20
155.276500
 30
0.0
 10
125.610690
 20
155.033410
 30
0.0
 10
129.077790
 20
153.851030
 30
0.0
 10
132.601330
 20
152.649000
 30
0.0
  0
SPLINE
  5
22d
100
AcDbEntity
  8
Layer_1
 62
7
100
AcDbSpline
 70
8
 71
3
 72
8
 73
4
 74
0
 40
0
 40
0
 40
0
 40
0
 40
1
 40
1
 40
1
 40
1
 10
132.601330
 20
152.649000
 30
0.0
 10
137.181370
 20
151.086560
 30
0.0
 10
139.027890
 20
150.468330
 30
0.0
 10
139.078330
 20
150.480480
 30
0.0
  0
SPLINE
  5
22e
100
AcDbEntity
  8
Layer_1
 62
7
100
AcDbSpline
 70
8
 71
3
 72
8
 73
4
 74
0
 40
0
 40
0
 40
0
 40
0
 40
1
 40
1
 40
1
 40
1
 10
139.078330
 20
150.480480
 30
0.0
 10
139.117130
 20
150.489480
 30
0.0
 10
139.228320
 20
150.505280
 30
0.0
 10
139.325400
 20
150.514780
 30
0.0
  0
LWPOLYLINE
  5
22f
100
AcDbEntity
  8
Layer_1
 62
7
100
AcDbPolyline
 90
3
 70
0
 10
128.607890
 20
156.274520
 30
0.0
 10
128.339780
 20
156.391670
 30
0.0
 10
125.949030
 20
156.072730
 30
0.0
  0
SPLINE
  5
230
100
AcDbEntity
  8
Layer_1
 62
7
100
AcDbSpline
 70
8
 71
3
 72
8
 73
4
 74
0
 40
0
 40
0
 40
0
 40
0
 40
1
 40
1
 40
1
 40
1
 10
100.597360
 20
155.114400
 30
0.0
 10
101.144620
 20
155.477780
 30
0.0
 10
102.084370
 20
155.937680
 30
0.0
 10
102.481170
 20
156.036310
 30
0.0
  0
SPLINE
  5
231
100
AcDbEntity
  8
Layer_1
 62
7
100
AcDbSpline
 70
8
 71
3
 72
8
 73
4
 74
0
 40
0
 40
0
 40
0
 40
0
 40
1
 40
1
 40
1
 40
1
 10
102.481170
 20
156.036310
 30
0.0
 10
102.583120
 20
156.061610
 30
0.0
 10
102.579170
 20
156.094010
 30
0.0
 10
102.467070
 20
156.151680
 30
0.0
  0
SPLINE
  5
232
100
AcDbEntity
  8
Layer_1
 62
7
100
AcDbSpline
 70
8
 71
3
 72
8
 73
4
 74
0
 40
0
 40
0
 40
0
 40
0
 40
1
 40
1
 40
1
 40
1
 10
102.467070
 20
156.151680
 30
0.0
 10
102.143540
 20
156.318210
 30
0.0
 10
101.631160
 20
156.721990
 30
0.0
 10
101.309560
 20
157.063850
 30
0.0
  0
SPLINE
  5
233
100
AcDbEntity
  8
Layer_1
 62
7
100
AcDbSpline
 70
8
 71
3
 72
8
 73
4
 74
0
 40
0
 40
0
 40
0
 40
0
 40
1
 40
1
 40
1
 40
1
 10
101.309560
 20
157.063850
 30
0.0
 10
100.325130
 20
158.110310
 30
0.0
 10
99.849450
 20
159.439940
 30
0.0
 10
99.939170
 20
160.894400
 30
0.0
  0
SPLINE
  5
234
100
AcDbEntity
  8
Layer_1
 62
7
100
AcDbSpline
 70
8
 71
3
 72
8
 73
4
 74
0
 40
0
 40
0
 40
0
 40
0
 40
1
 40
1
 40
1
 40
1
 10
99.939170
 20
160.894400
 30
0.0
 10
100.026770
 20
162.313910
 30
0.0
 10
100.768800
 20
163.700980
 30
0.0
 10
101.895570
 20
164.551330
 30
0.0
  0
SPLINE
  5
235
100
AcDbEntity
  8
Layer_1
 62
7
100
AcDbSpline
 70
8
 71
3
 72
8
 73
4
 74
0
 40
0
 40
0
 40
0
 40
0
 40
1
 40
1
 40
1
 40
1
 10
101.895570
 20
164.551330
 30
0.0
 10
102.019740
 20
164.645030
 30
0.0
 10
102.121340
 20
164.734000
 30
0.0
 10
102.121340
 20
164.749020
 30
0.0
  0
SPLINE
  5
236
100
AcDbEntity
  8
Layer_1
 62
7
100
AcDbSpline
 70
8
 71
3
 72
8
 73
4
 74
0
 40
0
 40
0
 40
0
 40
0
 40
1
 40
1
 40
1
 40
1
 10
102.121340
 20
164.749020
 30
0.0
 10
102.121340
 20
164.773720
 30
0.0
 10
88.977660
 20
176.286650
 30
0.0
 10
88.964000
 20
176.273930
 30
0.0
  0
SPLINE
  5
237
100
AcDbEntity
  8
Layer_1
 62
7
100
AcDbSpline
 70
8
 71
3
 72
8
 73
4
 74
0
 40
0
 40
0
 40
0
 40
0
 40
1
 40
1
 40
1
 40
1
 10
88.964000
 20
176.273930
 30
0.0
 10
88.957000
 20
176.267930
 30
0.0
 10
92.344700
 20
159.114940
 30
0.0
 10
92.355070
 20
159.103980
 30
0.0
  0
SPLINE
  5
238
100
AcDbEntity
  8
Layer_1
 62
7
100
AcDbSpline
 70
8
 71
3
 72
8
 73
4
 74
0
 40
0
 40
0
 40
0
 40
0
 40
1
 40
1
 40
1
 40
1
 10
92.355070
 20
159.103980
 30
0.0
 10
92.359070
 20
159.099980
 30
0.0
 10
92.504640
 20
159.153580
 30
0.0
 10
92.678660
 20
159.223530
 30
0.0
  0
SPLINE
  5
239
100
AcDbEntity
  8
Layer_1
 62
7
100
AcDbSpline
 70
8
 71
3
 72
8
 73
4
 74
0
 40
0
 40
0
 40
0
 40
0
 40
1
 40
1
 40
1
 40
1
 10
92.678660
 20
159.223530
 30
0.0
 10
93.347400
 20
159.492290
 30
0.0
 10
93.853420
 20
159.587810
 30
0.0
 10
94.600120
 20
159.586220
 30
0.0
  0
SPLINE
  5
23a
100
AcDbEntity
  8
Layer_1
 62
7
100
AcDbSpline
 70
8
 71
3
 72
8
 73
4
 74
0
 40
0
 40
0
 40
0
 40
0
 40
1
 40
1
 40
1
 40
1
 10
94.600120
 20
159.586220
 30
0.0
 10
95.208100
 20
159.585220
 30
0.0
 10
95.586690
 20
159.528720
 30
0.0
 10
96.100910
 20
159.363190
 30
0.0
  0
SPLINE
  5
23b
100
AcDbEntity
  8
Layer_1
 62
7
100
AcDbSpline
 70
8
 71
3
 72
8
 73
4
 74
0
 40
0
 40
0
 40
0
 40
0
 40
1
 40
1
 40
1
 40
1
 10
96.100910
 20
159.363190
 30
0.0
 10
97.441680
 20
158.931740
 30
0.0
 10
98.499910
 20
158.021610
 30
0.0
 10
99.117100
 20
156.769140
 30
0.0
  0
SPLINE
  5
23c
100
AcDbEntity
  8
Layer_1
 62
7
100
AcDbSpline
 70
8
 71
3
 72
8
 73
4
 74
0
 40
0
 40
0
 40
0
 40
0
 40
1
 40
1
 40
1
 40
1
 10
99.117100
 20
156.769140
 30
0.0
 10
99.421180
 20
156.152060
 30
0.0
 10
99.573540
 20
155.574880
 30
0.0
 10
99.628150
 20
154.833070
 30
0.0
  0
LWPOLYLINE
  5
23d
100
AcDbEntity
  8
Layer_1
 62
7
100
AcDbPolyline
 90
1
 70
1
 10
139.325400
 20
150.514780
 30
0.0
  0
SPLINE
  5
23e
100
AcDbEntity
  8
Layer_1
 62
7
100
AcDbSpline
 70
8
 71
3
 72
8
 73
4
 74
0
 40
0
 40
0
 40
0
 40
0
 40
1
 40
1
 40
1
 40
1
 10
99.945490
 20
154.631780
 30
0.0
 10
100.102220
 20
154.763220
 30
0.0
 10
100.395560
 20
154.980400
 30
0.0
 10
100.597360
 20
155.114400
 30
0.0
  0
LWPOLYLINE
  5
23f
100
AcDbEntity
  8
Layer_1
 62
7
100
AcDbPolyline
 90
3
 70
0
 10
99.628150
 20
154.833070
 30
0.0
 10
99.660550
 20
154.392780
 30
0.0
 10
99.945490
 20
154.631780
 30
0.0
  0
SPLINE
  5
240
100
AcDbEntity
  8
Layer_1
 62
7
100
AcDbSpline
 70
8
 71
3
 72
8
 73
4
 74
0
 40
0
 40
0
 40
0
 40
0
 40
1
 40
1
 40
1
 40
1
 10
110.459320
 20
155.533220
 30
0.0
 10
110.635960
 20
156.400010
 30
0.0
 10
111.044820
 20
157.224520
 30
0.0
 10
111.625210
 20
157.884330
 30
0.0
  0
SPLINE
  5
241
100
AcDbEntity
  8
Layer_1
 62
7
100
AcDbSpline
 70
8
 71
3
 72
8
 73
4
 74
0
 40
0
 40
0
 40
0
 40
0
 40
1
 40
1
 40
1
 40
1
 10
111.625210
 20
157.884330
 30
0.0
 10
112.281670
 20
158.630620
 30
0.0
 10
113.210030
 20
159.197190
 30
0.0
 10
114.186330
 20
159.447370
 30
0.0
  0
SPLINE
  5
242
100
AcDbEntity
  8
Layer_1
 62
7
100
AcDbSpline
 70
8
 71
3
 72
8
 73
4
 74
0
 40
0
 40
0
 40
0
 40
0
 40
1
 40
1
 40
1
 40
1
 10
114.186330
 20
159.447370
 30
0.0
 10
114.592130
 20
159.551350
 30
0.0
 10
114.910150
 20
159.587600
 30
0.0
 10
115.414000
 20
159.587300
 30
0.0
  0
SPLINE
  5
243
100
AcDbEntity
  8
Layer_1
 62
7
100
AcDbSpline
 70
8
 71
3
 72
8
 73
4
 74
0
 40
0
 40
0
 40
0
 40
0
 40
1
 40
1
 40
1
 40
1
 10
115.414000
 20
159.587300
 30
0.0
 10
116.148600
 20
159.586840
 30
0.0
 10
116.685520
 20
159.484190
 30
0.0
 10
117.329780
 20
159.220990
 30
0.0
  0
SPLINE
  5
244
100
AcDbEntity
  8
Layer_1
 62
7
100
AcDbSpline
 70
8
 71
3
 72
8
 73
4
 74
0
 40
0
 40
0
 40
0
 40
0
 40
1
 40
1
 40
1
 40
1
 10
117.329780
 20
159.220990
 30
0.0
 10
117.498690
 20
159.151990
 30
0.0
 10
117.640310
 20
159.099130
 30
0.0
 10
117.644480
 20
159.103550
 30
0.0
  0
SPLINE
  5
245
100
AcDbEntity
  8
Layer_1
 62
7
100
AcDbSpline
 70
8
 71
3
 72
8
 73
4
 74
0
 40
0
 40
0
 40
0
 40
0
 40
1
 40
1
 40
1
 40
1
 10
117.644480
 20
159.103550
 30
0.0
 10
117.655080
 20
159.114750
 30
0.0
 10
121.043060
 20
176.267380
 30
0.0
 10
121.035980
 20
176.273890
 30
0.0
  0
SPLINE
  5
246
100
AcDbEntity
  8
Layer_1
 62
7
100
AcDbSpline
 70
8
 71
3
 72
8
 73
4
 74
0
 40
0
 40
0
 40
0
 40
0
 40
1
 40
1
 40
1
 40
1
 10
121.035980
 20
176.273890
 30
0.0
 10
121.025880
 20
176.282890
 30
0.0
 10
107.880040
 20
164.774420
 30
0.0
 10
107.873520
 20
164.750620
 30
0.0
  0
SPLINE
  5
247
100
AcDbEntity
  8
Layer_1
 62
7
100
AcDbSpline
 70
8
 71
3
 72
8
 73
4
 74
0
 40
0
 40
0
 40
0
 40
0
 40
1
 40
1
 40
1
 40
1
 10
107.873520
 20
164.750620
 30
0.0
 10
107.870520
 20
164.738120
 30
0.0
 10
107.969420
 20
164.651620
 30
0.0
 10
108.094200
 20
164.558480
 30
0.0
  0
SPLINE
  5
248
100
AcDbEntity
  8
Layer_1
 62
7
100
AcDbSpline
 70
8
 71
3
 72
8
 73
4
 74
0
 40
0
 40
0
 40
0
 40
0
 40
1
 40
1
 40
1
 40
1
 10
108.094200
 20
164.558480
 30
0.0
 10
108.718480
 20
164.092610
 30
0.0
 10
109.330920
 20
163.319000
 30
0.0
 10
109.640480
 20
162.605280
 30
0.0
  0
SPLINE
  5
249
100
AcDbEntity
  8
Layer_1
 62
7
100
AcDbSpline
 70
8
 71
3
 72
8
 73
4
 74
0
 40
0
 40
0
 40
0
 40
0
 40
1
 40
1
 40
1
 40
1
 10
109.640480
 20
162.605280
 30
0.0
 10
109.974230
 20
161.835770
 30
0.0
 10
110.109200
 20
161.066540
 30
0.0
 10
110.061800
 20
160.204060
 30
0.0
  0
SPLINE
  5
24a
100
AcDbEntity
  8
Layer_1
 62
7
100
AcDbSpline
 70
8
 71
3
 72
8
 73
4
 74
0
 40
0
 40
0
 40
0
 40
0
 40
1
 40
1
 40
1
 40
1
 10
110.061800
 20
160.204060
 30
0.0
 10
109.973200
 20
158.591640
 30
0.0
 10
109.011650
 20
157.016900
 30
0.0
 10
107.618090
 20
156.201920
 30
0.0
  0
SPLINE
  5
24b
100
AcDbEntity
  8
Layer_1
 62
7
100
AcDbSpline
 70
8
 71
3
 72
8
 73
4
 74
0
 40
0
 40
0
 40
0
 40
0
 40
1
 40
1
 40
1
 40
1
 10
107.618090
 20
156.201920
 30
0.0
 10
107.520790
 20
156.145020
 30
0.0
 10
107.441220
 20
156.090530
 30
0.0
 10
107.441220
 20
156.080810
 30
0.0
  0
SPLINE
  5
24c
100
AcDbEntity
  8
Layer_1
 62
7
100
AcDbSpline
 70
8
 71
3
 72
8
 73
4
 74
0
 40
0
 40
0
 40
0
 40
0
 40
1
 40
1
 40
1
 40
1
 10
107.441220
 20
156.080810
 30
0.0
 10
107.441220
 20
156.070810
 30
0.0
 10
107.570600
 20
156.019310
 30
0.0
 10
107.728730
 20
155.965820
 30
0.0
  0
SPLINE
  5
24d
100
AcDbEntity
  8
Layer_1
 62
7
100
AcDbSpline
 70
8
 71
3
 72
8
 73
4
 74
0
 40
0
 40
0
 40
0
 40
0
 40
1
 40
1
 40
1
 40
1
 10
107.728730
 20
155.965820
 30
0.0
 10
108.418520
 20
155.732320
 30
0.0
 10
109.442250
 20
155.145380
 30
0.0
 10
110.051780
 20
154.633930
 30
0.0
  0
LWPOLYLINE
  5
24e
100
AcDbEntity
  8
Layer_1
 62
7
100
AcDbPolyline
 90
1
 70
1
 10
100.597360
 20
155.114400
 30
0.0
  0
SPLINE
  5
24f
100
AcDbEntity
  8
Layer_1
 62
7
100
AcDbSpline
 70
8
 71
3
 72
8
 73
4
 74
0
 40
0
 40
0
 40
0
 40
0
 40
1
 40
1
 40
1
 40
1
 10
110.367400
 20
154.821620
 30
0.0
 10
110.385800
 20
155.055100
 30
0.0
 10
110.427100
 20
155.375310
 30
0.0
 10
110.459300
 20
155.533220
 30
0.0
  0
LWPOLYLINE
  5
250
100
AcDbEntity
  8
Layer_1
 62
7
100
AcDbPolyline
 90
3
 70
0
 10
110.051780
 20
154.633930
 30
0.0
 10
110.334000
 20
154.397130
 30
0.0
 10
110.367400
 20
154.821620
 30
0.0
  0
SPLINE
  5
251
100
AcDbEntity
  8
Layer_1
 62
7
100
AcDbSpline
 70
8
 71
3
 72
8
 73
4
 74
0
 40
0
 40
0
 40
0
 40
0
 40
1
 40
1
 40
1
 40
1
 10
88.556940
 20
158.025160
 30
0.0
 10
88.460240
 20
158.166500
 30
0.0
 10
86.061210
 20
161.268770
 30
0.0
 10
86.048000
 20
161.269620
 30
0.0
  0
SPLINE
  5
252
100
AcDbEntity
  8
Layer_1
 62
7
100
AcDbSpline
 70
8
 71
3
 72
8
 73
4
 74
0
 40
0
 40
0
 40
0
 40
0
 40
1
 40
1
 40
1
 40
1
 10
86.048000
 20
161.269620
 30
0.0
 10
86.040000
 20
161.270160
 30
0.0
 10
85.989700
 20
161.153110
 30
0.0
 10
85.936690
 20
161.009530
 30
0.0
  0
SPLINE
  5
253
100
AcDbEntity
  8
Layer_1
 62
7
100
AcDbSpline
 70
8
 71
3
 72
8
 73
4
 74
0
 40
0
 40
0
 40
0
 40
0
 40
1
 40
1
 40
1
 40
1
 10
85.936690
 20
161.009530
 30
0.0
 10
85.696150
 20
160.358250
 30
0.0
 10
85.147470
 20
159.400930
 30
0.0
 10
84.670980
 20
158.801140
 30
0.0
  0
SPLINE
  5
254
100
AcDbEntity
  8
Layer_1
 62
7
100
AcDbSpline
 70
8
 71
3
 72
8
 73
4
 74
0
 40
0
 40
0
 40
0
 40
0
 40
1
 40
1
 40
1
 40
1
 10
84.670980
 20
158.801140
 30
0.0
 10
84.560000
 20
158.661440
 30
0.0
 10
84.469000
 20
158.540790
 30
0.0
 10
84.468770
 20
158.533030
 30
0.0
  0
SPLINE
  5
255
100
AcDbEntity
  8
Layer_1
 62
7
100
AcDbSpline
 70
8
 71
3
 72
8
 73
4
 74
0
 40
0
 40
0
 40
0
 40
0
 40
1
 40
1
 40
1
 40
1
 10
84.468770
 20
158.533030
 30
0.0
 10
84.468420
 20
158.521130
 30
0.0
 10
88.386520
 20
157.981440
 30
0.0
 10
88.542830
 20
157.971830
 30
0.0
  0
SPLINE
  5
256
100
AcDbEntity
  8
Layer_1
 62
7
100
AcDbSpline
 70
8
 71
3
 72
8
 73
4
 74
0
 40
0
 40
0
 40
0
 40
0
 40
1
 40
1
 40
1
 40
1
 10
88.542830
 20
157.971830
 30
0.0
 10
88.589830
 20
157.968830
 30
0.0
 10
88.591430
 20
157.974830
 30
0.0
 10
88.556930
 20
158.025130
 30
0.0
  0
LWPOLYLINE
  5
257
100
AcDbEntity
  8
Layer_1
 62
7
100
AcDbPolyline
 90
1
 70
1
 10
110.459300
 20
155.533220
 30
0.0
  0
SPLINE
  5
258
100
AcDbEntity
  8
Layer_1
 62
7
100
AcDbSpline
 70
8
 71
3
 72
8
 73
4
 74
0
 40
0
 40
0
 40
0
 40
0
 40
1
 40
1
 40
1
 40
1
 10
123.563170
 20
158.254000
 30
0.0
 10
124.645840
 20
158.398750
 30
0.0
 10
125.531470
 20
158.523920
 30
0.0
 10
125.531240
 20
158.532160
 30
0.0
  0
SPLINE
  5
259
100
AcDbEntity
  8
Layer_1
 62
7
100
AcDbSpline
 70
8
 71
3
 72
8
 73
4
 74
0
 40
0
 40
0
 40
0
 40
0
 40
1
 40
1
 40
1
 40
1
 10
125.531240
 20
158.532160
 30
0.0
 10
125.530960
 20
158.540160
 30
0.0
 10
125.440040
 20
158.661440
 30
0.0
 10
125.329020
 20
158.801140
 30
0.0
  0
SPLINE
  5
25a
100
AcDbEntity
  8
Layer_1
 62
7
100
AcDbSpline
 70
8
 71
3
 72
8
 73
4
 74
0
 40
0
 40
0
 40
0
 40
0
 40
1
 40
1
 40
1
 40
1
 10
125.329020
 20
158.801140
 30
0.0
 10
124.853910
 20
159.399190
 30
0.0
 10
124.308520
 20
160.350150
 30
0.0
 10
124.062620
 20
161.009260
 30
0.0
  0
SPLINE
  5
25b
100
AcDbEntity
  8
Layer_1
 62
7
100
AcDbSpline
 70
8
 71
3
 72
8
 73
4
 74
0
 40
0
 40
0
 40
0
 40
0
 40
1
 40
1
 40
1
 40
1
 10
124.062620
 20
161.009260
 30
0.0
 10
124.009120
 20
161.152690
 30
0.0
 10
123.958980
 20
161.269730
 30
0.0
 10
123.951220
 20
161.269350
 30
0.0
  0
SPLINE
  5
25c
100
AcDbEntity
  8
Layer_1
 62
7
100
AcDbSpline
 70
8
 71
3
 72
8
 73
4
 74
0
 40
0
 40
0
 40
0
 40
0
 40
1
 40
1
 40
1
 40
1
 10
123.951220
 20
161.269350
 30
0.0
 10
123.938220
 20
161.268700
 30
0.0
 10
121.534670
 20
158.159170
 30
0.0
 10
121.439890
 20
158.020390
 30
0.0
  0
SPLINE
  5
25d
100
AcDbEntity
  8
Layer_1
 62
7
100
AcDbSpline
 70
8
 71
3
 72
8
 73
4
 74
0
 40
0
 40
0
 40
0
 40
0
 40
1
 40
1
 40
1
 40
1
 10
121.439890
 20
158.020390
 30
0.0
 10
121.398990
 20
157.960490
 30
0.0
 10
121.400390
 20
157.959390
 30
0.0
 10
121.496290
 20
157.974890
 30
0.0
  0
SPLINE
  5
25e
100
AcDbEntity
  8
Layer_1
 62
7
100
AcDbSpline
 70
8
 71
3
 72
8
 73
4
 74
0
 40
0
 40
0
 40
0
 40
0
 40
1
 40
1
 40
1
 40
1
 10
121.496290
 20
157.974890
 30
0.0
 10
121.550390
 20
157.983890
 30
0.0
 10
122.480440
 20
158.109200
 30
0.0
 10
123.563120
 20
158.253960
 30
0.0
  0
LWPOLYLINE
  5
25f
100
AcDbEntity
  8
Layer_1
 62
7
100
AcDbPolyline
 90
1
 70
1
 10
88.556930
 20
158.025130
 30
0.0
  0
SPLINE
  5
260
100
AcDbEntity
  8
Layer_1
 62
7
100
AcDbSpline
 70
8
 71
3
 72
8
 73
4
 74
0
 40
0
 40
0
 40
0
 40
0
 40
1
 40
1
 40
1
 40
1
 10
70.170440
 20
160.707570
 30
0.0
 10
69.834630
 20
161.470610
 30
0.0
 10
69.591210
 20
162.428460
 30
0.0
 10
69.508610
 20
163.311890
 30
0.0
  0
SPLINE
  5
261
100
AcDbEntity
  8
Layer_1
 62
7
100
AcDbSpline
 70
8
 71
3
 72
8
 73
4
 74
0
 40
0
 40
0
 40
0
 40
0
 40
1
 40
1
 40
1
 40
1
 10
69.508610
 20
163.311890
 30
0.0
 10
69.460910
 20
163.822020
 30
0.0
 10
69.489110
 20
164.842870
 30
0.0
 10
69.564510
 20
165.334590
 30
0.0
  0
SPLINE
  5
262
100
AcDbEntity
  8
Layer_1
 62
7
100
AcDbSpline
 70
8
 71
3
 72
8
 73
4
 74
0
 40
0
 40
0
 40
0
 40
0
 40
1
 40
1
 40
1
 40
1
 10
69.564510
 20
165.334590
 30
0.0
 10
70.071870
 20
168.644130
 30
0.0
 10
72.438120
 20
171.355160
 30
0.0
 10
75.621320
 20
172.273920
 30
0.0
  0
SPLINE
  5
263
100
AcDbEntity
  8
Layer_1
 62
7
100
AcDbSpline
 70
8
 71
3
 72
8
 73
4
 74
0
 40
0
 40
0
 40
0
 40
0
 40
1
 40
1
 40
1
 40
1
 10
75.621320
 20
172.273920
 30
0.0
 10
76.093190
 20
172.410110
 30
0.0
 10
76.610300
 20
172.516220
 30
0.0
 10
77.025520
 20
172.562040
 30
0.0
  0
SPLINE
  5
264
100
AcDbEntity
  8
Layer_1
 62
7
100
AcDbSpline
 70
8
 71
3
 72
8
 73
4
 74
0
 40
0
 40
0
 40
0
 40
0
 40
1
 40
1
 40
1
 40
1
 10
77.025520
 20
172.562040
 30
0.0
 10
77.300790
 20
172.592440
 30
0.0
 10
77.326010
 20
172.599940
 30
0.0
 10
77.290840
 20
172.641040
 30
0.0
  0
SPLINE
  5
265
100
AcDbEntity
  8
Layer_1
 62
7
100
AcDbSpline
 70
8
 71
3
 72
8
 73
4
 74
0
 40
0
 40
0
 40
0
 40
0
 40
1
 40
1
 40
1
 40
1
 10
77.290840
 20
172.641040
 30
0.0
 10
77.269440
 20
172.666040
 30
0.0
 10
76.695610
 20
173.410370
 30
0.0
 10
76.015600
 20
174.295130
 30
0.0
  0
SPLINE
  5
266
100
AcDbEntity
  8
Layer_1
 62
7
100
AcDbSpline
 70
8
 71
3
 72
8
 73
4
 74
0
 40
0
 40
0
 40
0
 40
0
 40
1
 40
1
 40
1
 40
1
 10
76.015600
 20
174.295130
 30
0.0
 10
75.335600
 20
175.179900
 30
0.0
 10
74.770500
 20
175.913890
 30
0.0
 10
74.759830
 20
175.926230
 30
0.0
  0
SPLINE
  5
267
100
AcDbEntity
  8
Layer_1
 62
7
100
AcDbSpline
 70
8
 71
3
 72
8
 73
4
 74
0
 40
0
 40
0
 40
0
 40
0
 40
1
 40
1
 40
1
 40
1
 10
74.759830
 20
175.926230
 30
0.0
 10
74.749130
 20
175.938530
 30
0.0
 10
74.640040
 20
175.867630
 30
0.0
 10
74.517330
 20
175.768560
 30
0.0
  0
SPLINE
  5
268
100
AcDbEntity
  8
Layer_1
 62
7
100
AcDbSpline
 70
8
 71
3
 72
8
 73
4
 74
0
 40
0
 40
0
 40
0
 40
0
 40
1
 40
1
 40
1
 40
1
 10
74.517330
 20
175.768560
 30
0.0
 10
72.408780
 20
174.066490
 30
0.0
 10
69.730750
 20
172.705030
 30
0.0
 10
67.118730
 20
172.007230
 30
0.0
  0
LWPOLYLINE
  5
269
100
AcDbEntity
  8
Layer_1
 62
7
100
AcDbPolyline
 90
1
 70
1
 10
123.563120
 20
158.253960
 30
0.0
  0
SPLINE
  5
26a
100
AcDbEntity
  8
Layer_1
 62
7
100
AcDbSpline
 70
8
 71
3
 72
8
 73
4
 74
0
 40
0
 40
0
 40
0
 40
0
 40
1
 40
1
 40
1
 40
1
 10
66.716560
 20
166.401740
 30
0.0
 10
66.716560
 20
163.377810
 30
0.0
 10
66.719560
 20
160.902890
 30
0.0
 10
66.723560
 20
160.901920
 30
0.0
  0
SPLINE
  5
26b
100
AcDbEntity
  8
Layer_1
 62
7
100
AcDbSpline
 70
8
 71
3
 72
8
 73
4
 74
0
 40
0
 40
0
 40
0
 40
0
 40
1
 40
1
 40
1
 40
1
 10
66.723560
 20
160.901920
 30
0.0
 10
66.758560
 20
160.892920
 30
0.0
 10
70.188580
 20
160.428920
 30
0.0
 10
70.234480
 20
160.426770
 30
0.0
  0
SPLINE
  5
26c
100
AcDbEntity
  8
Layer_1
 62
7
100
AcDbSpline
 70
8
 71
3
 72
8
 73
4
 74
0
 40
0
 40
0
 40
0
 40
0
 40
1
 40
1
 40
1
 40
1
 10
70.234480
 20
160.426770
 30
0.0
 10
70.292080
 20
160.423770
 30
0.0
 10
70.288880
 20
160.438470
 30
0.0
 10
70.170380
 20
160.707560
 30
0.0
  0
LWPOLYLINE
  5
26d
100
AcDbEntity
  8
Layer_1
 62
7
100
AcDbPolyline
 90
3
 70
0
 10
67.118730
 20
172.007230
 30
0.0
 10
66.716560
 20
171.899790
 30
0.0
 10
66.716560
 20
166.401740
 30
0.0
  0
SPLINE
  5
26e
100
AcDbEntity
  8
Layer_1
 62
7
100
AcDbSpline
 70
8
 71
3
 72
8
 73
4
 74
0
 40
0
 40
0
 40
0
 40
0
 40
1
 40
1
 40
1
 40
1
 10
141.459050
 20
160.650270
 30
0.0
 10
142.392620
 20
160.774750
 30
0.0
 10
143.185020
 20
160.882940
 30
0.0
 10
143.219940
 20
160.890700
 30
0.0
  0
LWPOLYLINE
  5
26f
100
AcDbEntity
  8
Layer_1
 62
7
100
AcDbPolyline
 90
1
 70
1
 10
70.170380
 20
160.707560
 30
0.0
  0
SPLINE
  5
270
100
AcDbEntity
  8
Layer_1
 62
7
100
AcDbSpline
 70
8
 71
3
 72
8
 73
4
 74
0
 40
0
 40
0
 40
0
 40
0
 40
1
 40
1
 40
1
 40
1
 10
142.881280
 20
172.007270
 30
0.0
 10
140.361500
 20
172.680430
 30
0.0
 10
137.763080
 20
173.979370
 30
0.0
 10
135.711180
 20
175.591590
 30
0.0
  0
SPLINE
  5
271
100
AcDbEntity
  8
Layer_1
 62
7
100
AcDbSpline
 70
8
 71
3
 72
8
 73
4
 74
0
 40
0
 40
0
 40
0
 40
0
 40
1
 40
1
 40
1
 40
1
 10
135.711180
 20
175.591590
 30
0.0
 10
135.512370
 20
175.747810
 30
0.0
 10
135.328220
 20
175.890810
 30
0.0
 10
135.301960
 20
175.909370
 30
0.0
  0
SPLINE
  5
272
100
AcDbEntity
  8
Layer_1
 62
7
100
AcDbSpline
 70
8
 71
3
 72
8
 73
4
 74
0
 40
0
 40
0
 40
0
 40
0
 40
1
 40
1
 40
1
 40
1
 10
135.301960
 20
175.909370
 30
0.0
 10
135.253260
 20
175.943770
 30
0.0
 10
135.215260
 20
175.895970
 30
0.0
 10
132.906070
 20
172.895530
 30
0.0
  0
LWPOLYLINE
  5
273
100
AcDbEntity
  8
Layer_1
 62
7
100
AcDbPolyline
 90
5
 70
0
 10
143.219940
 20
160.890700
 30
0.0
 10
143.283440
 20
160.904800
 30
0.0
 10
143.283440
 20
166.402320
 30
0.0
 10
143.283440
 20
171.899830
 30
0.0
 10
142.881280
 20
172.007270
 30
0.0
  0
SPLINE
  5
274
100
AcDbEntity
  8
Layer_1
 62
7
100
AcDbSpline
 70
8
 71
3
 72
8
 73
4
 74
0
 40
0
 40
0
 40
0
 40
0
 40
1
 40
1
 40
1
 40
1
 10
132.990730
 20
172.559850
 30
0.0
 10
134.448500
 20
172.398970
 30
0.0
 10
136.024300
 20
171.759150
 30
0.0
 10
137.187440
 20
170.855880
 30
0.0
  0
SPLINE
  5
275
100
AcDbEntity
  8
Layer_1
 62
7
100
AcDbSpline
 70
8
 71
3
 72
8
 73
4
 74
0
 40
0
 40
0
 40
0
 40
0
 40
1
 40
1
 40
1
 40
1
 10
137.187440
 20
170.855880
 30
0.0
 10
138.829900
 20
169.580380
 30
0.0
 10
139.966310
 20
167.750110
 30
0.0
 10
140.361010
 20
165.744620
 30
0.0
  0
SPLINE
  5
276
100
AcDbEntity
  8
Layer_1
 62
7
100
AcDbSpline
 70
8
 71
3
 72
8
 73
4
 74
0
 40
0
 40
0
 40
0
 40
0
 40
1
 40
1
 40
1
 40
1
 10
140.361010
 20
165.744620
 30
0.0
 10
140.486580
 20
165.106560
 30
0.0
 10
140.503600
 20
164.904450
 30
0.0
 10
140.502470
 20
164.064620
 30
0.0
  0
SPLINE
  5
277
100
AcDbEntity
  8
Layer_1
 62
7
100
AcDbSpline
 70
8
 71
3
 72
8
 73
4
 74
0
 40
0
 40
0
 40
0
 40
0
 40
1
 40
1
 40
1
 40
1
 10
140.502470
 20
164.064620
 30
0.0
 10
140.501570
 20
163.385900
 30
0.0
 10
140.491970
 20
163.200730
 30
0.0
 10
140.441270
 20
162.878930
 30
0.0
  0
SPLINE
  5
278
100
AcDbEntity
  8
Layer_1
 62
7
100
AcDbSpline
 70
8
 71
3
 72
8
 73
4
 74
0
 40
0
 40
0
 40
0
 40
0
 40
1
 40
1
 40
1
 40
1
 10
140.441270
 20
162.878930
 30
0.0
 10
140.316290
 20
162.085840
 30
0.0
 10
140.103730
 20
161.330650
 30
0.0
 10
139.831180
 20
160.711360
 30
0.0
  0
SPLINE
  5
279
100
AcDbEntity
  8
Layer_1
 62
7
100
AcDbSpline
 70
8
 71
3
 72
8
 73
4
 74
0
 40
0
 40
0
 40
0
 40
0
 40
1
 40
1
 40
1
 40
1
 10
139.831180
 20
160.711360
 30
0.0
 10
139.761580
 20
160.553280
 30
0.0
 10
139.717500
 20
160.423950
 30
0.0
 10
139.733180
 20
160.423950
 30
0.0
  0
SPLINE
  5
27a
100
AcDbEntity
  8
Layer_1
 62
7
100
AcDbSpline
 70
8
 71
3
 72
8
 73
4
 74
0
 40
0
 40
0
 40
0
 40
0
 40
1
 40
1
 40
1
 40
1
 10
139.733180
 20
160.423950
 30
0.0
 10
139.748780
 20
160.423950
 30
0.0
 10
140.525470
 20
160.525790
 30
0.0
 10
141.459040
 20
160.650260
 30
0.0
  0
LWPOLYLINE
  5
27b
100
AcDbEntity
  8
Layer_1
 62
7
100
AcDbPolyline
 90
3
 70
0
 10
132.906070
 20
172.895530
 30
0.0
 10
132.674580
 20
172.594750
 30
0.0
 10
132.990730
 20
172.559850
 30
0.0
  0
SPLINE
  5
27c
100
AcDbEntity
  8
Layer_1
 62
7
100
AcDbSpline
 70
8
 71
3
 72
8
 73
4
 74
0
 40
0
 40
0
 40
0
 40
0
 40
1
 40
1
 40
1
 40
1
 10
88.022300
 20
168.213290
 30
0.0
 10
87.232360
 20
172.210270
 30
0.0
 10
86.520650
 20
175.815040
 30
0.0
 10
86.440720
 20
176.223910
 30
0.0
  0
LWPOLYLINE
  5
27d
100
AcDbEntity
  8
Layer_1
 62
7
100
AcDbPolyline
 90
1
 70
1
 10
141.459040
 20
160.650260
 30
0.0
  0
SPLINE
  5
27e
100
AcDbEntity
  8
Layer_1
 62
7
100
AcDbSpline
 70
8
 71
3
 72
8
 73
4
 74
0
 40
0
 40
0
 40
0
 40
0
 40
1
 40
1
 40
1
 40
1
 10
86.183260
 20
177.096840
 30
0.0
 10
86.121560
 20
177.168040
 30
0.0
 10
86.056970
 20
177.257480
 30
0.0
 10
86.039650
 20
177.295490
 30
0.0
  0
LWPOLYLINE
  5
27f
100
AcDbEntity
  8
Layer_1
 62
7
100
AcDbPolyline
 90
3
 70
0
 10
86.440720
 20
176.223910
 30
0.0
 10
86.295380
 20
176.967300
 30
0.0
 10
86.183260
 20
177.096840
 30
0.0
  0
SPLINE
  5
280
100
AcDbEntity
  8
Layer_1
 62
7
100
AcDbSpline
 70
8
 71
3
 72
8
 73
4
 74
0
 40
0
 40
0
 40
0
 40
0
 40
1
 40
1
 40
1
 40
1
 10
85.569850
 20
177.346390
 30
0.0
 10
85.072180
 20
177.325690
 30
0.0
 10
84.183410
 20
177.289190
 30
0.0
 10
79.966870
 20
177.116230
 30
0.0
  0
SPLINE
  5
281
100
AcDbEntity
  8
Layer_1
 62
7
100
AcDbSpline
 70
8
 71
3
 72
8
 73
4
 74
0
 40
0
 40
0
 40
0
 40
0
 40
1
 40
1
 40
1
 40
1
 10
79.966870
 20
177.116230
 30
0.0
 10
77.882530
 20
177.030730
 30
0.0
 10
77.097650
 20
176.995140
 30
0.0
 10
77.088610
 20
176.985770
 30
0.0
  0
SPLINE
  5
282
100
AcDbEntity
  8
Layer_1
 62
7
100
AcDbSpline
 70
8
 71
3
 72
8
 73
4
 74
0
 40
0
 40
0
 40
0
 40
0
 40
1
 40
1
 40
1
 40
1
 10
77.088610
 20
176.985770
 30
0.0
 10
77.083610
 20
176.980770
 30
0.0
 10
77.915410
 20
175.892010
 30
0.0
 10
78.937120
 20
174.566770
 30
0.0
  0
LWPOLYLINE
  5
283
100
AcDbEntity
  8
Layer_1
 62
7
100
AcDbPolyline
 90
3
 70
0
 10
86.039650
 20
177.295490
 30
0.0
 10
86.008150
 20
177.364590
 30
0.0
 10
85.569850
 20
177.346390
 30
0.0
  0
SPLINE
  5
284
100
AcDbEntity
  8
Layer_1
 62
7
100
AcDbSpline
 70
8
 71
3
 72
8
 73
4
 74
0
 40
0
 40
0
 40
0
 40
0
 40
1
 40
1
 40
1
 40
1
 10
81.156930
 20
172.011640
 30
0.0
 10
84.060530
 20
170.844320
 30
0.0
 10
86.096470
 20
168.193420
 30
0.0
 10
86.455250
 20
165.112980
 30
0.0
  0
SPLINE
  5
285
100
AcDbEntity
  8
Layer_1
 62
7
100
AcDbSpline
 70
8
 71
3
 72
8
 73
4
 74
0
 40
0
 40
0
 40
0
 40
0
 40
1
 40
1
 40
1
 40
1
 10
86.455250
 20
165.112980
 30
0.0
 10
86.476950
 20
164.926270
 30
0.0
 10
86.511950
 20
164.749220
 30
0.0
 10
86.532850
 20
164.719550
 30
0.0
  0
SPLINE
  5
286
100
AcDbEntity
  8
Layer_1
 62
7
100
AcDbSpline
 70
8
 71
3
 72
8
 73
4
 74
0
 40
0
 40
0
 40
0
 40
0
 40
1
 40
1
 40
1
 40
1
 10
86.532850
 20
164.719550
 30
0.0
 10
86.624250
 20
164.589860
 30
0.0
 10
89.448270
 20
160.935390
 30
0.0
 10
89.453130
 20
160.940450
 30
0.0
  0
SPLINE
  5
287
100
AcDbEntity
  8
Layer_1
 62
7
100
AcDbSpline
 70
8
 71
3
 72
8
 73
4
 74
0
 40
0
 40
0
 40
0
 40
0
 40
1
 40
1
 40
1
 40
1
 10
89.453130
 20
160.940450
 30
0.0
 10
89.456130
 20
160.943450
 30
0.0
 10
88.812230
 20
164.216320
 30
0.0
 10
88.022300
 20
168.213290
 30
0.0
  0
LWPOLYLINE
  5
288
100
AcDbEntity
  8
Layer_1
 62
7
100
AcDbPolyline
 90
3
 70
0
 10
78.937120
 20
174.566770
 30
0.0
 10
80.794760
 20
172.157250
 30
0.0
 10
81.156930
 20
172.011640
 30
0.0
  0
SPLINE
  5
289
100
AcDbEntity
  8
Layer_1
 62
7
100
AcDbSpline
 70
8
 71
3
 72
8
 73
4
 74
0
 40
0
 40
0
 40
0
 40
0
 40
1
 40
1
 40
1
 40
1
 10
122.019280
 20
162.835380
 30
0.0
 10
122.807840
 20
163.858980
 30
0.0
 10
123.468440
 20
164.728930
 30
0.0
 10
123.487290
 20
164.768600
 30
0.0
  0
SPLINE
  5
28a
100
AcDbEntity
  8
Layer_1
 62
7
100
AcDbSpline
 70
8
 71
3
 72
8
 73
4
 74
0
 40
0
 40
0
 40
0
 40
0
 40
1
 40
1
 40
1
 40
1
 10
123.487290
 20
164.768600
 30
0.0
 10
123.506190
 20
164.808300
 30
0.0
 10
123.530090
 20
164.942340
 30
0.0
 10
123.540590
 20
165.066520
 30
0.0
  0
SPLINE
  5
28b
100
AcDbEntity
  8
Layer_1
 62
7
100
AcDbSpline
 70
8
 71
3
 72
8
 73
4
 74
0
 40
0
 40
0
 40
0
 40
0
 40
1
 40
1
 40
1
 40
1
 10
123.540590
 20
165.066520
 30
0.0
 10
123.590890
 20
165.663760
 30
0.0
 10
123.814060
 20
166.557970
 30
0.0
 10
124.082460
 20
167.237330
 30
0.0
  0
SPLINE
  5
28c
100
AcDbEntity
  8
Layer_1
 62
7
100
AcDbSpline
 70
8
 71
3
 72
8
 73
4
 74
0
 40
0
 40
0
 40
0
 40
0
 40
1
 40
1
 40
1
 40
1
 10
124.082460
 20
167.237330
 30
0.0
 10
124.946040
 20
169.423230
 30
0.0
 10
126.674560
 20
171.151210
 30
0.0
 10
128.869550
 20
172.022950
 30
0.0
  0
LWPOLYLINE
  5
28d
100
AcDbEntity
  8
Layer_1
 62
7
100
AcDbPolyline
 90
1
 70
1
 10
88.022300
 20
168.213290
 30
0.0
  0
SPLINE
  5
28e
100
AcDbEntity
  8
Layer_1
 62
7
100
AcDbSpline
 70
8
 71
3
 72
8
 73
4
 74
0
 40
0
 40
0
 40
0
 40
0
 40
1
 40
1
 40
1
 40
1
 10
132.789420
 20
176.996590
 30
0.0
 10
132.515860
 20
177.038690
 30
0.0
 10
123.996500
 20
177.366110
 30
0.0
 10
123.986090
 20
177.334870
 30
0.0
  0
SPLINE
  5
28f
100
AcDbEntity
  8
Layer_1
 62
7
100
AcDbSpline
 70
8
 71
3
 72
8
 73
4
 74
0
 40
0
 40
0
 40
0
 40
0
 40
1
 40
1
 40
1
 40
1
 10
123.986090
 20
177.334870
 30
0.0
 10
123.977090
 20
177.307370
 30
0.0
 10
123.908890
 20
177.213870
 30
0.0
 10
123.755840
 20
177.018640
 30
0.0
  0
SPLINE
  5
290
100
AcDbEntity
  8
Layer_1
 62
7
100
AcDbSpline
 70
8
 71
3
 72
8
 73
4
 74
0
 40
0
 40
0
 40
0
 40
0
 40
1
 40
1
 40
1
 40
1
 10
123.755840
 20
177.018640
 30
0.0
 10
123.712640
 20
176.963440
 30
0.0
 10
123.358050
 20
175.211660
 30
0.0
 10
122.130800
 20
168.989420
 30
0.0
  0
SPLINE
  5
291
100
AcDbEntity
  8
Layer_1
 62
7
100
AcDbSpline
 70
8
 71
3
 72
8
 73
4
 74
0
 40
0
 40
0
 40
0
 40
0
 40
1
 40
1
 40
1
 40
1
 10
122.130800
 20
168.989420
 30
0.0
 10
121.267440
 20
164.612150
 30
0.0
 10
120.554070
 20
161.005350
 30
0.0
 10
120.545530
 20
160.974300
 30
0.0
  0
SPLINE
  5
292
100
AcDbEntity
  8
Layer_1
 62
7
100
AcDbSpline
 70
8
 71
3
 72
8
 73
4
 74
0
 40
0
 40
0
 40
0
 40
0
 40
1
 40
1
 40
1
 40
1
 10
120.545530
 20
160.974300
 30
0.0
 10
120.535330
 20
160.937100
 30
0.0
 10
120.539530
 20
160.927500
 30
0.0
 10
120.557830
 20
160.946100
 30
0.0
  0
SPLINE
  5
293
100
AcDbEntity
  8
Layer_1
 62
7
100
AcDbSpline
 70
8
 71
3
 72
8
 73
4
 74
0
 40
0
 40
0
 40
0
 40
0
 40
1
 40
1
 40
1
 40
1
 10
120.557830
 20
160.946100
 30
0.0
 10
120.573130
 20
160.961600
 30
0.0
 10
121.230800
 20
161.811810
 30
0.0
 10
122.019340
 20
162.835410
 30
0.0
  0
LWPOLYLINE
  5
294
100
AcDbEntity
  8
Layer_1
 62
7
100
AcDbPolyline
 90
5
 70
0
 10
128.869550
 20
172.022950
 30
0.0
 10
129.204150
 20
172.155840
 30
0.0
 10
131.062600
 20
174.566070
 30
0.0
 10
132.921050
 20
176.976290
 30
0.0
 10
132.789420
 20
176.996590
 30
0.0
  0
SPLINE
  5
295
100
AcDbEntity
  8
Layer_1
 62
7
100
AcDbSpline
 70
8
 71
3
 72
8
 73
4
 74
0
 40
0
 40
0
 40
0
 40
0
 40
1
 40
1
 40
1
 40
1
 10
105.815310
 20
169.410950
 30
0.0
 10
106.243280
 20
170.449950
 30
0.0
 10
106.590500
 20
171.302980
 30
0.0
 10
106.586920
 20
171.306560
 30
0.0
  0
SPLINE
  5
296
100
AcDbEntity
  8
Layer_1
 62
7
100
AcDbSpline
 70
8
 71
3
 72
8
 73
4
 74
0
 40
0
 40
0
 40
0
 40
0
 40
1
 40
1
 40
1
 40
1
 10
106.586920
 20
171.306560
 30
0.0
 10
106.582920
 20
171.310560
 30
0.0
 10
106.516920
 20
171.301560
 30
0.0
 10
106.439310
 20
171.286360
 30
0.0
  0
SPLINE
  5
297
100
AcDbEntity
  8
Layer_1
 62
7
100
AcDbSpline
 70
8
 71
3
 72
8
 73
4
 74
0
 40
0
 40
0
 40
0
 40
0
 40
1
 40
1
 40
1
 40
1
 10
106.439310
 20
171.286360
 30
0.0
 10
106.068670
 20
171.216260
 30
0.0
 10
105.548000
 20
171.176580
 30
0.0
 10
105.000000
 20
171.176580
 30
0.0
  0
SPLINE
  5
298
100
AcDbEntity
  8
Layer_1
 62
7
100
AcDbSpline
 70
8
 71
3
 72
8
 73
4
 74
0
 40
0
 40
0
 40
0
 40
0
 40
1
 40
1
 40
1
 40
1
 10
105.000000
 20
171.176580
 30
0.0
 10
104.452000
 20
171.176580
 30
0.0
 10
103.931330
 20
171.216280
 30
0.0
 10
103.560690
 20
171.286360
 30
0.0
  0
SPLINE
  5
299
100
AcDbEntity
  8
Layer_1
 62
7
100
AcDbSpline
 70
8
 71
3
 72
8
 73
4
 74
0
 40
0
 40
0
 40
0
 40
0
 40
1
 40
1
 40
1
 40
1
 10
103.560690
 20
171.286360
 30
0.0
 10
103.483090
 20
171.301060
 30
0.0
 10
103.416680
 20
171.310160
 30
0.0
 10
103.413120
 20
171.306560
 30
0.0
  0
SPLINE
  5
29a
100
AcDbEntity
  8
Layer_1
 62
7
100
AcDbSpline
 70
8
 71
3
 72
8
 73
4
 74
0
 40
0
 40
0
 40
0
 40
0
 40
1
 40
1
 40
1
 40
1
 10
103.413120
 20
171.306560
 30
0.0
 10
103.409120
 20
171.302560
 30
0.0
 10
103.743980
 20
170.481720
 30
0.0
 10
104.156290
 20
169.481500
 30
0.0
  0
SPLINE
  5
29b
100
AcDbEntity
  8
Layer_1
 62
7
100
AcDbSpline
 70
8
 71
3
 72
8
 73
4
 74
0
 40
0
 40
0
 40
0
 40
0
 40
1
 40
1
 40
1
 40
1
 10
104.156290
 20
169.481500
 30
0.0
 10
104.568600
 20
168.481280
 30
0.0
 10
104.925840
 20
167.613950
 30
0.0
 10
104.950170
 20
167.554100
 30
0.0
  0
SPLINE
  5
29c
100
AcDbEntity
  8
Layer_1
 62
7
100
AcDbSpline
 70
8
 71
3
 72
8
 73
4
 74
0
 40
0
 40
0
 40
0
 40
0
 40
1
 40
1
 40
1
 40
1
 10
104.950170
 20
167.554100
 30
0.0
 10
104.980970
 20
167.478400
 30
0.0
 10
105.000870
 20
167.456900
 30
0.0
 10
105.015770
 20
167.483500
 30
0.0
  0
SPLINE
  5
29d
100
AcDbEntity
  8
Layer_1
 62
7
100
AcDbSpline
 70
8
 71
3
 72
8
 73
4
 74
0
 40
0
 40
0
 40
0
 40
0
 40
1
 40
1
 40
1
 40
1
 10
105.015770
 20
167.483500
 30
0.0
 10
105.027570
 20
167.504600
 30
0.0
 10
105.387310
 20
168.371860
 30
0.0
 10
105.815280
 20
169.410870
 30
0.0
  0
LWPOLYLINE
  5
29e
100
AcDbEntity
  8
Layer_1
 62
7
100
AcDbPolyline
 90
1
 70
1
 10
122.019340
 20
162.835410
 30
0.0
  0
LWPOLYLINE
  5
29f
100
AcDbEntity
  8
Layer_1
 62
7
100
AcDbPolyline
 90
1
 70
1
 10
105.815280
 20
169.410870
 30
0.0
  0
SPLINE
  5
2a0
100
AcDbEntity
  8
Layer_1
 62
7
100
AcDbSpline
 70
8
 71
3
 72
8
 73
4
 74
0
 40
0
 40
0
 40
0
 40
0
 40
1
 40
1
 40
1
 40
1
 10
99.884240
 20
172.868050
 30
0.0
 10
98.810690
 20
173.675640
 30
0.0
 10
97.971470
 20
174.678370
 30
0.0
 10
97.378980
 20
175.861440
 30
0.0
  0
SPLINE
  5
2a1
100
AcDbEntity
  8
Layer_1
 62
7
100
AcDbSpline
 70
8
 71
3
 72
8
 73
4
 74
0
 40
0
 40
0
 40
0
 40
0
 40
1
 40
1
 40
1
 40
1
 10
97.378980
 20
175.861440
 30
0.0
 10
96.842540
 20
176.932580
 30
0.0
 10
96.569390
 20
177.951020
 30
0.0
 10
96.487590
 20
179.185000
 30
0.0
  0
SPLINE
  5
2a2
100
AcDbEntity
  8
Layer_1
 62
7
100
AcDbSpline
 70
8
 71
3
 72
8
 73
4
 74
0
 40
0
 40
0
 40
0
 40
0
 40
1
 40
1
 40
1
 40
1
 10
96.487590
 20
179.185000
 30
0.0
 10
96.450590
 20
179.742600
 30
0.0
 10
96.475890
 20
180.320810
 30
0.0
 10
96.565190
 20
180.956950
 30
0.0
  0
LWPOLYLINE
  5
2a3
100
AcDbEntity
  8
Layer_1
 62
7
100
AcDbPolyline
 90
3
 70
0
 10
101.083440
 20
170.431370
 30
0.0
 10
100.168160
 20
172.654460
 30
0.0
 10
99.884240
 20
172.868050
 30
0.0
  0
SPLINE
  5
2a4
100
AcDbEntity
  8
Layer_1
 62
7
100
AcDbSpline
 70
8
 71
3
 72
8
 73
4
 74
0
 40
0
 40
0
 40
0
 40
0
 40
1
 40
1
 40
1
 40
1
 10
94.269250
 20
186.769410
 30
0.0
 10
94.180350
 20
186.769410
 30
0.0
 10
94.149100
 20
186.721910
 30
0.0
 10
91.849640
 20
183.091350
 30
0.0
  0
SPLINE
  5
2a5
100
AcDbEntity
  8
Layer_1
 62
7
100
AcDbSpline
 70
8
 71
3
 72
8
 73
4
 74
0
 40
0
 40
0
 40
0
 40
0
 40
1
 40
1
 40
1
 40
1
 10
91.849640
 20
183.091350
 30
0.0
 10
90.568410
 20
181.068420
 30
0.0
 10
89.520130
 20
179.397730
 30
0.0
 10
89.520130
 20
179.378720
 30
0.0
  0
SPLINE
  5
2a6
100
AcDbEntity
  8
Layer_1
 62
7
100
AcDbSpline
 70
8
 71
3
 72
8
 73
4
 74
0
 40
0
 40
0
 40
0
 40
0
 40
1
 40
1
 40
1
 40
1
 10
89.520130
 20
179.378720
 30
0.0
 10
89.520130
 20
179.359720
 30
0.0
 10
89.532130
 20
179.332120
 30
0.0
 10
89.546730
 20
179.317320
 30
0.0
  0
SPLINE
  5
2a7
100
AcDbEntity
  8
Layer_1
 62
7
100
AcDbSpline
 70
8
 71
3
 72
8
 73
4
 74
0
 40
0
 40
0
 40
0
 40
0
 40
1
 40
1
 40
1
 40
1
 10
89.546730
 20
179.317320
 30
0.0
 10
89.561430
 20
179.302520
 30
0.0
 10
89.602630
 20
179.209710
 30
0.0
 10
89.638430
 20
179.110960
 30
0.0
  0
LWPOLYLINE
  5
2a8
100
AcDbEntity
  8
Layer_1
 62
7
100
AcDbPolyline
 90
5
 70
0
 10
96.565190
 20
180.956950
 30
0.0
 10
96.612890
 20
181.296930
 30
0.0
 10
95.486120
 20
184.033170
 30
0.0
 10
94.359350
 20
186.769410
 30
0.0
 10
94.269250
 20
186.769410
 30
0.0
  0
SPLINE
  5
2a9
100
AcDbEntity
  8
Layer_1
 62
7
100
AcDbSpline
 70
8
 71
3
 72
8
 73
4
 74
0
 40
0
 40
0
 40
0
 40
0
 40
1
 40
1
 40
1
 40
1
 10
95.841860
 20
173.561980
 30
0.0
 10
99.217950
 20
170.608790
 30
0.0
 10
101.984350
 20
168.196080
 30
0.0
 10
101.989440
 20
168.200400
 30
0.0
  0
SPLINE
  5
2aa
100
AcDbEntity
  8
Layer_1
 62
7
100
AcDbSpline
 70
8
 71
3
 72
8
 73
4
 74
0
 40
0
 40
0
 40
0
 40
0
 40
1
 40
1
 40
1
 40
1
 10
101.989440
 20
168.200400
 30
0.0
 10
101.994440
 20
168.204400
 30
0.0
 10
101.586820
 20
169.208660
 30
0.0
 10
101.083410
 20
170.431360
 30
0.0
  0
LWPOLYLINE
  5
2ab
100
AcDbEntity
  8
Layer_1
 62
7
100
AcDbPolyline
 90
3
 70
0
 10
89.638430
 20
179.110960
 30
0.0
 10
89.703530
 20
178.931420
 30
0.0
 10
95.841860
 20
173.561980
 30
0.0
  0
LWPOLYLINE
  5
2ac
100
AcDbEntity
  8
Layer_1
 62
7
100
AcDbPolyline
 90
1
 70
1
 10
101.083410
 20
170.431360
 30
0.0
  0
SPLINE
  5
2ad
100
AcDbEntity
  8
Layer_1
 62
7
100
AcDbSpline
 70
8
 71
3
 72
8
 73
4
 74
0
 40
0
 40
0
 40
0
 40
0
 40
1
 40
1
 40
1
 40
1
 10
120.367500
 20
179.122600
 30
0.0
 10
120.400700
 20
179.222400
 30
0.0
 10
120.439600
 20
179.311250
 30
0.0
 10
120.453900
 20
179.320100
 30
0.0
  0
SPLINE
  5
2ae
100
AcDbEntity
  8
Layer_1
 62
7
100
AcDbSpline
 70
8
 71
3
 72
8
 73
4
 74
0
 40
0
 40
0
 40
0
 40
0
 40
1
 40
1
 40
1
 40
1
 10
120.453900
 20
179.320100
 30
0.0
 10
120.468200
 20
179.329100
 30
0.0
 10
120.479900
 20
179.353500
 30
0.0
 10
120.479900
 20
179.374700
 30
0.0
  0
SPLINE
  5
2af
100
AcDbEntity
  8
Layer_1
 62
7
100
AcDbSpline
 70
8
 71
3
 72
8
 73
4
 74
0
 40
0
 40
0
 40
0
 40
0
 40
1
 40
1
 40
1
 40
1
 10
120.479900
 20
179.374700
 30
0.0
 10
120.479900
 20
179.395900
 30
0.0
 10
119.431620
 20
181.068380
 30
0.0
 10
118.150380
 20
183.091310
 30
0.0
  0
SPLINE
  5
2b0
100
AcDbEntity
  8
Layer_1
 62
7
100
AcDbSpline
 70
8
 71
3
 72
8
 73
4
 74
0
 40
0
 40
0
 40
0
 40
0
 40
1
 40
1
 40
1
 40
1
 10
118.150380
 20
183.091310
 30
0.0
 10
115.850930
 20
186.721900
 30
0.0
 10
115.819700
 20
186.769370
 30
0.0
 10
115.730780
 20
186.769370
 30
0.0
  0
LWPOLYLINE
  5
2b1
100
AcDbEntity
  8
Layer_1
 62
7
100
AcDbPolyline
 90
3
 70
0
 10
114.361000
 20
173.741000
 30
0.0
 10
120.307100
 20
178.941190
 30
0.0
 10
120.367500
 20
179.122600
 30
0.0
  0
SPLINE
  5
2b2
100
AcDbEntity
  8
Layer_1
 62
7
100
AcDbSpline
 70
8
 71
3
 72
8
 73
4
 74
0
 40
0
 40
0
 40
0
 40
0
 40
1
 40
1
 40
1
 40
1
 10
113.434840
 20
180.956910
 30
0.0
 10
113.524040
 20
180.320770
 30
0.0
 10
113.549380
 20
179.742560
 30
0.0
 10
113.512440
 20
179.184960
 30
0.0
  0
SPLINE
  5
2b3
100
AcDbEntity
  8
Layer_1
 62
7
100
AcDbSpline
 70
8
 71
3
 72
8
 73
4
 74
0
 40
0
 40
0
 40
0
 40
0
 40
1
 40
1
 40
1
 40
1
 10
113.512440
 20
179.184960
 30
0.0
 10
113.429540
 20
177.934400
 30
0.0
 10
113.156990
 20
176.930540
 30
0.0
 10
112.600420
 20
175.825830
 30
0.0
  0
SPLINE
  5
2b4
100
AcDbEntity
  8
Layer_1
 62
7
100
AcDbSpline
 70
8
 71
3
 72
8
 73
4
 74
0
 40
0
 40
0
 40
0
 40
0
 40
1
 40
1
 40
1
 40
1
 10
112.600420
 20
175.825830
 30
0.0
 10
112.020140
 20
174.674050
 30
0.0
 10
111.166010
 20
173.657130
 30
0.0
 10
110.116170
 20
172.868100
 30
0.0
  0
LWPOLYLINE
  5
2b5
100
AcDbEntity
  8
Layer_1
 62
7
100
AcDbPolyline
 90
5
 70
0
 10
115.730780
 20
186.769370
 30
0.0
 10
115.640680
 20
186.769370
 30
0.0
 10
114.513910
 20
184.033130
 30
0.0
 10
113.387140
 20
181.296890
 30
0.0
 10
113.434840
 20
180.956910
 30
0.0
  0
SPLINE
  5
2b6
100
AcDbEntity
  8
Layer_1
 62
7
100
AcDbSpline
 70
8
 71
3
 72
8
 73
4
 74
0
 40
0
 40
0
 40
0
 40
0
 40
1
 40
1
 40
1
 40
1
 10
108.934660
 20
170.475430
 30
0.0
 10
108.441050
 20
169.276870
 30
0.0
 10
108.028260
 20
168.268040
 30
0.0
 10
108.017340
 20
168.233580
 30
0.0
  0
SPLINE
  5
2b7
100
AcDbEntity
  8
Layer_1
 62
7
100
AcDbSpline
 70
8
 71
3
 72
8
 73
4
 74
0
 40
0
 40
0
 40
0
 40
0
 40
1
 40
1
 40
1
 40
1
 10
108.017340
 20
168.233580
 30
0.0
 10
108.003240
 20
168.188980
 30
0.0
 10
108.057840
 20
168.224580
 30
0.0
 10
108.206210
 20
168.355850
 30
0.0
  0
SPLINE
  5
2b8
100
AcDbEntity
  8
Layer_1
 62
7
100
AcDbSpline
 70
8
 71
3
 72
8
 73
4
 74
0
 40
0
 40
0
 40
0
 40
0
 40
1
 40
1
 40
1
 40
1
 10
108.206210
 20
168.355850
 30
0.0
 10
108.321000
 20
168.457560
 30
0.0
 10
111.090670
 20
170.880860
 30
0.0
 10
114.361030
 20
173.740960
 30
0.0
  0
LWPOLYLINE
  5
2b9
100
AcDbEntity
  8
Layer_1
 62
7
100
AcDbPolyline
 90
3
 70
0
 10
110.116170
 20
172.868100
 30
0.0
 10
109.832120
 20
172.654620
 30
0.0
 10
108.934660
 20
170.475430
 30
0.0
  0
SPLINE
  5
2ba
100
AcDbEntity
  8
Layer_1
 62
7
100
AcDbSpline
 70
8
 71
3
 72
8
 73
4
 74
0
 40
0
 40
0
 40
0
 40
0
 40
1
 40
1
 40
1
 40
1
 10
72.069980
 20
178.286490
 30
0.0
 10
72.597380
 20
178.394600
 30
0.0
 10
73.082280
 20
178.597820
 30
0.0
 10
73.546330
 20
178.905200
 30
0.0
  0
SPLINE
  5
2bb
100
AcDbEntity
  8
Layer_1
 62
7
100
AcDbSpline
 70
8
 71
3
 72
8
 73
4
 74
0
 40
0
 40
0
 40
0
 40
0
 40
1
 40
1
 40
1
 40
1
 10
73.546330
 20
178.905200
 30
0.0
 10
73.859110
 20
179.112370
 30
0.0
 10
74.387700
 20
179.640970
 30
0.0
 10
74.594870
 20
179.953740
 30
0.0
  0
SPLINE
  5
2bc
100
AcDbEntity
  8
Layer_1
 62
7
100
AcDbSpline
 70
8
 71
3
 72
8
 73
4
 74
0
 40
0
 40
0
 40
0
 40
0
 40
1
 40
1
 40
1
 40
1
 10
74.594870
 20
179.953740
 30
0.0
 10
75.243920
 20
180.933600
 30
0.0
 10
75.445570
 20
182.065090
 30
0.0
 10
75.168820
 20
183.174130
 30
0.0
  0
SPLINE
  5
2bd
100
AcDbEntity
  8
Layer_1
 62
7
100
AcDbSpline
 70
8
 71
3
 72
8
 73
4
 74
0
 40
0
 40
0
 40
0
 40
0
 40
1
 40
1
 40
1
 40
1
 10
75.168820
 20
183.174130
 30
0.0
 10
74.830700
 20
184.529070
 30
0.0
 10
73.811110
 20
185.610080
 30
0.0
 10
72.486200
 20
186.018350
 30
0.0
  0
SPLINE
  5
2be
100
AcDbEntity
  8
Layer_1
 62
7
100
AcDbSpline
 70
8
 71
3
 72
8
 73
4
 74
0
 40
0
 40
0
 40
0
 40
0
 40
1
 40
1
 40
1
 40
1
 10
72.486200
 20
186.018350
 30
0.0
 10
72.079470
 20
186.143690
 30
0.0
 10
71.752170
 20
186.192370
 30
0.0
 10
71.302670
 20
186.194400
 30
0.0
  0
SPLINE
  5
2bf
100
AcDbEntity
  8
Layer_1
 62
7
100
AcDbSpline
 70
8
 71
3
 72
8
 73
4
 74
0
 40
0
 40
0
 40
0
 40
0
 40
1
 40
1
 40
1
 40
1
 10
71.302670
 20
186.194400
 30
0.0
 10
70.657460
 20
186.197400
 30
0.0
 10
70.132810
 20
186.078060
 30
0.0
 10
69.552890
 20
185.796700
 30
0.0
  0
SPLINE
  5
2c0
100
AcDbEntity
  8
Layer_1
 62
7
100
AcDbSpline
 70
8
 71
3
 72
8
 73
4
 74
0
 40
0
 40
0
 40
0
 40
0
 40
1
 40
1
 40
1
 40
1
 10
69.552890
 20
185.796700
 30
0.0
 10
69.130570
 20
185.591810
 30
0.0
 10
68.795610
 20
185.354580
 30
0.0
 10
68.482380
 20
185.038550
 30
0.0
  0
SPLINE
  5
2c1
100
AcDbEntity
  8
Layer_1
 62
7
100
AcDbSpline
 70
8
 71
3
 72
8
 73
4
 74
0
 40
0
 40
0
 40
0
 40
0
 40
1
 40
1
 40
1
 40
1
 10
68.482380
 20
185.038550
 30
0.0
 10
68.135790
 20
184.688860
 30
0.0
 10
67.924500
 20
184.395150
 30
0.0
 10
67.717560
 20
183.975410
 30
0.0
  0
SPLINE
  5
2c2
100
AcDbEntity
  8
Layer_1
 62
7
100
AcDbSpline
 70
8
 71
3
 72
8
 73
4
 74
0
 40
0
 40
0
 40
0
 40
0
 40
1
 40
1
 40
1
 40
1
 10
67.717560
 20
183.975410
 30
0.0
 10
67.420740
 20
183.373350
 30
0.0
 10
67.309430
 20
182.888540
 30
0.0
 10
67.309350
 20
182.197410
 30
0.0
  0
SPLINE
  5
2c3
100
AcDbEntity
  8
Layer_1
 62
7
100
AcDbSpline
 70
8
 71
3
 72
8
 73
4
 74
0
 40
0
 40
0
 40
0
 40
0
 40
1
 40
1
 40
1
 40
1
 10
67.309350
 20
182.197410
 30
0.0
 10
67.309320
 20
181.947580
 30
0.0
 10
67.326550
 20
181.675990
 30
0.0
 10
67.351450
 20
181.534770
 30
0.0
  0
SPLINE
  5
2c4
100
AcDbEntity
  8
Layer_1
 62
7
100
AcDbSpline
 70
8
 71
3
 72
8
 73
4
 74
0
 40
0
 40
0
 40
0
 40
0
 40
1
 40
1
 40
1
 40
1
 10
67.351450
 20
181.534770
 30
0.0
 10
67.660100
 20
179.780920
 30
0.0
 10
69.060540
 20
178.454600
 30
0.0
 10
70.837040
 20
178.233670
 30
0.0
  0
SPLINE
  5
2c5
100
AcDbEntity
  8
Layer_1
 62
7
100
AcDbSpline
 70
8
 71
3
 72
8
 73
4
 74
0
 40
0
 40
0
 40
0
 40
0
 40
1
 40
1
 40
1
 40
1
 10
70.837040
 20
178.233670
 30
0.0
 10
71.157620
 20
178.193770
 30
0.0
 10
71.739490
 20
178.218770
 30
0.0
 10
72.070020
 20
178.286470
 30
0.0
  0
LWPOLYLINE
  5
2c6
100
AcDbEntity
  8
Layer_1
 62
7
100
AcDbPolyline
 90
1
 70
1
 10
114.361030
 20
173.740960
 30
0.0
  0
SPLINE
  5
2c7
100
AcDbEntity
  8
Layer_1
 62
7
100
AcDbSpline
 70
8
 71
3
 72
8
 73
4
 74
0
 40
0
 40
0
 40
0
 40
0
 40
1
 40
1
 40
1
 40
1
 10
139.120670
 20
178.232690
 30
0.0
 10
140.519540
 20
178.388160
 30
0.0
 10
141.671780
 20
179.196320
 30
0.0
 10
142.298820
 20
180.461770
 30
0.0
  0
SPLINE
  5
2c8
100
AcDbEntity
  8
Layer_1
 62
7
100
AcDbSpline
 70
8
 71
3
 72
8
 73
4
 74
0
 40
0
 40
0
 40
0
 40
0
 40
1
 40
1
 40
1
 40
1
 10
142.298820
 20
180.461770
 30
0.0
 10
142.569890
 20
181.008810
 30
0.0
 10
142.690730
 20
181.544080
 30
0.0
 10
142.690650
 20
182.197440
 30
0.0
  0
SPLINE
  5
2c9
100
AcDbEntity
  8
Layer_1
 62
7
100
AcDbSpline
 70
8
 71
3
 72
8
 73
4
 74
0
 40
0
 40
0
 40
0
 40
0
 40
1
 40
1
 40
1
 40
1
 10
142.690650
 20
182.197440
 30
0.0
 10
142.690650
 20
182.890110
 30
0.0
 10
142.578590
 20
183.377140
 30
0.0
 10
142.281880
 20
183.975440
 30
0.0
  0
SPLINE
  5
2ca
100
AcDbEntity
  8
Layer_1
 62
7
100
AcDbSpline
 70
8
 71
3
 72
8
 73
4
 74
0
 40
0
 40
0
 40
0
 40
0
 40
1
 40
1
 40
1
 40
1
 10
142.281880
 20
183.975440
 30
0.0
 10
141.708190
 20
185.132220
 30
0.0
 10
140.650100
 20
185.920400
 30
0.0
 10
139.360930
 20
186.151280
 30
0.0
  0
SPLINE
  5
2cb
100
AcDbEntity
  8
Layer_1
 62
7
100
AcDbSpline
 70
8
 71
3
 72
8
 73
4
 74
0
 40
0
 40
0
 40
0
 40
0
 40
1
 40
1
 40
1
 40
1
 10
139.360930
 20
186.151280
 30
0.0
 10
139.037740
 20
186.209180
 30
0.0
 10
138.396590
 20
186.207080
 30
0.0
 10
138.042680
 20
186.147280
 30
0.0
  0
SPLINE
  5
2cc
100
AcDbEntity
  8
Layer_1
 62
7
100
AcDbSpline
 70
8
 71
3
 72
8
 73
4
 74
0
 40
0
 40
0
 40
0
 40
0
 40
1
 40
1
 40
1
 40
1
 10
138.042680
 20
186.147280
 30
0.0
 10
136.476040
 20
185.881470
 30
0.0
 10
135.215540
 20
184.714620
 30
0.0
 10
134.831180
 20
183.174370
 30
0.0
  0
SPLINE
  5
2cd
100
AcDbEntity
  8
Layer_1
 62
7
100
AcDbSpline
 70
8
 71
3
 72
8
 73
4
 74
0
 40
0
 40
0
 40
0
 40
0
 40
1
 40
1
 40
1
 40
1
 10
134.831180
 20
183.174370
 30
0.0
 10
134.554000
 20
182.063600
 30
0.0
 10
134.755080
 20
180.935360
 30
0.0
 10
135.405130
 20
179.953980
 30
0.0
  0
SPLINE
  5
2ce
100
AcDbEntity
  8
Layer_1
 62
7
100
AcDbSpline
 70
8
 71
3
 72
8
 73
4
 74
0
 40
0
 40
0
 40
0
 40
0
 40
1
 40
1
 40
1
 40
1
 10
135.405130
 20
179.953980
 30
0.0
 10
135.612040
 20
179.641600
 30
0.0
 10
136.140470
 20
179.113520
 30
0.0
 10
136.453670
 20
178.906130
 30
0.0
  0
SPLINE
  5
2cf
100
AcDbEntity
  8
Layer_1
 62
7
100
AcDbSpline
 70
8
 71
3
 72
8
 73
4
 74
0
 40
0
 40
0
 40
0
 40
0
 40
1
 40
1
 40
1
 40
1
 10
136.453670
 20
178.906130
 30
0.0
 10
137.277430
 20
178.360670
 30
0.0
 10
138.192350
 20
178.129720
 30
0.0
 10
139.120670
 20
178.232900
 30
0.0
  0
LWPOLYLINE
  5
2d0
100
AcDbEntity
  8
Layer_1
 62
7
100
AcDbPolyline
 90
1
 70
1
 10
72.070020
 20
178.286470
 30
0.0
  0
SPLINE
  5
2d1
100
AcDbEntity
  8
Layer_1
 62
7
100
AcDbSpline
 70
8
 71
3
 72
8
 73
4
 74
0
 40
0
 40
0
 40
0
 40
0
 40
1
 40
1
 40
1
 40
1
 10
80.376110
 20
179.613840
 30
0.0
 10
81.470430
 20
179.659540
 30
0.0
 10
83.375430
 20
179.737470
 30
0.0
 10
84.609440
 20
179.787100
 30
0.0
  0
SPLINE
  5
2d2
100
AcDbEntity
  8
Layer_1
 62
7
100
AcDbSpline
 70
8
 71
3
 72
8
 73
4
 74
0
 40
0
 40
0
 40
0
 40
0
 40
1
 40
1
 40
1
 40
1
 10
84.609440
 20
179.787100
 30
0.0
 10
86.088660
 20
179.846600
 30
0.0
 10
86.864350
 20
179.887950
 30
0.0
 10
86.886110
 20
179.908500
 30
0.0
  0
SPLINE
  5
2d3
100
AcDbEntity
  8
Layer_1
 62
7
100
AcDbSpline
 70
8
 71
3
 72
8
 73
4
 74
0
 40
0
 40
0
 40
0
 40
0
 40
1
 40
1
 40
1
 40
1
 10
86.886110
 20
179.908500
 30
0.0
 10
86.913710
 20
179.934600
 30
0.0
 10
91.027850
 20
186.414790
 30
0.0
 10
91.192670
 20
186.691820
 30
0.0
  0
LWPOLYLINE
  5
2d4
100
AcDbEntity
  8
Layer_1
 62
7
100
AcDbPolyline
 90
2
 70
0
 10
139.120670
 20
178.232900
 30
0.0
 10
139.120670
 20
178.232690
 30
0.0
  0
SPLINE
  5
2d5
100
AcDbEntity
  8
Layer_1
 62
7
100
AcDbSpline
 70
8
 71
3
 72
8
 73
4
 74
0
 40
0
 40
0
 40
0
 40
0
 40
1
 40
1
 40
1
 40
1
 10
81.492820
 20
186.381350
 30
0.0
 10
80.890890
 20
184.128160
 30
0.0
 10
79.790400
 20
181.809630
 30
0.0
 10
78.403960
 20
179.873650
 30
0.0
  0
SPLINE
  5
2d6
100
AcDbEntity
  8
Layer_1
 62
7
100
AcDbSpline
 70
8
 71
3
 72
8
 73
4
 74
0
 40
0
 40
0
 40
0
 40
0
 40
1
 40
1
 40
1
 40
1
 10
78.403960
 20
179.873650
 30
0.0
 10
78.277930
 20
179.697660
 30
0.0
 10
78.174810
 20
179.548430
 30
0.0
 10
78.174810
 20
179.542040
 30
0.0
  0
SPLINE
  5
2d7
100
AcDbEntity
  8
Layer_1
 62
7
100
AcDbSpline
 70
8
 71
3
 72
8
 73
4
 74
0
 40
0
 40
0
 40
0
 40
0
 40
1
 40
1
 40
1
 40
1
 10
78.174810
 20
179.542040
 30
0.0
 10
78.174810
 20
179.523040
 30
0.0
 10
78.297730
 20
179.527040
 30
0.0
 10
80.376140
 20
179.613840
 30
0.0
  0
LWPOLYLINE
  5
2d8
100
AcDbEntity
  8
Layer_1
 62
7
100
AcDbPolyline
 90
5
 70
0
 10
91.192670
 20
186.691820
 30
0.0
 10
91.247270
 20
186.783520
 30
0.0
 10
86.423770
 20
186.783520
 30
0.0
 10
81.600260
 20
186.783520
 30
0.0
 10
81.492820
 20
186.381350
 30
0.0
  0
SPLINE
  5
2d9
100
AcDbEntity
  8
Layer_1
 62
7
100
AcDbSpline
 70
8
 71
3
 72
8
 73
4
 74
0
 40
0
 40
0
 40
0
 40
0
 40
1
 40
1
 40
1
 40
1
 10
131.807390
 20
179.565740
 30
0.0
 10
131.795790
 20
179.585140
 30
0.0
 10
131.657420
 20
179.785170
 30
0.0
 10
131.499980
 20
180.010240
 30
0.0
  0
SPLINE
  5
2da
100
AcDbEntity
  8
Layer_1
 62
7
100
AcDbSpline
 70
8
 71
3
 72
8
 73
4
 74
0
 40
0
 40
0
 40
0
 40
0
 40
1
 40
1
 40
1
 40
1
 10
131.499980
 20
180.010240
 30
0.0
 10
130.091040
 20
182.024400
 30
0.0
 10
129.004600
 20
184.374260
 30
0.0
 10
128.436870
 20
186.635410
 30
0.0
  0
LWPOLYLINE
  5
2db
100
AcDbEntity
  8
Layer_1
 62
7
100
AcDbPolyline
 90
1
 70
1
 10
80.376140
 20
179.613840
 30
0.0
  0
SPLINE
  5
2dc
100
AcDbEntity
  8
Layer_1
 62
7
100
AcDbSpline
 70
8
 71
3
 72
8
 73
4
 74
0
 40
0
 40
0
 40
0
 40
0
 40
1
 40
1
 40
1
 40
1
 10
118.807370
 20
186.691880
 30
0.0
 10
118.973270
 20
186.413080
 30
0.0
 10
123.086200
 20
179.934610
 30
0.0
 10
123.113860
 20
179.908550
 30
0.0
  0
SPLINE
  5
2dd
100
AcDbEntity
  8
Layer_1
 62
7
100
AcDbSpline
 70
8
 71
3
 72
8
 73
4
 74
0
 40
0
 40
0
 40
0
 40
0
 40
1
 40
1
 40
1
 40
1
 10
123.113860
 20
179.908550
 30
0.0
 10
123.135560
 20
179.888050
 30
0.0
 10
123.801090
 20
179.851350
 30
0.0
 10
125.051930
 20
179.801440
 30
0.0
  0
SPLINE
  5
2de
100
AcDbEntity
  8
Layer_1
 62
7
100
AcDbSpline
 70
8
 71
3
 72
8
 73
4
 74
0
 40
0
 40
0
 40
0
 40
0
 40
1
 40
1
 40
1
 40
1
 10
125.051930
 20
179.801440
 30
0.0
 10
127.293550
 20
179.712040
 30
0.0
 10
129.299100
 20
179.629090
 30
0.0
 10
130.498820
 20
179.576040
 30
0.0
  0
SPLINE
  5
2df
100
AcDbEntity
  8
Layer_1
 62
7
100
AcDbSpline
 70
8
 71
3
 72
8
 73
4
 74
0
 40
0
 40
0
 40
0
 40
0
 40
1
 40
1
 40
1
 40
1
 10
130.498820
 20
179.576040
 30
0.0
 10
131.687880
 20
179.523440
 30
0.0
 10
131.833500
 20
179.522340
 30
0.0
 10
131.807430
 20
179.565740
 30
0.0
  0
LWPOLYLINE
  5
2e0
100
AcDbEntity
  8
Layer_1
 62
7
100
AcDbPolyline
 90
5
 70
0
 10
128.436870
 20
186.635410
 30
0.0
 10
128.399670
 20
186.783580
 30
0.0
 10
123.576220
 20
186.783580
 30
0.0
 10
118.752770
 20
186.783580
 30
0.0
 10
118.807370
 20
186.691880
 30
0.0
  0
SPLINE
  5
2e1
100
AcDbEntity
  8
Layer_1
 62
7
100
AcDbSpline
 70
8
 71
3
 72
8
 73
4
 74
0
 40
0
 40
0
 40
0
 40
0
 40
1
 40
1
 40
1
 40
1
 10
98.221310
 20
184.850350
 30
0.0
 10
98.703850
 20
185.491270
 30
0.0
 10
99.365490
 20
186.130950
 30
0.0
 10
100.057020
 20
186.625150
 30
0.0
  0
LWPOLYLINE
  5
2e2
100
AcDbEntity
  8
Layer_1
 62
7
100
AcDbPolyline
 90
1
 70
1
 10
131.807430
 20
179.565740
 30
0.0
  0
SPLINE
  5
2e3
100
AcDbEntity
  8
Layer_1
 62
7
100
AcDbSpline
 70
8
 71
3
 72
8
 73
4
 74
0
 40
0
 40
0
 40
0
 40
0
 40
1
 40
1
 40
1
 40
1
 10
98.667080
 20
186.783580
 30
0.0
 10
97.780680
 20
186.783580
 30
0.0
 10
97.055440
 20
186.772880
 30
0.0
 10
97.055440
 20
186.759880
 30
0.0
  0
SPLINE
  5
2e4
100
AcDbEntity
  8
Layer_1
 62
7
100
AcDbSpline
 70
8
 71
3
 72
8
 73
4
 74
0
 40
0
 40
0
 40
0
 40
0
 40
1
 40
1
 40
1
 40
1
 10
97.055440
 20
186.759880
 30
0.0
 10
97.055440
 20
186.746880
 30
0.0
 10
97.253630
 20
186.254730
 30
0.0
 10
97.495860
 20
185.666270
 30
0.0
  0
SPLINE
  5
2e5
100
AcDbEntity
  8
Layer_1
 62
7
100
AcDbSpline
 70
8
 71
3
 72
8
 73
4
 74
0
 40
0
 40
0
 40
0
 40
0
 40
1
 40
1
 40
1
 40
1
 10
97.495860
 20
185.666270
 30
0.0
 10
97.738090
 20
185.077810
 30
0.0
 10
97.942980
 20
184.579620
 30
0.0
 10
97.951160
 20
184.559170
 30
0.0
  0
SPLINE
  5
2e6
100
AcDbEntity
  8
Layer_1
 62
7
100
AcDbSpline
 70
8
 71
3
 72
8
 73
4
 74
0
 40
0
 40
0
 40
0
 40
0
 40
1
 40
1
 40
1
 40
1
 10
97.951160
 20
184.559170
 30
0.0
 10
97.969360
 20
184.513670
 30
0.0
 10
97.961260
 20
184.504970
 30
0.0
 10
98.221310
 20
184.850340
 30
0.0
  0
LWPOLYLINE
  5
2e7
100
AcDbEntity
  8
Layer_1
 62
7
100
AcDbPolyline
 90
3
 70
0
 10
100.057020
 20
186.625150
 30
0.0
 10
100.278710
 20
186.783580
 30
0.0
 10
98.667080
 20
186.783580
 30
0.0
  0
SPLINE
  5
2e8
100
AcDbEntity
  8
Layer_1
 62
7
100
AcDbSpline
 70
8
 71
3
 72
8
 73
4
 74
0
 40
0
 40
0
 40
0
 40
0
 40
1
 40
1
 40
1
 40
1
 10
112.504920
 20
185.667540
 30
0.0
 10
112.746720
 20
186.256000
 30
0.0
 10
112.944560
 20
186.747840
 30
0.0
 10
112.944560
 20
186.760520
 30
0.0
  0
SPLINE
  5
2e9
100
AcDbEntity
  8
Layer_1
 62
7
100
AcDbSpline
 70
8
 71
3
 72
8
 73
4
 74
0
 40
0
 40
0
 40
0
 40
0
 40
1
 40
1
 40
1
 40
1
 10
112.944560
 20
186.760520
 30
0.0
 10
112.944560
 20
186.773220
 30
0.0
 10
112.219030
 20
186.783620
 30
0.0
 10
111.332280
 20
186.783620
 30
0.0
  0
LWPOLYLINE
  5
2ea
100
AcDbEntity
  8
Layer_1
 62
7
100
AcDbPolyline
 90
1
 70
1
 10
98.221310
 20
184.850340
 30
0.0
  0
SPLINE
  5
2eb
100
AcDbEntity
  8
Layer_1
 62
7
100
AcDbSpline
 70
8
 71
3
 72
8
 73
4
 74
0
 40
0
 40
0
 40
0
 40
0
 40
1
 40
1
 40
1
 40
1
 10
109.963500
 20
186.610410
 30
0.0
 10
110.666250
 20
186.110530
 30
0.0
 10
111.417430
 20
185.367720
 30
0.0
 10
111.890290
 20
184.705050
 30
0.0
  0
SPLINE
  5
2ec
100
AcDbEntity
  8
Layer_1
 62
7
100
AcDbSpline
 70
8
 71
3
 72
8
 73
4
 74
0
 40
0
 40
0
 40
0
 40
0
 40
1
 40
1
 40
1
 40
1
 10
111.890290
 20
184.705050
 30
0.0
 10
111.984290
 20
184.573400
 30
0.0
 10
112.028250
 20
184.531490
 30
0.0
 10
112.043670
 20
184.559040
 30
0.0
  0
SPLINE
  5
2ed
100
AcDbEntity
  8
Layer_1
 62
7
100
AcDbSpline
 70
8
 71
3
 72
8
 73
4
 74
0
 40
0
 40
0
 40
0
 40
0
 40
1
 40
1
 40
1
 40
1
 10
112.043670
 20
184.559040
 30
0.0
 10
112.055570
 20
184.580240
 30
0.0
 10
112.263120
 20
185.079130
 30
0.0
 10
112.504920
 20
185.667580
 30
0.0
  0
LWPOLYLINE
  5
2ee
100
AcDbEntity
  8
Layer_1
 62
7
100
AcDbPolyline
 90
3
 70
0
 10
111.332280
 20
186.783620
 30
0.0
 10
109.720000
 20
186.783620
 30
0.0
 10
109.963500
 20
186.610410
 30
0.0
  0
LWPOLYLINE
  5
2ef
100
AcDbEntity
  8
Layer_1
 62
7
100
AcDbPolyline
 90
1
 70
1
 10
112.504920
 20
185.667580
 30
0.0
  0
ENDSEC
  0
SECTION
  2
OBJECTS
  0
DICTIONARY
  5
C
330
0
100
AcDbDictionary
  3
ACAD_GROUP
350
D
  3
ACAD_MLINESTYLE
350
17
  0
DICTIONARY
  5
D
330
C
100
AcDbDictionary
  0
DICTIONARY
  5
1A
330
C
100
AcDbDictionary
  0
DICTIONARY
  5
17
330
C
100
AcDbDictionary
  3
STANDARD
350
18
  0
DICTIONARY
  5
19
330
C
100
AcDbDictionary
  0
ENDSEC
  0
EOF
