<?xml version="1.0" encoding="UTF-8" standalone="no"?>
<!-- Created with Inkscape (http://www.inkscape.org/) -->

<svg
   xmlns:dc="http://purl.org/dc/elements/1.1/"
   xmlns:cc="http://creativecommons.org/ns#"
   xmlns:rdf="http://www.w3.org/1999/02/22-rdf-syntax-ns#"
   xmlns:svg="http://www.w3.org/2000/svg"
   xmlns="http://www.w3.org/2000/svg"
   xmlns:sodipodi="http://sodipodi.sourceforge.net/DTD/sodipodi-0.dtd"
   xmlns:inkscape="http://www.inkscape.org/namespaces/inkscape"
   width="210mm"
   height="297mm"
   viewBox="0 0 210 297"
   version="1.1"
   id="svg10559"
   inkscape:version="0.92.4 (5da689c313, 2019-01-14)"
   sodipodi:docname="template.svg">
  <defs
     id="defs10553">
    <marker
       style="overflow:visible"
       refY="0.0"
       refX="0.0"
       orient="auto"
       id="DistanceX">
      <path
         id="path11125"
         style="stroke:#000000; stroke-width:0.5"
         d="M 3,-3 L -3,3 M 0,-5 L  0,5" />
    </marker>
    <pattern
       y="0"
       x="0"
       width="8"
       patternUnits="userSpaceOnUse"
       id="Hatch"
       height="8">
      <path
         id="path11128"
         stroke-width="0.25"
         stroke="#000000"
         linecap="square"
         d="M8 4 l-4,4" />
      <path
         id="path11130"
         stroke-width="0.25"
         stroke="#000000"
         linecap="square"
         d="M6 2 l-4,4" />
      <path
         id="path11132"
         stroke-width="0.25"
         stroke="#000000"
         linecap="square"
         d="M4 0 l-4,4" />
    </pattern>
    <marker
       style="overflow:visible"
       refY="0.0"
       refX="0.0"
       orient="auto"
       id="DistanceX-7">
      <path
         id="path14413"
         style="stroke:#000000; stroke-width:0.5"
         d="M 3,-3 L -3,3 M 0,-5 L  0,5" />
    </marker>
    <pattern
       y="0"
       x="0"
       width="8"
       patternUnits="userSpaceOnUse"
       id="Hatch-5"
       height="8">
      <path
         id="path14416"
         stroke-width="0.25"
         stroke="#000000"
         linecap="square"
         d="M8 4 l-4,4" />
      <path
         id="path14418"
         stroke-width="0.25"
         stroke="#000000"
         linecap="square"
         d="M6 2 l-4,4" />
      <path
         id="path14420"
         stroke-width="0.25"
         stroke="#000000"
         linecap="square"
         d="M4 0 l-4,4" />
    </pattern>
    <marker
       style="overflow:visible"
       refY="0.0"
       refX="0.0"
       orient="auto"
       id="DistanceX-3">
      <path
         id="path15847"
         style="stroke:#000000; stroke-width:0.5"
         d="M 3,-3 L -3,3 M 0,-5 L  0,5" />
    </marker>
    <pattern
       y="0"
       x="0"
       width="8"
       patternUnits="userSpaceOnUse"
       id="Hatch-56"
       height="8">
      <path
         id="path15850"
         stroke-width="0.25"
         stroke="#000000"
         linecap="square"
         d="M8 4 l-4,4" />
      <path
         id="path15852"
         stroke-width="0.25"
         stroke="#000000"
         linecap="square"
         d="M6 2 l-4,4" />
      <path
         id="path15854"
         stroke-width="0.25"
         stroke="#000000"
         linecap="square"
         d="M4 0 l-4,4" />
    </pattern>
  </defs>
  <sodipodi:namedview
     id="base"
     pagecolor="#ffffff"
     bordercolor="#666666"
     borderopacity="1.0"
     inkscape:pageopacity="0.0"
     inkscape:pageshadow="2"
     inkscape:zoom="0.5"
     inkscape:cx="1026.5248"
     inkscape:cy="657.96775"
     inkscape:document-units="mm"
     inkscape:current-layer="layer1"
     showgrid="false"
     inkscape:snap-object-midpoints="false"
     inkscape:window-width="2044"
     inkscape:window-height="1105"
     inkscape:window-x="1920"
     inkscape:window-y="22"
     inkscape:window-maximized="0"
     inkscape:snap-center="true" />
  <metadata
     id="metadata10556">
    <rdf:RDF>
      <cc:Work
         rdf:about="">
        <dc:format>image/svg+xml</dc:format>
        <dc:type
           rdf:resource="http://purl.org/dc/dcmitype/StillImage" />
        <dc:title></dc:title>
      </cc:Work>
    </rdf:RDF>
  </metadata>
  <g
     inkscape:label="Layer 1"
     inkscape:groupmode="layer"
     id="layer1">
    <path
       id="path17248"
       d="m 61.7165,273.77218 h 86.567 v -86.567 h -86.567 z m 5.5768,-9.4058 v -0.335 l 0.0281,-0.3338 0.0558,-0.3304 0.0833,-0.3244 0.1102,-0.3164 0.1363,-0.3061 0.1614,-0.2935 0.1853,-0.2791 0.2081,-0.2625 0.2294,-0.2442 0.2489,-0.2242 0.2669,-0.2025 0.2828,-0.1795 0.2969,-0.1552 0.3088,-0.1298 0.3186,-0.1036 0.3262,-0.0765 0.3314,-0.0489 0.3343,-0.021 0.335,0.007 0.3331,0.035 0.3291,0.0628 0.3227,0.0901 0.314,0.1167 0.3031,0.1427 0.2901,0.1675 0.2751,0.1912 0.2581,0.2135 0.2394,0.2344 0.2189,0.2536 0.1969,0.271 0.1735,0.2866 0.149,0.3 0.1233,0.3115 0.0968,0.3207 0.0697,0.3277 0.042,0.3324 0.014,0.3347 -0.014,0.3347 -0.042,0.3324 -0.0697,0.3276 -0.0968,0.3208 -0.1233,0.3114 -0.149,0.3001 -0.1735,0.2866 -0.1969,0.271 -0.2189,0.2536 -0.2394,0.2344 -0.2581,0.2135 -0.2751,0.1912 -0.2901,0.1675 -0.3031,0.1426 -0.314,0.1168 -0.3227,0.0901 -0.3291,0.0628 -0.3331,0.035 -0.335,0.007 -0.3343,-0.021 -0.3314,-0.049 -0.3262,-0.0765 -0.3186,-0.1035 -0.3088,-0.1298 -0.2969,-0.1552 -0.2828,-0.1795 -0.2669,-0.2026 -0.2489,-0.2241 -0.2294,-0.2442 -0.2081,-0.2626 -0.1853,-0.279 -0.1614,-0.2936 -0.1363,-0.306 -0.1102,-0.3164 -0.0833,-0.3245 -0.0558,-0.3303 z m 0,-67.4204 v -0.335 l 0.0281,-0.3338 0.0558,-0.3303 0.0833,-0.3245 0.1102,-0.3164 0.1363,-0.306 0.1614,-0.2936 0.1853,-0.279 0.2081,-0.2626 0.2294,-0.2442 0.2489,-0.2241 0.2669,-0.2026 0.2828,-0.1795 0.2969,-0.1552 0.3088,-0.1298 0.3186,-0.1035 0.3262,-0.0765 0.3314,-0.049 0.3343,-0.021 0.335,0.007 0.3331,0.035 0.3291,0.0628 0.3227,0.0901 0.314,0.1168 0.3031,0.1426 0.2901,0.1675 0.2751,0.1912 0.2581,0.2135 0.2394,0.2344 0.2189,0.2536 0.1969,0.271 0.1735,0.2866 0.149,0.3001 0.1233,0.3114 0.0968,0.3208 0.0697,0.3276 0.042,0.3324 0.014,0.3347 -0.014,0.3347 -0.042,0.3324 -0.0697,0.3277 -0.0968,0.3207 -0.1233,0.3115 -0.149,0.3 -0.1735,0.2866 -0.1969,0.271 -0.2189,0.2536 -0.2394,0.2344 -0.2581,0.2135 -0.2751,0.1912 -0.2901,0.1675 -0.3031,0.1427 -0.314,0.1167 -0.3227,0.0901 -0.3291,0.0628 -0.3331,0.035 -0.335,0.007 -0.3343,-0.021 -0.3314,-0.0489 -0.3262,-0.0765 -0.3186,-0.1036 -0.3088,-0.1298 -0.2969,-0.1552 -0.2828,-0.1795 -0.2669,-0.2025 -0.2489,-0.2242 -0.2294,-0.2442 -0.2081,-0.2625 -0.1853,-0.2791 -0.1614,-0.2935 -0.1363,-0.3061 -0.1102,-0.3164 -0.0833,-0.3244 -0.0558,-0.3304 z m 67.4169,67.2529 0.014,-0.3347 0.042,-0.3324 0.0697,-0.3277 0.0968,-0.3207 0.1233,-0.3115 0.149,-0.3 0.1735,-0.2866 0.1969,-0.271 0.2189,-0.2536 0.2394,-0.2344 0.2581,-0.2135 0.2751,-0.1912 0.2901,-0.1675 0.3031,-0.1427 0.314,-0.1167 0.3227,-0.0901 0.3291,-0.0628 0.3331,-0.035 0.335,-0.007 0.3343,0.021 0.3314,0.0489 0.3262,0.0765 0.3186,0.1036 0.3088,0.1298 0.2969,0.1552 0.2828,0.1795 0.2669,0.2025 0.2489,0.2242 0.2294,0.2442 0.2081,0.2625 0.1853,0.2791 0.1614,0.2935 0.1363,0.3061 0.1102,0.3164 0.0833,0.3244 0.0558,0.3304 0.0281,0.3338 v 0.335 l -0.0281,0.3338 -0.0558,0.3303 -0.0833,0.3245 -0.1102,0.3164 -0.1363,0.306 -0.1614,0.2936 -0.1853,0.279 -0.2081,0.2626 -0.2294,0.2442 -0.2489,0.2241 -0.2669,0.2026 -0.2828,0.1795 -0.2969,0.1552 -0.3088,0.1298 -0.3186,0.1035 -0.3262,0.0765 -0.3314,0.049 -0.3343,0.021 -0.335,-0.007 -0.3331,-0.035 -0.3291,-0.0628 -0.3227,-0.0901 -0.314,-0.1168 -0.3031,-0.1426 -0.2901,-0.1675 -0.2751,-0.1912 -0.2581,-0.2135 -0.2394,-0.2344 -0.2189,-0.2536 -0.1969,-0.271 -0.1735,-0.2866 -0.149,-0.3001 -0.1233,-0.3114 -0.0968,-0.3208 -0.0697,-0.3276 -0.042,-0.3324 z m 0,-67.4204 0.014,-0.3347 0.042,-0.3324 0.0697,-0.3276 0.0968,-0.3208 0.1233,-0.3114 0.149,-0.3001 0.1735,-0.2866 0.1969,-0.271 0.2189,-0.2536 0.2394,-0.2344 0.2581,-0.2135 0.2751,-0.1912 0.2901,-0.1675 0.3031,-0.1426 0.314,-0.1168 0.3227,-0.0901 0.3291,-0.0628 0.3331,-0.035 0.335,-0.007 0.3343,0.021 0.3314,0.049 0.3262,0.0765 0.3186,0.1035 0.3088,0.1298 0.2969,0.1552 0.2828,0.1795 0.2669,0.2026 0.2489,0.2241 0.2294,0.2442 0.2081,0.2626 0.1853,0.279 0.1614,0.2936 0.1363,0.306 0.1102,0.3164 0.0833,0.3245 0.0558,0.3303 0.0281,0.3338 v 0.335 l -0.0281,0.3338 -0.0558,0.3304 -0.0833,0.3244 -0.1102,0.3164 -0.1363,0.3061 -0.1614,0.2935 -0.1853,0.2791 -0.2081,0.2625 -0.2294,0.2442 -0.2489,0.2242 -0.2669,0.2025 -0.2828,0.1795 -0.2969,0.1552 -0.3088,0.1298 -0.3186,0.1036 -0.3262,0.0765 -0.3314,0.0489 -0.3343,0.021 -0.335,-0.007 -0.3331,-0.035 -0.3291,-0.0628 -0.3227,-0.0901 -0.314,-0.1167 -0.3031,-0.1427 -0.2901,-0.1675 -0.2751,-0.1912 -0.2581,-0.2135 -0.2394,-0.2344 -0.2189,-0.2536 -0.1969,-0.271 -0.1735,-0.2866 -0.149,-0.3 -0.1233,-0.3115 -0.0968,-0.3207 -0.0697,-0.3277 -0.042,-0.3324 z"
       inkscape:connector-curvature="0"
       style="fill:#000000;stroke:#000000;stroke-width:0;stroke-miterlimit:4;stroke-dasharray:none" />
    <path
       id="path17261"
       d="m 18.432997,98.197019 43.2835,74.969201 H 148.2835 l 43.2835,-74.969201 -24.76,-42.8856 -18.5235,-32.0836 H 61.716497 l -18.5235,32.0836 z m 9.3876,-1.0072 v -0.33501 l 0.028,-0.33383 0.0559,-0.33031 0.0833,-0.32448 0.1101,-0.31637 0.1363,-0.30604 0.1614,-0.29357 0.1854,-0.27903 0.2081,-0.26255 0.2293,-0.2442 0.249001,-0.22417 0.2668,-0.20254 0.2829,-0.1795 0.296799,-0.15521 0.308901,-0.12982 0.3186,-0.10352 0.3261,-0.0765 0.3314,-0.0489 0.3344,-0.021 0.3349,0.007 0.3332,0.035 0.329099,0.0628 0.3226,0.0901 0.314,0.11677 0.3031,0.14264 0.2902,0.16751 0.275,0.19119 0.2582,0.21354 0.2393,0.23439 0.2189,0.2536 0.1969,0.27102 0.1736,0.28655 0.1489,0.30007 0.1234,0.31148 0.0968,0.32071 0.0696,0.32768 0.042,0.33237 0.0141,0.33471 -0.0141,0.33471 -0.042,0.33236 -0.0696,0.32769 -0.0968,0.3207 -0.1234,0.31148 -0.1489,0.30007 -0.1736,0.28655 -0.1969,0.27103 -0.2189,0.25359 -0.2393,0.2344 -0.2582,0.213541 -0.275,0.19119 -0.2902,0.1675 -0.3031,0.14264 -0.314,0.11677 -0.3226,0.0901 -0.329099,0.0628 -0.3332,0.035 -0.3349,0.007 -0.3344,-0.021 -0.3314,-0.0489 -0.3261,-0.0765 -0.3186,-0.10353 -0.308901,-0.12982 -0.296799,-0.1552 -0.2829,-0.17951 -0.2668,-0.20254 -0.249001,-0.224161 -0.2293,-0.24421 -0.2081,-0.26254 -0.1854,-0.27904 -0.1614,-0.29356 -0.1363,-0.30605 -0.1101,-0.31637 -0.0833,-0.32448 -0.0559,-0.33031 z m 35.5706,-61.7837 0.014,-0.3348 0.042,-0.3323 0.0697,-0.3277 0.0968,-0.3207 0.1233,-0.3115 0.149,-0.3001 0.1735,-0.2865 0.1969,-0.271 0.2189,-0.2536 0.2394,-0.2344 0.2581,-0.2136 0.2751,-0.1912 0.2901,-0.1675 0.3031,-0.1426 0.314,-0.1168 0.3227,-0.0901 0.3291,-0.0627 0.3331,-0.035 0.335,-0.007 0.3343,0.0211 0.3314,0.0489 0.3262,0.0765 0.3186,0.1035 0.3088,0.1299 0.2969,0.1552 0.2829,0.1795 0.2668,0.2025 0.249,0.2242 0.2293,0.2442 0.2081,0.2625 0.1854,0.2791 0.1614,0.2935 0.1362,0.3061 0.1102,0.3163 0.0833,0.3245 0.0559,0.3303 0.028,0.3339 v 0.335 l -0.028,0.3338 -0.0559,0.3303 -0.0833,0.3245 -0.1102,0.3164 -0.1362,0.306 -0.1614,0.2936 -0.1854,0.279 -0.2081,0.2625 -0.2293,0.2443 -0.249,0.2241 -0.2668,0.2026 -0.2829,0.1795 -0.2969,0.1552 -0.3088,0.1298 -0.3186,0.1035 -0.3262,0.0765 -0.3314,0.0489 -0.3343,0.0211 -0.335,-0.007 -0.3331,-0.035 -0.3291,-0.0628 -0.3227,-0.0901 -0.314,-0.1168 -0.3031,-0.1426 -0.2901,-0.1675 -0.2751,-0.1912 -0.2581,-0.2136 -0.2394,-0.2344 -0.2189,-0.2535 -0.1969,-0.2711 -0.1735,-0.2865 -0.149,-0.3001 -0.1233,-0.3115 -0.0968,-0.3207 -0.0697,-0.3277 -0.042,-0.3323 z m 2.0346,126.756501 0.0141,-0.3347 0.042,-0.3323 0.0696,-0.3277 0.0968,-0.3207 0.1234,-0.3115 0.1489,-0.3001 0.1736,-0.2865 0.1969,-0.271 0.2189,-0.2536 0.2393,-0.2344 0.2582,-0.2136 0.275,-0.1912 0.2902,-0.1675 0.3031,-0.1426 0.314,-0.1168 0.3226,-0.0901 0.3291,-0.0627 0.3332,-0.0351 0.3349,-0.007 0.3344,0.0211 0.3314,0.0489 0.3261,0.0765 0.3186,0.1035 0.3089,0.1298 0.2968,0.1552 0.2829,0.1795 0.2668,0.2026 0.249,0.2242 0.2293,0.2442 0.2081,0.2625 0.1854,0.279 0.1614,0.2936 0.1363,0.306 0.1101,0.3164 0.0833,0.3245 0.0559,0.3303 0.028,0.3338 v 0.335 l -0.028,0.3339 -0.0559,0.3303 -0.0833,0.3245 -0.1101,0.3163 -0.1363,0.3061 -0.1614,0.2936 -0.1854,0.279 -0.2081,0.2625 -0.2293,0.2442 -0.249,0.2242 -0.2668,0.2025 -0.2829,0.1795 -0.2968,0.1553 -0.3089,0.1298 -0.3186,0.1035 -0.3261,0.0765 -0.3314,0.0489 -0.3344,0.0211 -0.3349,-0.007 -0.3332,-0.035 -0.3291,-0.0627 -0.3226,-0.0901 -0.314,-0.1168 -0.3031,-0.1426 -0.2902,-0.1675 -0.275,-0.1912 -0.2582,-0.2136 -0.2393,-0.2344 -0.2189,-0.2536 -0.1969,-0.271 -0.1736,-0.2865 -0.1489,-0.3001 -0.1234,-0.3115 -0.0968,-0.3207 -0.0696,-0.3277 -0.042,-0.3323 z m 71.151903,0.1675 v -0.335 l 0.028,-0.3338 0.0559,-0.3303 0.0833,-0.3245 0.1101,-0.3164 0.1363,-0.306 0.1614,-0.2936 0.1854,-0.279 0.2081,-0.2625 0.2293,-0.2442 0.249,-0.2242 0.2668,-0.2026 0.2829,-0.1795 0.2968,-0.1552 0.3089,-0.1298 0.3186,-0.1035 0.3261,-0.0765 0.3314,-0.0489 0.3344,-0.0211 0.3349,0.007 0.3332,0.0351 0.3291,0.0627 0.3226,0.0901 0.314,0.1168 0.3031,0.1426 0.2902,0.1675 0.275,0.1912 0.2582,0.2136 0.2393,0.2344 0.2189,0.2536 0.1969,0.271 0.1736,0.2865 0.1489,0.3001 0.1234,0.3115 0.0968,0.3207 0.0696,0.3277 0.042,0.3323 0.0141,0.3347 -0.0141,0.3348 -0.042,0.3323 -0.0696,0.3277 -0.0968,0.3207 -0.1234,0.3115 -0.1489,0.3001 -0.1736,0.2865 -0.1969,0.271 -0.2189,0.2536 -0.2393,0.2344 -0.2582,0.2136 -0.275,0.1912 -0.2902,0.1675 -0.3031,0.1426 -0.314,0.1168 -0.3226,0.0901 -0.3291,0.0627 -0.3332,0.035 -0.3349,0.007 -0.3344,-0.0211 -0.3314,-0.0489 -0.3261,-0.0765 -0.3186,-0.1035 -0.3089,-0.1298 -0.2968,-0.1553 -0.2829,-0.1795 -0.2668,-0.2025 -0.249,-0.2242 -0.2293,-0.2442 -0.2081,-0.2625 -0.1854,-0.279 -0.1614,-0.2936 -0.1363,-0.3061 -0.1101,-0.3163 -0.0833,-0.3245 -0.0559,-0.3303 z m 2.0346,-126.756501 v -0.335 l 0.028,-0.3339 0.0559,-0.3303 0.0833,-0.3245 0.1102,-0.3163 0.1362,-0.3061 0.1614,-0.2935 0.1854,-0.2791 0.2081,-0.2625 0.2293,-0.2442 0.249,-0.2242 0.2668,-0.2025 0.2829,-0.1795 0.2969,-0.1552 0.3088,-0.1299 0.3186,-0.1035 0.3262,-0.0765 0.3314,-0.0489 0.3343,-0.0211 0.335,0.007 0.3331,0.035 0.3291,0.0627 0.3227,0.0901 0.314,0.1168 0.3031,0.1426 0.2901,0.1675 0.2751,0.1912 0.2581,0.2136 0.2394,0.2344 0.2189,0.2536 0.1969,0.271 0.1735,0.2865 0.149,0.3001 0.1233,0.3115 0.0968,0.3207 0.0697,0.3277 0.042,0.3323 0.014,0.3348 -0.014,0.3347 -0.042,0.3323 -0.0697,0.3277 -0.0968,0.3207 -0.1233,0.3115 -0.149,0.3001 -0.1735,0.2865 -0.1969,0.2711 -0.2189,0.2535 -0.2394,0.2344 -0.2581,0.2136 -0.2751,0.1912 -0.2901,0.1675 -0.3031,0.1426 -0.314,0.1168 -0.3227,0.0901 -0.3291,0.0628 -0.3331,0.035 -0.335,0.007 -0.3343,-0.0211 -0.3314,-0.0489 -0.3262,-0.0765 -0.3186,-0.1035 -0.3088,-0.1298 -0.2969,-0.1552 -0.2829,-0.1795 -0.2668,-0.2026 -0.249,-0.2241 -0.2293,-0.2443 -0.2081,-0.2625 -0.1854,-0.279 -0.1614,-0.2936 -0.1362,-0.306 -0.1102,-0.3164 -0.0833,-0.3245 -0.0559,-0.3303 z m 35.5706,61.4487 0.0141,-0.33471 0.042,-0.33237 0.0696,-0.32768 0.0968,-0.32071 0.1234,-0.31148 0.1489,-0.30007 0.1736,-0.28655 0.1969,-0.27102 0.2189,-0.2536 0.2393,-0.23439 0.2582,-0.21354 0.275,-0.19119 0.2902,-0.16751 0.3031,-0.14264 0.314,-0.11677 0.3226,-0.0901 0.3291,-0.0628 0.3332,-0.035 0.3349,-0.007 0.3344,0.021 0.3314,0.0489 0.3261,0.0765 0.3186,0.10352 0.3089,0.12982 0.2968,0.15521 0.2829,0.1795 0.2668,0.20254 0.249,0.22417 0.2293,0.2442 0.2081,0.26255 0.1854,0.27903 0.1614,0.29357 0.1363,0.30604 0.1101,0.31637 0.0833,0.32448 0.0559,0.33031 0.028,0.33383 v 0.33501 l -0.028,0.33383 -0.0559,0.33031 -0.0833,0.32448 -0.1101,0.31637 -0.1363,0.30605 -0.1614,0.29356 -0.1854,0.27904 -0.2081,0.26254 -0.2293,0.24421 -0.249,0.224161 -0.2668,0.20254 -0.2829,0.17951 -0.2968,0.1552 -0.3089,0.12982 -0.3186,0.10353 -0.3261,0.0765 -0.3314,0.0489 -0.3344,0.021 -0.3349,-0.007 -0.3332,-0.035 -0.3291,-0.0628 -0.3226,-0.0901 -0.314,-0.11677 -0.3031,-0.14264 -0.2902,-0.1675 -0.275,-0.19119 -0.2582,-0.213541 -0.2393,-0.2344 -0.2189,-0.25359 -0.1969,-0.27103 -0.1736,-0.28655 -0.1489,-0.30007 -0.1234,-0.31148 -0.0968,-0.3207 -0.0696,-0.32769 -0.042,-0.33236 z"
       inkscape:connector-curvature="0"
       style="fill:#000000;stroke:#000000;stroke-width:0;stroke-miterlimit:4;stroke-dasharray:none" />
  </g>
</svg>
